<svg width="528" height="420" viewBox="0 0 528 420" fill="none" xmlns="http://www.w3.org/2000/svg">
<g clip-path="url(#clip0_41_131457)">
<path d="M393.869 414.51C386.56 408.334 382.121 398.579 383.285 389.082C384.449 379.585 391.66 370.854 401.013 368.837C410.366 366.821 421.028 372.403 423.869 381.54C425.433 363.925 427.234 345.572 436.6 330.571C445.08 316.988 459.767 307.268 475.686 305.53C491.604 303.791 508.363 310.358 518.291 322.922C528.218 335.486 530.649 353.751 523.696 368.176C518.574 378.802 509.138 386.71 499.25 393.143C467.301 413.757 428.983 422.14 391.345 416.75" fill="#F2F2F2"/>
<path d="M502.55 310.721C489.415 321.419 477.366 333.385 466.575 346.443C449.689 366.811 436.024 389.646 426.057 414.154C425.327 415.942 428.231 416.72 428.952 414.952C445.26 375.122 471.294 340.015 504.673 312.844C506.171 311.624 504.036 309.511 502.55 310.721Z" fill="white"/>
<path d="M129.089 418.736H87.641C86.2405 418.735 84.8978 418.178 83.9074 417.187C82.9171 416.197 82.36 414.854 82.3584 413.454V327.306C82.36 325.906 82.9171 324.563 83.9074 323.572C84.8978 322.582 86.2405 322.025 87.641 322.023H129.089C130.49 322.025 131.833 322.582 132.823 323.572C133.813 324.563 134.37 325.906 134.372 327.306V413.454C134.37 414.854 133.813 416.197 132.823 417.187C131.833 418.178 130.49 418.735 129.089 418.736Z" fill="#2892F3"/>
<path d="M227.428 419.547H185.98C184.364 419.545 182.815 418.903 181.672 417.76C180.529 416.617 179.887 415.068 179.885 413.452V246.033C179.887 244.417 180.529 242.867 181.672 241.725C182.815 240.582 184.364 239.939 185.98 239.938H227.428C229.045 239.939 230.594 240.582 231.737 241.725C232.879 242.867 233.522 244.417 233.524 246.033V413.452C233.522 415.068 232.879 416.617 231.737 417.76C230.594 418.903 229.045 419.545 227.428 419.547ZM185.98 241.563C184.795 241.564 183.659 242.036 182.821 242.874C181.983 243.712 181.512 244.848 181.51 246.033V413.452C181.512 414.637 181.983 415.773 182.821 416.611C183.659 417.449 184.795 417.92 185.98 417.922H227.428C228.614 417.92 229.75 417.449 230.588 416.611C231.426 415.773 231.897 414.637 231.898 413.452V246.033C231.897 244.848 231.426 243.712 230.588 242.874C229.75 242.036 228.614 241.564 227.428 241.563H185.98Z" fill="#3F3D56"/>
<path d="M325.766 419.548H284.318C282.702 419.546 281.153 418.903 280.01 417.761C278.867 416.618 278.224 415.069 278.223 413.452V139.568C278.224 137.952 278.867 136.403 280.01 135.26C281.153 134.117 282.702 133.474 284.318 133.473H325.766C327.382 133.474 328.932 134.117 330.075 135.26C331.217 136.403 331.86 137.952 331.862 139.568V413.452C331.86 415.069 331.217 416.618 330.075 417.761C328.932 418.903 327.382 419.546 325.766 419.548ZM284.318 135.098C283.133 135.099 281.997 135.571 281.159 136.409C280.321 137.247 279.849 138.383 279.848 139.568V413.452C279.849 414.638 280.321 415.774 281.159 416.612C281.997 417.45 283.133 417.921 284.318 417.922H325.766C326.951 417.921 328.088 417.45 328.926 416.612C329.764 415.774 330.235 414.638 330.236 413.452V139.568C330.235 138.383 329.764 137.247 328.926 136.409C328.088 135.571 326.951 135.099 325.766 135.098H284.318Z" fill="#3F3D56"/>
<path d="M425.022 419.143H383.574C382.173 419.142 380.83 418.585 379.84 417.594C378.85 416.604 378.293 415.261 378.291 413.861V27.8217C378.293 26.4212 378.85 25.0784 379.84 24.0881C380.83 23.0978 382.173 22.5407 383.574 22.5391H425.022C426.423 22.5407 427.765 23.0978 428.756 24.0881C429.746 25.0784 430.303 26.4212 430.305 27.8217V413.861C430.303 415.261 429.746 416.604 428.756 417.594C427.765 418.585 426.423 419.142 425.022 419.143Z" fill="#2892F3"/>
<path d="M167.24 180.712C167.391 179.527 167.279 178.323 166.914 177.185C166.549 176.048 165.939 175.004 165.127 174.128C164.314 173.252 163.32 172.564 162.213 172.114C161.107 171.664 159.915 171.461 158.722 171.521L144.274 145.02L141.023 156.398L150.921 180.686C151.155 182.684 152.114 184.527 153.616 185.865C155.117 187.203 157.058 187.944 159.069 187.947C161.081 187.951 163.024 187.216 164.53 185.882C166.036 184.549 167 182.709 167.24 180.712V180.712Z" fill="#A0616A"/>
<path d="M55.9277 285.352L63.9744 291.228L90.4648 262.983L78.5878 254.312L55.9277 285.352Z" fill="#A0616A"/>
<path d="M74.039 310.031L48.7474 291.567L55.8814 281.795L71.4012 293.126C73.9929 295.018 75.7267 297.862 76.2214 301.032C76.7161 304.203 75.9311 307.44 74.0391 310.031L74.039 310.031Z" fill="#2F2E41"/>
<path d="M98.5016 316.452L108.465 316.451L113.205 278.02L98.5 278.02L98.5016 316.452Z" fill="#A0616A"/>
<path d="M127.682 325.703L96.3672 325.705L96.3666 313.606L115.582 313.605C118.791 313.605 121.869 314.879 124.138 317.148C126.407 319.417 127.681 322.494 127.682 325.703Z" fill="#2F2E41"/>
<path d="M128.425 166.557C128.425 166.557 133.302 213.695 121.111 246.203L112.171 307.969H96.7296L98.355 234.825L92.666 169.808C92.666 169.808 104.044 140.55 128.425 166.557Z" fill="#2F2E41"/>
<path d="M75.5998 169.806L91.854 225.883L60.1582 276.272L76.0061 289.681L112.172 233.198L101.607 164.117L75.5998 169.806Z" fill="#2F2E41"/>
<path d="M117.051 44.0589C128.075 44.0589 137.012 35.122 137.012 24.0978C137.012 13.0736 128.075 4.13672 117.051 4.13672C106.027 4.13672 97.0898 13.0736 97.0898 24.0978C97.0898 35.122 106.027 44.0589 117.051 44.0589Z" fill="#A0616A"/>
<path d="M100.386 51.5577C100.386 51.5577 112.577 43.4306 126.393 61.3103L130.051 173.871C130.051 173.871 119.485 159.242 97.542 173.058C75.5987 186.875 70.7224 171.433 70.7224 171.433C70.7224 171.433 55.2809 55.2149 100.386 51.5577Z" fill="#CCCCCC"/>
<path d="M125.411 61.0286C128.917 61.2181 132.23 62.6974 134.711 65.182C137.192 67.6666 138.666 70.9809 138.851 74.4873L141.43 123.485L158.497 169.81L148.744 177.937L117.048 122.672L110.559 77.2471C110.262 75.1651 110.429 73.043 111.051 71.0337C111.672 69.0243 112.73 67.1776 114.151 65.6266C115.571 64.0755 117.318 62.8587 119.265 62.0636C121.212 61.2685 123.311 60.915 125.411 61.0286Z" fill="#CCCCCC"/>
<path d="M102.383 39.0724C105.647 42.5484 111.707 40.6824 112.132 35.9336C112.166 35.5649 112.163 35.1938 112.125 34.8256C111.905 32.7221 110.69 30.8124 110.981 28.5914C111.047 28.0386 111.253 27.5118 111.58 27.0609C114.18 23.5787 120.284 28.6184 122.738 25.4661C124.243 23.5332 122.474 20.4899 123.629 18.3295C125.153 15.4782 129.668 16.8848 132.499 15.3232C135.649 13.5859 135.46 8.75307 133.387 5.81352C130.858 2.22864 126.425 0.315716 122.046 0.0400025C117.668 -0.235711 113.32 0.947876 109.232 2.54084C104.588 4.35076 99.9824 6.85213 97.1243 10.9359C93.6487 15.9021 93.3142 22.5788 95.0524 28.3859C96.1098 31.9184 99.7186 36.2338 102.383 39.0724Z" fill="#2F2E41"/>
<path d="M527.032 419.205H0.967804C0.711643 419.204 0.466221 419.102 0.285351 418.92C0.10448 418.739 0.00292969 418.493 0.00292969 418.237C0.00292969 417.981 0.10448 417.735 0.285351 417.554C0.466221 417.373 0.711643 417.27 0.967804 417.27H527.032C527.289 417.27 527.534 417.373 527.715 417.554C527.896 417.735 527.997 417.981 527.997 418.237C527.997 418.493 527.896 418.739 527.715 418.92C527.534 419.102 527.289 419.204 527.032 419.205Z" fill="#3F3D56"/>
</g>
<defs>
<clipPath id="clip0_41_131457">
<rect width="528" height="419.548" fill="white"/>
</clipPath>
</defs>
</svg>
