<svg width="50" height="50" viewBox="0 0 50 50" fill="none" xmlns="http://www.w3.org/2000/svg">
<path d="M0.309902 24.3027C0.138746 37.724 10.8801 48.7429 24.3014 48.914C37.7227 49.0852 48.7416 38.3438 48.9128 24.9225C49.0839 11.5012 38.3425 0.482344 24.9212 0.311188C11.4999 0.140031 0.481058 10.8814 0.309902 24.3027Z" fill="#2892F3"/>
<path d="M26.0622 34.8208L35.7428 26.4945C36.0054 26.2686 36.2157 25.9883 36.3593 25.6731C36.5029 25.3578 36.5763 25.0152 36.5743 24.6688C36.5724 24.3224 36.4952 23.9806 36.3482 23.667C36.2011 23.3533 35.9876 23.0754 35.7225 22.8524L25.6707 14.3998C25.1854 13.9926 24.5582 13.7948 23.9271 13.8497C23.2959 13.9047 22.7124 14.2079 22.3046 14.6927C21.8969 15.1776 21.6983 15.8045 21.7525 16.4357C21.8066 17.067 22.1091 17.6508 22.5935 18.0592L27.7943 22.4325L15.0022 22.7155C14.3684 22.7295 13.7661 22.9948 13.3278 23.4529C12.8895 23.911 12.6512 24.5245 12.6652 25.1583C12.6792 25.7922 12.9445 26.3945 13.4026 26.8327C13.8607 27.271 14.4741 27.5094 15.108 27.4953L27.5678 27.2197L22.9445 31.1962C22.4639 31.6096 22.1671 32.197 22.1196 32.8293C22.072 33.4615 22.2776 34.0867 22.691 34.5674C23.1045 35.048 23.6919 35.3448 24.3241 35.3923C24.9563 35.4398 25.5816 35.2343 26.0622 34.8208Z" fill="white"/>
</svg>
