<svg width="999" height="480" viewBox="0 0 999 480" fill="none" xmlns="http://www.w3.org/2000/svg">
<g clip-path="url(#clip0_41_131925)">
<path d="M883.503 476.52L886.905 413.237C886.905 413.237 998.5 390.102 998.5 323.417C998.5 256.732 816.137 248.566 797.765 279.187C797.581 279.493 797.399 279.799 797.217 280.105C774.525 318.376 787.337 368.061 825.952 390.162C839.156 397.719 854.899 404.186 873.296 407.793L872 475.02" fill="#CCCCCC"/>
<path d="M780 131.02C814.794 131.02 843 102.813 843 68.0195C843 33.2256 814.794 5.01953 780 5.01953C745.206 5.01953 717 33.2256 717 68.0195C717 102.813 745.206 131.02 780 131.02Z" fill="#2892F3"/>
<path d="M687.059 461.517L616.005 456.988L612.174 137.487C612.081 129.732 615.173 122.138 620.657 116.654L696.778 40.5334C707.434 29.8786 724.205 29.1086 735.791 38.7467L818.399 107.465C825.138 113.071 828.944 121.314 828.84 130.079L826.002 370.36L861.906 420.226L861.982 420.332L868.066 473.055L687.059 461.517V461.517Z" fill="#E6E6E6"/>
<path d="M699 114.927V100.112C699 96.2012 702.182 93.0195 706.092 93.0195H726.908C730.819 93.0195 734 96.2012 734 100.112V114.927C734 118.838 730.819 122.02 726.908 122.02H706.092C702.182 122.02 699 118.838 699 114.927Z" fill="#2892F3"/>
<path d="M655 229.927V175.112C655 171.201 658.182 168.02 662.092 168.02H692.908C696.819 168.02 700 171.201 700 175.112V229.927C700 233.838 696.819 237.02 692.908 237.02H662.092C658.182 237.02 655 233.838 655 229.927Z" fill="#3F3D56"/>
<path d="M724.656 358.236C720.932 358.104 717.928 355.082 717.818 351.356L716.26 298.375C716.194 296.113 717.173 294.012 718.946 292.606C720.719 291.202 722.99 290.733 725.177 291.313L726.735 291.729C729.835 292.557 732 295.374 732 298.582V351.148C732 353.09 731.23 354.902 729.833 356.251C728.498 357.54 726.761 358.24 724.915 358.24C724.829 358.24 724.743 358.239 724.657 358.236L724.656 358.236Z" fill="#3F3D56"/>
<path d="M630.166 356.251C628.769 354.902 628 353.09 628 351.148V298.582C628 295.374 630.165 292.557 633.265 291.729L634.823 291.313C637.011 290.733 639.281 291.202 641.054 292.606C642.827 294.011 643.806 296.113 643.74 298.375L642.182 351.356C642.072 355.082 639.068 358.104 635.343 358.236C635.257 358.239 635.171 358.24 635.085 358.24C633.24 358.24 631.501 357.539 630.167 356.251H630.166Z" fill="#3F3D56"/>
<path d="M660 350.928V295.954C660 292.073 663.04 288.959 666.919 288.863L694.928 288.18C698.81 288.127 702.077 291.174 702.19 295.065L703.804 350.722C703.859 352.655 703.149 354.483 701.801 355.87C700.454 357.257 698.647 358.02 696.714 358.02H667.092C663.182 358.02 660 354.839 660 350.928H660Z" fill="#3F3D56"/>
<path d="M825.548 388.493L847.5 427.52L850.02 471.41L867.5 472.52L861.5 420.52L825.5 370.52C822.393 376.112 822.411 382.917 825.548 388.493Z" fill="#CCCCCC"/>
<path d="M849.318 458.846L778.069 459.82L778.083 460.82L849.332 459.846L849.318 458.846Z" fill="#3F3D56"/>
<path d="M844.996 450.019L777.441 450.547L777.449 451.547L845.004 451.019L844.996 450.019Z" fill="#3F3D56"/>
<path d="M841.49 441.004L776.87 442.266L776.89 443.266L841.509 442.004L841.49 441.004Z" fill="#3F3D56"/>
<path d="M839.483 432.033L777.428 434.094L777.461 435.094L839.517 433.033L839.483 432.033Z" fill="#3F3D56"/>
<path d="M836.483 424.048L776.861 426.145L776.896 427.145L836.519 425.048L836.483 424.048Z" fill="#3F3D56"/>
<path d="M832.5 417.02H774.429V418.02H832.5V417.02Z" fill="#3F3D56"/>
<path d="M829.494 410.003L773.058 410.664L773.069 411.664L829.505 411.003L829.494 410.003Z" fill="#3F3D56"/>
<path d="M826.483 403.008L771.797 404.824L771.83 405.824L826.516 404.008L826.483 403.008Z" fill="#3F3D56"/>
<path d="M824.491 396.043L770.49 396.992L770.508 397.992L824.509 397.043L824.491 396.043Z" fill="#3F3D56"/>
<path d="M820.483 389.119L768.777 390.734L768.809 391.734L820.515 390.119L820.483 389.119Z" fill="#3F3D56"/>
<path d="M818.495 383.019L767.245 383.52L767.255 384.52L818.505 384.019L818.495 383.019Z" fill="#3F3D56"/>
<path d="M763.5 362.428V294.612C763.5 290.701 766.682 287.52 770.592 287.52H803.408C807.319 287.52 810.5 290.701 810.5 294.612V362.428C810.5 366.338 807.319 369.52 803.408 369.52H770.592C766.682 369.52 763.5 366.338 763.5 362.428Z" fill="#2892F3"/>
<path d="M687.059 461.519L628.968 457.818L628.5 457.788V412.831C628.5 407.146 633.125 402.52 638.811 402.52H696.189C701.875 402.52 706.5 407.146 706.5 412.831V461.52H706L687.059 461.519H687.059Z" fill="#CCCCCC"/>
<path d="M767.5 239.428V187.612C767.5 183.701 770.682 180.52 774.592 180.52H785.408C789.319 180.52 792.5 183.701 792.5 187.612V239.428C792.5 243.338 789.319 246.52 785.408 246.52H774.592C770.682 246.52 767.5 243.338 767.5 239.428Z" fill="#3F3D56"/>
<path d="M778.5 466.52L775.5 422.52L766.5 380.52L764 369.02C758.863 365.527 751.945 369.413 752.255 375.618L752.5 380.52L761.5 422.52L764.5 466.52" fill="#CCCCCC"/>
<path d="M438.058 445.518L367.006 440.988L363.174 121.487C363.081 113.732 366.173 106.139 371.657 100.654L447.778 24.5337C458.434 13.8774 475.205 13.1094 486.791 22.7471L569.399 91.4653C576.138 97.0713 579.944 105.314 579.84 114.08L577.002 354.36L612.906 404.227L612.982 404.332L619.066 457.056L438.058 445.518V445.518Z" fill="#E6E6E6"/>
<path d="M450 98.9272V84.1118C450 80.2012 453.182 77.0195 457.093 77.0195H477.908C481.819 77.0195 485 80.2012 485 84.1118V98.9272C485 102.838 481.819 106.02 477.908 106.02H457.093C453.182 106.02 450 102.838 450 98.9272Z" fill="#2892F3"/>
<path d="M406 213.927V159.112C406 155.201 409.182 152.02 413.093 152.02H443.908C447.818 152.02 451 155.201 451 159.112V213.927C451 217.838 447.818 221.02 443.908 221.02H413.093C409.182 221.02 406 217.838 406 213.927Z" fill="#3F3D56"/>
<path d="M470.567 277.391C469.044 278.597 468.203 280.403 468.261 282.346L469.818 335.327C469.913 338.527 472.493 341.123 475.692 341.236C477.374 341.304 478.939 340.689 480.139 339.531C481.339 338.373 482 336.816 482 335.148V282.582C482 279.826 480.14 277.406 477.477 276.696L475.919 276.28C475.391 276.14 474.858 276.07 474.33 276.07C472.978 276.07 471.663 276.523 470.567 277.391Z" fill="#3F3D56"/>
<path d="M381.166 340.251C379.77 338.902 379 337.09 379 335.148V282.582C379 279.374 381.165 276.557 384.265 275.729L385.823 275.313C388.007 274.733 390.28 275.202 392.054 276.606C393.828 278.012 394.807 280.114 394.74 282.375L393.182 335.356C393.072 339.082 390.069 342.104 386.344 342.236C386.258 342.239 386.171 342.24 386.085 342.24C384.24 342.24 382.502 341.539 381.166 340.251Z" fill="#3F3D56"/>
<path d="M411 334.926V279.951C411 276.07 414.039 272.956 417.92 272.86L445.928 272.178C445.987 272.177 446.045 272.176 446.104 272.176C449.917 272.176 453.079 275.229 453.19 279.062L454.804 334.72C454.859 336.652 454.148 338.48 452.801 339.867C451.454 341.254 449.647 342.018 447.714 342.018H418.093C414.182 342.018 411 338.836 411 334.926Z" fill="#3F3D56"/>
<path d="M576.548 372.493L598.5 411.52L601.02 455.41L618.5 456.52L612.5 404.52L576.5 354.52C573.393 360.112 573.411 366.917 576.548 372.493Z" fill="#CCCCCC"/>
<path d="M600.318 442.846L529.069 443.82L529.083 444.82L600.332 443.846L600.318 442.846Z" fill="#3F3D56"/>
<path d="M595.996 434.019L528.441 434.547L528.449 435.547L596.004 435.019L595.996 434.019Z" fill="#3F3D56"/>
<path d="M592.49 425.004L527.87 426.266L527.89 427.266L592.509 426.004L592.49 425.004Z" fill="#3F3D56"/>
<path d="M590.483 416.033L528.428 418.094L528.461 419.094L590.517 417.033L590.483 416.033Z" fill="#3F3D56"/>
<path d="M587.483 408.048L527.861 410.145L527.896 411.145L587.519 409.048L587.483 408.048Z" fill="#3F3D56"/>
<path d="M583.5 401.02H525.429V402.02H583.5V401.02Z" fill="#3F3D56"/>
<path d="M580.494 394.003L524.058 394.664L524.069 395.664L580.505 395.003L580.494 394.003Z" fill="#3F3D56"/>
<path d="M577.483 387.008L522.797 388.824L522.83 389.824L577.516 388.008L577.483 387.008Z" fill="#3F3D56"/>
<path d="M575.491 380.043L521.49 380.992L521.508 381.992L575.509 381.043L575.491 380.043Z" fill="#3F3D56"/>
<path d="M571.483 373.119L519.777 374.734L519.809 375.734L571.515 374.119L571.483 373.119Z" fill="#3F3D56"/>
<path d="M569.495 367.019L518.245 367.52L518.255 368.52L569.505 368.019L569.495 367.019Z" fill="#3F3D56"/>
<path d="M514.5 346.428V278.612C514.5 274.701 517.682 271.52 521.592 271.52H554.408C558.319 271.52 561.5 274.701 561.5 278.612V346.428C561.5 350.338 558.319 353.52 554.408 353.52H521.592C517.682 353.52 514.5 350.338 514.5 346.428Z" fill="#2892F3"/>
<path d="M438.058 445.519L379.968 441.818L379.5 441.788V396.831C379.5 391.146 384.126 386.52 389.812 386.52H447.189C452.875 386.52 457.5 391.146 457.5 396.831V445.52H457L438.058 445.519Z" fill="#CCCCCC"/>
<path d="M518.5 223.427V171.612C518.5 167.701 521.682 164.52 525.592 164.52H536.408C540.319 164.52 543.5 167.701 543.5 171.612V223.427C543.5 227.338 540.319 230.52 536.408 230.52H525.592C521.682 230.52 518.5 227.338 518.5 223.427Z" fill="#3F3D56"/>
<path d="M529.5 450.52L526.5 406.52L517.5 364.52L515 353.02C509.863 349.527 502.945 353.413 503.255 359.618L503.5 364.52L512.5 406.52L515.5 450.52" fill="#CCCCCC"/>
<path d="M189.058 429.517L118.006 424.988L114.174 105.487C114.081 97.732 117.173 90.1383 122.657 84.6539L198.778 8.53331C209.434 -2.12245 226.206 -2.89052 237.79 6.74669L320.399 75.465C327.138 81.0709 330.943 89.3136 330.84 98.0792L328.002 338.36L363.906 388.226L363.982 388.332L370.066 441.055L189.058 429.517L189.058 429.517Z" fill="#E6E6E6"/>
<path d="M201 82.9272V68.1118C201 64.2012 204.182 61.0195 208.093 61.0195H228.908C232.818 61.0195 236 64.2012 236 68.1118V82.9272C236 86.8379 232.818 90.0195 228.908 90.0195H208.093C204.182 90.0195 201 86.8379 201 82.9272Z" fill="#2892F3"/>
<path d="M157 197.927V143.112C157 139.201 160.182 136.02 164.093 136.02H194.908C198.818 136.02 202 139.201 202 143.112V197.927C202 201.838 198.818 205.02 194.908 205.02H164.093C160.182 205.02 157 201.838 157 197.927Z" fill="#3F3D56"/>
<path d="M226.657 326.237C222.933 326.105 219.929 323.082 219.819 319.357L218.261 266.375C218.195 264.114 219.173 262.011 220.947 260.607C222.72 259.202 224.99 258.733 227.177 259.314L228.736 259.73C231.835 260.557 234 263.374 234 266.582V319.149C234 321.09 233.231 322.903 231.834 324.251C230.498 325.54 228.761 326.241 226.916 326.241C226.83 326.241 226.743 326.24 226.657 326.237L226.657 326.237Z" fill="#3F3D56"/>
<path d="M135.394 260.212L136.952 259.797C141.215 258.66 145.37 261.95 145.24 266.36L143.682 319.342C143.579 322.815 140.799 325.613 137.326 325.736H137.326C133.596 325.868 130.5 322.88 130.5 319.148V266.582C130.5 263.595 132.508 260.982 135.394 260.212V260.212Z" fill="#3F3D56"/>
<path d="M162 318.925V263.95C162 260.069 165.039 256.955 168.92 256.859L196.928 256.177C200.83 256.114 204.077 259.17 204.19 263.061L205.804 318.719C205.859 320.651 205.148 322.479 203.801 323.866C202.454 325.253 200.647 326.017 198.714 326.017H169.093C165.182 326.017 162 322.835 162 318.925H162Z" fill="#3F3D56"/>
<path d="M327.548 356.493L349.5 395.52L352.02 439.41L369.5 440.52L363.5 388.52L327.5 338.52C324.393 344.112 324.411 350.917 327.548 356.493Z" fill="#CCCCCC"/>
<path d="M351.318 426.846L280.069 427.82L280.083 428.82L351.332 427.846L351.318 426.846Z" fill="#3F3D56"/>
<path d="M346.996 418.019L279.441 418.547L279.449 419.547L347.004 419.019L346.996 418.019Z" fill="#3F3D56"/>
<path d="M343.49 409.004L278.87 410.266L278.89 411.266L343.509 410.004L343.49 409.004Z" fill="#3F3D56"/>
<path d="M341.483 400.033L279.428 402.094L279.461 403.094L341.517 401.033L341.483 400.033Z" fill="#3F3D56"/>
<path d="M338.483 392.048L278.861 394.145L278.896 395.145L338.519 393.048L338.483 392.048Z" fill="#3F3D56"/>
<path d="M334.5 385.02H276.429V386.02H334.5V385.02Z" fill="#3F3D56"/>
<path d="M331.494 378.003L275.058 378.664L275.069 379.664L331.505 379.003L331.494 378.003Z" fill="#3F3D56"/>
<path d="M328.483 371.008L273.797 372.824L273.83 373.824L328.516 372.008L328.483 371.008Z" fill="#3F3D56"/>
<path d="M326.491 364.043L272.49 364.992L272.508 365.992L326.509 365.043L326.491 364.043Z" fill="#3F3D56"/>
<path d="M322.483 357.119L270.777 358.734L270.809 359.734L322.515 358.119L322.483 357.119Z" fill="#3F3D56"/>
<path d="M320.495 351.019L269.245 351.52L269.255 352.52L320.505 352.019L320.495 351.019Z" fill="#3F3D56"/>
<path d="M265.5 330.428V262.612C265.5 258.701 268.682 255.52 272.593 255.52H305.408C309.318 255.52 312.5 258.701 312.5 262.612V330.428C312.5 334.338 309.318 337.52 305.408 337.52H272.593C268.682 337.52 265.5 334.338 265.5 330.428Z" fill="#2892F3"/>
<path d="M189.058 429.519L130.968 425.818L130.5 425.788V380.831C130.5 375.146 135.126 370.52 140.812 370.52H198.189C203.875 370.52 208.5 375.146 208.5 380.831V429.52H208L189.058 429.519Z" fill="#CCCCCC"/>
<path d="M269.5 207.427V155.612C269.5 151.701 272.682 148.52 276.593 148.52H287.408C291.318 148.52 294.5 151.701 294.5 155.612V207.427C294.5 211.338 291.318 214.52 287.408 214.52H276.593C272.682 214.52 269.5 211.338 269.5 207.427Z" fill="#3F3D56"/>
<path d="M280.5 434.52L277.5 390.52L268.5 348.52L266 337.02C260.863 333.527 253.945 337.413 254.255 343.618L254.5 348.52L263.5 390.52L266.5 434.52" fill="#CCCCCC"/>
<path d="M97.5027 423.52L100.905 360.237C100.905 360.237 212.5 337.102 212.5 270.417C212.5 203.732 30.1374 195.566 11.7651 226.187C11.5814 226.493 11.3988 226.799 11.2173 227.105C-11.4753 265.376 1.33666 315.061 39.9517 337.162C53.1559 344.719 68.8993 351.186 87.2959 354.793L86 422.02" fill="#CCCCCC"/>
<path d="M25.1914 418.156L25.0625 420.152L934.942 478.912L935.071 476.916L25.1914 418.156Z" fill="#CCCCCC"/>
</g>
<defs>
<clipPath id="clip0_41_131925">
<rect width="998.5" height="479.016" fill="white"/>
</clipPath>
</defs>
</svg>
