<svg width="411" height="336" viewBox="0 0 411 336" fill="none" xmlns="http://www.w3.org/2000/svg">
<g clip-path="url(#clip0_41_132034)">
<path d="M237.944 0L238.134 0.916832L82.2783 1.12059C37.4133 1.12059 1.0433 40.1732 1.0433 88.3475V191.061H-0.000305176V12.7131C-0.000305176 5.69186 5.30055 0 11.8395 0H237.944Z" fill="#E6E6E6"/>
<path d="M66.2862 43.7384C63.8491 43.7384 61.8735 41.5697 61.8735 38.8946C61.8735 36.2194 63.8491 34.0508 66.2862 34.0508C68.7233 34.0508 70.699 36.2194 70.699 38.8946C70.699 41.5697 68.7233 43.7384 66.2862 43.7384Z" fill="#3F3D56"/>
<path d="M81.5297 43.7345C79.0926 43.7345 77.1169 41.5658 77.1169 38.8907C77.1169 36.2155 79.0926 34.0469 81.5297 34.0469C83.9667 34.0469 85.9424 36.2155 85.9424 38.8907C85.9424 41.5658 83.9667 43.7345 81.5297 43.7345Z" fill="#3F3D56"/>
<path d="M96.7733 43.7345C94.3362 43.7345 92.3606 41.5658 92.3606 38.8907C92.3606 36.2155 94.3362 34.0469 96.7733 34.0469C99.2104 34.0469 101.186 36.2155 101.186 38.8907C101.186 41.5658 99.2104 43.7345 96.7733 43.7345Z" fill="#3F3D56"/>
<path d="M132.884 112.152H194.6C196.717 112.152 198.439 110.303 198.439 108.029C198.439 105.756 196.717 103.906 194.6 103.906H132.884C130.766 103.906 129.044 105.756 129.044 108.029C129.044 110.303 130.766 112.152 132.884 112.152Z" fill="#E6E6E6"/>
<path d="M84.7202 126.109H194.6C196.717 126.109 198.439 124.26 198.439 121.986C198.439 119.713 196.717 117.863 194.6 117.863H84.7202C82.603 117.863 80.8804 119.713 80.8804 121.986C80.8804 124.26 82.603 126.109 84.7202 126.109Z" fill="#E6E6E6"/>
<path d="M63.9278 147.785H215.393C218.662 147.785 221.323 144.928 221.323 141.417V88.5984C221.323 85.0872 218.662 82.2305 215.393 82.2305H63.9278C60.6578 82.2305 57.9973 85.0872 57.9973 88.5984V141.417C57.9973 144.928 60.6578 147.785 63.9278 147.785ZM215.393 83.3511C218.087 83.3511 220.279 85.705 220.279 88.5984V141.417C220.279 144.311 218.087 146.665 215.393 146.665H63.9278C61.2331 146.665 59.0409 144.311 59.0409 141.417V88.5984C59.0409 85.705 61.2331 83.3511 63.9278 83.3511H215.393Z" fill="#3F3D56"/>
<path d="M61.052 161.925C53.8473 161.925 48.0068 155.654 48.0068 147.918C48.0068 140.181 53.8473 133.91 61.052 133.91C68.2566 133.91 74.0972 140.181 74.0972 147.918C74.0972 155.654 68.2566 161.925 61.052 161.925Z" fill="#2892F3"/>
<path d="M57.8563 143.424C58.8998 142.073 60.6418 141.275 62.2604 141.783C63.743 142.248 64.9768 143.756 64.8385 145.476C64.7743 146.274 64.4713 147.041 63.9505 147.621C63.3623 148.275 62.6126 148.501 61.79 148.576C60.9125 148.655 60.1593 148.795 59.5748 149.572C59.0666 150.247 58.9078 151.143 59.199 151.959C59.891 153.9 62.3387 154.126 63.3621 152.381C63.7637 151.696 64.78 152.328 64.3759 153.017C63.5415 154.44 61.8451 155.223 60.3203 154.691C58.8373 154.174 57.7483 152.523 57.8862 150.834C58.0294 149.081 59.3295 147.636 60.9451 147.398C61.7961 147.273 62.6866 147.373 63.2623 146.555C63.7122 145.916 63.8088 145.032 63.4687 144.316C63.0537 143.442 62.1509 142.893 61.2472 142.891C60.2211 142.889 59.3247 143.489 58.6864 144.316C58.2038 144.941 57.3773 144.045 57.8563 143.424Z" fill="white"/>
<path d="M62.4233 139.249L62.9875 156.881C63.0048 157.422 62.2221 157.421 62.2048 156.881L61.6406 139.249C61.6233 138.708 62.406 138.709 62.4233 139.249Z" fill="white"/>
<path d="M60.5981 139.249L61.1623 156.881C61.1796 157.422 60.3969 157.421 60.3796 156.881L59.8154 139.249C59.7981 138.708 60.5808 138.709 60.5981 139.249Z" fill="white"/>
<path d="M361.583 328.722L356.04 328.721L353.404 305.766L361.584 305.766L361.583 328.722Z" fill="#A0616A"/>
<path d="M361.779 334.931L344.735 334.93V334.698C344.735 330.764 347.705 327.575 351.369 327.575H351.369L354.483 325.039L360.291 327.576L361.779 327.576L361.779 334.931H361.779Z" fill="#2F2E41"/>
<path d="M327.712 328.722L322.169 328.721L319.533 305.766L327.713 305.766L327.712 328.722Z" fill="#A0616A"/>
<path d="M327.908 334.931L310.864 334.93V334.698C310.864 330.764 313.834 327.575 317.498 327.575H317.498L320.612 325.039L326.42 327.576L327.908 327.576L327.908 334.931H327.908Z" fill="#2F2E41"/>
<path d="M366.481 182.685L315.794 181.172L316.119 211.877L318.793 247.769C318.793 247.769 312.554 274.089 317.902 300.41L318.348 320.509L332.609 319.552C332.609 319.552 335.061 280.071 331.941 265.236L341.3 211.638L350.214 263.8C350.214 263.8 348.877 293.949 352.442 305.913V317.189H362.526C362.526 317.189 373.389 277.678 365.367 257.579L366.481 182.685L366.481 182.685Z" fill="#2F2E41"/>
<path d="M330.024 93.4588C330.024 93.4588 331.392 89.7738 332.413 88.1289C339.562 88.1289 340.47 88.6561 346.71 88.1289L364.032 187.988C364.032 187.988 373.555 196.605 363.098 196.605C352.641 196.605 337.563 193.472 333.429 195.822C329.294 198.172 316.162 194.516 316.162 194.516L330.024 93.4588Z" fill="#2892F3"/>
<path d="M346.425 87.9336L352.837 95.2594L357.073 95.3195C360.99 95.3751 364.129 98.8177 364.099 103.024L362.771 144.988C362.771 144.988 374.772 184.909 366.746 186.476L368.205 192.482L352.811 202.666C352.811 202.666 348.142 175.848 347.412 169.842C346.682 163.836 343.057 129.989 343.057 129.989C343.057 129.989 343.764 102.146 344.25 99.5663L346.425 87.9336Z" fill="#2F2E41"/>
<path d="M332.213 88.2383L335.374 105.734L327.349 151.954C327.349 151.954 329.294 194.78 323.214 198.958L313.633 196.294L314.363 187.938C314.363 187.938 313.487 185.901 313.973 178.067C314.459 170.233 317.326 155.953 317.326 155.953L313.081 103.906C313.081 103.906 323.701 93.1998 328.321 94.5054L332.213 88.2383H332.213Z" fill="#2F2E41"/>
<path d="M384.617 186.607L383.629 172.361L375.971 171.832L377.515 186.854C377.268 187.231 377.066 187.653 376.925 188.114C376.156 190.622 377.427 193.325 379.763 194.151C382.099 194.976 384.616 193.612 385.385 191.104C385.875 189.504 385.533 187.827 384.617 186.607L384.617 186.607Z" fill="#A0616A"/>
<path d="M355.13 95.4883L359.164 95.56C362.146 95.613 364.781 97.6559 365.767 100.678L380.884 147.048L382.454 155.694C382.454 155.694 389.706 174.366 386.987 177.19L385.69 182.391L376.074 182.22L376.14 177.959C376.14 177.959 373.203 177.663 373.217 173.909C373.217 173.909 365.607 159.834 367.621 155.43L362.437 144.63L355.13 95.4883Z" fill="#2F2E41"/>
<path d="M260.678 168.514L270.437 158.805L276.38 164.017L265.722 173.888C265.664 174.345 265.544 174.801 265.355 175.242C264.327 177.641 261.682 178.692 259.448 177.588C257.214 176.484 256.236 173.645 257.264 171.245C257.919 169.715 259.233 168.738 260.678 168.514Z" fill="#A0616A"/>
<path d="M319.247 98.7344L324.142 119.038L306.999 144.334L301.418 150.79C301.418 150.79 277.38 170.956 273.652 170.261L268.975 172.201L263.438 163.757L266.683 161.304C266.683 161.304 265.175 158.582 268.008 156.382C268.008 156.382 288.376 138.615 292.876 137.767L297.948 126.905L313.445 103.724L319.247 98.7344Z" fill="#2F2E41"/>
<path d="M330.91 83.7462C330.977 83.8038 331.039 83.8469 331.106 83.89C331.624 84.259 332.164 84.5897 332.731 84.8725C332.74 84.882 332.753 84.8868 332.766 84.8916C333.788 85.4092 334.891 85.7974 336.056 86.0274C337.247 86.2623 338.43 86.3246 339.582 86.2239C345.513 85.7207 350.619 81.0098 351.753 74.4297C352.132 72.2348 352.025 70.0686 351.521 68.051C350.213 62.8368 346.227 58.629 340.952 57.5795C333.637 56.1274 326.612 61.3176 325.259 69.1724C324.259 74.9808 326.643 80.6216 330.91 83.7462L330.91 83.7462Z" fill="#A0616A"/>
<path d="M346.711 83.3913L345.898 79.3618C345.898 79.3618 348.11 77.2945 345.898 75.3722L344.694 74.5325H342.856L341.669 68.0368L334.108 67.4954C334.108 67.4954 326.546 65.8715 325.537 63.1649C325.537 63.1649 328.058 62.6236 327.554 60.4583C327.554 60.4583 333.603 52.3386 339.149 54.5038C344.694 56.6691 346.711 58.8344 346.711 58.8344C346.711 58.8344 355.785 57.2104 355.785 69.1194C355.785 81.0283 346.711 83.3913 346.711 83.3913V83.3913Z" fill="#2F2E41"/>
<path d="M263.823 187.355H279.058C280.71 187.355 282.054 185.912 282.054 184.138V152.88C282.054 151.107 280.71 149.664 279.058 149.664H263.823C262.172 149.664 260.828 151.107 260.828 152.88V184.138C260.828 185.912 262.172 187.355 263.823 187.355Z" fill="#3F3D56"/>
<path d="M260.83 161.16C260.899 161.16 260.956 161.221 260.956 161.296V165.65C260.956 165.725 260.899 165.786 260.83 165.786C260.76 165.786 260.703 165.725 260.703 165.65V161.296C260.703 161.221 260.76 161.16 260.83 161.16Z" fill="#3F3D56"/>
<path d="M261.115 152.879V184.137C261.115 185.68 262.234 186.943 263.649 187.041H263.649C263.67 187.042 263.691 187.044 263.713 187.044C263.75 187.047 263.787 187.047 263.825 187.047C263.825 187.047 263.965 187.036 264.219 187.016C264.477 186.996 264.851 186.965 265.318 186.925C265.458 186.913 265.606 186.9 265.762 186.887C266.072 186.859 266.413 186.83 266.779 186.795C266.924 186.783 267.075 186.768 267.229 186.754C268.016 186.681 268.897 186.596 269.827 186.5C269.984 186.484 270.142 186.468 270.302 186.451C270.344 186.446 270.386 186.442 270.429 186.437C271.092 186.367 271.773 186.291 272.456 186.211C272.499 186.206 272.541 186.202 272.583 186.197C273.761 186.057 274.943 185.906 276.049 185.742C276.9 185.617 277.706 185.485 278.43 185.348C278.666 185.304 278.892 185.259 279.109 185.213C279.152 185.204 279.194 185.195 279.236 185.186C280.767 184.857 281.77 184.501 281.77 184.137V152.879C281.77 151.272 280.557 149.969 279.06 149.969H277.441C277.183 149.969 276.975 150.185 276.953 150.462C276.951 150.48 276.949 150.499 276.946 150.517C276.899 150.795 276.662 150.989 276.398 150.989H266.487C266.224 150.989 265.986 150.795 265.939 150.517C265.936 150.499 265.934 150.48 265.932 150.462C265.91 150.185 265.702 149.969 265.444 149.969H263.825C262.328 149.969 261.115 151.272 261.115 152.879Z" fill="#2892F3"/>
<path d="M282.119 157.895C282.188 157.895 282.245 157.956 282.245 158.031V159.119C282.245 159.194 282.188 159.255 282.119 159.255C282.049 159.255 281.992 159.194 281.992 159.119V158.031C281.992 157.956 282.049 157.895 282.119 157.895Z" fill="#3F3D56"/>
<path d="M282.119 161.16C282.188 161.16 282.245 161.221 282.245 161.296V163.405C282.245 163.48 282.188 163.541 282.119 163.541C282.049 163.541 281.992 163.48 281.992 163.405V161.296C281.992 161.221 282.049 161.16 282.119 161.16Z" fill="#3F3D56"/>
<path d="M282.119 164.156C282.188 164.156 282.245 164.217 282.245 164.292V166.401C282.245 166.476 282.188 166.537 282.119 166.537C282.049 166.537 281.992 166.476 281.992 166.401V164.292C281.992 164.217 282.049 164.156 282.119 164.156Z" fill="#3F3D56"/>
<path d="M277.619 150.445H279.773C279.86 150.445 279.931 150.521 279.931 150.615C279.931 150.709 279.86 150.785 279.773 150.785H277.619C277.531 150.785 277.46 150.709 277.46 150.615C277.46 150.521 277.531 150.445 277.619 150.445Z" fill="#3F3D56"/>
<path d="M265.043 150.786C264.903 150.786 264.789 150.665 264.789 150.514C264.789 150.364 264.903 150.242 265.043 150.242C265.183 150.242 265.296 150.364 265.296 150.514C265.296 150.665 265.183 150.786 265.043 150.786Z" fill="#3F3D56"/>
<path d="M264.346 150.786C264.206 150.786 264.092 150.665 264.092 150.514C264.092 150.364 264.206 150.242 264.346 150.242C264.486 150.242 264.599 150.364 264.599 150.514C264.599 150.665 264.486 150.786 264.346 150.786Z" fill="#3F3D56"/>
<path d="M263.648 150.786C263.508 150.786 263.394 150.665 263.394 150.514C263.394 150.364 263.508 150.242 263.648 150.242C263.788 150.242 263.901 150.364 263.901 150.514C263.901 150.665 263.788 150.786 263.648 150.786Z" fill="#3F3D56"/>
<path d="M271.104 177.423C266.674 177.423 263.082 173.567 263.082 168.809C263.082 164.052 266.674 160.195 271.104 160.195C275.535 160.195 279.127 164.052 279.127 168.809C279.127 173.567 275.535 177.423 271.104 177.423Z" fill="white"/>
<path d="M269.14 166.046C269.782 165.214 270.853 164.724 271.848 165.036C272.76 165.322 273.519 166.249 273.434 167.307C273.394 167.798 273.208 168.27 272.888 168.626C272.526 169.029 272.065 169.168 271.559 169.213C271.019 169.262 270.556 169.348 270.197 169.826C269.884 170.241 269.787 170.792 269.966 171.294C270.391 172.488 271.896 172.627 272.526 171.553C272.773 171.132 273.398 171.521 273.149 171.945C272.636 172.82 271.593 173.301 270.655 172.974C269.743 172.656 269.073 171.641 269.158 170.602C269.246 169.524 270.046 168.635 271.039 168.489C271.563 168.412 272.11 168.474 272.464 167.971C272.741 167.578 272.8 167.034 272.591 166.594C272.336 166.056 271.781 165.719 271.225 165.717C270.594 165.716 270.043 166.085 269.65 166.594C269.354 166.978 268.845 166.427 269.14 166.046V166.046Z" fill="#2892F3"/>
<path d="M271.948 163.48L272.295 174.323C272.305 174.655 271.824 174.655 271.813 174.323L271.466 163.48C271.456 163.147 271.937 163.148 271.948 163.48Z" fill="#2892F3"/>
<path d="M270.825 163.48L271.172 174.323C271.183 174.655 270.701 174.655 270.691 174.323L270.344 163.48C270.333 163.147 270.815 163.148 270.825 163.48Z" fill="#2892F3"/>
<path d="M383.294 326.498C384.349 326.569 384.932 325.161 384.134 324.341L384.055 324.002C384.065 323.975 384.076 323.948 384.086 323.921C385.153 321.189 388.769 321.208 389.826 323.944C390.765 326.372 391.961 328.804 392.255 331.371C392.387 332.504 392.327 333.658 392.093 334.77C394.293 329.611 395.451 323.977 395.451 318.31C395.451 316.887 395.378 315.463 395.23 314.043C395.108 312.882 394.939 311.727 394.722 310.583C393.544 304.4 390.995 298.511 387.318 293.592C385.55 292.555 384.076 290.933 383.185 288.989C382.865 288.287 382.615 287.533 382.496 286.765C382.697 286.793 383.255 283.503 383.103 283.301C383.383 282.845 383.885 282.617 384.191 282.172C385.714 279.955 387.812 280.342 388.907 283.354C391.247 284.622 391.27 286.725 389.834 288.748C388.921 290.035 388.795 291.776 387.994 293.153C388.076 293.266 388.162 293.376 388.244 293.49C389.756 295.572 391.064 297.81 392.167 300.161C391.855 297.548 392.315 294.4 393.099 292.371C393.992 290.058 395.665 288.111 397.138 286.112C398.908 283.711 402.537 284.759 402.849 287.802C402.852 287.832 402.855 287.861 402.858 287.891C402.639 288.023 402.425 288.164 402.215 288.313C401.021 289.161 401.434 291.15 402.849 291.384L402.881 291.39C402.802 292.236 402.667 293.075 402.469 293.9C404.359 301.75 400.278 304.608 394.451 304.737C394.323 304.808 394.197 304.878 394.069 304.946C394.659 306.73 395.131 308.561 395.48 310.417C395.794 312.057 396.011 313.714 396.133 315.378C396.285 317.478 396.272 319.589 396.107 321.685L396.117 321.611C396.536 319.302 397.703 317.145 399.398 315.651C401.924 313.423 405.491 312.603 408.216 310.813C409.527 309.951 411.208 311.065 410.979 312.697L410.968 312.775C410.562 312.952 410.166 313.158 409.784 313.388C409.565 313.521 409.351 313.661 409.141 313.81C407.947 314.659 408.359 316.647 409.775 316.882L409.807 316.887C409.83 316.89 409.85 316.894 409.873 316.898C409.177 318.672 408.207 320.318 406.994 321.738C405.812 328.59 400.736 329.24 395.306 327.245H395.302C394.709 330.021 393.841 332.734 392.726 335.319H383.525C383.492 335.209 383.462 335.096 383.433 334.986C384.284 335.043 385.141 334.99 385.979 334.823C385.296 333.924 384.613 333.017 383.931 332.118C383.914 332.1 383.901 332.082 383.888 332.065C383.541 331.604 383.192 331.148 382.846 330.687L382.845 330.687C382.824 329.273 382.982 327.865 383.294 326.498L383.294 326.498Z" fill="#F2F2F2"/>
<path d="M280.379 335.348C280.379 335.71 280.65 336 280.987 336H410.321C410.658 336 410.929 335.71 410.929 335.348C410.929 334.986 410.658 334.695 410.321 334.695H280.987C280.65 334.695 280.379 334.986 280.379 335.348Z" fill="#CCCCCC"/>
</g>
<defs>
<clipPath id="clip0_41_132034">
<rect width="411" height="336" fill="white" transform="matrix(-1 0 0 1 411 0)"/>
</clipPath>
</defs>
</svg>
