<svg width="492" height="749" viewBox="0 0 492 749" fill="none" xmlns="http://www.w3.org/2000/svg">
<path d="M491.277 737.299L481.108 649.162L480.98 648.986L420.961 565.626L425.706 163.956C425.879 149.303 419.516 135.524 408.251 126.153L270.158 11.2783C250.79 -4.83354 222.754 -3.54634 204.941 14.265L77.6925 141.514C68.5245 150.682 63.356 163.376 63.511 176.339L69.9161 710.44L188.694 718.011L491.277 737.299H491.277Z" fill="#E6E6E6"/>
<path d="M220.513 150.49H255.31C261.847 150.49 267.165 145.171 267.165 138.634V113.868C267.165 107.33 261.847 102.012 255.31 102.012H220.513C213.975 102.012 208.657 107.33 208.657 113.868V138.634C208.657 145.171 213.975 150.49 220.513 150.49Z" fill="#2892F3"/>
<path d="M146.954 342.716H198.468C205.005 342.716 210.323 337.398 210.323 330.86V239.227C210.323 232.69 205.005 227.371 198.468 227.371H146.954C140.417 227.371 135.098 232.69 135.098 239.227V330.86C135.098 337.398 140.417 342.716 146.954 342.716Z" fill="#3F3D56"/>
<path d="M251.977 545.352C255.062 545.352 257.967 544.182 260.199 542.027C262.534 539.772 263.82 536.742 263.82 533.497V445.623C263.82 440.261 260.201 435.551 255.02 434.168L252.415 433.473C248.76 432.503 244.963 433.287 241.999 435.634C239.034 437.983 237.398 441.496 237.509 445.277L240.113 533.845C240.298 540.073 245.319 545.125 251.545 545.346C251.689 545.35 251.833 545.352 251.977 545.352V545.352Z" fill="#3F3D56"/>
<path d="M101.813 545.352C101.957 545.352 102.1 545.351 102.245 545.346C108.472 545.125 113.493 540.073 113.676 533.845L116.282 445.277C116.392 441.496 114.756 437.982 111.791 435.634C108.827 433.287 105.033 432.503 101.376 433.473L98.771 434.168C93.5887 435.551 89.9694 440.261 89.9694 445.623V533.497C89.9694 536.743 91.2558 539.772 93.5911 542.027C95.8227 544.18 98.7285 545.352 101.813 545.352L101.813 545.352Z" fill="#3F3D56"/>
<path d="M155.321 545H204.839C208.071 545 211.091 543.724 213.342 541.406C215.595 539.087 216.783 536.031 216.69 532.801L213.993 439.76C213.803 433.255 208.343 428.161 201.853 428.251L155.032 429.392C148.546 429.552 143.465 434.758 143.465 441.246V533.145C143.465 539.682 148.784 545 155.321 545H155.321Z" fill="#3F3D56"/>
<path d="M420.12 565.879L480.3 649.462L490.33 736.389L461.109 734.534L456.897 661.164L420.199 595.925C414.956 586.603 414.926 575.228 420.12 565.879V565.879Z" fill="#CCCCCC"/>
<path d="M459.936 713.547L459.959 715.219L340.855 716.847L340.832 715.175L459.936 713.547Z" fill="#3F3D56"/>
<path d="M452.712 698.785L452.725 700.457L339.795 701.339L339.782 699.668L452.712 698.785Z" fill="#3F3D56"/>
<path d="M446.851 683.707L446.884 685.379L338.861 687.489L338.829 685.817L446.851 683.707Z" fill="#3F3D56"/>
<path d="M443.499 668.727L443.555 670.398L339.818 673.843L339.763 672.171L443.499 668.727Z" fill="#3F3D56"/>
<path d="M438.48 655.371L438.539 657.043L338.87 660.547L338.812 658.875L438.48 655.371Z" fill="#3F3D56"/>
<path d="M334.746 643.617H431.822V645.289H334.746V643.617Z" fill="#3F3D56"/>
<path d="M426.799 631.887L426.818 633.559L332.476 634.664L332.456 632.993L426.799 631.887Z" fill="#3F3D56"/>
<path d="M421.766 620.203L421.821 621.875L330.405 624.91L330.349 623.239L421.766 620.203Z" fill="#3F3D56"/>
<path d="M418.435 608.574L418.465 610.246L328.193 611.833L328.164 610.161L418.435 608.574Z" fill="#3F3D56"/>
<path d="M411.735 596.992L411.787 598.664L325.352 601.365L325.299 599.693L411.735 596.992Z" fill="#3F3D56"/>
<path d="M408.414 586.781L408.431 588.453L322.758 589.29L322.741 587.618L408.414 586.781Z" fill="#3F3D56"/>
<path d="M328.334 564.214H383.192C389.729 564.214 395.047 558.895 395.047 552.358V438.993C395.047 432.455 389.729 427.137 383.192 427.137H328.334C321.797 427.137 316.478 432.455 316.478 438.993V552.358C316.478 558.895 321.797 564.214 328.334 564.214Z" fill="#2892F3"/>
<path d="M220.356 718.015H221.191V636.624C221.191 627.12 213.459 619.387 203.955 619.387H108.038C98.5334 619.387 90.8011 627.12 90.8011 636.624V711.778L91.5838 711.828L188.692 718.014L220.356 718.015H220.356Z" fill="#CCCCCC"/>
<path d="M335.022 358.592H353.103C359.64 358.592 364.958 353.273 364.958 346.737V260.118C364.958 253.58 359.64 248.262 353.103 248.262H335.022C328.485 248.262 323.166 253.58 323.166 260.118V346.737C323.166 353.273 328.485 358.592 335.022 358.592Z" fill="#3F3D56"/>
<path d="M318.15 726.373L313.135 652.82L298.09 582.61L297.681 574.414C297.162 564.042 308.727 557.546 317.315 563.386L321.494 582.61L336.539 652.82L341.554 726.373" fill="#CCCCCC"/>
<path d="M3.87486 539.133L64.055 622.716L74.085 709.643L44.8642 707.788L40.6516 634.418L3.95434 569.178C-1.28902 559.857 -1.31912 548.482 3.87486 539.133V539.133Z" fill="#CCCCCC"/>
<path d="M403.284 745.028L397.621 745.027L394.927 723.184L403.285 723.184L403.284 745.028Z" fill="#FFB6B6"/>
<path d="M383.881 744.897C383.705 745.194 383.612 746.153 383.612 746.498C383.612 747.559 384.472 748.42 385.534 748.42H403.072C403.796 748.42 404.383 747.833 404.383 747.109V746.379C404.383 746.379 405.25 744.184 403.464 741.479C403.464 741.479 401.244 743.597 397.927 740.28L396.949 738.508L389.868 743.687L385.943 744.17C385.084 744.275 384.323 744.153 383.881 744.897H383.881Z" fill="#2F2E41"/>
<path d="M424.774 745.028L419.111 745.027L416.417 723.184L424.775 723.184L424.774 745.028Z" fill="#FFB6B6"/>
<path d="M405.371 744.897C405.195 745.194 405.102 746.153 405.102 746.498C405.102 747.559 405.963 748.42 407.024 748.42H424.562C425.286 748.42 425.873 747.833 425.873 747.109V746.379C425.873 746.379 426.741 744.184 424.954 741.479C424.954 741.479 422.734 743.597 419.417 740.28L418.439 738.508L411.358 743.687L407.433 744.17C406.574 744.275 405.813 744.153 405.371 744.897H405.371Z" fill="#2F2E41"/>
<path d="M428.943 627.684L436.106 643.919L427.033 732.739L415.811 733.456L411.275 654.903L406.977 733.694L393.606 732.262L390.435 632.239L428.943 627.684Z" fill="#2F2E41"/>
<path d="M400.722 562.982L415.094 560.355L417.997 563.258L432.763 569.428L430.375 615.748C430.375 615.748 435.15 618.929 432.763 623.308C430.375 627.687 430.853 632.939 430.853 632.939H390.434L392.173 606.675L387.398 573.249L398.556 567.966L400.722 562.982H400.722V562.982Z" fill="#2892F3"/>
<path d="M411.14 616.943C407.057 617.918 403.244 616.601 402.624 614.003C402.004 611.404 404.812 608.508 408.897 607.533C410.523 607.121 412.224 607.105 413.858 607.486L431.212 603.574L432.874 611.757L415.59 614.744C414.304 615.822 412.778 616.576 411.14 616.943V616.943H411.14Z" fill="#FFB6B6"/>
<path d="M429.898 571.813L432.763 569.426C432.763 569.426 438.494 572.291 439.449 574.679C440.404 577.066 446.134 599.987 446.134 599.987C446.134 599.987 447.258 612.549 444.309 614.148C441.359 615.746 422.735 614.791 422.735 614.791L421.303 605.24L428.943 602.375L429.898 571.813Z" fill="#2892F3"/>
<path d="M407.006 558.995C400.035 558.995 394.384 553.344 394.384 546.373C394.384 539.401 400.035 533.75 407.006 533.75C413.977 533.75 419.629 539.401 419.629 546.373C419.629 553.344 413.977 558.995 407.006 558.995Z" fill="#FFB6B6"/>
<path d="M416.06 557.581C417.572 557.716 420.041 553.847 419.931 550.101C419.86 547.691 421.952 547.217 422.108 544.109C422.198 542.298 419.416 541.733 419.225 540.281C418.879 537.649 417.181 535.878 416.969 535.662C415.139 533.804 413.848 534.408 411.696 532.254C410.4 530.957 410.732 530.602 409.859 530.027C407.341 528.367 402.816 530.166 400.11 532.589C399.174 533.428 395.684 532.511 394.159 534.88C392.363 537.67 392.78 543.36 393.55 544.111C394.018 544.567 395.087 543.453 397.983 542.737C400.665 542.075 398.135 545.351 401.236 544.801C404.902 544.151 405.62 543.036 406.993 543.705C408.444 544.412 409.578 546.601 409.249 548.323C409.086 549.177 408.612 549.653 408.879 550.088C409.367 550.881 409.926 550.103 410.551 550.899C411.279 551.824 409.471 554.199 409.812 554.429C409.88 554.475 410.088 554.469 412.039 552.592C412.818 551.843 413.046 551.383 413.199 551.454C413.445 551.568 415.063 553.075 414.445 554.264C413.484 556.116 414.714 556.174 414.445 557.42C414.168 558.706 415.099 557.495 416.06 557.581H416.06V557.581Z" fill="#2F2E41"/>
<path d="M402.641 618.91C406.363 620.853 408.377 624.348 407.14 626.716C405.904 629.084 401.885 629.429 398.162 627.485C396.665 626.729 395.37 625.625 394.386 624.266L378.721 615.837L382.834 608.57L397.84 617.652C399.518 617.682 401.164 618.113 402.641 618.91Z" fill="#FFB6B6"/>
<path d="M390.263 573.725C390.263 573.725 385.966 570.86 383.1 578.501C380.84 584.528 376.648 602.296 374.979 609.528C374.536 611.448 375.177 613.453 376.649 614.762L378.564 616.464L387.876 623.388L394.224 614.15L386.514 609.5L395.307 590.424L390.263 573.725V573.725V573.725Z" fill="#2892F3"/>
</svg>
