<svg width="552" height="405" viewBox="0 0 552 405" fill="none" xmlns="http://www.w3.org/2000/svg">
<g clip-path="url(#clip0_41_132012)">
<path d="M325.441 267.569C323.224 267.569 321.057 266.912 319.214 265.68C317.371 264.449 315.934 262.698 315.086 260.65C314.237 258.602 314.015 256.348 314.448 254.174C314.88 252 315.948 250.003 317.515 248.435C319.083 246.868 321.08 245.8 323.254 245.368C325.429 244.935 327.682 245.157 329.73 246.006C331.778 246.854 333.529 248.291 334.76 250.134C335.992 251.977 336.649 254.144 336.649 256.361C336.649 259.334 335.469 262.184 333.367 264.286C331.265 266.388 328.414 267.569 325.441 267.569Z" fill="#E6E6E6"/>
<path d="M329.35 258.707L327.005 256.362L329.35 254.016C329.557 253.809 329.674 253.528 329.674 253.235C329.674 252.941 329.557 252.66 329.35 252.453C329.143 252.245 328.862 252.129 328.568 252.129C328.275 252.129 327.994 252.245 327.786 252.453L325.441 254.798L323.096 252.453C322.888 252.245 322.607 252.129 322.314 252.129C322.02 252.129 321.739 252.245 321.532 252.453C321.325 252.66 321.208 252.941 321.208 253.235C321.208 253.528 321.325 253.809 321.532 254.016L323.877 256.362L321.532 258.707C321.325 258.915 321.208 259.196 321.208 259.489C321.208 259.782 321.325 260.064 321.532 260.271C321.739 260.478 322.02 260.595 322.314 260.595C322.607 260.595 322.888 260.478 323.096 260.271L325.441 257.926L327.786 260.271C327.994 260.478 328.275 260.595 328.568 260.595C328.861 260.595 329.143 260.478 329.35 260.271C329.557 260.064 329.674 259.782 329.674 259.489C329.674 259.196 329.557 258.915 329.35 258.707L329.35 258.707Z" fill="white"/>
<path d="M276.606 135.208C288.925 135.208 298.912 125.222 298.912 112.903C298.912 100.584 288.925 90.5977 276.606 90.5977C264.287 90.5977 254.301 100.584 254.301 112.903C254.301 125.222 264.287 135.208 276.606 135.208Z" fill="#2892F3"/>
<path d="M273.564 124.508C273.179 124.508 272.799 124.418 272.455 124.246C272.11 124.074 271.811 123.823 271.579 123.515L265.494 115.401C265.299 115.141 265.156 114.844 265.076 114.529C264.995 114.213 264.977 113.884 265.023 113.562C265.069 113.239 265.178 112.929 265.344 112.649C265.51 112.368 265.73 112.123 265.991 111.928C266.251 111.732 266.548 111.59 266.863 111.509C267.179 111.428 267.508 111.411 267.83 111.457C268.153 111.503 268.463 111.612 268.743 111.778C269.024 111.944 269.269 112.164 269.464 112.424L273.445 117.732L283.67 102.395C283.851 102.123 284.084 101.89 284.354 101.709C284.625 101.528 284.929 101.401 285.248 101.337C285.568 101.273 285.897 101.273 286.217 101.336C286.536 101.399 286.841 101.525 287.112 101.706C287.383 101.887 287.616 102.119 287.797 102.39C287.978 102.661 288.105 102.964 288.168 103.284C288.232 103.604 288.233 103.933 288.169 104.252C288.106 104.572 287.98 104.876 287.799 105.147L275.629 123.403C275.409 123.733 275.113 124.006 274.765 124.198C274.418 124.39 274.03 124.496 273.633 124.507C273.61 124.508 273.587 124.508 273.564 124.508Z" fill="white"/>
<path d="M305.555 153.145H248.642C246.267 153.145 244.343 155.069 244.343 157.443V162.855C244.343 165.229 246.267 167.153 248.642 167.153H305.555C307.929 167.153 309.854 165.229 309.854 162.855V157.443C309.854 155.069 307.929 153.145 305.555 153.145Z" fill="#3F3D56"/>
<path d="M338.827 181.16H215.371C212.997 181.16 211.072 183.085 211.072 185.459V190.87C211.072 193.244 212.997 195.169 215.371 195.169H338.827C341.201 195.169 343.125 193.244 343.125 190.87V185.459C343.125 183.085 341.201 181.16 338.827 181.16Z" fill="#3F3D56"/>
<path d="M338.827 209.18H215.371C212.997 209.18 211.072 211.104 211.072 213.478V218.89C211.072 221.264 212.997 223.189 215.371 223.189H338.827C341.201 223.189 343.125 221.264 343.125 218.89V213.478C343.125 211.104 341.201 209.18 338.827 209.18Z" fill="#3F3D56"/>
<path d="M382.159 393.149L371.343 393.148L366.196 351.426L382.162 351.427L382.159 393.149Z" fill="#FFB6B6"/>
<path d="M381.871 389.619L370.321 384.921L369.991 384.785L363.614 389.619C360.014 389.619 356.561 391.05 354.015 393.596C351.469 396.141 350.039 399.594 350.038 403.195V403.635H384.915V389.619H381.871Z" fill="#2F2E41"/>
<path d="M473.587 384.086L463.257 387.295L445.96 348.979L461.206 344.242L473.587 384.086Z" fill="#FFB6B6"/>
<path d="M472.262 380.801L459.839 379.742L459.483 379.711L454.828 386.219C451.39 387.288 448.517 389.679 446.841 392.866C445.166 396.052 444.824 399.774 445.892 403.212L446.023 403.633L479.329 393.283L475.169 379.897L472.262 380.801Z" fill="#2F2E41"/>
<path d="M430.307 179.418L434.706 191.93V198.694L434.093 206.132L440.902 230.938L446.244 285.639L473.125 366.613L452.513 372.548L399.889 240.245L383.267 374.066L364.418 373.563C364.418 373.563 361.193 365.765 362.041 361.525C362.889 357.285 362.889 362.373 362.889 357.285C362.889 352.197 359.213 354.407 361.899 350.334C364.585 346.261 364.251 342.696 364.418 340.239C364.585 337.782 362.889 238.569 362.889 235.177C362.889 231.786 362.301 232.529 362.595 229.189C362.889 225.85 366.616 227.223 365.6 221.448C364.585 215.674 364.251 216.684 364.418 212.363C364.585 208.042 366.922 182.709 366.922 182.709L430.307 179.418Z" fill="#2F2E41"/>
<path d="M359.761 183.486L397.549 147.045L408.022 117.389L392.573 110.672C384.638 118.273 376.061 141.948 376.061 141.948L350.058 175.03C349.855 175.1 349.653 175.173 349.454 175.262C348.282 175.778 347.264 176.588 346.497 177.613C345.731 178.638 345.241 179.843 345.077 181.112C344.912 182.382 345.077 183.672 345.557 184.859C346.037 186.046 346.814 187.089 347.815 187.887C348.815 188.685 350.005 189.212 351.269 189.416C352.532 189.62 353.827 189.495 355.028 189.053C356.229 188.61 357.296 187.866 358.125 186.89C358.954 185.915 359.518 184.743 359.761 183.486Z" fill="#FFB8B8"/>
<path d="M388.227 113.985L407.822 120.206L407.896 120.194C415.189 118.972 421.241 107.06 425.034 97.2826C426.282 94.0575 426.258 90.4788 424.969 87.2702C423.679 84.0616 421.219 81.4623 418.086 79.9979C415.768 78.9333 413.198 78.5382 410.667 78.8576C408.136 79.1769 405.745 80.1978 403.764 81.8049L393.702 90.0271L388.227 113.985Z" fill="#2892F3"/>
<path d="M433.636 195.491L433.751 195.339C439.865 187.23 431.503 167.151 430.238 164.238L435.923 162.554L434.932 151.731L434.455 146.904L438.875 142.707L438.89 142.6L441.93 120.967L445.907 106.65C447.406 101.237 447.438 95.5227 445.999 90.0938C444.56 84.6648 441.702 79.7166 437.719 75.757L429.588 67.6844L419.847 52.4373L403.515 52.0156L397.642 62.4487C392.18 63.5634 387.282 66.5587 383.802 70.9131C380.322 75.2674 378.479 80.7046 378.596 86.2777L379.148 114.053L373.288 148.466L373.124 154.717L367.372 160.786L368.435 166.923L364.133 168.637L362.027 177.356C361.223 178.362 355.914 185.074 355.865 186.945C355.858 187.225 356.058 187.502 356.496 187.815C359.932 190.274 379.141 195.602 387.786 192.399C396.995 188.99 433.085 195.392 433.449 195.457L433.636 195.491Z" fill="#2892F3"/>
<path d="M393.6 107.446L385.257 90.8125C373.147 91.6397 349.113 105.641 349.113 105.641L303.64 115.283C302.292 114.765 300.833 114.611 299.407 114.837C297.982 115.062 296.641 115.659 295.52 116.568C294.398 117.477 293.536 118.665 293.02 120.012C292.504 121.36 292.352 122.82 292.579 124.245C292.807 125.67 293.405 127.01 294.315 128.131C295.225 129.251 296.414 130.112 297.763 130.626C299.111 131.141 300.571 131.291 301.996 131.062C303.421 130.833 304.76 130.232 305.879 129.321L363.724 125.175L393.6 107.446Z" fill="#FFB8B8"/>
<path d="M390.234 110.177L412.023 93.9849L415.861 80.154C416.605 77.436 416.573 74.5642 415.77 71.8631C414.967 69.162 413.425 66.7394 411.317 64.8689C408.443 62.3525 404.721 61.0214 400.903 61.1446C397.085 61.2677 393.457 62.8361 390.751 65.5324C382.551 73.7166 373.2 85.1342 375.208 93.0515L375.229 93.1317L390.234 110.177Z" fill="#2892F3"/>
<path d="M412.219 48.2383C422.919 48.2383 431.594 39.5638 431.594 28.8633C431.594 18.1628 422.919 9.48828 412.219 9.48828C401.518 9.48828 392.844 18.1628 392.844 28.8633C392.844 39.5638 401.518 48.2383 412.219 48.2383Z" fill="#FFB8B8"/>
<path d="M424.968 49.1243C421.727 47.6021 417.942 48.5272 414.365 48.668C410.787 48.8088 406.452 47.4601 405.693 43.961C405.132 41.3738 406.819 38.5381 405.756 36.1136C404.597 33.4696 401.117 33.0933 398.326 32.3529C394.829 31.3422 391.744 29.2431 389.52 26.3603C387.296 23.4774 386.049 19.9609 385.959 16.3211C385.765 17.7657 388.237 18.2402 389.049 17.0297C389.861 15.8192 389.302 14.1437 388.407 12.9934C387.511 11.8432 386.303 10.9246 385.628 9.63278C384.953 8.34097 385.084 6.42248 386.403 5.80081C387.078 7.16464 388.035 8.36974 389.21 9.33662C390.386 10.3035 391.753 11.0102 393.221 11.41C392.622 9.58842 393.47 7.54046 394.834 6.19312C396.284 4.93075 397.955 3.94701 399.762 3.29137C404.228 1.35535 409.443 -0.571212 413.768 1.66251C414.884 2.25016 415.854 3.08249 416.603 4.09731C417.353 5.11214 417.864 6.28325 418.097 7.52315C426.098 8.19964 434.313 16.866 433.858 24.882C433.367 33.5115 433.01 34.2097 425.826 48.7312" fill="#2F2E41"/>
<path d="M522.026 404.129H493.885L493.764 403.91C493.404 403.257 493.057 402.566 492.732 401.855C489.834 395.65 488.608 388.552 487.527 382.29L486.713 377.57C486.615 376.998 486.689 376.41 486.927 375.881C487.164 375.352 487.554 374.905 488.047 374.599C488.54 374.293 489.112 374.141 489.692 374.162C490.272 374.183 490.832 374.377 491.301 374.719C495.578 377.831 499.856 380.94 504.136 384.045C505.757 385.225 507.607 386.589 509.38 388.064C509.551 387.234 509.73 386.401 509.909 385.579C510.032 385.012 510.322 384.494 510.741 384.093C511.16 383.691 511.69 383.424 512.261 383.325C512.833 383.226 513.422 383.3 513.952 383.538C514.481 383.775 514.928 384.165 515.235 384.658L518.527 389.948C520.928 393.811 523.048 397.618 522.616 401.724C522.618 401.774 522.615 401.824 522.605 401.873C522.519 402.547 522.358 403.21 522.127 403.849L522.026 404.129Z" fill="#F0F0F0"/>
<path d="M550.271 404.742L282.858 405.003C282.591 405.001 282.336 404.894 282.147 404.705C281.959 404.516 281.854 404.26 281.854 403.993C281.854 403.726 281.959 403.47 282.147 403.281C282.336 403.092 282.591 402.985 282.858 402.983L550.271 402.723C550.538 402.724 550.794 402.831 550.982 403.02C551.17 403.209 551.276 403.465 551.276 403.732C551.276 403.999 551.17 404.255 550.982 404.444C550.794 404.634 550.538 404.741 550.271 404.742Z" fill="#CACACA"/>
</g>
<defs>
<clipPath id="clip0_41_132012">
<rect width="551.276" height="405" fill="white"/>
</clipPath>
</defs>
</svg>
