<svg width="32" height="32" viewBox="0 0 32 32" fill="none" xmlns="http://www.w3.org/2000/svg">
<path d="M2.17383 27.514V4.75293H11.4852C12.8958 4.75257 14.2758 5.16418 15.4558 5.93722C16.6358 6.71025 17.5643 7.81105 18.1273 9.10444C17.7223 9.52506 17.3719 9.99502 17.0844 10.5032C16.6085 11.3516 16.6044 12.2351 16.7244 12.8911L17.3451 16.2535C16.6737 17.1786 15.7925 17.9313 14.7739 18.45C13.7553 18.9686 12.6283 19.2384 11.4852 19.2373H6.31221V27.514H2.17383ZM11.4852 15.0989C11.8928 15.0989 12.2964 15.0186 12.673 14.8626C13.0495 14.7067 13.3917 14.478 13.6799 14.1898C13.9681 13.9016 14.1967 13.5594 14.3527 13.1829C14.5087 12.8063 14.589 12.4027 14.589 11.9951C14.589 11.5875 14.5087 11.1839 14.3527 10.8073C14.1967 10.4308 13.9681 10.0886 13.6799 9.80039C13.3917 9.51218 13.0495 9.28356 12.673 9.12758C12.2964 8.9716 11.8928 8.89131 11.4852 8.89131H6.31221V15.0989H11.4852ZM18.7605 12.5165C18.6847 12.178 18.7301 11.8236 18.8888 11.5151C19.3792 10.646 20.751 8.89131 23.9003 8.89131C27.0476 8.89131 28.4215 10.6439 28.9099 11.5151C29.07 11.8231 29.1168 12.1775 29.0423 12.5165L27.0435 23.3757H24.9349V27.514H22.8658V23.3757H20.7572L18.7605 12.5165ZM26.4868 15.0989L27.0041 12.3158C26.6524 11.8068 25.804 10.9605 23.9003 10.9605C21.9967 10.9605 21.1483 11.8089 20.7966 12.3158L21.3139 15.0989H26.4868Z" fill="#283E5B"/>
</svg>
