<svg width="30" height="31" viewBox="0 0 30 31" fill="none" xmlns="http://www.w3.org/2000/svg">
<path d="M17.4403 10.5378V13.0271H13.7063L10.3582 11.5584L8.72767 16.45V27.9631H3.74902V15.5165L5.71559 9.75368C5.82629 9.42365 6.00489 9.12046 6.23987 8.86364C6.47486 8.60681 6.76102 8.40205 7.07994 8.26252C7.39886 8.12299 7.74346 8.0518 8.09156 8.05352C8.43966 8.05525 8.78355 8.12986 9.10106 8.27254L14.2664 10.5503L17.4403 10.5378ZM9.97233 1.8252C8.6032 1.8252 7.48301 2.94539 7.48301 4.31452C7.48301 5.68364 8.6032 6.80384 9.97233 6.80384C11.3415 6.80384 12.4616 5.68364 12.4616 4.31452C12.4616 2.94539 11.3415 1.8252 9.97233 1.8252ZM11.217 24.2291H26.1529V21.7398H11.217V24.2291ZM24.2859 20.4951C25.319 20.4951 26.1529 19.6612 26.1529 18.6281C26.1529 17.595 25.319 16.7611 24.2859 16.7611C23.2529 16.7611 22.4189 17.595 22.4189 18.6281C22.4189 19.6612 23.2529 20.4951 24.2859 20.4951ZM16.1956 15.5165C16.1956 14.8319 15.6355 14.2718 14.951 14.2718H11.217V16.7611H13.7063V18.0058C13.7063 19.3749 14.8265 20.4951 16.1956 20.4951H18.685C20.0541 20.4951 21.1743 19.3749 21.1743 18.0058V14.2718H18.685V16.7611H16.1956V15.5165Z" fill="#283E5B"/>
</svg>
