<svg width="30" height="31" viewBox="0 0 30 31" fill="none" xmlns="http://www.w3.org/2000/svg">
<path d="M7.5656 3.38184C6.90459 3.38184 6.27064 3.64442 5.80324 4.11183C5.33583 4.57924 5.07324 5.21318 5.07324 5.87419V24.5669C5.07324 25.9501 6.18234 27.0592 7.5656 27.0592V28.3054H10.058V27.0592H20.0274V28.3054H22.5197V27.0592C23.903 27.0592 25.0121 25.9501 25.0121 24.5669V5.87419C25.0121 5.21318 24.7495 4.57924 24.2821 4.11183C23.8147 3.64442 23.1808 3.38184 22.5197 3.38184H7.5656ZM7.5656 5.87419H13.7965V24.5669H7.5656V5.87419ZM16.2889 5.87419H22.5197V24.5669H16.2889V5.87419ZM10.058 13.3513V17.0898H12.5503V13.3513H10.058ZM17.535 13.3513V17.0898H20.0274V13.3513H17.535Z" fill="#283E5B"/>
</svg>
