<svg width="31" height="31" viewBox="0 0 31 31" fill="none" xmlns="http://www.w3.org/2000/svg">
<path d="M13.6465 4.78486C13.7534 4.69751 13.8784 4.63496 14.0123 4.60171C14.1463 4.56845 14.286 4.56533 14.4213 4.59256L23.7563 6.45955C23.9678 6.50183 24.1582 6.61607 24.295 6.78285C24.4319 6.94963 24.5067 7.15865 24.5068 7.37437V24.1717C24.5067 24.3874 24.4319 24.5964 24.295 24.7632C24.1582 24.93 23.9678 25.0442 23.7563 25.0865L14.4213 26.9535C14.286 26.9806 14.1463 26.9773 14.0123 26.9438C13.8784 26.9104 13.7535 26.8477 13.6467 26.7602C13.5399 26.6727 13.4539 26.5626 13.3948 26.4378C13.3357 26.3131 13.305 26.1767 13.3049 26.0387V5.50738L13.6465 4.78486ZM18.9059 15.7721C18.9059 15.5245 18.8075 15.2871 18.6324 15.112C18.4574 14.937 18.2199 14.8386 17.9724 14.8386C17.7248 14.8386 17.4873 14.937 17.3123 15.112C17.1372 15.2871 17.0389 15.5245 17.0389 15.7721C17.0389 16.0197 17.1372 16.2571 17.3123 16.4322C17.4873 16.6072 17.7248 16.7056 17.9724 16.7056C18.2199 16.7056 18.4574 16.6072 18.6324 16.4322C18.8075 16.2571 18.9059 16.0197 18.9059 15.7721ZM11.4379 6.44088H6.77041C6.52283 6.44088 6.28539 6.53923 6.11033 6.71429C5.93526 6.88936 5.83691 7.1268 5.83691 7.37437V24.1717C5.83691 24.4193 5.93526 24.6567 6.11033 24.8318C6.28539 25.0068 6.52283 25.1052 6.77041 25.1052H11.4379V6.44088ZM13.6465 4.78486C13.5397 4.87249 13.4536 4.98276 13.3945 5.10771C13.3354 5.23266 13.3048 5.36917 13.3049 5.50738L13.6465 4.78486Z" fill="#283E5B"/>
</svg>
