<svg width="31" height="31" viewBox="0 0 31 31" fill="none" xmlns="http://www.w3.org/2000/svg">
<path d="M13.9454 8.36034C14.1174 8.28056 14.3094 8.25476 14.4963 8.28635C14.6832 8.31793 14.8562 8.40543 14.9923 8.53728L16.9132 10.5918L10.9517 15.8516C11.5098 15.9626 11.9043 16.1461 12.2445 16.3048C12.699 16.5169 13.0579 16.6845 13.8519 16.6845C14.6459 16.6845 15.0049 16.517 15.4594 16.3048L15.4684 16.3006C16.3464 15.8913 17.1612 15.3582 17.8878 14.7175L19.4678 13.3234L22.5579 16.6281C22.9189 16.5617 23.1748 16.4429 23.4706 16.305C23.7875 16.1481 24.1181 16.0204 24.4582 15.9233L16.3451 7.24719L16.3233 7.2247C15.9157 6.81884 15.3933 6.54773 14.8268 6.44793C14.2603 6.34813 13.6768 6.42443 13.155 6.66655L9.38477 8.426L10.1752 10.12L13.9454 8.36034Z" fill="#283E5B"/>
<path d="M22.6312 10.1424C23.7927 10.1424 24.7342 9.20087 24.7342 8.03945C24.7342 6.87804 23.7927 5.93652 22.6312 5.93652C21.4698 5.93652 20.5283 6.87804 20.5283 8.03945C20.5283 9.20087 21.4698 10.1424 22.6312 10.1424Z" fill="#283E5B"/>
<path d="M25.8692 22.2924C24.6604 22.2924 24.0009 22.6002 23.4711 22.8474C23.0165 23.0595 22.6575 23.2271 21.8633 23.2271C21.0692 23.2271 20.7103 23.0595 20.2558 22.8474C19.7259 22.6002 19.0665 22.2924 17.8577 22.2924C16.649 22.2924 15.9896 22.6002 15.4598 22.8474C15.0052 23.0595 14.6463 23.2271 13.8522 23.2271C13.0582 23.2271 12.6993 23.0595 12.2448 22.8474C11.715 22.6002 11.0556 22.2924 9.84692 22.2924C8.63821 22.2924 7.97876 22.6002 7.44894 22.8474C6.99442 23.0595 6.63546 23.2271 5.84143 23.2271C5.0474 23.2271 4.68844 23.0595 4.23392 22.8474C3.7041 22.6002 3.04465 22.2924 1.83594 22.2924V24.1617C2.62997 24.1617 2.98893 24.3292 3.44345 24.5414C3.97327 24.7886 4.63271 25.0963 5.84143 25.0963C7.05014 25.0963 7.70959 24.7885 8.23941 24.5414C8.69393 24.3293 9.05289 24.1617 9.84692 24.1617C10.641 24.1617 10.9999 24.3292 11.4543 24.5414C11.9841 24.7886 12.6435 25.0963 13.8522 25.0963C15.061 25.0963 15.7204 24.7885 16.2502 24.5414C16.7047 24.3293 17.0638 24.1617 17.8577 24.1617C18.6517 24.1617 19.0108 24.3292 19.4653 24.5414C19.9952 24.7886 20.6546 25.0963 21.8633 25.0963C23.0721 25.0963 23.7316 24.7886 24.2615 24.5414C24.716 24.3293 25.0751 24.1617 25.8692 24.1617C26.6633 24.1617 27.0223 24.3292 27.4768 24.5414C28.0067 24.7887 28.6662 25.0963 29.875 25.0963V23.2271C29.0809 23.2271 28.7218 23.0595 28.2673 22.8474C27.7374 22.6002 27.078 22.2924 25.8692 22.2924ZM29.7172 18.5514C29.0314 18.5304 28.6905 18.3718 28.2674 18.1743C27.7612 17.938 27.1356 17.6474 26.027 17.6218C25.9751 17.6206 25.9233 17.6193 25.8693 17.6193C25.8153 17.6193 25.7634 17.6206 25.7116 17.6218C24.603 17.6474 23.9774 17.938 23.4713 18.1743C23.048 18.3718 22.7072 18.5306 22.0213 18.5514C21.9705 18.5529 21.9182 18.5539 21.8636 18.5539C21.8089 18.5539 21.7566 18.5529 21.7059 18.5514C21.02 18.5304 20.6792 18.3718 20.2561 18.1743C19.7499 17.9381 19.1243 17.6474 18.0158 17.6218C17.9639 17.6206 17.9122 17.6193 17.8581 17.6193C17.804 17.6193 17.7523 17.6206 17.7004 17.6218C16.5919 17.6474 15.9662 17.9381 15.4601 18.1743C15.0369 18.3718 14.6962 18.5306 14.0104 18.5514C13.9596 18.5529 13.9073 18.5539 13.8526 18.5539C13.798 18.5539 13.7457 18.5529 13.6949 18.5514C13.0092 18.5304 12.6684 18.3718 12.2453 18.1743C11.7392 17.9381 11.1136 17.6474 10.0052 17.6218C9.9672 17.6207 9.92923 17.6201 9.89126 17.6198C9.87636 17.6198 9.86205 17.6191 9.84727 17.6191C9.79318 17.6191 9.74142 17.6205 9.68955 17.6217C8.58113 17.6472 7.95545 17.938 7.44935 18.1741C7.02614 18.3716 6.6854 18.5305 5.99962 18.5513C5.94885 18.5528 5.89657 18.5538 5.8419 18.5538C5.78722 18.5538 5.73494 18.5528 5.68418 18.5513C4.99792 18.5305 4.65736 18.3718 4.23392 18.1742C3.72781 17.938 3.10219 17.6473 1.99372 17.6217C1.94178 17.6205 1.89003 17.6192 1.836 17.6192V19.4885C2.63003 19.4885 2.98898 19.656 3.44351 19.8682C3.97333 20.1154 4.63277 20.4231 5.84149 20.4231C7.0502 20.4231 7.70965 20.1153 8.23947 19.8682C8.69399 19.6561 9.05295 19.4885 9.84698 19.4885C10.641 19.4885 10.9999 19.656 11.4544 19.8682C11.9842 20.1154 12.6436 20.4231 13.8523 20.4231C15.061 20.4231 15.7205 20.1153 16.2503 19.8682C16.7048 19.6561 17.0638 19.4885 17.8578 19.4885C18.6518 19.4885 19.0108 19.656 19.4654 19.8682C19.9952 20.1154 20.6546 20.4231 21.8634 20.4231C23.0722 20.4231 23.7317 20.1154 24.2616 19.8682C24.7161 19.6561 25.0751 19.4885 25.8692 19.4885C26.6633 19.4885 27.0224 19.656 27.4769 19.8682C28.0068 20.1154 28.6662 20.4231 29.875 20.4231V18.5539C29.8202 18.5539 29.7679 18.5529 29.7172 18.5514Z" fill="#283E5B"/>
</svg>
