<svg width="30" height="24" viewBox="0 0 30 24" fill="none" xmlns="http://www.w3.org/2000/svg">
<g clip-path="url(#clip0_390_88301)">
<path d="M14.7189 16.4573C13.1117 16.4573 11.8091 17.7604 11.8091 19.3676C11.8091 20.9748 13.1121 22.2778 14.7189 22.2778C16.3256 22.2778 17.6287 20.9748 17.6287 19.3676C17.6287 17.7604 16.3647 16.4573 14.7189 16.4573ZM14.7598 9.1828C11.5658 9.1828 8.49007 10.3467 6.09857 12.4577C5.49843 13.0292 5.43932 13.9476 5.97127 14.5523C6.50776 15.1524 7.42617 15.2115 8.02632 14.6796C9.88586 13.0383 12.2774 12.1335 14.7598 12.1335C17.2422 12.1335 19.6382 13.0374 21.4932 14.6796C21.7706 14.9251 22.1161 15.0433 22.4571 15.0433C22.6635 15.0435 22.8675 14.9998 23.0556 14.915C23.2437 14.8303 23.4117 14.7065 23.5483 14.5518C24.0802 13.9476 24.0257 13.0292 23.421 12.4972C21.0295 10.3876 17.956 9.1828 14.7598 9.1828ZM28.8632 7.61879C25.0487 3.96244 20.0429 1.94922 14.7598 1.94922C9.47667 1.94922 4.47045 3.96244 0.658334 7.61879C0.078647 8.17574 0.0600061 9.09642 0.615687 9.67611C1.17128 10.2572 2.09196 10.2726 2.67301 9.71875C5.89852 6.5458 10.2314 4.85902 14.7598 4.85902C19.2882 4.85902 23.5392 6.58535 26.8446 9.7193C27.131 9.98755 27.4902 10.1239 27.8539 10.1239C28.2361 10.1239 28.6182 9.97477 28.9037 9.67638C29.4588 9.09642 29.4406 8.13709 28.8632 7.61879Z" fill="#283E5B"/>
</g>
<defs>
<clipPath id="clip0_390_88301">
<rect width="29.098" height="23.2784" fill="white" transform="translate(0.210938 0.494141)"/>
</clipPath>
</defs>
</svg>
