<svg width="31" height="31" viewBox="0 0 31 31" fill="none" xmlns="http://www.w3.org/2000/svg">
<path d="M4.63379 26.6959V24.2066H7.12311V4.29199H19.5697V5.53665H24.5484V24.2066H27.0377V26.6959H22.059V8.02597H19.5697V26.6959H4.63379ZM15.8357 15.4939C15.8357 15.1413 15.7167 14.8455 15.4785 14.6065C15.2395 14.3684 14.9437 14.2493 14.5911 14.2493C14.2384 14.2493 13.943 14.3684 13.7049 14.6065C13.4659 14.8455 13.3464 15.1413 13.3464 15.4939C13.3464 15.8466 13.4659 16.142 13.7049 16.3801C13.943 16.6191 14.2384 16.7386 14.5911 16.7386C14.9437 16.7386 15.2395 16.6191 15.4785 16.3801C15.7167 16.142 15.8357 15.8466 15.8357 15.4939Z" fill="#283E5B"/>
</svg>
