<svg width="31" height="31" viewBox="0 0 31 31" fill="none" xmlns="http://www.w3.org/2000/svg">
<g clip-path="url(#clip0_390_88282)">
<path d="M9.7292 9.05273H6.23989C6.04159 9.05273 5.85141 9.13151 5.71119 9.27173C5.57096 9.41196 5.49219 9.60214 5.49219 9.80044V20.7668C5.49219 20.865 5.51153 20.9622 5.5491 21.053C5.58668 21.1437 5.64175 21.2261 5.71119 21.2955C5.78062 21.365 5.86304 21.42 5.95376 21.4576C6.04448 21.4952 6.1417 21.5145 6.23989 21.5145H9.7292C9.82739 21.5145 9.92462 21.4952 10.0153 21.4576C10.106 21.42 10.1885 21.365 10.2579 21.2955C10.3273 21.2261 10.3824 21.1437 10.42 21.053C10.4576 20.9622 10.4769 20.865 10.4769 20.7668V9.80044C10.4769 9.60214 10.3981 9.41196 10.2579 9.27173C10.1177 9.13151 9.9275 9.05273 9.7292 9.05273V9.05273ZM24.6833 9.05273H21.194C20.9957 9.05273 20.8056 9.13151 20.6653 9.27173C20.5251 9.41196 20.4463 9.60214 20.4463 9.80044V20.7668C20.4463 20.865 20.4657 20.9622 20.5033 21.053C20.5408 21.1437 20.5959 21.2261 20.6653 21.2955C20.7348 21.365 20.8172 21.42 20.9079 21.4576C20.9986 21.4952 21.0959 21.5145 21.194 21.5145H24.6833C24.7815 21.5145 24.8788 21.4952 24.9695 21.4576C25.0602 21.42 25.1426 21.365 25.2121 21.2955C25.2815 21.2261 25.3366 21.1437 25.3741 21.053C25.4117 20.9622 25.4311 20.865 25.4311 20.7668V9.80044C25.4311 9.60214 25.3523 9.41196 25.2121 9.27173C25.0718 9.13151 24.8816 9.05273 24.6833 9.05273V9.05273Z" stroke="#283E5B" stroke-width="1.77937" stroke-linecap="round" stroke-linejoin="round"/>
<path d="M10.4762 15.2835H20.4456M1.75293 18.2743V12.2926C1.75293 12.0943 1.83171 11.9041 1.97193 11.7639C2.11215 11.6237 2.30233 11.5449 2.50064 11.5449H4.74376C4.94206 11.5449 5.13225 11.6237 5.27247 11.7639C5.41269 11.9041 5.49147 12.0943 5.49147 12.2926V18.2743C5.49147 18.4726 5.41269 18.6628 5.27247 18.803C5.13225 18.9432 4.94206 19.022 4.74376 19.022H2.50064C2.30233 19.022 2.11215 18.9432 1.97193 18.803C1.83171 18.6628 1.75293 18.4726 1.75293 18.2743V18.2743ZM29.1689 18.2743V12.2926C29.1689 12.0943 29.0901 11.9041 28.9499 11.7639C28.8096 11.6237 28.6195 11.5449 28.4212 11.5449H26.178C25.9797 11.5449 25.7895 11.6237 25.6493 11.7639C25.5091 11.9041 25.4303 12.0943 25.4303 12.2926V18.2743C25.4303 18.4726 25.5091 18.6628 25.6493 18.803C25.7895 18.9432 25.9797 19.022 26.178 19.022H28.4212C28.6195 19.022 28.8096 18.9432 28.9499 18.803C29.0901 18.6628 29.1689 18.4726 29.1689 18.2743V18.2743Z" stroke="#283E5B" stroke-width="1.77937" stroke-linecap="round" stroke-linejoin="round"/>
</g>
<defs>
<clipPath id="clip0_390_88282">
<rect width="29.9083" height="29.9083" fill="white" transform="translate(0.505859 0.329102)"/>
</clipPath>
</defs>
</svg>
