<svg width="32" height="32" viewBox="0 0 32 32" fill="none" xmlns="http://www.w3.org/2000/svg">
<path d="M20.5601 12.5628C20.3274 8.95462 18.866 5.43699 16.1243 2.69531C13.471 5.33506 11.8435 8.83286 11.5333 12.5628C13.1886 13.4422 14.7147 14.5802 16.0467 15.964C17.3788 14.5932 18.9048 13.4551 20.5601 12.5628ZM16.1114 6.82076C16.9261 8.15281 17.4951 9.64004 17.7926 11.1919C17.1848 11.5799 16.6157 12.0067 16.0596 12.4593C15.5165 12.0196 14.9345 11.5928 14.3396 11.2049C14.6629 9.65297 15.2578 8.16574 16.1114 6.82076ZM16.0467 20.0895C14.9931 18.4785 13.6516 17.0756 12.0894 15.9511C11.9213 15.8347 11.7402 15.7442 11.5721 15.6148C11.7402 15.7312 11.9213 15.8347 12.0764 15.9381C9.47016 14.0499 6.33269 13.0357 3.11426 13.0413C3.11426 19.9213 7.45956 25.7409 13.499 27.9007C14.3138 28.1981 15.1673 28.418 16.0467 28.5602C16.9261 28.405 17.7667 28.1852 18.5944 27.9007C24.6339 25.7409 28.9792 19.9213 28.9792 13.0413C23.5734 13.0413 18.8272 15.8476 16.0467 20.0895ZM17.7538 25.4564C17.1848 25.6504 16.6157 25.8056 16.0338 25.9349C15.4647 25.8185 14.9087 25.6633 14.3784 25.4694C10.1236 23.9433 7.00693 20.3093 6.03699 15.964C7.45956 16.3003 8.81747 16.8822 10.0719 17.684L10.0461 17.697C10.2142 17.8133 10.3823 17.9297 10.5504 18.0203L10.6409 18.072C11.9213 19.0031 13.0205 20.1541 13.887 21.4991L16.0467 24.8098L18.2064 21.512C19.0798 20.1767 20.1884 19.0111 21.4783 18.072L21.5689 18.0073C21.6853 17.9427 21.8017 17.8651 21.918 17.7875L21.9051 17.7616C23.1725 16.921 24.5821 16.3003 26.0564 15.9511C25.0865 20.3093 21.9827 23.9433 17.7538 25.4564ZM12.154 15.9899C12.1282 15.9769 12.1023 15.9511 12.0894 15.9381C12.0894 15.9381 12.1023 15.9381 12.1023 15.9511C12.1152 15.964 12.1282 15.9769 12.154 15.9899Z" fill="#283E5B"/>
</svg>
