<svg width="30" height="31" viewBox="0 0 30 31" fill="none" xmlns="http://www.w3.org/2000/svg">
<path d="M19.9716 7.806C19.9716 7.806 21.2178 6.48381 21.2178 5.31365C21.2178 3.65249 19.9716 2.82129 19.9716 2.82129M10.6253 18.3985L6.26367 27.7449L10.6253 18.3985ZM10.0022 7.806C10.0022 7.806 11.2484 6.48381 11.2484 5.31365C11.2484 3.65249 10.0022 2.82129 10.0022 2.82129V7.806ZM14.9869 7.806C14.9869 7.806 16.2331 6.48381 16.2331 5.31365C16.2331 3.65249 14.9869 2.82129 14.9869 2.82129V7.806Z" stroke="#283E5B" stroke-width="1.77937" stroke-linecap="round" stroke-linejoin="round"/>
<path d="M20.5945 22.1367H9.37891" stroke="#283E5B" stroke-width="1.77937" stroke-linejoin="round"/>
<path d="M19.3486 18.3984L21.9656 24.0062L19.3486 18.3984ZM23.0872 27.7448C23.5829 27.7448 24.0584 27.5478 24.4089 27.1973C24.7595 26.8467 24.9564 26.3713 24.9564 25.8755C24.9564 25.3798 24.7595 24.9043 24.4089 24.5537C24.0584 24.2032 23.5829 24.0062 23.0872 24.0062C22.5914 24.0062 22.116 24.2032 21.7654 24.5537C21.4148 24.9043 21.2179 25.3798 21.2179 25.8755C21.2179 26.3713 21.4148 26.8467 21.7654 27.1973C22.116 27.5478 22.5914 27.7448 23.0872 27.7448Z" stroke="#283E5B" stroke-width="1.77937" stroke-linecap="round" stroke-linejoin="round"/>
<path d="M14.9866 19.0223C17.1709 19.0225 19.2758 18.2033 20.8852 16.7265C22.4946 15.2498 23.4915 13.223 23.6787 11.0467C23.6851 10.9495 23.6712 10.852 23.6379 10.7605C23.6046 10.6689 23.5526 10.5853 23.4852 10.515C23.4178 10.4446 23.3364 10.3891 23.2464 10.3519C23.1563 10.3148 23.0595 10.2967 22.9621 10.299H7.01105C6.91365 10.2967 6.81685 10.3148 6.7268 10.3519C6.63675 10.3891 6.55543 10.4446 6.48802 10.515C6.42061 10.5853 6.36859 10.6689 6.33527 10.7605C6.30196 10.852 6.28807 10.9495 6.2945 11.0467C6.48172 13.223 7.47857 15.2498 9.088 16.7265C10.6974 18.2033 12.8023 19.0225 14.9866 19.0223V19.0223Z" stroke="#283E5B" stroke-width="1.77937"/>
</svg>
