<svg width="30" height="26" viewBox="0 0 30 26" fill="none" xmlns="http://www.w3.org/2000/svg">
<g clip-path="url(#clip0_390_88330)">
<path d="M29.6274 17.449H27.387C27.1816 17.449 27.0136 17.6241 27.0136 17.838V24.8392C27.0136 25.0531 27.1816 25.2282 27.387 25.2282H29.6274C29.8327 25.2282 30.0008 25.0531 30.0008 24.8392V17.838C30.0008 17.6241 29.8327 17.449 29.6274 17.449ZM25.9541 4.56972C25.688 4.38497 25.52 4.08353 25.52 3.75292V0.723917C25.52 0.509991 25.352 0.334961 25.1466 0.334961H22.9062C22.7008 0.334961 22.5328 0.509991 22.5328 0.723917V3.75292C22.5328 4.82255 23.0089 5.863 23.8677 6.44644C25.8374 7.77375 27.0136 10.0346 27.0136 12.4753V13.9484C27.0136 14.1624 27.1816 14.3374 27.387 14.3374H29.6274C29.8327 14.3374 30.0008 14.1624 30.0008 13.9484V12.4753C30.0008 9.29068 28.4885 6.33948 25.9541 4.56972ZM20.2924 17.449H2.3693C1.13241 17.449 0.128906 18.4944 0.128906 19.7828V22.8944C0.128906 24.1829 1.13241 25.2282 2.3693 25.2282H20.2924C20.7031 25.2282 21.0392 24.8781 21.0392 24.4503V18.227C21.0392 17.7991 20.7031 17.449 20.2924 17.449ZM18.7988 22.8944H10.5841V19.7828H18.7988V22.8944ZM22.8922 7.21949C21.7767 6.41241 21.0392 5.16288 21.0392 3.75292V0.723917C21.0392 0.509991 20.8712 0.334961 20.6658 0.334961H18.4254C18.22 0.334961 18.052 0.509991 18.052 0.723917V3.95226C18.052 6.07693 19.2002 7.91961 20.8665 9.13996C21.912 9.90329 22.5328 11.1431 22.5328 12.4753V13.9484C22.5328 14.1624 22.7008 14.3374 22.9062 14.3374H25.1466C25.352 14.3374 25.52 14.1624 25.52 13.9484V12.4753C25.52 10.37 24.5398 8.42039 22.8922 7.21949ZM25.1466 17.449H22.9062C22.7008 17.449 22.5328 17.6241 22.5328 17.838V24.8392C22.5328 25.0531 22.7008 25.2282 22.9062 25.2282H25.1466C25.352 25.2282 25.52 25.0531 25.52 24.8392V17.838C25.52 17.6241 25.352 17.449 25.1466 17.449Z" fill="#283E5B"/>
</g>
<defs>
<clipPath id="clip0_390_88330">
<rect width="29.8719" height="24.8932" fill="white" transform="translate(0.128906 0.334961)"/>
</clipPath>
</defs>
</svg>
