<svg width="210" height="58" viewBox="0 0 210 58" fill="none" xmlns="http://www.w3.org/2000/svg">
<g clip-path="url(#clip0_0_1)">
<path d="M8.67936 33.3576L8.58682 33.136L8.37403 33.2473C8.21615 33.3299 8.05965 33.4118 7.90434 33.4932C6.84953 34.0456 5.84939 34.5694 4.84071 35.059L4.8407 35.059L4.83776 35.0605C4.2493 35.3571 3.57612 35.4403 2.93317 35.2958C2.29021 35.1513 1.71733 34.7882 1.31232 34.2683C0.907311 33.7485 0.695286 33.1042 0.71244 32.4454C0.729582 31.7871 0.974505 31.1552 1.40543 30.6573C1.67288 30.3569 1.99153 30.1064 2.34656 29.9174L2.34861 29.9163C4.6959 28.6346 7.0472 27.3671 9.40077 26.0984C10.7312 25.3812 12.0623 24.6636 13.3938 23.9429L13.3943 23.9426C13.9969 23.6144 14.5737 23.4701 15.1328 23.4999C15.6916 23.5298 16.2498 23.7345 16.814 24.1321L16.8141 24.1321C17.8286 24.8464 18.8554 25.5493 19.8882 26.2564C20.2911 26.5322 20.6949 26.8087 21.0992 27.0866L21.2502 27.1904L21.3797 27.0609C21.428 27.0126 21.4752 26.97 21.5251 26.925C21.5401 26.9114 21.5554 26.8976 21.571 26.8834C21.6338 26.8261 21.7013 26.7625 21.7617 26.6897C22.4166 25.9862 23.068 25.2802 23.7187 24.5748C24.5816 23.6396 25.4432 22.7056 26.3103 21.7808L26.3112 21.7798C26.4658 21.6128 26.5815 21.4373 26.6256 21.2326C26.6701 21.0253 26.6348 20.8181 26.5451 20.6001C26.0585 19.397 25.5846 18.1955 25.1104 16.993C24.7938 16.1903 24.4771 15.3872 24.1562 14.5828C23.4155 12.7257 24.8991 10.6058 27.0298 10.8147L27.0309 10.8148C27.9973 10.9047 28.9641 11.0171 29.9338 11.1299L29.9338 11.1299L29.9386 11.1304C30.1963 11.1547 30.3865 11.2476 30.5038 11.367C30.6183 11.4834 30.6739 11.6345 30.6535 11.8099C30.632 11.9947 30.5495 12.1277 30.426 12.2143C30.2989 12.3034 30.1083 12.3567 29.8529 12.3372C29.6859 12.3232 29.5189 12.3097 29.3521 12.2962C28.5691 12.2327 27.7876 12.1693 27.0131 12.0679C26.3266 11.9729 25.7725 12.2415 25.4594 12.6968C25.1501 13.1467 25.0908 13.7577 25.3392 14.3246L25.3398 14.3261C25.9644 15.7222 26.5149 17.1422 27.068 18.5688C27.3618 19.3264 27.6562 20.086 27.9629 20.8448L27.9632 20.8455C28.0656 21.0965 28.093 21.2983 28.0615 21.4763C28.0302 21.6535 27.9359 21.8328 27.7481 22.0308L27.7475 22.0315C26.7415 23.1007 25.7477 24.1799 24.7543 25.2587C24.1556 25.9087 23.5571 26.5587 22.9561 27.2061L22.9561 27.2061L22.9533 27.2092L22.4799 27.739L22.3142 27.9245L22.5184 28.0666L23.8146 28.9683L23.8151 28.9686L25.0188 29.801C25.0191 29.8013 25.0194 29.8015 25.0198 29.8018C25.2425 29.9604 25.3577 30.1312 25.3964 30.2843C25.4339 30.4324 25.4066 30.5887 25.2947 30.7437C25.1777 30.9058 25.0447 30.9819 24.9024 30.9958C24.754 31.0102 24.5574 30.9605 24.3131 30.7926L24.3131 30.7925L20.6051 28.2454C20.201 27.9668 19.7972 27.6893 19.3937 27.4119C18.3107 26.6676 17.2305 25.9251 16.1558 25.1703C15.8056 24.917 15.4514 24.7669 15.0757 24.7424C14.6995 24.7179 14.3254 24.8209 13.9385 25.0324L13.9382 25.0326C11.0339 26.625 8.11517 28.1955 5.19267 29.7681C4.47539 30.154 3.75787 30.5401 3.04029 30.9267L3.03948 30.9271C2.63087 31.1495 2.31937 31.429 2.13317 31.7573C1.94486 32.0893 1.89198 32.4592 1.9837 32.8398C2.11158 33.3825 2.45198 33.7851 2.9061 33.979C3.3589 34.1723 3.90296 34.1494 4.42675 33.8875L4.42726 33.8872C5.82207 33.1853 7.20266 32.4762 8.58514 31.766C8.93527 31.5862 9.28551 31.4063 9.63614 31.2264L9.63636 31.2263L14.3455 28.8041C14.3459 28.8039 14.3462 28.8038 14.3466 28.8036C14.6961 28.6289 14.8726 28.583 15.0134 28.6049C15.1541 28.6269 15.3097 28.7246 15.5916 29.0007C15.5917 29.0009 15.5918 29.001 15.5919 29.0011L18.5891 31.9758L18.5891 31.9758L18.5913 31.9779C18.7386 32.1201 18.827 32.2555 18.8609 32.3852C18.8929 32.5076 18.8824 32.647 18.7882 32.8175C18.6282 33.1069 18.1603 33.2496 17.7586 32.8667C17.6566 32.7675 17.5545 32.6684 17.4525 32.5693C16.7299 31.8677 16.0091 31.1679 15.3314 30.4508L15.3297 30.4491C15.1564 30.2696 14.977 30.1469 14.7619 30.1213C14.552 30.0964 14.3532 30.1702 14.1574 30.2711L14.1574 30.271L14.1543 30.2727C12.8937 30.948 11.6336 31.6006 10.3515 32.2304L10.3501 32.2311C10.1618 32.3252 9.98592 32.4436 9.90875 32.6365C9.83033 32.8326 9.87907 33.0404 9.96313 33.2446L9.96368 33.2459C11.4289 36.7398 12.8903 40.2375 14.348 43.739L14.3486 43.7405C14.5576 44.2322 14.8883 44.594 15.2963 44.7815C15.7062 44.97 16.1735 44.9726 16.6311 44.7819C17.0916 44.59 17.4089 44.2512 17.556 43.8298C17.702 43.4115 17.6743 42.9304 17.4833 42.4562L17.4828 42.4548C16.363 39.7269 15.2395 37.0064 14.1123 34.2935L14.1123 34.2935L14.1107 34.2897C14.0336 34.1136 13.9675 33.9482 13.901 33.7709L13.9003 33.7692C13.7994 33.5068 13.7956 33.3063 13.8451 33.1639C13.8923 33.0276 13.9993 32.9123 14.1928 32.8358C14.3872 32.7589 14.5385 32.7711 14.6587 32.8343C14.7852 32.9009 14.9117 33.0424 15.0124 33.289L15.0124 33.2891L15.0137 33.2921C15.388 34.1714 15.7556 35.0572 16.122 35.9404C16.2295 36.1994 16.3369 36.4582 16.4443 36.7165C16.6629 37.2464 16.8831 37.7746 17.1031 38.3022C17.6332 39.5738 18.162 40.8421 18.6632 42.1228C19.3248 43.8136 18.4044 45.6039 16.6383 46.0559C15.2524 46.4102 13.8471 45.6961 13.2439 44.2675L13.2438 44.2671C12.4627 42.4261 11.6931 40.5798 10.9225 38.7311C10.6035 37.966 10.2844 37.2004 9.96425 36.4346L8.67936 33.3576Z" fill="black" stroke="black" stroke-width="0.440529"/>
<path d="M29.0688 48.7026C26.1382 48.6462 23.2527 48.4095 20.4236 47.6092C20.3222 47.5754 20.2095 47.5529 20.108 47.5078C19.6346 47.3162 19.4205 46.9104 19.567 46.4821C19.7135 46.0538 20.0855 45.8284 20.5927 45.9298C21.7424 46.1665 22.8921 46.5159 24.053 46.6286C25.9804 46.809 27.9078 46.9555 29.8352 46.933C33.1039 46.8991 36.3613 46.6061 39.5511 45.8509C43.2143 44.983 46.6408 43.6079 49.4586 41.0268C52.2764 38.4456 53.6628 35.3573 54.0799 31.6941C54.4405 28.5156 54.2489 25.3483 53.1781 22.3164C51.5776 17.7965 48.2075 15.4183 43.575 14.6631C43.3157 14.6293 43.0565 14.6068 42.7972 14.5617C42.3239 14.4602 42.0872 14.1446 42.121 13.6712C42.1548 13.1978 42.4591 12.9048 42.91 12.9499C43.7553 13.0288 44.6232 13.1189 45.4573 13.3444C51.1493 14.9111 54.4067 18.6983 55.4662 24.4466C56.0862 27.7379 56.1425 31.0404 55.2859 34.3203C53.8093 39.9673 50.1011 43.6192 44.8712 45.8734C41.7716 47.2147 38.5254 47.9361 35.1778 48.263C33.149 48.4546 31.1089 48.556 29.0688 48.7026Z" fill="black"/>
<path d="M31.0184 16.9521C31.1536 15.8363 31.6045 14.9233 31.4692 13.8638C31.2438 12.1506 31.7736 10.6064 32.9345 9.29891C33.3966 8.76916 33.746 8.81424 34.3434 9.17492C34.9408 9.53561 35.6622 9.95265 36.361 10.0879C37.9277 10.3922 39.2126 10.9896 39.9227 12.5112C39.9957 12.6202 40.0787 12.7221 40.1707 12.8156C40.8695 13.6835 41.1062 14.6528 40.7681 15.7123C40.5166 16.5176 40.2193 17.3079 39.8776 18.0793C39.8006 18.2349 39.7643 18.4076 39.7722 18.581C39.78 18.7545 39.8319 18.9232 39.9227 19.0712C40.5765 20.2321 41.1851 21.4156 41.8163 22.5878C42.0305 22.971 42.1657 23.3543 41.8389 23.7375C41.512 24.1207 41.0949 24.0756 40.6554 23.9066C39.1788 23.3655 37.7135 22.8132 36.2257 22.306C35.448 22.0355 34.6477 21.8552 33.8475 21.6636C33.0135 21.4916 32.2602 21.0476 31.7059 20.4012L28.302 16.5126L28.2682 16.4675C27.7384 15.8814 27.6933 15.4305 28.1216 15.0473C28.5499 14.6641 29.0008 14.7993 29.5193 15.3629L30.5788 16.5351L31.0184 16.9521ZM33.9827 14.4725C33.4304 14.7091 33.1261 15.0586 33.0247 15.6109C32.9232 16.1632 32.7091 16.9634 32.5625 17.6397C32.4651 18.1359 32.5576 18.6505 32.8215 19.0818C33.0855 19.5131 33.5018 19.8295 33.988 19.9684C34.4742 20.1073 34.9949 20.0586 35.4468 19.8319C35.8988 19.6052 36.2492 19.217 36.4286 18.7443C36.8231 17.7073 36.9584 17.6397 38.1419 17.9891C38.4575 17.1663 38.7843 16.3322 39.0886 15.4869C39.3366 14.8219 39.2577 14.2019 38.7167 13.6835C38.5702 13.5482 38.5138 13.3228 38.3786 13.1762C37.9953 12.7818 37.6459 12.252 37.1725 12.0717C36.0679 11.6433 34.907 11.3841 33.7122 11.0347C33.3966 11.5644 33.1148 12.1731 33.1712 12.9283C33.577 12.7818 33.8926 12.6578 34.2082 12.5676C34.5238 12.4774 35.0761 12.6014 35.2113 13.0523C35.5382 14.1456 36.3384 14.7317 37.319 15.1713C37.8713 15.4192 38.0742 15.8814 37.8488 16.3322C37.6234 16.7831 37.1838 16.9071 36.6428 16.6816C35.5382 16.2308 34.6252 15.5432 33.9827 14.4725ZM39.4381 21.6861L38.5364 19.9954L37.0598 20.683L37.0936 20.8295L39.4381 21.6861Z" fill="black"/>
<path d="M28.5957 32.7877C29.396 33.0019 30.0159 33.1371 30.6245 33.3287C31.2332 33.5203 31.3572 33.9261 31.2332 34.377C31.1092 34.8278 30.6358 35.0645 30.1399 34.918C26.7134 33.8585 23.4672 34.5686 20.2887 35.9099L19.6237 36.2255C19.1165 36.4396 18.6882 36.3044 18.4627 35.8761C18.2373 35.4477 18.3726 34.9744 18.8798 34.7489C20.0182 34.2643 21.1566 33.7458 22.3401 33.4302C23.5236 33.1146 24.8085 32.9906 26.0371 32.7539C26.2692 32.7157 26.4848 32.6098 26.657 32.4496C29.2156 29.8797 32.3378 28.5497 35.9333 28.2566C36.5082 28.2115 37.0943 28.1777 37.6804 28.1777C38.4581 28.1777 38.8977 28.5159 38.8751 29.0569C38.8526 29.5979 38.4356 29.891 37.6691 29.8684C35.3472 29.8121 33.1155 30.2291 31.0303 31.3112C30.2413 31.7169 29.4974 32.2354 28.5957 32.7877Z" fill="black"/>
<path d="M46.3591 24.0637C46.2351 25.8897 44.8713 27.2873 42.9777 27.3775C40.8925 27.4902 38.8073 27.5579 36.7221 27.6368C36.2374 27.6593 35.7528 27.7044 35.2681 27.7157C34.7834 27.7269 34.1973 27.4226 34.1748 26.9154C34.1522 26.4082 34.5355 26.0588 35.1892 26.025C37.0602 25.9348 38.9425 25.8672 40.8136 25.7883L42.8988 25.6868C44.2964 25.6192 44.9727 24.4244 44.2964 23.1846C43.3722 21.4864 42.4404 19.7919 41.5011 18.1012C41.0841 17.3235 41.1066 16.8614 41.5913 16.5683C42.076 16.2752 42.5268 16.5007 42.9664 17.3009C43.8907 18.9804 44.8375 20.6485 45.7279 22.3505C46.0097 22.8802 46.1449 23.4889 46.3591 24.0637Z" fill="black"/>
<path d="M24.042 17.1092C24.0195 17.4924 23.7377 17.7291 23.2868 17.8531C21.923 18.2138 20.6381 18.7661 19.5109 19.6565C18.6165 20.344 17.9012 21.2372 17.4257 22.2602C17.1778 22.835 16.7382 23.0379 16.2761 22.8238C15.8139 22.6096 15.6674 22.1475 15.9154 21.5839C16.9523 19.2958 18.7783 17.8306 21.0326 16.8612C21.6516 16.5954 22.2928 16.3842 22.9487 16.23C23.5799 16.061 24.042 16.4329 24.042 17.1092Z" fill="black"/>
<path d="M33.9834 14.4729C34.6259 15.5437 35.5388 16.2312 36.6434 16.6821C37.1845 16.9075 37.6466 16.761 37.8495 16.3327C38.0523 15.9044 37.872 15.4197 37.3197 15.1717C36.3391 14.7322 35.5388 14.146 35.212 13.0527C35.0767 12.6019 34.6822 12.4328 34.2088 12.5681C33.7354 12.7033 33.5776 12.7822 33.1719 12.9287C33.1155 12.1736 33.3973 11.5649 33.7129 11.0352C34.9076 11.3846 36.0686 11.6438 37.1732 12.0721C37.6466 12.2525 37.996 12.7822 38.3792 13.1767C38.5145 13.3232 38.5708 13.5487 38.7174 13.6839C39.2584 14.2024 39.3373 14.8223 39.0893 15.4873C38.785 16.3327 38.4581 17.1668 38.1425 17.9896C36.959 17.6402 36.8238 17.7078 36.4293 18.7448C36.2499 19.2175 35.8995 19.6056 35.4475 19.8323C34.9955 20.059 34.4749 20.1078 33.9887 19.9688C33.5025 19.8299 33.0862 19.5135 32.8222 19.0823C32.5582 18.651 32.4658 18.1363 32.5632 17.6402C32.7097 16.9639 32.9013 16.2989 33.0253 15.6113C33.1493 14.9238 33.4311 14.7096 33.9834 14.4729Z" fill="white"/>
<path d="M39.4388 21.6868L37.0944 20.8302L37.0605 20.6836L38.5371 19.9961L39.4388 21.6868Z" fill="white"/>
</g>
<path d="M71.41 42L68.23 42.18C67.81 42.18 67.6 42.03 67.6 41.73C67.6 41.41 67.74 41.25 68.02 41.25C68.5 41.25 68.83 41.14 69.01 40.92C69.19 40.7 69.32 40.55 69.4 40.47C69.48 40.37 69.55 40.19 69.61 39.93C69.67 39.65 69.71 39.47 69.73 39.39C69.75 39.31 69.78 39.12 69.82 38.82L69.88 38.34C70.12 36.78 70.45 33.99 70.87 29.97C71.29 25.93 71.5 23.67 71.5 23.19C71.5 22.71 71.25 22.29 70.75 21.93C70.49 21.73 70.17 21.62 69.79 21.6C69.43 21.58 69.18 21.54 69.04 21.48C68.92 21.4 68.86 21.3 68.86 21.18C68.86 21.04 68.9 20.94 68.98 20.88C69.08 20.8 69.17 20.76 69.25 20.76L71.29 20.88L77.86 20.82C79.64 20.82 81.1 21.21 82.24 21.99C83.38 22.77 83.95 23.97 83.95 25.59C83.95 26.25 83.8 26.88 83.5 27.48C83.22 28.08 82.87 28.58 82.45 28.98C82.03 29.36 81.61 29.69 81.19 29.97C80.79 30.25 80.44 30.47 80.14 30.63C79.86 30.79 79.72 30.89 79.72 30.93C79.72 30.95 79.87 31.01 80.17 31.11C80.47 31.19 80.83 31.32 81.25 31.5C81.67 31.68 82.09 31.93 82.51 32.25C82.93 32.55 83.29 33 83.59 33.6C83.89 34.2 84.04 34.87 84.04 35.61C84.04 36.35 83.88 37.09 83.56 37.83C83.26 38.57 82.73 39.31 81.97 40.05C81.23 40.77 80.36 41.29 79.36 41.61C78.36 41.93 77.06 42.09 75.46 42.09L71.41 42ZM71.92 39.75C71.92 40.23 72.17 40.59 72.67 40.83C73.17 41.05 74.14 41.16 75.58 41.16C77.54 41.16 79.01 40.61 79.99 39.51C80.99 38.41 81.49 37.26 81.49 36.06C81.49 34.86 81.08 33.81 80.26 32.91C79.46 31.99 78.29 31.47 76.75 31.35C75.21 31.23 74.32 31.17 74.08 31.17H73.21C73.03 31.17 72.86 31.87 72.7 33.27C72.54 34.65 72.43 35.55 72.37 35.97L72.13 37.98C72.11 38.2 72.08 38.46 72.04 38.76C71.96 39.32 71.92 39.65 71.92 39.75ZM73.24 29.88C73.24 30.14 73.45 30.3 73.87 30.36C74.29 30.4 75.42 30.42 77.26 30.42C78.04 30.42 78.73 30.26 79.33 29.94C79.93 29.62 80.38 29.22 80.68 28.74C81.28 27.78 81.58 26.88 81.58 26.04C81.58 24.88 81.14 23.93 80.26 23.19C79.74 22.75 79.16 22.43 78.52 22.23C77.9 22.03 77.13 21.93 76.21 21.93C75.29 21.93 74.73 22.01 74.53 22.17C74.33 22.33 74.19 22.67 74.11 23.19L73.75 25.65C73.41 27.87 73.24 29.28 73.24 29.88ZM91.0691 42.36C89.2891 42.36 88.0491 41.94 87.3491 41.1C86.6691 40.26 86.3291 39.15 86.3291 37.77C86.3291 36.39 86.6291 35.08 87.2291 33.84C87.8291 32.6 88.6691 31.47 89.7491 30.45C90.8491 29.43 92.2291 28.92 93.8891 28.92C94.6091 28.92 95.2191 29.13 95.7191 29.55C96.2391 29.97 96.4991 30.47 96.4991 31.05C96.4991 31.61 96.3791 32.12 96.1391 32.58C95.8991 33.02 95.5991 33.39 95.2391 33.69C94.5991 34.23 94.0491 34.59 93.5891 34.77C92.4291 35.29 90.8591 35.56 88.8791 35.58C88.5391 35.58 88.3691 36.08 88.3691 37.08C88.3691 38.06 88.7291 38.89 89.4491 39.57C90.1691 40.23 91.2491 40.56 92.6891 40.56C93.5291 40.56 94.4291 40.24 95.3891 39.6C95.6891 39.38 95.8691 39.27 95.9291 39.27C96.1691 39.27 96.2891 39.37 96.2891 39.57C96.2891 39.99 95.7091 40.56 94.5491 41.28C93.4091 42 92.2491 42.36 91.0691 42.36ZM90.3791 31.23C89.9791 31.65 89.6091 32.23 89.2691 32.97C88.9491 33.71 88.7891 34.25 88.7891 34.59C88.7891 34.91 88.8791 35.07 89.0591 35.07C90.4791 35.07 91.7291 34.67 92.8091 33.87C93.8891 33.07 94.4291 32.19 94.4291 31.23C94.4291 30.73 94.2491 30.37 93.8891 30.15C93.5491 29.93 93.1991 29.82 92.8391 29.82C92.0991 29.82 91.2791 30.29 90.3791 31.23ZM107.849 20.67L106.979 20.7H106.799C106.479 20.7 106.319 20.59 106.319 20.37C106.319 20.21 106.399 20.1 106.559 20.04C106.739 19.98 107.009 19.93 107.369 19.89C107.749 19.85 108.049 19.8 108.269 19.74C108.509 19.68 108.749 19.62 108.989 19.56C109.249 19.5 109.419 19.46 109.499 19.44C109.599 19.4 109.709 19.37 109.829 19.35C109.949 19.31 110.059 19.29 110.159 19.29H110.519C110.659 19.29 110.769 19.34 110.849 19.44C110.949 19.54 110.999 19.66 110.999 19.8C110.999 19.94 110.979 20.12 110.939 20.34C110.919 20.56 110.859 20.98 110.759 21.6C110.679 22.2 110.579 22.92 110.459 23.76C110.059 26.36 109.609 29.41 109.109 32.91C108.629 36.41 108.389 38.4 108.389 38.88C108.389 39.74 108.649 40.17 109.169 40.17C109.789 40.17 110.439 39.7 111.119 38.76C111.359 38.46 111.539 38.31 111.659 38.31C111.879 38.31 111.989 38.4 111.989 38.58C111.989 39.04 111.559 39.77 110.699 40.77C109.859 41.75 109.009 42.24 108.149 42.24C107.669 42.24 107.299 42.07 107.039 41.73C106.779 41.37 106.629 40.98 106.589 40.56C106.549 40.14 106.509 39.76 106.469 39.42C106.449 39.06 106.399 38.88 106.319 38.88C106.279 38.88 106.129 39.06 105.869 39.42C105.609 39.76 105.299 40.14 104.939 40.56C104.599 40.98 104.119 41.37 103.499 41.73C102.879 42.07 102.229 42.24 101.549 42.24C100.329 42.24 99.4195 41.88 98.8195 41.16C98.2395 40.42 97.9495 39.45 97.9495 38.25C97.9495 35.95 98.7395 33.86 100.319 31.98C101.899 30.08 103.599 29.13 105.419 29.13C105.679 29.13 106.039 29.2 106.499 29.34C106.979 29.46 107.359 29.52 107.639 29.52C107.679 29.52 107.869 28.21 108.209 25.59C108.549 22.95 108.719 21.54 108.719 21.36C108.719 21.18 108.629 21.02 108.449 20.88C108.289 20.74 108.089 20.67 107.849 20.67ZM102.719 31.02C101.899 31.86 101.249 32.87 100.769 34.05C100.289 35.23 100.049 36.32 100.049 37.32C100.049 39.44 100.899 40.5 102.599 40.5C103.799 40.5 104.809 39.98 105.629 38.94C106.149 38.3 106.549 37.06 106.829 35.22C107.129 33.38 107.279 31.96 107.279 30.96C107.279 30.58 107.059 30.29 106.619 30.09C106.199 29.87 105.749 29.76 105.269 29.76C104.389 29.76 103.539 30.18 102.719 31.02ZM119.85 35.43C119.85 34.33 120.14 33.24 120.72 32.16C121.56 30.66 122.55 29.59 123.69 28.95C124.01 28.77 124.24 28.64 124.38 28.56C124.52 28.46 124.59 28.38 124.59 28.32C124.59 28.24 124.58 28.14 124.56 28.02C124.44 27.54 124.38 26.9 124.38 26.1C124.38 25.28 124.59 24.46 125.01 23.64C125.45 22.82 126 22.18 126.66 21.72C128.02 20.8 129.36 20.34 130.68 20.34C131.28 20.34 131.84 20.46 132.36 20.7C133.38 21.12 133.89 21.84 133.89 22.86C133.89 24.26 133.24 24.96 131.94 24.96C131.7 24.96 131.58 24.89 131.58 24.75C131.58 24.67 131.64 24.48 131.76 24.18C131.9 23.86 131.97 23.57 131.97 23.31C131.97 23.05 131.79 22.78 131.43 22.5C131.09 22.22 130.66 22.08 130.14 22.08C128.6 22.08 127.42 22.63 126.6 23.73C125.78 24.81 125.37 25.96 125.37 27.18C125.37 27.54 125.49 27.72 125.73 27.72C125.83 27.72 126.12 27.67 126.6 27.57C127.08 27.47 127.51 27.42 127.89 27.42C128.69 27.42 129.31 27.62 129.75 28.02C130.19 28.42 130.41 28.89 130.41 29.43C130.41 29.97 130.2 30.43 129.78 30.81C129.36 31.19 128.83 31.38 128.19 31.38C127.57 31.38 127.05 31.27 126.63 31.05C126.21 30.83 125.89 30.6 125.67 30.36C125.47 30.1 125.28 29.86 125.1 29.64C124.94 29.42 124.79 29.31 124.65 29.31C124.53 29.31 124.28 29.51 123.9 29.91C123.54 30.29 123.18 30.87 122.82 31.65C122.48 32.41 122.31 33.28 122.31 34.26C122.31 35.24 122.56 36.25 123.06 37.29C123.58 38.33 124.4 39.22 125.52 39.96C126.64 40.7 128.05 41.07 129.75 41.07C131.45 41.07 133.02 40.45 134.46 39.21C135.92 37.97 136.65 36.56 136.65 34.98C136.65 34.14 136.41 33.44 135.93 32.88C135.45 32.32 134.82 32.04 134.04 32.04C133.28 32.04 132.65 32.26 132.15 32.7C131.65 33.12 131.4 33.65 131.4 34.29C131.4 34.91 131.54 35.36 131.82 35.64C132.1 35.9 132.38 36.03 132.66 36.03C132.94 36.03 133.18 35.92 133.38 35.7C133.6 35.48 133.77 35.37 133.89 35.37C134.01 35.37 134.07 35.48 134.07 35.7C134.07 35.92 133.9 36.16 133.56 36.42C133.24 36.68 132.84 36.81 132.36 36.81C131.58 36.81 130.97 36.49 130.53 35.85C130.09 35.21 129.87 34.61 129.87 34.05C129.87 33.49 129.97 32.99 130.17 32.55C130.37 32.11 130.61 31.75 130.89 31.47C131.17 31.17 131.58 30.87 132.12 30.57C132.68 30.25 133.16 30 133.56 29.82C133.98 29.64 134.58 29.39 135.36 29.07C136.14 28.75 136.75 28.49 137.19 28.29C138.77 27.59 139.95 26.86 140.73 26.1C141.51 25.34 141.9 24.44 141.9 23.4C141.9 22.88 141.68 22.39 141.24 21.93C140.82 21.47 140.34 21.24 139.8 21.24C138.54 21.24 137.91 21.76 137.91 22.8C137.91 23.14 138.14 23.41 138.6 23.61C139.08 23.81 139.32 23.99 139.32 24.15C139.32 24.97 138.85 25.38 137.91 25.38C137.47 25.38 137.12 25.2 136.86 24.84C136.62 24.48 136.5 24.03 136.5 23.49C136.5 22.63 136.86 21.91 137.58 21.33C138.3 20.73 139.08 20.43 139.92 20.43C140.78 20.43 141.53 20.77 142.17 21.45C142.81 22.13 143.13 22.93 143.13 23.85C143.13 24.77 142.9 25.63 142.44 26.43C141.98 27.21 141.42 27.84 140.76 28.32C140.12 28.8 139.47 29.22 138.81 29.58C138.17 29.94 137.62 30.23 137.16 30.45C136.7 30.67 136.47 30.82 136.47 30.9C136.47 30.98 136.56 31.09 136.74 31.23C136.94 31.35 137.15 31.5 137.37 31.68C137.59 31.86 137.79 32.16 137.97 32.58C138.17 33 138.27 33.5 138.27 34.08C138.27 36 137.64 37.59 136.38 38.85C135.12 40.09 133.86 40.98 132.6 41.52C131.36 42.04 129.87 42.3 128.13 42.3C125.71 42.3 123.72 41.71 122.16 40.53C120.62 39.33 119.85 37.63 119.85 35.43ZM127.32 28.29C127 28.29 126.71 28.38 126.45 28.56C126.19 28.72 126.06 28.91 126.06 29.13C126.06 29.35 126.23 29.63 126.57 29.97C126.91 30.29 127.26 30.45 127.62 30.45C127.98 30.45 128.27 30.35 128.49 30.15C128.73 29.95 128.85 29.68 128.85 29.34C128.85 29 128.68 28.74 128.34 28.56C128 28.38 127.66 28.29 127.32 28.29ZM153.686 39.6C152.886 38.64 152.276 37.57 151.856 36.39C151.456 35.21 151.256 33.92 151.256 32.52C151.256 31.12 151.496 29.73 151.976 28.35C152.456 26.95 153.156 25.67 154.076 24.51C155.016 23.35 156.246 22.43 157.766 21.75C159.286 21.05 161.006 20.7 162.926 20.7C164.146 20.7 165.336 20.89 166.496 21.27C167.656 21.65 168.566 22.03 169.226 22.41L170.186 22.98C170.246 22.98 170.346 22.9 170.486 22.74C170.646 22.58 170.766 22.5 170.846 22.5C171.086 22.5 171.206 22.66 171.206 22.98C171.206 24.74 171.246 25.89 171.326 26.43C171.426 26.97 171.476 27.31 171.476 27.45C171.476 27.93 171.336 28.17 171.056 28.17C170.916 28.17 170.796 28.09 170.696 27.93C170.596 27.77 170.466 27.48 170.306 27.06C170.166 26.62 170.016 26.2 169.856 25.8C169.536 24.98 168.946 24.28 168.086 23.7C166.266 22.46 164.416 21.84 162.536 21.84C160.676 21.84 159.066 22.35 157.706 23.37C156.366 24.37 155.376 25.63 154.736 27.15C154.116 28.65 153.806 30.26 153.806 31.98C153.806 34.92 154.616 37.26 156.236 39C157.856 40.72 159.846 41.58 162.206 41.58C164.586 41.58 166.686 40.55 168.506 38.49C168.746 38.23 168.966 37.89 169.166 37.47C169.366 37.03 169.536 36.69 169.676 36.45C169.816 36.19 169.976 36.06 170.156 36.06C170.476 36.06 170.636 36.24 170.636 36.6C170.636 36.86 170.556 37.2 170.396 37.62C170.256 38.04 170.156 38.36 170.096 38.58C170.036 38.78 169.966 39.05 169.886 39.39C169.826 39.73 169.766 39.97 169.706 40.11C169.666 40.23 169.576 40.33 169.436 40.41C166.536 41.93 163.866 42.69 161.426 42.69C159.746 42.69 158.236 42.41 156.896 41.85C155.576 41.29 154.506 40.54 153.686 39.6ZM175.382 20.85L174.152 20.88C173.892 20.88 173.762 20.77 173.762 20.55C173.762 20.31 174.182 20.16 175.022 20.1C175.882 20.02 176.582 19.92 177.122 19.8C177.662 19.66 178.002 19.59 178.142 19.59C178.382 19.59 178.502 19.72 178.502 19.98C178.502 20.02 178.202 21.68 177.602 24.96C177.002 28.22 176.702 30.39 176.702 31.47C176.702 31.69 176.732 31.8 176.792 31.8C176.872 31.8 177.042 31.67 177.302 31.41C177.562 31.13 177.852 30.84 178.172 30.54C178.512 30.22 178.952 29.93 179.492 29.67C180.052 29.39 180.612 29.25 181.172 29.25C182.952 29.25 183.842 30.38 183.842 32.64C183.842 33.24 183.722 34.29 183.482 35.79C183.242 37.29 183.122 38.26 183.122 38.7C183.122 39.62 183.362 40.08 183.842 40.08C184.102 40.08 184.422 39.97 184.802 39.75C185.182 39.51 185.452 39.29 185.612 39.09C185.792 38.87 185.942 38.69 186.062 38.55C186.182 38.39 186.272 38.31 186.332 38.31C186.532 38.31 186.632 38.39 186.632 38.55C186.632 39.23 186.152 39.99 185.192 40.83C184.232 41.67 183.412 42.09 182.732 42.09C181.752 42.09 181.262 41.16 181.262 39.3C181.262 38.68 181.352 37.66 181.532 36.24C181.712 34.8 181.802 33.78 181.802 33.18C181.802 31.62 181.232 30.84 180.092 30.84C179.412 30.84 178.732 31.04 178.052 31.44C177.052 32.04 176.392 33.3 176.072 35.22C175.952 35.96 175.812 36.99 175.652 38.31C175.512 39.63 175.402 40.52 175.322 40.98C175.262 41.44 175.142 41.73 174.962 41.85C174.802 41.97 174.552 42.03 174.212 42.03C173.552 42.03 173.222 41.79 173.222 41.31C173.222 41.03 173.352 40.15 173.612 38.67C173.872 37.17 174.032 36.23 174.092 35.85C174.152 35.45 174.372 33.97 174.752 31.41C175.132 28.85 175.472 26.58 175.772 24.6C176.072 22.62 176.222 21.6 176.222 21.54C176.222 21.08 175.942 20.85 175.382 20.85ZM191.982 25.8C191.782 25.8 191.512 25.58 191.172 25.14C190.852 24.7 190.692 24.4 190.692 24.24C190.692 24.06 190.882 23.75 191.262 23.31C191.642 22.85 191.962 22.62 192.222 22.62C192.482 22.62 192.732 22.81 192.972 23.19C193.232 23.57 193.362 23.91 193.362 24.21C193.362 24.49 193.182 24.83 192.822 25.23C192.462 25.61 192.182 25.8 191.982 25.8ZM189.282 30.51L187.932 30.48C187.652 30.48 187.512 30.36 187.512 30.12C187.512 29.84 187.742 29.7 188.202 29.7H188.502C188.862 29.7 189.362 29.66 190.002 29.58C190.662 29.48 191.302 29.43 191.922 29.43C192.202 29.43 192.342 29.54 192.342 29.76C192.342 30.02 192.222 30.54 191.982 31.32C191.762 32.1 191.612 32.74 191.532 33.24C190.932 37.02 190.632 39.01 190.632 39.21C190.632 39.41 190.692 39.6 190.812 39.78C190.932 39.94 191.072 40.02 191.232 40.02C191.632 40.02 192.012 39.76 192.372 39.24C192.752 38.72 192.992 38.46 193.092 38.46C193.292 38.46 193.392 38.56 193.392 38.76C193.392 38.96 193.292 39.26 193.092 39.66C192.892 40.06 192.702 40.35 192.522 40.53C191.422 41.71 190.502 42.3 189.762 42.3C189.022 42.3 188.652 41.47 188.652 39.81C188.652 39.01 188.872 37.5 189.312 35.28C189.772 33.04 190.002 31.73 190.002 31.35C190.002 30.97 189.952 30.74 189.852 30.66C189.752 30.56 189.562 30.51 189.282 30.51ZM197.562 20.85L196.692 20.88C196.112 20.88 195.822 20.75 195.822 20.49C195.822 20.21 195.972 20.06 196.272 20.04C197.072 19.98 197.822 19.89 198.522 19.77C199.222 19.65 199.682 19.59 199.902 19.59C200.322 19.59 200.532 19.75 200.532 20.07C200.532 20.23 200.482 20.46 200.382 20.76C200.302 21.06 200.172 21.68 199.992 22.62C199.832 23.54 199.692 24.44 199.572 25.32C199.452 26.18 199.332 27.19 199.212 28.35C199.112 29.49 198.852 31.49 198.432 34.35C198.012 37.21 197.802 38.84 197.802 39.24C197.802 39.62 197.832 39.88 197.892 40.02C197.952 40.16 198.122 40.23 198.402 40.23C198.702 40.23 199.002 40.12 199.302 39.9C199.602 39.68 199.832 39.44 199.992 39.18C200.372 38.46 200.712 38.1 201.012 38.1C201.252 38.1 201.372 38.25 201.372 38.55C201.372 38.85 200.872 39.58 199.872 40.74C199.512 41.16 199.062 41.52 198.522 41.82C198.002 42.1 197.602 42.24 197.322 42.24C197.062 42.24 196.872 42.22 196.752 42.18C196.632 42.14 196.492 42.04 196.332 41.88C195.972 41.58 195.792 40.76 195.792 39.42C195.792 38.56 195.932 37.4 196.212 35.94C196.492 34.48 196.652 33.6 196.692 33.3C196.732 33 196.822 32.17 196.962 30.81C197.122 29.45 197.382 27.59 197.742 25.23C198.122 22.85 198.312 21.59 198.312 21.45C198.312 21.05 198.062 20.85 197.562 20.85ZM205.384 20.85L204.514 20.88C203.934 20.88 203.644 20.75 203.644 20.49C203.644 20.21 203.794 20.06 204.094 20.04C204.894 19.98 205.644 19.89 206.344 19.77C207.044 19.65 207.504 19.59 207.724 19.59C208.144 19.59 208.354 19.75 208.354 20.07C208.354 20.23 208.304 20.46 208.204 20.76C208.124 21.06 207.994 21.68 207.814 22.62C207.654 23.54 207.514 24.44 207.394 25.32C207.274 26.18 207.154 27.19 207.034 28.35C206.934 29.49 206.674 31.49 206.254 34.35C205.834 37.21 205.624 38.84 205.624 39.24C205.624 39.62 205.654 39.88 205.714 40.02C205.774 40.16 205.944 40.23 206.224 40.23C206.524 40.23 206.824 40.12 207.124 39.9C207.424 39.68 207.654 39.44 207.814 39.18C208.194 38.46 208.534 38.1 208.834 38.1C209.074 38.1 209.194 38.25 209.194 38.55C209.194 38.85 208.694 39.58 207.694 40.74C207.334 41.16 206.884 41.52 206.344 41.82C205.824 42.1 205.424 42.24 205.144 42.24C204.884 42.24 204.694 42.22 204.574 42.18C204.454 42.14 204.314 42.04 204.154 41.88C203.794 41.58 203.614 40.76 203.614 39.42C203.614 38.56 203.754 37.4 204.034 35.94C204.314 34.48 204.474 33.6 204.514 33.3C204.554 33 204.644 32.17 204.784 30.81C204.944 29.45 205.204 27.59 205.564 25.23C205.944 22.85 206.134 21.59 206.134 21.45C206.134 21.05 205.884 20.85 205.384 20.85Z" fill="#292A36"/>
<defs>
<clipPath id="clip0_0_1">
<rect width="57.7093" height="57.7093" fill="white"/>
</clipPath>
</defs>
</svg>
