<svg width="30" height="31" viewBox="0 0 30 31" fill="none" xmlns="http://www.w3.org/2000/svg">
<path d="M19.5586 9.11815L18.8274 10.2035C17.9452 9.41415 16.9643 8.92081 15.7687 8.79312V9.12395C15.7687 10.691 15.7745 12.2581 15.7629 13.8252C15.7629 14.0574 15.8268 14.1619 16.0531 14.2315C16.9121 14.4985 17.7362 14.8467 18.4965 15.3459C20.8761 16.9304 20.5627 20.2329 18.1483 21.5098C17.4576 21.8812 16.7205 22.0844 15.9486 22.1888L15.7687 22.2237C15.7687 22.6358 15.7571 23.0478 15.7745 23.4599C15.7861 23.7211 15.7165 23.8372 15.4379 23.814C15.148 23.7966 14.8572 23.7966 14.5673 23.814C14.3061 23.8314 14.2307 23.7211 14.2423 23.4773C14.2539 23.2336 14.2307 22.8389 14.2481 22.5197C14.2655 22.2005 14.1668 22.2121 13.9347 22.1888C12.6811 22.0553 11.5087 21.6955 10.5336 20.8597C10.2086 20.5753 10.2086 20.5753 10.4234 20.1981L10.789 19.5712L10.8528 19.4667C11.8105 20.3548 12.9248 20.8365 14.2249 20.9352C14.2307 20.8307 14.2423 20.7378 14.2423 20.645C14.2423 18.9618 14.2442 17.2786 14.2481 15.5955C14.2539 15.3575 14.1727 15.2646 13.9521 15.1892C13.3543 14.9976 12.7565 14.8061 12.1877 14.5391C10.9051 13.9471 10.1506 12.9546 10.1332 11.5094C10.1157 10.0642 10.7542 8.92661 12.0252 8.17789C12.6149 7.84107 13.2662 7.62595 13.9405 7.54525C14.161 7.51623 14.2597 7.44078 14.2481 7.20282C14.2307 6.85457 14.2481 6.50633 14.2423 6.15809C14.2423 5.98977 14.3061 5.91432 14.4803 5.91432C14.8285 5.92593 15.1767 5.92593 15.525 5.91432C15.7223 5.90851 15.7745 6.00138 15.7687 6.1813C15.7629 6.48892 15.7919 6.80234 15.7629 7.10415C15.7339 7.40596 15.879 7.51043 16.1634 7.54525C17.107 7.64744 18.0105 7.98251 18.7925 8.52033C19.0537 8.70026 19.2917 8.9092 19.5586 9.11815ZM15.7977 15.787V20.8945C16.6277 20.7669 17.3706 20.5289 17.9452 19.9253C18.6532 19.1882 18.7461 18.039 18.1541 17.2322C17.5621 16.4254 16.7031 16.1178 15.7977 15.787ZM14.2249 8.83375C13.6425 8.88244 13.0855 9.09359 12.6172 9.44317C11.3578 10.3892 11.41 12.1943 12.7507 13.0301C13.157 13.2796 13.6213 13.4305 14.0624 13.6279C14.1159 13.6379 14.1705 13.6418 14.2249 13.6395V8.83375Z" fill="black"/>
<path d="M26.0937 4.92723L26.883 4.39906L27.6956 3.85929C27.7246 5.3219 27.7594 6.70327 27.7884 8.16588L23.4529 6.72068L25.0838 5.6005C24.6485 5.19422 24.2597 4.80535 23.836 4.4571C21.7234 2.69654 19.2993 1.65956 16.5637 1.34614C9.40177 0.516161 2.81438 5.35093 1.45047 12.4667C0.978802 14.9113 1.18554 17.4385 2.04827 19.774C2.12952 19.9945 2.11792 20.1222 1.89737 20.2325C1.67682 20.3428 1.45047 20.5053 1.22992 20.6446L1.14867 20.6736C-0.731783 16.6282 -0.77241 9.36732 4.6426 4.20753C7.67222 1.32292 11.317 -0.0700468 15.5016 0.0634461C19.6862 0.196939 23.1918 1.88591 26.0937 4.92723Z" fill="black"/>
<path d="M2.64062 26.4009V22.1233L6.91808 23.6498L5.21174 24.7642C5.50774 25.037 5.76891 25.2923 6.04169 25.5245C8.18332 27.3354 10.6384 28.4265 13.43 28.7341C20.3366 29.4945 26.6222 25.1821 28.3576 18.4784C29.0598 15.7737 28.9321 13.0981 28.0093 10.463C27.9107 10.1844 27.9571 10.0451 28.2067 9.91164C28.4562 9.77815 28.6594 9.62725 28.9322 9.45312C29.0772 9.88262 29.2281 10.2657 29.35 10.6604C31.8863 19.1343 26.7673 27.8868 18.1079 29.6976C12.9367 30.7772 8.37485 29.3842 4.50947 25.7567C4.16704 25.4316 4.17285 25.4258 3.76658 25.687L2.64062 26.4009Z" fill="black"/>
</svg>
