<svg width="60" height="60" viewBox="0 0 60 60" fill="none" xmlns="http://www.w3.org/2000/svg">
<path d="M50.4163 6.66536H44.583V3.7487C44.583 2.97515 44.2757 2.23328 43.7287 1.6863C43.1818 1.13932 42.4399 0.832031 41.6663 0.832031C40.8928 0.832031 40.1509 1.13932 39.6039 1.6863C39.057 2.23328 38.7497 2.97515 38.7497 3.7487V6.66536H21.2497V3.7487C21.2497 2.97515 20.9424 2.23328 20.3954 1.6863C19.8484 1.13932 19.1066 0.832031 18.333 0.832031C17.5595 0.832031 16.8176 1.13932 16.2706 1.6863C15.7236 2.23328 15.4163 2.97515 15.4163 3.7487V6.66536H9.58301C7.26236 6.66536 5.03677 7.58724 3.39582 9.22818C1.75488 10.8691 0.833008 13.0947 0.833008 15.4154V50.4154C0.833008 52.736 1.75488 54.9616 3.39582 56.6025C5.03677 58.2435 7.26236 59.1654 9.58301 59.1654H50.4163C52.737 59.1654 54.9626 58.2435 56.6035 56.6025C58.2445 54.9616 59.1663 52.736 59.1663 50.4154V15.4154C59.1663 13.0947 58.2445 10.8691 56.6035 9.22818C54.9626 7.58724 52.737 6.66536 50.4163 6.66536ZM53.333 50.4154C53.333 51.1889 53.0257 51.9308 52.4787 52.4778C51.9318 53.0247 51.1899 53.332 50.4163 53.332H9.58301C8.80946 53.332 8.06759 53.0247 7.52061 52.4778C6.97363 51.9308 6.66634 51.1889 6.66634 50.4154V29.9987H53.333V50.4154ZM53.333 24.1654H6.66634V15.4154C6.66634 14.6418 6.97363 13.9 7.52061 13.353C8.06759 12.806 8.80946 12.4987 9.58301 12.4987H15.4163V15.4154C15.4163 16.1889 15.7236 16.9308 16.2706 17.4778C16.8176 18.0247 17.5595 18.332 18.333 18.332C19.1066 18.332 19.8484 18.0247 20.3954 17.4778C20.9424 16.9308 21.2497 16.1889 21.2497 15.4154V12.4987H38.7497V15.4154C38.7497 16.1889 39.057 16.9308 39.6039 17.4778C40.1509 18.0247 40.8928 18.332 41.6663 18.332C42.4399 18.332 43.1818 18.0247 43.7287 17.4778C44.2757 16.9308 44.583 16.1889 44.583 15.4154V12.4987H50.4163C51.1899 12.4987 51.9318 12.806 52.4787 13.353C53.0257 13.9 53.333 14.6418 53.333 15.4154V24.1654Z" fill="#2892F3"/>
</svg>
