<svg width="22" height="22" viewBox="0 0 22 22" fill="none" xmlns="http://www.w3.org/2000/svg">
<path d="M18.5837 2.33464H16.417V1.2513C16.417 0.963984 16.3029 0.688434 16.0997 0.48527C15.8965 0.282105 15.621 0.167969 15.3337 0.167969C15.0463 0.167969 14.7708 0.282105 14.5676 0.48527C14.3645 0.688434 14.2503 0.963984 14.2503 1.2513V2.33464H7.75033V1.2513C7.75033 0.963984 7.63619 0.688434 7.43302 0.48527C7.22986 0.282105 6.95431 0.167969 6.66699 0.167969C6.37967 0.167969 6.10412 0.282105 5.90096 0.48527C5.6978 0.688434 5.58366 0.963984 5.58366 1.2513V2.33464H3.41699C2.55504 2.33464 1.72839 2.67705 1.1189 3.28654C0.509402 3.89603 0.166992 4.72268 0.166992 5.58463V18.5846C0.166992 19.4466 0.509402 20.2732 1.1189 20.8827C1.72839 21.4922 2.55504 21.8346 3.41699 21.8346H18.5837C19.4456 21.8346 20.2723 21.4922 20.8818 20.8827C21.4912 20.2732 21.8337 19.4466 21.8337 18.5846V5.58463C21.8337 4.72268 21.4912 3.89603 20.8818 3.28654C20.2723 2.67705 19.4456 2.33464 18.5837 2.33464ZM19.667 18.5846C19.667 18.872 19.5529 19.1475 19.3497 19.3507C19.1465 19.5538 18.871 19.668 18.5837 19.668H3.41699C3.12967 19.668 2.85412 19.5538 2.65096 19.3507C2.4478 19.1475 2.33366 18.872 2.33366 18.5846V11.0013H19.667V18.5846ZM19.667 8.83463H2.33366V5.58463C2.33366 5.29732 2.4478 5.02177 2.65096 4.8186C2.85412 4.61544 3.12967 4.5013 3.41699 4.5013H5.58366V5.58463C5.58366 5.87195 5.6978 6.1475 5.90096 6.35067C6.10412 6.55383 6.37967 6.66797 6.66699 6.66797C6.95431 6.66797 7.22986 6.55383 7.43302 6.35067C7.63619 6.1475 7.75033 5.87195 7.75033 5.58463V4.5013H14.2503V5.58463C14.2503 5.87195 14.3645 6.1475 14.5676 6.35067C14.7708 6.55383 15.0463 6.66797 15.3337 6.66797C15.621 6.66797 15.8965 6.55383 16.0997 6.35067C16.3029 6.1475 16.417 5.87195 16.417 5.58463V4.5013H18.5837C18.871 4.5013 19.1465 4.61544 19.3497 4.8186C19.5529 5.02177 19.667 5.29732 19.667 5.58463V8.83463Z" fill="black"/>
</svg>
