<svg width="30" height="31" viewBox="0 0 30 31" fill="none" xmlns="http://www.w3.org/2000/svg">
<g clip-path="url(#clip0_41_128996)">
<path fill-rule="evenodd" clip-rule="evenodd" d="M0 0.421875H1.875V28.4727H30V30.3428H0V0.421875ZM18.75 6.96707C18.75 6.71909 18.8488 6.48126 19.0246 6.30591C19.2004 6.13056 19.4389 6.03205 19.6875 6.03205H27.1875C27.4361 6.03205 27.6746 6.13056 27.8504 6.30591C28.0262 6.48126 28.125 6.71909 28.125 6.96707V14.4473C28.125 14.6953 28.0262 14.9331 27.8504 15.1085C27.6746 15.2838 27.4361 15.3823 27.1875 15.3823C26.9389 15.3823 26.7004 15.2838 26.5246 15.1085C26.3488 14.9331 26.25 14.6953 26.25 14.4473V9.58515L19.4756 17.8452C19.3927 17.9462 19.2895 18.0287 19.1727 18.0875C19.0558 18.1462 18.9279 18.18 18.7973 18.1865C18.6666 18.193 18.5359 18.1722 18.4138 18.1253C18.2917 18.0784 18.1807 18.0066 18.0881 17.9144L13.2375 13.0766L6.3825 22.4773C6.23254 22.6675 6.01451 22.7923 5.77422 22.8255C5.53393 22.8587 5.29009 22.7977 5.09395 22.6554C4.8978 22.513 4.76462 22.3003 4.72239 22.0621C4.68017 21.8238 4.73218 21.5785 4.8675 21.3777L12.3675 11.0924C12.4471 10.983 12.5495 10.8922 12.6677 10.8261C12.7859 10.76 12.9171 10.7203 13.0522 10.7096C13.1873 10.6989 13.3231 10.7176 13.4502 10.7643C13.5774 10.811 13.6929 10.8847 13.7887 10.9802L18.6806 15.8611L25.2094 7.9021H19.6875C19.4389 7.9021 19.2004 7.80359 19.0246 7.62824C18.8488 7.45289 18.75 7.21506 18.75 6.96707Z" fill="#111111"/>
</g>
<defs>
<clipPath id="clip0_41_128996">
<rect width="30" height="29.9209" fill="white" transform="translate(0 0.421875)"/>
</clipPath>
</defs>
</svg>
