<svg width="18" height="19" viewBox="0 0 18 19" fill="none" xmlns="http://www.w3.org/2000/svg">
<path d="M9 2.42969C4.96125 2.42969 1.6875 5.69481 1.6875 9.72291C1.6875 13.751 4.96125 17.0161 9 17.0161C13.0387 17.0161 16.3125 13.751 16.3125 9.72291C16.3125 5.69481 13.0387 2.42969 9 2.42969ZM9 15.8941C5.58984 15.8941 2.8125 13.1258 2.8125 9.72291C2.8096 8.89291 2.976 8.071 3.30158 7.30716C3.62716 6.54331 4.10511 5.85349 4.70637 5.27965L9.80859 8.91645L9.14062 9.96836L4.74609 6.77757C4.28906 7.58403 3.80742 8.39049 3.80742 9.72291C3.80742 12.5785 6.13688 14.9018 9 14.9018C11.8631 14.9018 14.1926 12.5785 14.1926 9.72291C14.1926 7.03459 12.1282 4.81822 9.49746 4.56857V6.49706H8.50254V3.54786C8.6516 3.55032 8.81684 3.55172 9 3.55172C12.4119 3.55172 15.1875 6.32174 15.1875 9.72291C15.1875 13.1241 12.4119 15.8941 9 15.8941Z" fill="#111111"/>
</svg>
