<svg width="36" height="22" viewBox="0 0 36 22" fill="none" xmlns="http://www.w3.org/2000/svg">
<path d="M33.0282 0.820312H2.711C2.09249 0.820313 1.49931 1.06601 1.06196 1.50337C0.624608 1.94072 0.378906 2.53389 0.378906 3.1524V19.477C0.378906 20.0955 0.624608 20.6887 1.06196 21.1261C1.49931 21.5634 2.09249 21.8091 2.711 21.8091H33.0282C33.6467 21.8091 34.2398 21.5634 34.6772 21.1261C35.1145 20.6887 35.3602 20.0955 35.3602 19.477V3.1524C35.3602 2.53389 35.1145 1.94072 34.6772 1.50337C34.2398 1.06601 33.6467 0.820313 33.0282 0.820312ZM11.3106 19.477L2.711 11.956V10.6734L11.3106 3.1524H24.4286L33.0282 10.6734V11.956L24.4286 19.477H11.3106ZM33.0282 7.58337L27.9704 3.1524H33.0282V7.58337ZM7.76871 3.1524L2.711 7.58337V3.1524H7.76871ZM2.711 15.0461L7.76871 19.477H2.711V15.0461ZM33.0282 19.477H27.9704L33.0282 15.0461V19.477ZM17.8696 5.48449C16.7165 5.48449 15.5893 5.82643 14.6305 6.46706C13.6717 7.10769 12.9244 8.01825 12.4832 9.08359C12.0419 10.1489 11.9264 11.3212 12.1514 12.4521C12.3763 13.5831 12.9316 14.6219 13.747 15.4373C14.5624 16.2527 15.6012 16.808 16.7322 17.0329C17.8631 17.2579 19.0354 17.1424 20.1007 16.7011C21.166 16.2599 22.0766 15.5126 22.7172 14.5538C23.3579 13.595 23.6998 12.4678 23.6998 11.3147C23.6998 9.76844 23.0855 8.2855 21.9922 7.19212C20.8988 6.09875 19.4158 5.48449 17.8696 5.48449ZM17.8696 14.8128C17.1777 14.8128 16.5014 14.6077 15.9261 14.2233C15.3509 13.8389 14.9025 13.2926 14.6377 12.6534C14.373 12.0142 14.3037 11.3108 14.4387 10.6323C14.5736 9.95369 14.9068 9.33038 15.396 8.84116C15.8852 8.35194 16.5086 8.01877 17.1871 7.8838C17.8657 7.74882 18.5691 7.81809 19.2083 8.08286C19.8475 8.34763 20.3938 8.79599 20.7782 9.37126C21.1625 9.94652 21.3677 10.6228 21.3677 11.3147C21.3639 12.2413 20.9941 13.1288 20.3389 13.784C19.6837 14.4392 18.7962 14.809 17.8696 14.8128Z" fill="#283E5B"/>
</svg>
