<svg width="6" height="9" viewBox="0 0 6 9" fill="none" xmlns="http://www.w3.org/2000/svg">
<path d="M5.58348 6.08C5.58348 6.57333 5.40014 7.01333 5.03348 7.4C4.67348 7.78667 4.16681 8.00667 3.51348 8.06V8.87H2.95348V8.06C2.35348 8.01333 1.86348 7.83333 1.48348 7.52C1.10348 7.2 0.913477 6.78333 0.913477 6.27H1.88348C1.90348 6.54333 2.00014 6.77333 2.17348 6.96C2.35348 7.14667 2.61348 7.26 2.95348 7.3V4.85C2.26681 4.69667 1.80014 4.52333 1.55348 4.33C1.25348 4.09 1.06681 3.83333 0.993477 3.56C0.940143 3.38 0.913477 3.17667 0.913477 2.95C0.913477 2.41 1.09681 1.96333 1.46348 1.61C1.83014 1.25667 2.32681 1.05667 2.95348 1.01V0.2H3.51348V1.01C4.07348 1.05667 4.52681 1.23333 4.87348 1.54C5.22014 1.84 5.42348 2.24333 5.48348 2.75H4.48348C4.46348 2.53 4.36681 2.33 4.19348 2.15C4.02681 1.97 3.80014 1.85 3.51348 1.79V4.19C4.34681 4.36333 4.89348 4.59 5.15348 4.87C5.44014 5.17667 5.58348 5.58 5.58348 6.08ZM2.95348 1.77C2.60681 1.80333 2.32681 1.91667 2.11348 2.11C1.90681 2.30333 1.80348 2.56667 1.80348 2.9C1.80348 3.23333 1.90014 3.48333 2.09348 3.65C2.29348 3.81 2.58014 3.94333 2.95348 4.05V1.77ZM3.51348 7.3C3.88014 7.25333 4.16681 7.12333 4.37348 6.91C4.58681 6.69 4.69348 6.42333 4.69348 6.11C4.69348 5.79 4.59014 5.55 4.38348 5.39C4.18348 5.22333 3.89348 5.09 3.51348 4.99V7.3Z" fill="#6B7380"/>
</svg>
