<svg width="27" height="29" viewBox="0 0 27 29" fill="none" xmlns="http://www.w3.org/2000/svg">
<path d="M7.76239 10.7492L13.1286 8.24498C13.3648 8.13866 13.6349 8.13866 13.8599 8.24498L19.2261 10.7492C19.6986 10.9737 20.1373 10.3712 19.8111 9.94598L14.1861 2.72854C13.8036 2.23241 13.1736 2.23241 12.7911 2.72854L7.16611 9.94598C6.85111 10.3712 7.28989 10.9737 7.76239 10.7492Z" fill="#2892F3"/>
<path d="M7.7619 17.6008L13.1394 20.1051C13.3756 20.2114 13.6456 20.2114 13.8706 20.1051L19.2481 17.6008C19.7206 17.3764 20.1594 17.9788 19.8331 18.4041L14.2081 25.6215C13.8256 26.1176 13.1956 26.1176 12.8131 25.6215L7.18814 18.4041C6.85064 17.9788 7.27815 17.3764 7.7619 17.6008Z" fill="#2892F3"/>
<path d="M13.2524 11.21L8.60613 13.6433C8.18988 13.856 8.18988 14.482 8.60613 14.6947L13.2524 17.128C13.4099 17.2107 13.6011 17.2107 13.7586 17.128L18.4048 14.6947C18.8211 14.482 18.8211 13.856 18.4048 13.6433L13.7586 11.21C13.5898 11.1273 13.4099 11.1273 13.2524 11.21Z" fill="#2892F3"/>
</svg>
