<svg width="15" height="14" viewBox="0 0 15 14" fill="none" xmlns="http://www.w3.org/2000/svg">
<path d="M13 7H5.875M11.5 9.25L13.75 7L11.5 4.75M7.75 3.25V2.5C7.75 2.10218 7.59196 1.72064 7.31066 1.43934C7.02936 1.15804 6.64782 1 6.25 1H2.5C2.10218 1 1.72064 1.15804 1.43934 1.43934C1.15804 1.72064 1 2.10218 1 2.5V11.5C1 11.8978 1.15804 12.2794 1.43934 12.5607C1.72064 12.842 2.10218 13 2.5 13H6.25C6.64782 13 7.02936 12.842 7.31066 12.5607C7.59196 12.2794 7.75 11.8978 7.75 11.5V10.75" stroke="white" stroke-width="1.5" stroke-linecap="round" stroke-linejoin="round"/>
</svg>
