<svg width="23" height="18" viewBox="0 0 23 18" fill="none" xmlns="http://www.w3.org/2000/svg">
<path d="M2.70117 4.08789C2.70117 3.65795 2.93296 3.24562 3.34554 2.94161C3.75812 2.63759 4.3177 2.4668 4.90117 2.4668H18.1012C18.6846 2.4668 19.2442 2.63759 19.6568 2.94161C20.0694 3.24562 20.3012 3.65795 20.3012 4.08789C20.3012 4.51784 20.0694 4.93017 19.6568 5.23418C19.2442 5.5382 18.6846 5.70899 18.1012 5.70899H4.90117C4.3177 5.70899 3.75812 5.5382 3.34554 5.23418C2.93296 4.93017 2.70117 4.51784 2.70117 4.08789ZM4.90117 3.27735C4.60943 3.27735 4.32964 3.36274 4.12335 3.51475C3.91706 3.66676 3.80117 3.87292 3.80117 4.08789C3.80117 4.30286 3.91706 4.50903 4.12335 4.66104C4.32964 4.81304 4.60943 4.89844 4.90117 4.89844H18.1012C18.3929 4.89844 18.6727 4.81304 18.879 4.66104C19.0853 4.50903 19.2012 4.30286 19.2012 4.08789C19.2012 3.87292 19.0853 3.66676 18.879 3.51475C18.6727 3.36274 18.3929 3.27735 18.1012 3.27735H4.90117ZM4.90117 8.95118C4.90117 8.52124 5.13296 8.10891 5.54554 7.8049C5.95812 7.50088 6.5177 7.33009 7.10117 7.33009H15.9012C16.4846 7.33009 17.0442 7.50088 17.4568 7.8049C17.8694 8.10891 18.1012 8.52124 18.1012 8.95118C18.1012 9.38112 17.8694 9.79346 17.4568 10.0975C17.0442 10.4015 16.4846 10.5723 15.9012 10.5723H7.10117C6.5177 10.5723 5.95812 10.4015 5.54554 10.0975C5.13296 9.79346 4.90117 9.38112 4.90117 8.95118ZM7.10117 8.14064C6.80943 8.14064 6.52964 8.22603 6.32335 8.37804C6.11706 8.53005 6.00117 8.73621 6.00117 8.95118C6.00117 9.16615 6.11706 9.37232 6.32335 9.52433C6.52964 9.67633 6.80943 9.76173 7.10117 9.76173H15.9012C16.1929 9.76173 16.4727 9.67633 16.679 9.52433C16.8853 9.37232 17.0012 9.16615 17.0012 8.95118C17.0012 8.73621 16.8853 8.53005 16.679 8.37804C16.4727 8.22603 16.1929 8.14064 15.9012 8.14064H7.10117ZM9.30117 12.1934C8.7177 12.1934 8.15812 12.3642 7.74554 12.6682C7.33296 12.9722 7.10117 13.3845 7.10117 13.8145C7.10117 14.2444 7.33296 14.6567 7.74554 14.9608C8.15812 15.2648 8.7177 15.4356 9.30117 15.4356H13.7012C14.2846 15.4356 14.8442 15.2648 15.2568 14.9608C15.6694 14.6567 15.9012 14.2444 15.9012 13.8145C15.9012 13.3845 15.6694 12.9722 15.2568 12.6682C14.8442 12.3642 14.2846 12.1934 13.7012 12.1934H9.30117ZM8.20117 13.8145C8.20117 13.5995 8.31706 13.3933 8.52335 13.2413C8.72964 13.0893 9.00943 13.0039 9.30117 13.0039H13.7012C13.9929 13.0039 14.2727 13.0893 14.479 13.2413C14.6853 13.3933 14.8012 13.5995 14.8012 13.8145C14.8012 14.0294 14.6853 14.2356 14.479 14.3876C14.2727 14.5396 13.9929 14.625 13.7012 14.625H9.30117C9.00943 14.625 8.72964 14.5396 8.52335 14.3876C8.31706 14.2356 8.20117 14.0294 8.20117 13.8145Z" fill="#93989A"/>
</svg>
