<svg width="41" height="36" viewBox="0 0 41 36" fill="none" xmlns="http://www.w3.org/2000/svg">
<path d="M10.8612 9.95455H11.7586V16.2369C11.7586 17.2269 12.5637 18.0319 13.5536 18.0319H24.3234C25.3134 18.0319 26.1184 17.2269 26.1184 16.2369V9.95455H27.0159C27.1934 9.95451 27.3669 9.90185 27.5144 9.80324C27.662 9.70462 27.777 9.56446 27.8449 9.40049C27.9128 9.23652 27.9306 9.0561 27.896 8.88203C27.8613 8.70796 27.7759 8.54806 27.6504 8.42254L19.573 0.345175C19.4898 0.261757 19.3909 0.195579 19.282 0.150426C19.1731 0.105273 19.0564 0.0820312 18.9385 0.0820312C18.8207 0.0820313 18.7039 0.105273 18.5951 0.150426C18.4862 0.195579 18.3873 0.261757 18.304 0.345175L10.2266 8.42254C10.1012 8.54806 10.0157 8.70796 9.9811 8.88203C9.94649 9.0561 9.96426 9.23652 10.0322 9.40049C10.1001 9.56446 10.2151 9.70462 10.3626 9.80324C10.5102 9.90185 10.6837 9.95451 10.8612 9.95455ZM17.1436 16.2369V11.7495H20.7335V16.2369H17.1436ZM18.9385 2.24874L24.3234 7.63365V11.7495L24.3243 16.2369H22.5285V11.7495C22.5285 10.7596 21.7234 9.95455 20.7335 9.95455H17.1436C16.1536 9.95455 15.3486 10.7596 15.3486 11.7495V16.2369H13.5536V7.63365L18.9385 2.24874Z" fill="#292A36"/>
<path d="M1.57129 21.3029V29.9413L21.4829 34.7978C22.7257 35.1009 24.0427 34.8753 25.0862 34.1352C29.226 31.1992 33.0038 27.908 36.7632 25.1424C42.0805 21.2307 36.5108 18.9408 35.0704 19.6264C33.5639 20.3435 28.2318 25.1424 24.9675 26.8911C22.3089 26.8911 18.055 26.0366 15.9281 25.1424C13.8011 24.2483 14.5485 21.2749 15.4348 20.3435H22.3089C24.0104 20.3435 23.0178 18.1362 22.3089 17.3911C18.5867 17.2049 10.8234 16.9441 9.54728 17.3911C8.27112 17.8382 6.37018 21.3029 4.77055 21.3029H1.57129Z" stroke="#292A36" stroke-width="2"/>
</svg>
