<svg width="40" height="29" viewBox="0 0 40 29" fill="none" xmlns="http://www.w3.org/2000/svg">
<path fill-rule="evenodd" clip-rule="evenodd" d="M29.5212 12.542C28.7855 12.3191 28.0051 12.1992 27.1967 12.1992C24.3885 12.1992 21.9177 13.6456 20.4889 15.834H22.1887C23.4074 14.4388 25.1994 13.5573 27.1967 13.5573C30.867 13.5573 33.8439 16.5342 33.8439 20.2045C33.8439 23.8748 30.867 26.8517 27.1967 26.8517C23.5264 26.8517 20.5494 23.8748 20.5494 20.2045C20.5494 19.8049 20.5847 19.4135 20.6524 19.0332H19.2765C19.2204 19.4156 19.1914 19.8066 19.1914 20.2045C19.1914 24.6253 22.7759 28.2098 27.1967 28.2098C31.6175 28.2098 35.202 24.6253 35.202 20.2045C35.202 18.944 34.9106 17.7515 34.3914 16.6907L29.5212 12.542ZM28.049 19.7899L27.5952 19.6845V17.2847C28.2742 17.3776 28.6941 17.8029 28.7656 18.3247C28.7745 18.3962 28.8353 18.448 28.9067 18.448H29.7091C29.793 18.448 29.8592 18.3747 29.852 18.2907C29.743 17.1775 28.8263 16.4627 27.6023 16.3394V15.7551C27.6023 15.6765 27.538 15.6122 27.4594 15.6122H26.9572C26.8786 15.6122 26.8143 15.6765 26.8143 15.7551V16.3448C25.5492 16.4681 24.5592 17.1668 24.5592 18.4712C24.5592 19.6792 25.4491 20.2617 26.3836 20.485L26.825 20.5976V23.1475C26.0352 23.0421 25.5921 22.6204 25.5009 22.0521C25.4902 21.9842 25.4294 21.9342 25.3598 21.9342H24.5342C24.4502 21.9342 24.3841 22.0057 24.3913 22.0897C24.4717 23.0725 25.2168 23.9766 26.8071 24.0928V24.6539C26.8071 24.7325 26.8715 24.7968 26.9501 24.7968H27.4576C27.5362 24.7968 27.6005 24.7325 27.6005 24.6521L27.597 24.0856C28.9961 23.9623 29.9967 23.2136 29.9967 21.8699C29.995 20.6298 29.2069 20.0758 28.049 19.7899ZM26.8232 19.5005C26.7232 19.4719 26.6392 19.4451 26.5552 19.4111C25.9512 19.1931 25.6707 18.8411 25.6707 18.3872C25.6707 17.7386 26.1621 17.3687 26.8232 17.2847V19.5005ZM27.5952 23.1529V20.7638C27.6506 20.7799 27.7006 20.7924 27.7524 20.8031C28.5976 21.0604 28.8817 21.4178 28.8817 21.9664C28.8817 22.665 28.3564 23.085 27.5952 23.1529Z" fill="#283E5B"/>
<path d="M1.07422 14.8748V6.2364L20.9858 1.37991C22.2286 1.07679 23.5457 1.30247 24.5891 2.04249C28.7289 4.97851 32.5068 8.26969 36.2661 11.0353C41.5834 14.947 36.0137 17.2369 34.5734 16.5513C33.0668 15.8342 27.7347 11.0353 24.4705 9.28663C21.8118 9.28663 17.5579 10.1412 15.431 11.0353C13.3041 11.9294 14.0515 14.9028 14.9377 15.8342H21.8118C23.5133 15.8342 22.5208 18.0415 21.8118 18.7866C18.0897 18.9729 10.3264 19.2337 9.05021 18.7866C7.77405 18.3395 5.87311 14.8748 4.27348 14.8748H1.07422Z" stroke="url(#paint0_radial_244_30751)" stroke-width="2"/>
<path d="M1.07422 14.8748V6.2364L20.9858 1.37991C22.2286 1.07679 23.5457 1.30247 24.5891 2.04249C28.7289 4.97851 32.5068 8.26969 36.2661 11.0353C41.5834 14.947 36.0137 17.2369 34.5734 16.5513C33.0668 15.8342 27.7347 11.0353 24.4705 9.28663C21.8118 9.28663 17.5579 10.1412 15.431 11.0353C13.3041 11.9294 14.0515 14.9028 14.9377 15.8342H21.8118C23.5133 15.8342 22.5208 18.0415 21.8118 18.7866C18.0897 18.9729 10.3264 19.2337 9.05021 18.7866C7.77405 18.3395 5.87311 14.8748 4.27348 14.8748H1.07422Z" stroke="black" stroke-opacity="0.84" stroke-width="2"/>
<defs>
<radialGradient id="paint0_radial_244_30751" cx="0" cy="0" r="1" gradientUnits="userSpaceOnUse" gradientTransform="translate(17.3988 11.9817) rotate(-39.8056) scale(13.6607 28.216)">
<stop stop-color="#283E5B"/>
<stop offset="1" stop-color="#3E6FB0"/>
</radialGradient>
</defs>
</svg>
