<svg width="41" height="41" viewBox="0 0 41 41" fill="none" xmlns="http://www.w3.org/2000/svg">
<circle cx="20.5" cy="20.5" r="20.5" fill="#13CF8F" fill-opacity="0.14"/>
<path d="M26 19C22.6866 19 20 21.9105 20 25.5C20 29.0895 22.6866 32 26 32C29.3134 32 32 29.0895 32 25.5C32 21.9105 29.3134 19 26 19ZM26 30.8973C23.2491 30.8973 21.0179 28.4801 21.0179 25.5C21.0179 22.5199 23.2491 20.1027 26 20.1027C28.7509 20.1027 30.9821 22.5199 30.9821 25.5C30.9821 28.4801 28.7509 30.8973 26 30.8973ZM26.6388 25.1634L26.2987 25.0778V23.1292C26.8076 23.2047 27.1223 23.55 27.1759 23.9737C27.1826 24.0317 27.2281 24.0738 27.2817 24.0738H27.883C27.946 24.0738 27.9955 24.0143 27.9902 23.9461C27.9085 23.0422 27.2214 22.4618 26.304 22.3617V21.8873C26.304 21.8234 26.2558 21.7712 26.1969 21.7712H25.8205C25.7616 21.7712 25.7134 21.8234 25.7134 21.8873V22.3661C24.7652 22.4662 24.0232 23.0335 24.0232 24.0926C24.0232 25.0734 24.6902 25.5464 25.3906 25.7278L25.7214 25.8192V27.8896C25.1295 27.804 24.7973 27.4616 24.729 27.0002C24.721 26.9451 24.6754 26.9045 24.6232 26.9045H24.0045C23.9415 26.9045 23.892 26.9625 23.8973 27.0307C23.9576 27.8287 24.5161 28.5628 25.708 28.6571V29.1127C25.708 29.1766 25.7563 29.2288 25.8152 29.2288H26.1955C26.2545 29.2288 26.3027 29.1766 26.3027 29.1113L26.3 28.6513C27.3487 28.5512 28.0987 27.9433 28.0987 26.8522C28.0973 25.8453 27.5067 25.3955 26.6388 25.1634ZM25.7201 24.9283C25.6451 24.9051 25.5821 24.8834 25.5192 24.8558C25.0665 24.6788 24.8563 24.393 24.8563 24.0244C24.8563 23.4978 25.2246 23.1974 25.7201 23.1292V24.9283ZM26.2987 27.894V25.9541C26.3402 25.9672 26.3777 25.9773 26.4165 25.986C27.05 26.195 27.2629 26.4852 27.2629 26.9306C27.2629 27.4979 26.8692 27.8388 26.2987 27.894Z" fill="#2892F3"/>
<path fill-rule="evenodd" clip-rule="evenodd" d="M26.3156 18.0348C25.7508 17.8395 25.1443 17.7334 24.5131 17.7334C21.5978 17.7334 19.2111 19.9961 19.0133 22.861H18.275C17.772 22.861 17.3656 23.3429 17.3656 23.9393V26.9046C17.3656 27.6493 16.8569 28.2524 16.2289 28.2524H14.6403C14.5977 28.2524 14.5551 28.249 14.5124 28.2457C14.4783 28.249 14.4442 28.2524 14.4101 28.2524H13.9555C13.3274 28.2524 12.8187 27.6493 12.8187 26.9046V23.1306C12.8187 23.1003 12.8187 23.0666 12.8216 23.0363V20.691H11.9094C11.3978 20.691 11 20.2193 11 19.6094C11 19.3061 11.0853 19.0365 11.2842 18.8007L18.5705 11.2696C18.7694 11.0337 18.9968 11 19.1957 11C19.3946 11 19.622 11.0674 19.7925 11.2359L26.3156 18.0348ZM22.2003 28.2524C21.841 28.0861 21.5026 27.8823 21.1902 27.646C21.3935 28.0114 21.7428 28.2524 22.1398 28.2524H22.2003Z" fill="#2892F3"/>
</svg>
