<svg width="41" height="41" viewBox="0 0 41 41" fill="none" xmlns="http://www.w3.org/2000/svg">
<circle cx="20.5" cy="20.5" r="20.5" fill="#13CF8F" fill-opacity="0.14"/>
<path d="M19.9 25.5C19.9 29.1314 22.629 32.1 26.0003 32.1C29.3714 32.1 32.1 29.1314 32.1 25.5C32.1 21.8686 29.3714 18.9 26.0003 18.9C22.629 18.9 19.9 21.8686 19.9 25.5ZM20.6198 25.5C20.6198 22.2737 23.0408 19.663 26.0003 19.663C28.9595 19.663 31.3802 22.2741 31.3802 25.5C31.3802 28.7259 28.9595 31.337 26.0003 31.337C23.0411 31.337 20.6198 28.7263 20.6198 25.5Z" fill="#2891F2" stroke="#2891F2" stroke-width="0.2"/>
<path d="M29.5019 28.5551L29.6237 28.4724L29.5019 28.3897L28.4915 27.7039L28.3353 27.5979V27.7866V28.0924H23.5377V27.9818L25.0233 26.7146L26.1046 27.7369L26.1869 27.8147L26.2539 27.7235L28.0272 25.3109L28.2638 25.512L28.3933 25.622L28.4266 25.4555L28.7499 23.8422L28.7859 23.6628L28.6155 23.7294L27.0929 24.3243L26.937 24.3852L27.0646 24.4937L27.3654 24.7494L26.0756 26.5053L25.1163 25.5985L25.051 25.5368L24.9827 25.5951L23.5377 26.8281V23.0269H23.8123H23.9856L23.8989 22.8769L23.2658 21.782L23.1792 21.6322L23.0926 21.782L22.4603 22.8769L22.3736 23.0269H22.5469H22.8207V28.7528V28.8528H22.9207H28.3353V29.1586V29.3473L28.4915 29.2413L29.5019 28.5551Z" fill="#2891F2" stroke="#2891F2" stroke-width="0.2"/>
<path fill-rule="evenodd" clip-rule="evenodd" d="M26.3156 18.0348C25.7508 17.8395 25.1443 17.7334 24.5131 17.7334C21.5978 17.7334 19.2111 19.9961 19.0133 22.861H18.275C17.772 22.861 17.3656 23.3429 17.3656 23.9393V26.9046C17.3656 27.6493 16.8569 28.2524 16.2289 28.2524H14.6403C14.5977 28.2524 14.5551 28.249 14.5124 28.2457C14.4783 28.249 14.4442 28.2524 14.4101 28.2524H13.9555C13.3274 28.2524 12.8187 27.6493 12.8187 26.9046V23.1306C12.8187 23.1003 12.8187 23.0666 12.8216 23.0363V20.691H11.9094C11.3978 20.691 11 20.2193 11 19.6094C11 19.3061 11.0853 19.0365 11.2842 18.8007L18.5705 11.2696C18.7694 11.0337 18.9968 11 19.1957 11C19.3946 11 19.622 11.0674 19.7925 11.2359L26.3156 18.0348ZM22.2003 28.2524C21.841 28.0861 21.5026 27.8823 21.1902 27.646C21.3935 28.0114 21.7428 28.2524 22.1398 28.2524H22.2003Z" fill="#2892F3"/>
</svg>
