<svg width="41" height="41" viewBox="0 0 41 41" fill="none" xmlns="http://www.w3.org/2000/svg">
<circle cx="20.5" cy="20.5" r="20.5" fill="#13CF8F" fill-opacity="0.14"/>
<path d="M27.9322 21.2943C27.9322 21.7856 27.5693 22.1705 27.1579 22.1705H26.3837L26.4006 26.5433C26.4006 26.6169 26.3958 26.6906 26.3885 26.7643V27.2038C26.3885 27.807 25.9554 28.2956 25.4206 28.2956H25.0335C25.0069 28.2956 24.9803 28.2956 24.9537 28.2929C24.9198 28.2956 24.8859 28.2956 24.852 28.2956H23.4849C22.9502 28.2956 22.5171 27.807 22.5171 27.2038V24.8018C22.5171 24.3187 22.1711 23.9283 21.7428 23.9283H20.1942C19.766 23.9283 19.42 24.3187 19.42 24.8018V27.2038C19.42 27.807 18.9869 28.2956 18.4521 28.2956H17.0995C17.0632 28.2956 17.027 28.2929 16.9907 28.2902C16.9616 28.2929 16.9326 28.2956 16.9036 28.2956H16.5164C15.9817 28.2956 15.5486 27.807 15.5486 27.2038V24.1467C15.5486 24.1221 15.5486 24.0948 15.551 24.0703V22.1705H14.7743C14.3387 22.1705 14 21.7884 14 21.2943C14 21.0487 14.0726 20.8303 14.242 20.6392L20.4459 14.5387C20.6153 14.3476 20.8088 14.3203 20.9782 14.3203C21.1476 14.3203 21.3412 14.3749 21.4863 14.5114L27.6661 20.6392C27.8596 20.8303 27.9564 21.0487 27.9322 21.2943Z" fill="#2892F3"/>
<path d="M17.7891 12.651L21.0255 9L24.2619 12.651" stroke="#2892F3" stroke-width="1.58829" stroke-linecap="round" stroke-linejoin="round"/>
</svg>
