<svg width="18" height="17" viewBox="0 0 18 17" fill="none" xmlns="http://www.w3.org/2000/svg">
<path d="M14.2192 6.8001H12.5992V4.7601C12.5992 2.29765 11.3977 0.850098 8.99922 0.850098C6.59982 0.850098 5.39922 2.29765 5.39922 4.7601V6.8001H3.59922C3.10152 6.8001 2.69922 7.3492 2.69922 7.81925V14.4501C2.69922 14.9167 3.08442 15.4182 3.55512 15.561L4.63242 15.89C5.20383 16.0473 5.79425 16.1347 6.38922 16.1501H11.6092C12.204 16.1348 12.7941 16.0471 13.3651 15.8891L14.4415 15.5602C14.9131 15.4182 15.2992 14.9167 15.2992 14.4501V7.81925C15.2992 7.3492 14.716 6.8001 14.2192 6.8001ZM10.7992 6.8001H7.19922V4.41925C7.19922 3.191 7.91652 2.5501 8.99922 2.5501C10.0819 2.5501 10.7992 3.191 10.7992 4.41925V6.8001Z" fill="#111111"/>
</svg>
