<svg width="19" height="19" viewBox="0 0 19 19" fill="none" xmlns="http://www.w3.org/2000/svg">
<path d="M10.4748 8.67578C10.0248 8.56328 9.5748 8.33828 9.2373 8.00078C8.89981 7.88828 8.7873 7.55078 8.7873 7.32578C8.7873 7.10078 8.8998 6.76328 9.1248 6.65078C9.4623 6.42578 9.7998 6.20078 10.1373 6.31328C10.8123 6.31328 11.3748 6.65078 11.7123 7.10078L12.7248 5.75078C12.3873 5.41328 12.0498 5.18828 11.7123 4.96328C11.3748 4.73828 10.9248 4.62578 10.4748 4.62578V3.05078H9.1248V4.62578C8.5623 4.73828 7.9998 5.07578 7.5498 5.52578C7.0998 6.08828 6.7623 6.76328 6.8748 7.43828C6.8748 8.11328 7.0998 8.78828 7.5498 9.23828C8.1123 9.80078 8.89981 10.1383 9.57481 10.4758C9.9123 10.5883 10.3623 10.8133 10.6998 11.0383C10.9248 11.2633 11.0373 11.6008 11.0373 11.9383C11.0373 12.2758 10.9248 12.6133 10.6998 12.9508C10.3623 13.2883 9.9123 13.4008 9.57481 13.4008C9.1248 13.4008 8.5623 13.2883 8.2248 12.9508C7.88731 12.7258 7.5498 12.3883 7.3248 12.0508L6.1998 13.2883C6.5373 13.7383 6.8748 14.0758 7.3248 14.4133C7.8873 14.7508 8.5623 15.0883 9.2373 15.0883V16.5508H10.4748V14.8633C11.1498 14.7508 11.7123 14.4133 12.1623 13.9633C12.7248 13.4008 13.0623 12.5008 13.0623 11.7133C13.0623 11.0383 12.8373 10.2508 12.2748 9.80078C11.7123 9.23828 11.1498 8.90078 10.4748 8.67578ZM9.7998 0.800781C4.8498 0.800781 0.799805 4.85078 0.799805 9.80078C0.799805 14.7508 4.8498 18.8008 9.7998 18.8008C14.7498 18.8008 18.7998 14.7508 18.7998 9.80078C18.7998 4.85078 14.7498 0.800781 9.7998 0.800781ZM9.7998 17.5633C5.5248 17.5633 2.0373 14.0758 2.0373 9.80078C2.0373 5.52578 5.5248 2.03828 9.7998 2.03828C14.0748 2.03828 17.5623 5.52578 17.5623 9.80078C17.5623 14.0758 14.0748 17.5633 9.7998 17.5633Z" fill="#111111"/>
</svg>
