<svg width="20" height="21" viewBox="0 0 20 21" fill="none" xmlns="http://www.w3.org/2000/svg">
<path fill-rule="evenodd" clip-rule="evenodd" d="M12.5852 10.705C12.4357 10.2826 12.159 9.91678 11.7931 9.65806C11.4272 9.39935 10.9901 9.26042 10.542 9.26042V8.71875H9.45866V9.26042C8.88402 9.26042 8.33292 9.48869 7.92659 9.89502C7.52027 10.3013 7.29199 10.8524 7.29199 11.4271C7.29199 12.0017 7.52027 12.5528 7.92659 12.9591C8.33292 13.3655 8.88402 13.5937 9.45866 13.5937V15.7604C8.98741 15.7604 8.58603 15.4598 8.43653 15.0384C8.41435 14.9694 8.37857 14.9056 8.3313 14.8508C8.28404 14.7959 8.22625 14.751 8.16135 14.7189C8.09645 14.6867 8.02576 14.6679 7.95346 14.6636C7.88117 14.6592 7.80874 14.6694 7.74045 14.6935C7.67216 14.7177 7.6094 14.7552 7.55589 14.804C7.50238 14.8528 7.45919 14.9119 7.4289 14.9777C7.3986 15.0435 7.3818 15.1147 7.3795 15.187C7.3772 15.2594 7.38944 15.3315 7.41549 15.3991C7.56491 15.8216 7.84161 16.1874 8.20752 16.4461C8.57342 16.7048 9.01053 16.8437 9.45866 16.8437V17.3854H10.542V16.8437C11.1166 16.8437 11.6677 16.6155 12.0741 16.2091C12.4804 15.8028 12.7087 15.2517 12.7087 14.6771C12.7087 14.1024 12.4804 13.5513 12.0741 13.145C11.6677 12.7387 11.1166 12.5104 10.542 12.5104V10.3437C10.766 10.3437 10.9846 10.4131 11.1675 10.5424C11.3505 10.6717 11.4889 10.8546 11.5636 11.0658C11.6114 11.2013 11.7111 11.3122 11.8407 11.3741C11.9049 11.4048 11.9745 11.4226 12.0455 11.4264C12.1166 11.4301 12.1877 11.4199 12.2547 11.3962C12.3218 11.3725 12.3836 11.3359 12.4365 11.2883C12.4894 11.2407 12.5324 11.1832 12.5631 11.1191C12.5938 11.0549 12.6115 10.9853 12.6153 10.9142C12.6191 10.8432 12.6088 10.7721 12.5852 10.705ZM9.45866 10.3437C9.17134 10.3437 8.89579 10.4579 8.69263 10.6611C8.48946 10.8642 8.37533 11.1398 8.37533 11.4271C8.37533 11.7144 8.48946 11.99 8.69263 12.1931C8.89579 12.3963 9.17134 12.5104 9.45866 12.5104V10.3437ZM10.542 15.7604C10.8293 15.7604 11.1049 15.6463 11.308 15.4431C11.5112 15.24 11.6253 14.9644 11.6253 14.6771C11.6253 14.3898 11.5112 14.1142 11.308 13.9111C11.1049 13.7079 10.8293 13.5937 10.542 13.5937V15.7604Z" fill="#111111"/>
<path fill-rule="evenodd" clip-rule="evenodd" d="M4.12486 2.01346C5.45411 1.36292 7.63486 0.59375 10.0214 0.59375C12.3582 0.59375 14.4815 1.33096 15.8037 1.97283L15.8785 2.00912C16.2771 2.20629 16.5989 2.39263 16.8253 2.54375L14.8244 5.46875C19.4372 10.1845 23.0003 20.0921 10.0214 20.0921C-2.95743 20.0921 0.509773 10.3643 5.16269 5.46875L3.17477 2.54375C3.32806 2.44354 3.52252 2.32708 3.75436 2.20358C3.86919 2.14183 3.99269 2.07846 4.12486 2.014V2.01346ZM13.5385 5.42975L15.1402 3.08812C13.6506 3.19537 11.8783 3.54529 10.172 4.03929C8.95327 4.39138 7.59911 4.33775 6.34515 4.10646C6.02916 4.04788 5.71534 3.97814 5.40427 3.89738L6.44427 5.42867C8.67323 6.22221 11.309 6.22221 13.5385 5.42975ZM5.81865 6.35167C8.42677 7.35917 11.5614 7.35917 14.1695 6.35058C15.2582 7.49821 16.1689 8.80238 16.8714 10.2197C17.6037 11.7136 18.0024 13.207 17.9374 14.494C17.8745 15.736 17.3859 16.7972 16.2701 17.5858C15.1071 18.4075 13.1512 19.0088 10.0209 19.0088C6.88736 19.0088 4.92219 18.4178 3.7484 17.6053C2.62444 16.8264 2.13098 15.7799 2.06111 14.5547C1.98798 13.2818 2.37798 11.796 3.10761 10.2917C3.80365 8.85742 4.77486 7.47671 5.81865 6.35167ZM5.19573 2.71492C5.62906 2.84383 6.0819 2.95596 6.54123 3.041C7.70581 3.2555 8.87365 3.28692 9.87031 2.99821C11.0318 2.65985 12.2131 2.39375 13.4074 2.20142C12.4107 1.90133 11.2451 1.67708 10.0209 1.67708C8.15486 1.67708 6.41448 2.19763 5.19573 2.71492Z" fill="#111111"/>
</svg>
