<svg width="18" height="18" viewBox="0 0 18 18" fill="none" xmlns="http://www.w3.org/2000/svg">
<path d="M14.2498 1.5H6.74984C5.92259 1.5 5.24984 2.17275 5.24984 3V7.1895L1.71959 10.7198C1.61473 10.8246 1.54333 10.9583 1.5144 11.1037C1.48548 11.2492 1.50033 11.4 1.55708 11.537C1.61383 11.674 1.70994 11.7911 1.83325 11.8736C1.95655 11.956 2.10153 12 2.24984 12V15.75C2.24984 15.9489 2.32886 16.1397 2.46951 16.2803C2.61016 16.421 2.80093 16.5 2.99984 16.5H14.9998C15.1988 16.5 15.3895 16.421 15.5302 16.2803C15.6708 16.1397 15.7498 15.9489 15.7498 15.75V3C15.7498 2.17275 15.0771 1.5 14.2498 1.5ZM8.24984 15H3.74984V10.8105L5.99984 8.5605L8.24984 10.8105V15ZM14.2498 15H9.74984V12C9.89831 12.0003 10.0435 11.9565 10.1671 11.8742C10.2906 11.7918 10.3869 11.6746 10.4437 11.5375C10.5005 11.4003 10.5153 11.2493 10.4862 11.1037C10.457 10.9581 10.3853 10.8245 10.2801 10.7198L6.74984 7.1895V3H14.2498V15Z" fill="#111111"/>
<path d="M8.25 4.5H9.75V6H8.25V4.5ZM11.25 4.5H12.75V6H11.25V4.5ZM11.25 7.52325H12.75V9H11.25V7.52325ZM11.25 10.5H12.75V12H11.25V10.5ZM5.25 11.25H6.75V12.75H5.25V11.25Z" fill="#111111"/>
</svg>
