<svg width="17" height="19" viewBox="0 0 17 19" fill="none" xmlns="http://www.w3.org/2000/svg">
<path d="M1.74162 0.0898438C1.28593 0.0898438 0.848903 0.270923 0.526681 0.593247C0.20446 0.915571 0.0234375 1.35274 0.0234375 1.80857V16.7042C0.0234375 17.16 0.20446 17.5972 0.526681 17.9195C0.848903 18.2418 1.28593 18.4229 1.74162 18.4229H9.7598C10.2155 18.4229 10.6525 18.2418 10.9747 17.9195C11.297 17.5972 11.478 17.16 11.478 16.7042V14.9855C11.478 14.8335 11.4176 14.6878 11.3102 14.5804C11.2028 14.4729 11.0572 14.4126 10.9053 14.4126C10.4322 14.4126 10.1298 14.2957 9.92475 14.1422C9.71513 13.9852 9.55591 13.7503 9.43907 13.4283C9.19395 12.7546 9.18707 11.862 9.18707 10.9751C9.18706 10.8997 9.17218 10.8251 9.14328 10.7555C9.11439 10.6859 9.07205 10.6227 9.01869 10.5695L8.69109 10.2406L7.30166 8.85077C6.76673 8.31567 6.6098 7.95703 6.58002 7.75651C6.55711 7.5961 6.60522 7.48839 6.71976 7.37839C6.96489 7.1435 7.14015 6.98423 7.33831 6.93611C7.45629 6.90631 7.72547 6.88569 8.20886 7.36922L11.6452 10.8067C11.7526 10.9143 11.8983 10.9748 12.0503 10.9749C12.1256 10.9749 12.2001 10.9601 12.2696 10.9314C12.3392 10.9026 12.4024 10.8604 12.4556 10.8073C12.5089 10.7541 12.5511 10.6909 12.58 10.6214C12.6088 10.5518 12.6237 10.4773 12.6238 10.402C12.6238 10.3268 12.609 10.2522 12.5803 10.1826C12.5515 10.1131 12.5094 10.0499 12.4562 9.99658L11.478 9.0192V5.48321L14.4103 8.4165C14.5701 8.57609 14.6968 8.76559 14.7833 8.97419C14.8698 9.18279 14.9143 9.40639 14.9143 9.63222V17.85C14.9143 18.002 14.9747 18.1477 15.0821 18.2551C15.1895 18.3626 15.3352 18.4229 15.4871 18.4229C15.639 18.4229 15.7846 18.3626 15.8921 18.2551C15.9995 18.1477 16.0598 18.002 16.0598 17.85V9.63222C16.0596 8.87283 15.7581 8.14459 15.2213 7.60755L11.478 3.86302V1.80857C11.478 1.35274 11.297 0.915571 10.9747 0.593247C10.6525 0.270923 10.2155 0.0898438 9.7598 0.0898438H1.74162ZM10.3325 4.10021V7.87338L9.01984 6.55913C8.35662 5.89685 7.69798 5.66883 7.06684 5.82237C6.94285 5.85298 6.82262 5.89717 6.70831 5.95414C6.19628 5.80577 5.65678 5.77855 5.13243 5.87464C4.60808 5.97073 4.11325 6.18749 3.68706 6.5078C3.26086 6.8281 2.91498 7.24317 2.67674 7.72019C2.4385 8.19722 2.31443 8.72314 2.31435 9.25639C2.3143 9.9209 2.5068 10.5712 2.86855 11.1285C3.2303 11.6859 3.74579 12.1264 4.35263 12.3967C4.95946 12.6671 5.63163 12.7557 6.28777 12.6518C6.94391 12.548 7.55589 12.2561 8.04964 11.8116C8.06911 12.4738 8.13555 13.198 8.36235 13.8202C8.53187 14.2865 8.8022 14.7323 9.23747 15.0577L9.24435 15.0645C8.89555 15.1743 8.59083 15.3924 8.37453 15.6873C8.15822 15.9822 8.0416 16.3384 8.04162 16.7042V17.2771H3.4598V16.7042C3.4598 16.2484 3.27878 15.8112 2.95656 15.4889C2.63434 15.1666 2.19731 14.9855 1.74162 14.9855H1.16889V3.5273H1.74162C2.19731 3.5273 2.63434 3.34622 2.95656 3.02389C3.27878 2.70157 3.4598 2.26441 3.4598 1.80857V1.23566H8.04162V1.80857C8.04162 2.26441 8.22264 2.70157 8.54486 3.02389C8.86708 3.34622 9.30411 3.5273 9.7598 3.5273H10.3325V4.10021ZM10.3325 16.7042V16.7145C10.3298 16.8647 10.2683 17.0078 10.1612 17.113C10.0541 17.2182 9.90993 17.2771 9.7598 17.2771H9.18707V16.7042C9.18707 16.5523 9.24741 16.4065 9.35482 16.2991C9.46223 16.1917 9.6079 16.1313 9.7598 16.1313H10.3325V16.7042ZM3.4598 9.25639C3.45981 8.6736 3.68178 8.11272 4.08056 7.68785C4.47933 7.26298 5.02494 7.00605 5.60638 6.96933C5.46435 7.23287 5.39218 7.5537 5.44717 7.9238C5.52849 8.47608 5.88015 9.05014 6.49067 9.66086L7.5296 10.7001C7.23135 11.0678 6.82658 11.334 6.37092 11.4622C5.91527 11.5904 5.43111 11.5742 4.98501 11.416C4.5389 11.2577 4.15275 10.9651 3.87964 10.5784C3.60652 10.1917 3.45986 9.72986 3.4598 9.25639ZM2.31435 1.23566V1.80857C2.31435 1.96052 2.25401 2.10624 2.1466 2.21368C2.03919 2.32112 1.89352 2.38148 1.74162 2.38148H1.16889V1.80857C1.16889 1.65663 1.22923 1.5109 1.33664 1.40346C1.44405 1.29602 1.58972 1.23566 1.74162 1.23566H2.31435ZM1.16889 16.1313H1.74162C1.89352 16.1313 2.03919 16.1917 2.1466 16.2991C2.25401 16.4065 2.31435 16.5523 2.31435 16.7042V17.2771H1.74162C1.58972 17.2771 1.44405 17.2168 1.33664 17.1093C1.22923 17.0019 1.16889 16.8561 1.16889 16.7042V16.1313ZM10.3325 2.38148H9.7598C9.6079 2.38148 9.46223 2.32112 9.35482 2.21368C9.24741 2.10624 9.18707 1.96052 9.18707 1.80857V1.23566H9.7598C9.9117 1.23566 10.0574 1.29602 10.1648 1.40346C10.2722 1.5109 10.3325 1.65663 10.3325 1.80857V2.38148Z" fill="#111111"/>
</svg>
