<svg width="18" height="25" viewBox="0 0 18 25" fill="none" xmlns="http://www.w3.org/2000/svg">
<path d="M9.49347 14.2411L9.50114 14.202C9.64943 13.5352 9.83608 12.7037 9.69034 11.9503C9.59318 11.356 9.19176 11.1244 8.84915 11.1077C8.44517 11.0882 8.08466 11.3393 7.99517 11.7048C7.82642 12.3744 7.97727 13.2896 8.25341 14.4559C7.90568 15.3599 7.35085 16.6741 6.94432 17.4554C6.1875 17.8823 5.17244 18.5407 5.02159 19.3722C4.99091 19.5257 5.0267 19.721 5.11108 19.8968C5.20568 20.0921 5.35653 20.2427 5.53295 20.3153C5.60966 20.346 5.70171 20.3711 5.80909 20.3711C6.25909 20.3711 6.98778 19.9749 7.95938 18.1557C8.10767 18.1027 8.26108 18.0469 8.40938 17.9911C9.10483 17.7344 9.82585 17.4665 10.4778 17.3465C11.1989 17.7679 12.0196 18.0385 12.577 18.0385C13.1293 18.0385 13.3466 17.6814 13.4284 17.4665C13.5716 17.0898 13.5026 16.6155 13.2699 16.3616C12.9324 15.9989 12.1116 15.904 10.8332 16.077C10.2043 15.6585 9.79261 15.0893 9.49347 14.2411ZM6.68864 18.4794C6.33324 19.043 6.06477 19.3248 5.91903 19.4475C6.09034 19.1044 6.42528 18.7416 6.68864 18.4794ZM8.92841 11.9085C9.06136 12.1568 9.04347 12.9074 8.94119 13.2868C8.81591 12.7316 8.79801 11.9448 8.87216 11.8527C8.89261 11.8555 8.91051 11.8722 8.92841 11.9085ZM8.8875 15.2706C9.16108 15.7868 9.50625 16.2305 9.88722 16.5597C9.33494 16.6964 8.83125 16.9224 8.38125 17.1233C8.27386 17.1708 8.16903 17.2182 8.06676 17.2628C8.40682 16.5904 8.69063 15.8287 8.8875 15.2706ZM12.8659 17.0982C12.8685 17.1038 12.871 17.1122 12.8557 17.1233H12.8506L12.8455 17.1317C12.825 17.1456 12.6153 17.2796 11.7128 16.8917C12.7509 16.8387 12.8634 17.0954 12.8659 17.0982ZM17.7597 6.26674L12.2574 0.262277C12.104 0.0948661 11.8969 0 11.6795 0H0.818182C0.365625 0 0 0.398995 0 0.892857V24.1071C0 24.601 0.365625 25 0.818182 25H17.1818C17.6344 25 18 24.601 18 24.1071V6.90011C18 6.66295 17.9131 6.43415 17.7597 6.26674ZM16.1131 7.31027H11.3011V2.05915L16.1131 7.31027ZM16.1591 22.9911H1.84091V2.00893H9.5625V8.03571C9.5625 8.34651 9.67564 8.64459 9.87703 8.86436C10.0784 9.08412 10.3516 9.20759 10.6364 9.20759H16.1591V22.9911Z" fill="#004AAD"/>
</svg>
