<svg width="113" height="113" viewBox="0 0 113 113" fill="none" xmlns="http://www.w3.org/2000/svg">
<rect x="0.330078" width="112.11" height="113" rx="2.37107" fill="white"/>
<path d="M22.3809 21.3828H33.762V32.764H22.3809V21.3828Z" fill="black"/>
<path d="M45.1435 10V44.1435H11V10H45.1435ZM39.4529 15.6906H16.6906V38.4529H39.4529V15.6906ZM33.7623 78.2869H22.3812V89.6681H33.7623V78.2869Z" fill="black"/>
<path d="M45.1435 66.9074V101.051H11V66.9074H45.1435ZM16.6906 72.598V95.3603H39.4529V72.598H16.6906ZM79.2869 21.3828H90.6681V32.764H79.2869V21.3828Z" fill="black"/>
<path d="M67.9058 10V44.1435H102.049V10H67.9058ZM96.3587 15.6906V38.4529H73.5964V15.6906H96.3587ZM56.5246 15.6906V10H62.2152V21.3812H56.5246V32.7623H50.834V15.6906H56.5246ZM56.5246 44.1435V32.7623H62.2152V44.1435H56.5246ZM45.1435 55.5246V49.834H50.834V44.1435H56.5246V55.5246H62.2152V49.834H90.6681V55.5246H67.9058V61.2152H50.834V55.5246H45.1435ZM45.1435 55.5246V61.2152H22.3812V55.5246H16.6906V61.2152H11V49.834H28.0717V55.5246H45.1435ZM102.049 61.2152H96.3587V49.834H102.049V61.2152ZM96.3587 61.2152H90.6681V72.5963H102.049V66.9058H96.3587V61.2152ZM73.5964 61.2152H84.9775V66.9058H79.2869V72.5963H73.5964V61.2152ZM84.9775 78.2869V72.5963H79.2869V78.2869H73.5964V83.9775H62.2152V89.6681H79.2869V78.2869H84.9775ZM84.9775 78.2869H102.049V83.9775H90.6681V89.6681H84.9775V78.2869ZM62.2152 72.5963V78.2869H67.9058V66.9058H50.834V72.5963H62.2152Z" fill="black"/>
<path d="M50.834 78.2891H56.5246V95.3608H79.2869V101.051H50.834V78.2891ZM102.049 89.6702V101.051H84.9774V95.3608H96.3586V89.6702H102.049Z" fill="black"/>
</svg>
