<svg width="14" height="13" viewBox="0 0 14 13" fill="none" xmlns="http://www.w3.org/2000/svg">
<ellipse cx="7.32981" cy="6.37619" rx="6.37278" ry="6.37278" fill="#D9D9D9"/>
<path d="M9.54175 5.04871C9.54175 4.46184 9.30862 3.89902 8.89364 3.48404C8.47867 3.06907 7.91584 2.83594 7.32898 2.83594C6.74212 2.83594 6.17929 3.06907 5.76432 3.48404C5.34934 3.89902 5.11621 4.46184 5.11621 5.04871C5.11621 5.16608 5.16284 5.27864 5.24583 5.36164C5.32883 5.44463 5.44139 5.49126 5.55876 5.49126C5.67614 5.49126 5.7887 5.44463 5.8717 5.36164C5.95469 5.27864 6.00132 5.16608 6.00132 5.04871C6.00132 4.78612 6.07918 4.52943 6.22507 4.3111C6.37096 4.09276 6.57831 3.92259 6.82091 3.82211C7.0635 3.72162 7.33045 3.69533 7.58799 3.74656C7.84554 3.79778 8.0821 3.92423 8.26778 4.10991C8.45346 4.29558 8.5799 4.53215 8.63113 4.78969C8.68236 5.04723 8.65607 5.31418 8.55558 5.55678C8.45509 5.79938 8.28492 6.00673 8.06659 6.15262C7.84826 6.2985 7.59157 6.37637 7.32898 6.37637C7.21161 6.37637 7.09904 6.42299 7.01605 6.50599C6.93305 6.58898 6.88643 6.70155 6.88643 6.81892V7.70403C6.88643 7.8214 6.93305 7.93397 7.01605 8.01696C7.09904 8.09996 7.21161 8.14658 7.32898 8.14658C7.44635 8.14658 7.55892 8.09996 7.64191 8.01696C7.72491 7.93397 7.77153 7.8214 7.77153 7.70403V7.21722C8.27134 7.1152 8.72055 6.84362 9.04313 6.44846C9.36571 6.0533 9.54185 5.55882 9.54175 5.04871V5.04871Z" fill="black"/>
<path d="M7.32897 9.91624C7.57322 9.91624 7.77122 9.71824 7.77122 9.47399C7.77122 9.22974 7.57322 9.03174 7.32897 9.03174C7.08472 9.03174 6.88672 9.22974 6.88672 9.47399C6.88672 9.71824 7.08472 9.91624 7.32897 9.91624Z" fill="black"/>
</svg>
