<svg width="20" height="20" viewBox="0 0 20 20" fill="none" xmlns="http://www.w3.org/2000/svg">
<path d="M4.63827 12.8648C5.38115 12.8626 6.09593 12.5766 6.64017 12.0638L11.957 15.145C11.7789 15.851 11.8574 16.5984 12.1783 17.2505C12.4991 17.9026 13.0408 18.4156 13.7041 18.6958C14.3674 18.9759 15.1081 19.0044 15.7904 18.776C16.4728 18.5476 17.0512 18.0776 17.4198 17.452C17.7884 16.8264 17.9225 16.0871 17.7975 15.3695C17.6726 14.6518 17.297 14.0038 16.7395 13.5441C16.1819 13.0843 15.4798 12.8436 14.7616 12.866C14.0434 12.8884 13.3571 13.1724 12.8285 13.6659L7.51159 10.5847C7.56765 10.3694 7.59823 10.1463 7.60332 9.92319L12.8268 6.8954C13.3297 7.3595 13.9748 7.63405 14.6537 7.67299C15.3325 7.71194 16.004 7.51291 16.5553 7.1093C17.1067 6.70569 17.5044 6.12205 17.6818 5.45629C17.8591 4.79054 17.8053 4.08318 17.5294 3.45288C17.2535 2.82258 16.7723 2.30769 16.1664 1.99459C15.5605 1.6815 14.8669 1.58924 14.202 1.7333C13.537 1.87737 12.9411 2.24898 12.5143 2.78581C12.0874 3.32263 11.8556 3.992 11.8577 4.68162C11.8611 4.9297 11.8942 5.17692 11.957 5.41639L7.12939 8.21333C6.84943 7.77408 6.46161 7.41624 6.00403 7.17499C5.54645 6.93373 5.03486 6.81736 4.51951 6.8373C4.00417 6.85724 3.50281 7.01281 3.06469 7.28872C2.62656 7.56464 2.26675 7.9514 2.02061 8.41102C1.77446 8.87063 1.65045 9.38728 1.66075 9.91021C1.67105 10.4331 1.81532 10.9444 2.07937 11.3936C2.34343 11.8429 2.71818 12.2148 3.16682 12.4727C3.61547 12.7307 4.12256 12.8658 4.63827 12.8648Z" fill="#111111"/>
</svg>
