<svg width="147" height="50" viewBox="0 0 147 50" fill="none" xmlns="http://www.w3.org/2000/svg">
<path d="M71.3563 16.2812V19.605H65.627V39.655H59.5086V19.605H53.7793V16.2812H71.3563Z" fill="black"/>
<path d="M75.3776 16.2812H81.496V39.655H75.3776V16.2812Z" fill="black"/>
<path d="M103.094 16.2812V19.605H97.365V39.655H91.2466V19.605H85.5173V16.2812H103.094Z" fill="black"/>
<path d="M114.38 21.6422L110.056 39.655H103.894L110.207 16.2812H118.596L124.887 39.655H118.704L114.38 21.6422Z" fill="black"/>
<path d="M128.584 16.2812H134.703L140.497 29.8385V16.2812H146.161V39.655H140.043L134.465 26.5266V39.655H128.584V16.2812Z" fill="black"/>
<path d="M19.3829 11.9902L2.59766 22.3811V31.1733L16.985 49.3573V28.5756H9.19184V23.7798H17.5844L19.3829 26.3775L21.1813 23.7798H29.7737V28.5756H21.7807V49.3573L36.5677 31.1733V22.3811L19.3829 11.9902Z" fill="black"/>
<path d="M39.7649 18.583L19.5827 5.99414L0 18.1834V22.7793L19.5827 10.3903L39.7649 22.7793V18.583Z" fill="black"/>
<path d="M39.9642 12.5889L19.7819 0L0.199219 12.1893V16.7852L19.7819 4.39612L39.9642 16.7852V12.5889Z" fill="black"/>
</svg>
