<svg width="18" height="17" viewBox="0 0 18 17" fill="none" xmlns="http://www.w3.org/2000/svg">
<path d="M17.5479 5.91756C17.9588 6.18896 18.1417 6.80432 17.8744 7.2903C17.6577 7.75104 17.1089 7.95616 16.6754 7.65637L8.98092 2.90732L1.33818 7.65637C0.903357 7.95616 0.355115 7.75104 0.1135 7.2903C-0.128058 6.80432 0.0285906 6.18896 0.463469 5.91756L8.57002 0.869261C8.8402 0.69983 9.1723 0.69983 9.44248 0.869261L17.5479 5.91756ZM7.85517 7.05362C7.85517 6.35621 8.38427 5.79133 8.98092 5.79133C9.62823 5.79133 10.1067 6.35621 10.1067 7.05362C10.1067 7.75104 9.62823 8.31591 8.98092 8.31591C8.38427 8.31591 7.85517 7.75104 7.85517 7.05362ZM2.90185 10.0831C2.90185 9.3857 3.43095 8.82083 4.0276 8.82083C4.67491 8.82083 5.15336 9.3857 5.15336 10.0831C5.15336 10.7805 4.67491 11.3454 4.0276 11.3454C3.43095 11.3454 2.90185 10.7805 2.90185 10.0831ZM15.06 10.0831C15.06 10.7805 14.5815 11.3454 13.9342 11.3454C13.3376 11.3454 12.8085 10.7805 12.8085 10.0831C12.8085 9.3857 13.3376 8.82083 13.9342 8.82083C14.5815 8.82083 15.06 9.3857 15.06 10.0831ZM6.38606 16.2494L5.60366 14.6747V15.8896C5.60366 16.4482 5.22653 16.8995 4.70306 16.8995H3.35215C2.87934 16.8995 2.45155 16.4482 2.45155 15.8896V14.6747L1.72065 16.2494C1.54363 16.6155 1.13414 16.7543 0.805698 16.5555C0.47726 16.3567 0.354271 15.8991 0.531296 15.5299L1.5971 13.3114C2.02911 12.412 2.86808 11.8503 3.77712 11.8503H4.32874C4.78749 11.8503 5.22653 11.9923 5.60647 12.2479L6.54929 10.2819C6.98271 9.38255 7.82139 8.79243 8.73044 8.79243H9.28206C10.1911 8.79243 11.0298 9.38255 11.4632 10.2819L12.406 12.2479C12.786 11.9923 13.225 11.8503 13.6838 11.8503H14.2354C15.1444 11.8503 15.9831 12.412 16.4165 13.3114L17.4804 15.5299C17.6577 15.8991 17.5338 16.3567 17.2074 16.5555C16.8781 16.7543 16.47 16.6155 16.2927 16.2494L15.5103 14.6747V15.8896C15.5103 16.4482 15.1332 16.8995 14.6097 16.8995H13.2588C12.786 16.8995 12.3582 16.4482 12.3582 15.8896V14.6747L11.6264 16.2494C11.4491 16.6155 11.041 16.7543 10.7118 16.5555C10.36 16.3567 10.2615 15.8991 10.4388 15.5299L11.4604 13.3998C11.4125 13.3493 11.3703 13.2893 11.3394 13.2199L10.557 11.6452V13.3651C10.557 13.9236 10.1798 14.3749 9.65637 14.3749H8.30547C7.83265 14.3749 7.40486 13.9236 7.40486 13.3651V11.6452L6.67312 13.2199C6.61684 13.2893 6.59995 13.3493 6.55211 13.3998L7.57373 15.5299C7.75103 15.8991 7.6272 16.3567 7.30073 16.5555C6.97145 16.7543 6.56336 16.6155 6.38606 16.2494Z" fill="#111111"/>
</svg>
