<svg width="18" height="18" viewBox="0 0 18 18" fill="none" xmlns="http://www.w3.org/2000/svg">
<g clip-path="url(#clip0_41_129676)">
<path d="M9.86604 1.68187C9.86604 2.54164 9.35267 3.23873 8.71885 3.23873C8.08503 3.23873 7.57166 2.54164 7.57166 1.68187C7.57166 0.822087 8.08503 0.125 8.71885 0.125C9.35267 0.125 9.86604 0.822087 9.86604 1.68187ZM2.52401 5.41834C2.52401 4.55817 3.03738 3.86148 3.6712 3.86148C4.30503 3.86148 4.8184 4.55817 4.8184 5.41834C4.8184 6.27851 4.30503 6.97521 3.6712 6.97521C3.03738 6.97521 2.52401 6.27851 2.52401 5.41834ZM16.9786 17.5619C17.4863 17.5619 16.8382 17.5619 16.8357 17.5619C17.2461 17.5619 17.3543 17.5619 16.9786 17.5619H0.114719H0.459064C-0.0477082 17.5619 9.4391 17.5619 8.68042 17.5619C9.08831 17.5619 1.07486 17.5619 1.58163 17.5619H8.71885H16.9786ZM12.6193 5.41834C12.6193 4.55817 13.1327 3.86148 13.7665 3.86148C14.4003 3.86148 14.9137 4.55817 14.9137 5.41834C14.9137 6.27851 14.4003 6.97521 13.7665 6.97521C13.1327 6.97521 12.6193 6.27851 12.6193 5.41834ZM5.27727 12.5799C5.27727 13.2688 4.86715 13.8254 4.35952 13.8254H2.98289C2.47525 13.8254 2.06513 13.2688 2.06513 12.5799V11.0814L1.29451 13.0236C1.1144 13.4751 0.69682 13.6464 0.362126 13.4012C0.0274329 13.156 -0.097898 12.5916 0.0824981 12.1362L1.16889 9.40003C1.60884 8.29076 2.46378 7.59795 3.39014 7.59795H3.95227C4.41975 7.59795 4.86715 7.7731 5.25433 8.08837L6.2151 5.66355C6.65677 4.55428 7.51143 3.86148 8.43779 3.86148H8.99991C9.92627 3.86148 10.7809 4.55428 11.2226 5.66355L12.1834 8.08837C12.5705 7.7731 13.018 7.59795 13.4854 7.59795H14.0476C14.9739 7.59795 15.8286 8.29076 16.2702 9.40003L17.3543 12.1362C17.535 12.5916 17.4088 13.156 17.0761 13.4012C16.7406 13.6464 16.3247 13.4751 16.1441 13.0236L15.3726 11.0814V12.5799C15.3726 13.2688 14.9624 13.8254 14.4548 13.8254H13.0782C12.5705 13.8254 12.1604 13.2688 12.1604 12.5799V11.0814L11.3889 13.0236C11.2083 13.4751 10.7924 13.6464 10.4568 13.4012C10.0983 13.156 9.99797 12.5916 10.1787 12.1362L11.2197 9.50901C11.171 9.44673 11.128 9.37278 11.0964 9.28715L10.3249 7.34496V9.46619C10.3249 10.1551 9.9148 10.7117 9.40717 10.7117H8.00472C7.5229 10.7117 7.08697 10.1551 7.08697 9.46619V7.34496L6.34129 9.28715C6.28393 9.37278 6.26673 9.44673 6.21797 9.50901L7.25905 12.1362C7.43973 12.5916 7.31354 13.156 6.98085 13.4012C6.6453 13.6464 6.22944 13.4751 6.04876 13.0236L5.25146 11.0814L5.27727 12.5799Z" fill="#93989A"/>
</g>
<defs>
<clipPath id="clip0_41_129676">
<rect width="17.4369" height="17.4369" fill="white" transform="translate(0 0.125)"/>
</clipPath>
</defs>
</svg>
