<svg width="28" height="29" viewBox="0 0 28 29" fill="none" xmlns="http://www.w3.org/2000/svg">
<path d="M23.0603 8.47931V6.17423C23.0603 4.90297 22.026 3.86914 20.7542 3.86914H5.76477C3.85765 3.86914 2.30566 5.42046 2.30566 7.32677V21.1573C2.30566 23.694 4.37421 24.6149 5.76477 24.6149H23.0603C24.3321 24.6149 25.3664 23.5811 25.3664 22.3098V10.7844C25.3664 9.51314 24.3321 8.47931 23.0603 8.47931ZM20.7542 18.8522H18.4481V14.242H20.7542V18.8522ZM5.76477 8.47931C5.46788 8.46604 5.18756 8.33881 4.98218 8.12412C4.77679 7.90943 4.66216 7.62382 4.66216 7.32677C4.66216 7.02972 4.77679 6.74411 4.98218 6.52942C5.18756 6.31473 5.46788 6.1875 5.76477 6.17423H20.7542V8.47931H5.76477Z" fill="white"/>
</svg>
