<svg width="466" height="263" viewBox="0 0 466 263" fill="none" xmlns="http://www.w3.org/2000/svg">
<g clip-path="url(#clip0_41_131295)">
<path d="M87.3248 255.658H80.4204L79.3887 229.027L87.326 229.028L87.3248 255.658Z" fill="#FFB8B8"/>
<path d="M89.0856 262.35L66.8232 262.349V262.067C66.8232 260.929 67.0473 259.803 67.4828 258.751C67.9183 257.7 68.5566 256.745 69.3612 255.94C70.1658 255.136 71.1211 254.497 72.1724 254.062C73.2237 253.626 74.3505 253.402 75.4884 253.402H75.489L89.086 253.403L89.0856 262.35Z" fill="#2F2E41"/>
<path d="M126.214 255.658H133.117L134.15 229.027L126.212 229.028L126.214 255.658Z" fill="#FFB8B8"/>
<path d="M124.453 253.403L138.05 253.402H138.051C139.189 253.402 140.315 253.626 141.367 254.062C142.418 254.497 143.373 255.136 144.178 255.94C144.983 256.745 145.621 257.7 146.056 258.751C146.492 259.803 146.716 260.929 146.716 262.067V262.349L124.454 262.35L124.453 253.403Z" fill="#2F2E41"/>
<path d="M126.395 252.247C125.819 252.245 125.261 252.048 124.811 251.687C124.362 251.327 124.048 250.825 123.921 250.263L106.808 175.621C106.771 175.431 106.667 175.261 106.516 175.14C106.366 175.019 106.177 174.955 105.984 174.96H105.979C105.785 174.956 105.596 175.022 105.446 175.144C105.295 175.267 105.193 175.439 105.157 175.629L89.442 249.768C89.3194 250.335 89.0068 250.843 88.5559 251.209C88.1051 251.574 87.543 251.774 86.9627 251.776H79.4767C79.1313 251.776 78.7895 251.706 78.4724 251.569C78.1553 251.432 77.8695 251.232 77.6326 250.98C77.3956 250.729 77.2126 250.432 77.0947 250.107C76.9767 249.783 76.9264 249.437 76.9468 249.093L82.5227 155.125L84.7664 154.461L84.8085 154.461L128.881 154.847L138.268 248.711C138.3 249.046 138.266 249.384 138.167 249.706C138.068 250.027 137.905 250.325 137.69 250.583C137.474 250.841 137.209 251.054 136.91 251.208C136.611 251.363 136.285 251.456 135.949 251.483L126.599 252.238C126.53 252.244 126.463 252.247 126.395 252.247Z" fill="#2F2E41"/>
<path d="M108.195 68.4492C115.835 68.4492 122.027 62.2564 122.027 54.6172C122.027 46.978 115.835 40.7852 108.195 40.7852C100.556 40.7852 94.3633 46.978 94.3633 54.6172C94.3633 62.2564 100.556 68.4492 108.195 68.4492Z" fill="#A0616A"/>
<path d="M99.7213 165.427C97.2947 165.457 94.8776 165.117 92.5535 164.418C90.4865 163.795 88.5688 162.755 86.9187 161.363C85.2685 159.971 83.9207 158.255 82.9582 156.323C82.6532 155.741 82.5856 155.064 82.7696 154.434C84.295 149.227 91.6668 122.164 86.9633 100.649C86.2994 97.6607 86.2443 94.5689 86.8011 91.5583C87.358 88.5478 88.5154 85.6803 90.2045 83.1268C91.8542 80.5933 93.9973 78.4181 96.5059 76.7308C99.0145 75.0435 101.837 73.8787 104.806 73.306L104.806 73.3054C105.586 73.1531 106.37 73.0283 107.137 72.9337C110.418 72.5298 113.748 72.8561 116.889 73.8894C120.03 74.9227 122.903 76.6374 125.304 78.9107C127.775 81.2287 129.704 84.0645 130.952 87.2151C132.2 90.3657 132.735 93.7532 132.521 97.1351L128.906 155.144C128.881 155.579 128.743 156 128.507 156.365C128.27 156.731 127.942 157.029 127.556 157.229C123.392 159.411 110.886 165.427 99.7213 165.427Z" fill="#CCCCCC"/>
<path d="M85.9988 155.901C86.7906 155.507 87.4864 154.944 88.0372 154.252C88.588 153.56 88.9803 152.755 89.1866 151.895C89.3928 151.035 89.408 150.14 89.231 149.274C89.0541 148.407 88.6892 147.59 88.1622 146.88L92.6862 102.648H82.9095L79.3142 145.838C78.1796 146.802 77.4382 148.15 77.2304 149.624C77.0226 151.099 77.363 152.598 78.1869 153.839C79.0109 155.079 80.2612 155.974 81.701 156.354C83.1408 156.734 84.67 156.573 85.9988 155.901Z" fill="#A0616A"/>
<path d="M93.3781 81.7078C95.2872 82.0915 96.9914 83.1572 98.172 84.7058C99.3526 86.2545 99.9289 88.18 99.7931 90.1226L98.4457 109.407C98.4221 109.745 98.3224 110.074 98.1542 110.368C97.986 110.662 97.7535 110.915 97.4742 111.107C97.1948 111.299 96.8757 111.425 96.5406 111.477C96.2056 111.528 95.8632 111.503 95.5391 111.404L79.3062 106.435C79.0106 106.344 78.7368 106.194 78.5018 105.993C78.2668 105.792 78.0757 105.545 77.9403 105.267C77.805 104.989 77.7283 104.687 77.715 104.378C77.7017 104.069 77.7521 103.761 77.8631 103.472L84.3205 86.6869C84.9997 84.9214 86.2815 83.4531 87.9392 82.5418C89.5969 81.6306 91.5235 81.3352 93.3781 81.7078Z" fill="#CCCCCC"/>
<path d="M123.821 44.4345C122.384 40.8235 119.752 37.8146 116.364 35.9099C112.977 34.0052 109.038 33.32 105.206 33.9688L109.568 37.493C104.149 37.6754 98.4453 37.2875 94.5764 41.0856C95.8081 41.0514 97.4224 43.6859 98.6541 43.6518C96.3513 43.6973 94.2632 45.3153 93.2461 47.3818C92.3041 49.5048 92.0837 51.878 92.6187 54.1382C93.0735 56.396 96.543 61.6855 97.4768 63.7909C97.3162 58.2887 108.148 45.1644 113.438 46.5341C110.751 47.5312 108.419 49.3018 106.736 51.6225C110.335 49.8064 114.405 49.1405 118.394 49.715C119.305 49.9239 120.245 49.9765 121.173 49.8706C121.743 49.758 122.273 49.5014 122.715 49.1253C123.157 48.7491 123.495 48.266 123.696 47.7221C123.898 47.1782 123.957 46.5917 123.868 46.0185C123.778 45.4453 123.543 44.9046 123.185 44.4481L123.821 44.4345Z" fill="#2F2E41"/>
<path d="M215.131 263.001H0.563169C0.413807 263.001 0.270563 262.942 0.164948 262.836C0.0593333 262.731 0 262.588 0 262.438C0 262.289 0.0593333 262.146 0.164948 262.04C0.270563 261.934 0.413807 261.875 0.563169 261.875H215.131C215.28 261.875 215.423 261.934 215.529 262.04C215.634 262.146 215.694 262.289 215.694 262.438C215.694 262.588 215.634 262.731 215.529 262.836C215.423 262.942 215.28 263.001 215.131 263.001Z" fill="#3F3D56"/>
<path d="M461.125 16.332H457.746V16.8952H461.125V16.332Z" fill="#E6E6E6"/>
<path d="M450.919 16.8952H444.093V16.332H450.919V16.8952ZM437.266 16.8952H430.44V16.332H437.266L437.266 16.8952ZM423.614 16.8952H416.788V16.332H423.614V16.8952ZM409.961 16.8952H403.135V16.332H409.961V16.8952ZM396.309 16.8952H389.482V16.332H396.309V16.8952ZM382.656 16.8952H375.83V16.332H382.656V16.8952ZM369.003 16.8952H362.177V16.332H369.003V16.8952ZM355.351 16.8952H348.525V16.332H355.351V16.8952ZM341.698 16.8952H334.872V16.332H341.698V16.8952ZM328.046 16.8952H321.219V16.332H328.046V16.8952ZM314.393 16.8952H307.567V16.332H314.393V16.8952ZM300.74 16.8952H293.914V16.332H300.74V16.8952ZM287.088 16.8952H280.262V16.332H287.088V16.8952ZM273.435 16.8952H266.609V16.332H273.435V16.8952ZM259.783 16.8952H252.956V16.332H259.783V16.8952ZM246.13 16.8952H239.304V16.332H246.13V16.8952Z" fill="#E6E6E6"/>
<path d="M232.478 16.332H229.099V16.8952H232.478V16.332Z" fill="#E6E6E6"/>
<path d="M350.181 68.707H346.802V69.2702H350.181V68.707Z" fill="#E6E6E6"/>
<path d="M340.077 69.2702H333.352V68.707H340.077V69.2702ZM326.627 69.2702H319.902V68.707H326.627V69.2702ZM313.177 69.2702H306.452V68.707H313.177V69.2702ZM299.727 69.2702H293.002V68.707H299.727V69.2702ZM286.278 69.2702H279.552V68.707H286.278V69.2702ZM272.828 69.2702H266.103V68.707H272.828V69.2702ZM259.378 69.2702H252.653V68.707H259.378L259.378 69.2702ZM245.928 69.2702H239.203V68.707H245.928V69.2702Z" fill="#E6E6E6"/>
<path d="M232.478 68.707H229.099V69.2702H232.478V68.707Z" fill="#E6E6E6"/>
<path d="M284.289 93.4844H280.91V94.0475H284.289V93.4844Z" fill="#E6E6E6"/>
<path d="M273.991 94.0475H267.072V93.4844H273.991V94.0475ZM260.153 94.0475H253.234V93.4844H260.153V94.0475ZM246.315 94.0475H239.396V93.4844H246.315V94.0475Z" fill="#E6E6E6"/>
<path d="M232.479 93.4844H229.1V94.0475H232.479V93.4844Z" fill="#E6E6E6"/>
<path d="M461.22 22.5312V118.98C461.214 123.832 459.284 128.484 455.853 131.916C452.422 135.347 447.769 137.277 442.917 137.283H246.934C244.365 137.284 241.824 136.743 239.479 135.695C237.133 134.647 235.035 133.115 233.322 131.2V130.339C234.971 132.322 237.034 133.921 239.366 135.023C241.698 136.126 244.242 136.704 246.822 136.719L280.719 102.822C281.163 102.378 281.691 102.025 282.272 101.784C282.852 101.544 283.475 101.42 284.103 101.42C284.732 101.42 285.354 101.544 285.935 101.784C286.516 102.025 287.044 102.378 287.488 102.822L305.504 120.832L347.736 78.606C348.18 78.1614 348.708 77.8088 349.289 77.5682C349.869 77.3276 350.492 77.2037 351.12 77.2037C351.749 77.2037 352.372 77.3276 352.952 77.5682C353.533 77.8088 354.061 78.1614 354.505 78.606L379.279 103.374L460.099 22.5594L460.657 22.5425L460.916 22.5369L461.22 22.5312Z" fill="#2892F3"/>
<path d="M443.103 137.413H247.12C242.268 137.408 237.616 135.478 234.184 132.046C230.753 128.615 228.823 123.963 228.817 119.11V18.303C228.823 13.4504 230.753 8.79818 234.184 5.36689C237.616 1.9356 242.268 0.00549273 247.12 0H443.103C447.956 0.00549124 452.608 1.9356 456.039 5.36689C459.471 8.79818 461.401 13.4504 461.406 18.303V119.11C461.401 123.963 459.471 128.615 456.039 132.046C452.608 135.478 447.956 137.408 443.103 137.413ZM247.12 0.563169C242.417 0.56849 237.908 2.43921 234.582 5.76492C231.257 9.09063 229.386 13.5997 229.381 18.303V119.11C229.386 123.814 231.257 128.323 234.582 131.648C237.908 134.974 242.417 136.845 247.12 136.85H443.103C447.807 136.845 452.316 134.974 455.641 131.648C458.967 128.323 460.838 123.814 460.843 119.11V18.303C460.838 13.5997 458.967 9.09063 455.641 5.76492C452.316 2.43921 447.807 0.568489 443.103 0.563169H247.12Z" fill="#3F3D56"/>
<path d="M247.32 137.332L246.922 136.933L280.905 102.95C281.804 102.053 283.021 101.55 284.29 101.55C285.559 101.55 286.777 102.053 287.675 102.95L305.691 120.966L347.922 78.7336C348.821 77.8372 350.038 77.3337 351.307 77.3337C352.576 77.3337 353.794 77.8372 354.692 78.7336L379.466 103.507L460.926 22.0469L461.324 22.445L379.466 104.304L354.294 79.1318C353.902 78.7396 353.436 78.4284 352.924 78.2162C352.411 78.0039 351.862 77.8947 351.307 77.8947C350.753 77.8947 350.203 78.0039 349.691 78.2162C349.178 78.4284 348.713 78.7396 348.321 79.1318L305.691 121.762L287.277 103.348C286.484 102.557 285.41 102.113 284.29 102.113C283.17 102.113 282.096 102.557 281.303 103.348L247.32 137.332Z" fill="#3F3D56"/>
<path d="M284.29 97.7086C286.467 97.7086 288.232 95.9436 288.232 93.7664C288.232 91.5892 286.467 89.8242 284.29 89.8242C282.113 89.8242 280.348 91.5892 280.348 93.7664C280.348 95.9436 282.113 97.7086 284.29 97.7086Z" fill="#3F3D56"/>
<path d="M350.18 72.9312C352.358 72.9312 354.123 71.1663 354.123 68.9891C354.123 66.8119 352.358 65.0469 350.18 65.0469C348.003 65.0469 346.238 66.8119 346.238 68.9891C346.238 71.1663 348.003 72.9312 350.18 72.9312Z" fill="#3F3D56"/>
<path d="M461.125 20.5562C463.302 20.5562 465.067 18.7913 465.067 16.6141C465.067 14.4369 463.302 12.6719 461.125 12.6719C458.948 12.6719 457.183 14.4369 457.183 16.6141C457.183 18.7913 458.948 20.5562 461.125 20.5562Z" fill="#3F3D56"/>
<path d="M96.5653 164.506C104.742 164.506 111.371 155.072 111.371 143.435C111.371 131.797 104.742 122.363 96.5653 122.363C88.3884 122.363 81.7598 131.797 81.7598 143.435C81.7598 155.072 88.3884 164.506 96.5653 164.506Z" fill="#3F3D56"/>
<path opacity="0.1" d="M96.5653 164.506C104.742 164.506 111.371 155.072 111.371 143.435C111.371 131.797 104.742 122.363 96.5653 122.363C88.3884 122.363 81.7598 131.797 81.7598 143.435C81.7598 155.072 88.3884 164.506 96.5653 164.506Z" fill="black"/>
<path d="M98.5624 164.506C106.739 164.506 113.368 155.072 113.368 143.435C113.368 131.797 106.739 122.363 98.5624 122.363C90.3855 122.363 83.7568 131.797 83.7568 143.435C83.7568 155.072 90.3855 164.506 98.5624 164.506Z" fill="#3F3D56"/>
<path opacity="0.1" d="M98.5626 161.508C105.576 161.508 111.261 153.417 111.261 143.436C111.261 133.455 105.576 125.363 98.5626 125.363C91.5495 125.363 85.8643 133.455 85.8643 143.436C85.8643 153.417 91.5495 161.508 98.5626 161.508Z" fill="black"/>
<path d="M98.452 152.143V150.022C97.4362 150.013 96.4482 149.69 95.623 149.098L96.0668 147.69C96.8358 148.267 97.7684 148.583 98.7293 148.593C99.0119 148.616 99.2961 148.579 99.5638 148.485C99.8314 148.392 100.077 148.243 100.284 148.05C100.491 147.856 100.655 147.621 100.766 147.361C100.878 147.1 100.933 146.819 100.93 146.535C100.93 145.38 100.208 144.666 98.8402 144.035C96.9542 143.195 95.7894 142.229 95.7894 140.402C95.7604 139.594 96.0285 138.804 96.5431 138.18C97.0576 137.557 97.7828 137.144 98.5814 137.02V134.898H99.7277V136.936C100.583 136.948 101.416 137.203 102.131 137.671L101.669 139.057C100.983 138.588 100.171 138.339 99.3395 138.343C99.0886 138.317 98.8351 138.344 98.5957 138.424C98.3563 138.503 98.1366 138.632 97.9511 138.803C97.7657 138.974 97.6188 139.183 97.5202 139.415C97.4217 139.647 97.3737 139.898 97.3795 140.15C97.3795 141.242 98.0636 141.788 99.6723 142.544C101.577 143.426 102.538 144.519 102.538 146.388C102.564 147.235 102.282 148.064 101.745 148.72C101.208 149.376 100.452 149.816 99.6168 149.959V152.143L98.452 152.143Z" fill="#2892F3"/>
<path d="M106.488 131.363C106.798 131.398 107.104 131.459 107.404 131.542L128.605 113.361L127.366 106.69L137.189 103.504L140.531 115.1C140.801 116.037 140.759 117.036 140.413 117.948C140.067 118.859 139.434 119.634 138.611 120.155L111.76 137.146C111.779 138.346 111.432 139.524 110.766 140.522C110.099 141.521 109.144 142.293 108.028 142.735C106.912 143.178 105.688 143.27 104.518 143C103.349 142.729 102.289 142.109 101.48 141.222C100.672 140.335 100.152 139.223 99.991 138.033C99.8299 136.843 100.035 135.633 100.578 134.563C101.122 133.492 101.979 132.613 103.034 132.041C104.09 131.47 105.295 131.233 106.488 131.363Z" fill="#A0616A"/>
<path d="M124.652 82.4028C126.559 82.0057 128.545 82.3163 130.239 83.2766C131.933 84.237 133.219 85.7814 133.857 87.6211L140.194 105.885C140.305 106.205 140.342 106.546 140.303 106.883C140.264 107.22 140.149 107.543 139.968 107.829C139.786 108.116 139.543 108.357 139.255 108.536C138.967 108.715 138.642 108.827 138.305 108.863L121.425 110.67C121.118 110.703 120.807 110.672 120.512 110.58C120.217 110.487 119.944 110.335 119.71 110.133C119.477 109.93 119.287 109.682 119.154 109.403C119.02 109.124 118.945 108.821 118.934 108.512L118.279 90.5396C118.21 88.6493 118.812 86.7955 119.978 85.3063C121.145 83.8171 122.8 82.7886 124.652 82.4028Z" fill="#CCCCCC"/>
</g>
<defs>
<clipPath id="clip0_41_131295">
<rect width="465.067" height="263" fill="white"/>
</clipPath>
</defs>
</svg>
