<svg width="382" height="470" viewBox="0 0 382 470" fill="none" xmlns="http://www.w3.org/2000/svg">
<g clip-path="url(#clip0_41_131363)">
<path d="M250.498 457.142C252 457.236 252.83 455.37 251.694 454.282L251.581 453.833C251.596 453.797 251.611 453.761 251.626 453.725C253.145 450.103 258.292 450.128 259.798 453.756C261.135 456.975 262.837 460.2 263.256 463.603C263.444 465.106 263.359 466.637 263.026 468.111C266.158 461.27 267.806 453.799 267.806 446.286C267.806 444.398 267.703 442.511 267.491 440.628C267.317 439.088 267.078 437.557 266.768 436.04C265.092 427.841 261.462 420.033 256.226 413.51C253.709 412.135 251.611 409.984 250.343 407.406C249.887 406.476 249.53 405.476 249.361 404.457C249.648 404.495 250.441 400.132 250.225 399.865C250.624 399.259 251.339 398.958 251.775 398.367C253.943 395.427 256.93 395.941 258.49 399.935C261.821 401.617 261.853 404.405 259.809 407.087C258.509 408.793 258.33 411.102 257.189 412.928C257.306 413.078 257.428 413.224 257.546 413.374C259.699 416.135 261.56 419.103 263.13 422.221C262.686 418.756 263.341 414.581 264.458 411.89C265.729 408.824 268.111 406.242 270.209 403.592C272.729 400.408 277.896 401.797 278.34 405.833C278.344 405.872 278.348 405.911 278.352 405.95C278.041 406.126 277.735 406.313 277.437 406.51C275.736 407.635 276.324 410.272 278.339 410.583L278.385 410.59C278.272 411.712 278.08 412.825 277.798 413.919C280.489 424.327 274.679 428.117 266.383 428.288C266.2 428.381 266.021 428.475 265.838 428.565C266.679 430.931 267.35 433.359 267.848 435.819C268.294 437.993 268.604 440.191 268.778 442.398C268.994 445.182 268.975 447.981 268.74 450.761L268.754 450.662C269.351 447.601 271.013 444.741 273.427 442.759C277.022 439.806 282.102 438.718 285.981 436.344C287.848 435.201 290.241 436.678 289.915 438.843L289.899 438.947C289.321 439.181 288.758 439.454 288.213 439.759C287.901 439.935 287.596 440.122 287.298 440.319C285.597 441.444 286.185 444.08 288.2 444.391L288.246 444.398C288.279 444.403 288.307 444.408 288.34 444.412C287.349 446.765 285.969 448.948 284.241 450.831C282.558 459.917 275.33 460.779 267.599 458.133H267.595C266.749 461.814 265.514 465.411 263.927 468.839H250.826C250.779 468.694 250.737 468.543 250.695 468.398C251.906 468.473 253.127 468.402 254.32 468.182C253.348 466.989 252.376 465.787 251.404 464.594C251.38 464.571 251.362 464.547 251.343 464.524C250.85 463.913 250.352 463.308 249.859 462.697L249.859 462.697C249.828 460.823 250.053 458.955 250.498 457.142L250.498 457.142V457.142Z" fill="#F2F2F2"/>
<path d="M1.62891 469.135C1.62891 469.615 2.01424 470 2.49409 470H295.689C296.168 470 296.554 469.615 296.554 469.135C296.554 468.655 296.168 468.27 295.689 468.27H2.49409C2.01424 468.27 1.62891 468.655 1.62891 469.135Z" fill="#CCCCCC"/>
<path d="M377.512 289.785H123.059C120.653 289.785 118.697 291.741 118.697 294.147C118.697 296.554 120.653 298.509 123.059 298.509H377.512C379.918 298.509 381.874 296.554 381.874 294.147C381.874 291.741 379.918 289.785 377.512 289.785Z" fill="#E6E6E6"/>
<path d="M291.361 289.785V298.509H123.059C120.653 298.509 118.697 296.554 118.697 294.147C118.697 291.741 120.653 289.785 123.059 289.785H291.361Z" fill="#3F3D56"/>
<path d="M197.455 455.995H197.455C196.498 453.53 193.723 452.306 191.257 453.263H191.257C188.814 454.211 187.592 456.942 188.499 459.391L188.428 459.418L191.893 468.348L200.111 465.159C200.382 465.106 200.653 465.029 200.92 464.925H200.92C203.386 463.968 204.609 461.194 203.652 458.728V458.728C202.695 456.262 199.921 455.038 197.455 455.995H197.455L197.455 455.995Z" fill="#FF6584"/>
<path d="M50.9461 0C41.6361 0 34.0889 7.54725 34.0889 16.8572V253.342H35.5747V117.146C35.5747 53.2686 87.3575 1.48587 151.235 1.48587L373.138 1.21569L372.868 0H50.9461V0Z" fill="#E6E6E6"/>
<path d="M92.8413 57.9939C96.3112 57.9939 99.1241 55.1184 99.1241 51.5712C99.1241 48.024 96.3112 45.1484 92.8413 45.1484C89.3715 45.1484 86.5586 48.024 86.5586 51.5712C86.5586 55.1184 89.3715 57.9939 92.8413 57.9939Z" fill="#3F3D56"/>
<path d="M114.545 57.9939C118.015 57.9939 120.828 55.1184 120.828 51.5712C120.828 48.024 118.015 45.1484 114.545 45.1484C111.076 45.1484 108.263 48.024 108.263 51.5712C108.263 55.1184 111.076 57.9939 114.545 57.9939Z" fill="#3F3D56"/>
<path d="M136.25 57.9939C139.719 57.9939 142.532 55.1184 142.532 51.5712C142.532 48.024 139.719 45.1484 136.25 45.1484C132.78 45.1484 129.967 48.024 129.967 51.5712C129.967 55.1184 132.78 57.9939 136.25 57.9939Z" fill="#3F3D56"/>
<path d="M49.7039 463.373L58.3255 463.373L62.4269 430.117L49.7021 430.118L49.7039 463.373Z" fill="#FFB6B6"/>
<path d="M79.2424 463.177C79.5108 463.629 79.6525 465.088 79.6525 465.614C79.6525 467.23 78.3424 468.54 76.7263 468.54H50.026C48.9235 468.54 48.0297 467.646 48.0297 466.544V465.432C48.0297 465.432 46.7089 462.091 49.4282 457.973C49.4282 457.973 52.808 461.197 57.8583 456.147L59.3476 453.449L70.1281 461.333L76.1035 462.069C77.4108 462.23 78.5698 462.044 79.2423 463.177H79.2424Z" fill="#2F2E41"/>
<path d="M104.358 435.184L112.763 437.106L124.175 405.602L111.771 402.766L104.358 435.184Z" fill="#FFB6B6"/>
<path d="M133.197 441.578C133.358 442.079 133.171 443.533 133.054 444.045C132.693 445.621 131.124 446.606 129.549 446.246L103.52 440.293C102.446 440.047 101.774 438.977 102.019 437.902L102.267 436.818C102.267 436.818 101.725 433.267 105.294 429.859C105.294 429.859 107.869 433.755 113.919 429.958L115.972 427.66L124.723 437.749L130.384 439.799C131.623 440.247 132.794 440.324 133.197 441.578H133.197Z" fill="#2F2E41"/>
<path d="M44.3475 278.387L34.2725 292.2L47.2555 442.69H63.9481L66.8847 369.263L74.8818 313.283L116.321 356.903L107.597 412.156L124.318 418.699L143.22 348.179L111.232 295.108L106.87 281.295L44.3475 278.387Z" fill="#2F2E41"/>
<path d="M90.1485 158.43H69.3057L62.5222 167.154L38.531 178.059L42.166 267.481L34.1689 292.199C34.1689 292.199 71.9733 310.374 106.87 281.294L106.143 255.122L118.502 179.513L96.6915 165.7L90.1485 158.43Z" fill="#2892F3"/>
<path d="M15.5513 287.918C16.1875 285.78 17.2539 283.963 18.5126 282.673L23.2872 261.922L33.0949 264.483L27.1956 285.257C27.5442 287.025 27.4436 289.13 26.8074 291.268C25.3539 296.152 21.6558 299.362 18.5475 298.437C15.4392 297.512 14.0978 292.803 15.5513 287.918H15.5513Z" fill="#FFB6B6"/>
<path d="M49.7457 179.538L43.3507 176.266C43.3507 176.266 37.2052 176.688 34.3551 182.388C31.505 188.088 31.505 229.129 31.505 229.129L18.3945 276.441L29.795 282.711L45.2933 238.82L49.7457 179.538H49.7457Z" fill="#2892F3"/>
<path d="M118.709 293.289C118.665 291.059 119.129 289.004 119.936 287.392L118.174 266.172L128.296 265.629L128.993 287.213C129.863 288.792 130.407 290.827 130.451 293.058C130.552 298.153 128.005 302.335 124.762 302.399C121.52 302.463 118.81 298.385 118.709 293.289V293.289Z" fill="#FFB6B6"/>
<path d="M118.327 179.641L111.24 178.469C111.24 178.469 105.513 180.739 104.532 187.036C103.55 193.333 116.03 232.431 116.03 232.431L117.927 281.489L130.695 283.996L132.112 237.47L118.327 179.641V179.641Z" fill="#2892F3"/>
<path d="M81.4955 154.702C92.722 154.702 101.823 145.601 101.823 134.374C101.823 123.148 92.722 114.047 81.4955 114.047C70.2689 114.047 61.168 123.148 61.168 134.374C61.168 145.601 70.2689 154.702 81.4955 154.702Z" fill="#FFB6B6"/>
<path d="M272.59 174.002C277.594 174.002 281.651 170.03 281.651 165.132C281.651 160.233 277.594 156.262 272.59 156.262C267.586 156.262 263.529 160.233 263.529 165.132C263.529 170.03 267.586 174.002 272.59 174.002Z" fill="#2892F3"/>
<path d="M345.228 167.913H296.456C294.783 167.913 293.422 166.551 293.422 164.878C293.422 163.205 294.783 161.844 296.456 161.844H345.228C346.901 161.844 348.262 163.205 348.262 164.878C348.262 166.551 346.901 167.913 345.228 167.913Z" fill="#E6E6E6"/>
<path d="M10.1781 300.196C15.7993 300.196 20.3562 295.639 20.3562 290.018C20.3562 284.397 15.7993 279.84 10.1781 279.84C4.55689 279.84 0 284.397 0 290.018C0 295.639 4.55689 300.196 10.1781 300.196Z" fill="#3F3D56"/>
<path d="M15.4727 284.056C14.9877 283.772 14.2471 283.919 13.9807 284.447C12.7709 286.844 11.5611 289.241 10.3514 291.637C9.37545 290.108 8.12694 288.773 6.6786 287.655C6.21211 287.294 5.45688 287.584 5.18656 288.046C4.85708 288.609 5.11015 289.177 5.5778 289.538C7.26672 290.843 8.56911 292.596 9.44601 294.532C9.77934 295.267 10.9813 295.221 11.3292 294.532C12.8408 291.537 14.3524 288.543 15.8639 285.548C16.1292 285.023 16.0028 284.366 15.4727 284.056L15.4727 284.056Z" fill="white"/>
<path d="M336.93 189.692H201.781C193.142 189.692 186.113 182.664 186.113 174.024V107.941C186.113 99.3021 193.142 92.2734 201.781 92.2734H336.93C345.569 92.2734 352.598 99.3021 352.598 107.941V174.024C352.598 182.664 345.569 189.692 336.93 189.692ZM201.781 93.7275C193.944 93.7275 187.567 100.104 187.567 107.941V174.024C187.567 181.862 193.944 188.238 201.781 188.238H336.93C344.768 188.238 351.144 181.862 351.144 174.024V107.941C351.144 100.104 344.768 93.7275 336.93 93.7275H201.781Z" fill="#E6E6E6"/>
<path d="M104.173 121.282C98.8729 121.703 99.5997 119.169 99.5997 119.169L100.076 114.855C99.9392 114.108 99.68 113.505 99.1654 113.214C97.9558 112.53 96.7279 113.824 95.4468 113.285C94.278 112.794 93.105 112.301 91.881 111.971C90.3273 111.552 89.5719 113.228 87.9676 113.353C86.45 113.472 84.093 112.006 82.6141 112.366C81.3125 112.684 83.0131 110.665 81.4245 110.445L76.3354 113.353C76.3354 113.353 74.3905 115.049 74.1544 113.353C70.0015 114.022 66.7531 111.119 65.3781 118.18C64.5084 122.646 60.0553 125.083 58.869 129.476C57.1792 135.733 60.0482 141.154 63.8405 145.493C64.7779 146.565 63.297 148.442 63.9805 149.692C64.616 150.853 66.0509 151.398 66.6987 152.553C67.2526 153.541 68.2531 151.897 68.8946 152.83C69.4482 153.635 67.3615 154.052 68.3384 154.066C68.8177 154.072 70.0515 154.171 70.5194 154.066C72.2896 154.18 70.901 154.109 72.38 154.201C73.0246 150.442 70.5055 149.359 69.19 145.779C68.7509 144.584 68.2056 143.42 67.9374 142.176C67.6692 140.932 67.7074 139.56 68.3788 138.478C69.4057 136.824 71.7987 136.315 73.5428 137.18C75.2869 138.046 76.315 140.039 76.3017 141.986C77.8082 140.709 78.9883 139.094 79.8179 137.309L79.2435 134.437C79.2435 134.437 79.9177 134.989 80.4956 135.577C81.5534 132.273 81.4759 128.596 80.0518 125.426C80.7955 124.839 86.2442 127.201 90.8756 128.252V127.893L94.5106 128.62C98.1036 129.272 99.0766 130.163 98.1457 126.439C97.8416 125.223 99.5997 130.801 102.508 129.347C104.33 128.437 102.154 126.698 103.341 125.043C104.112 123.966 104.349 122.604 104.173 121.282L104.173 121.282Z" fill="#2F2E41"/>
<path d="M294.934 240.316H153.108V241.043H294.934V240.316Z" fill="#3F3D56"/>
<path d="M218.191 200.703L212.208 197.868C214.662 201.293 216.777 206.642 217.909 210.898C219.826 206.934 222.915 202.082 225.974 199.185L219.65 200.812C223.547 181.715 238.203 168.005 254.986 168.005V166.551C237.456 166.551 222.17 180.835 218.191 200.703Z" fill="#3F3D56"/>
<path d="M245.73 229.8H207.926C206.322 229.8 205.018 228.496 205.018 226.892C205.018 225.289 206.322 223.984 207.926 223.984H245.73C247.333 223.984 248.638 225.289 248.638 226.892C248.638 228.496 247.333 229.8 245.73 229.8Z" fill="#2892F3"/>
</g>
<defs>
<clipPath id="clip0_41_131363">
<rect width="381.873" height="470" fill="white"/>
</clipPath>
</defs>
</svg>
