<svg width="429" height="493" viewBox="0 0 429 493" fill="none" xmlns="http://www.w3.org/2000/svg">
<g clip-path="url(#clip0_41_131405)">
<path d="M403.784 401.624C402.94 400.2 399.287 401.724 398.616 400.432C397.947 399.145 401.34 397.184 403.279 392.703C403.629 391.895 405.832 386.802 404.201 385.231C401.109 382.253 386.962 394.544 382.01 390.521C380.924 389.639 380.165 387.877 376.876 385.016C375.568 383.877 374.777 383.364 374.011 383.555C372.925 383.826 372.839 385.28 371.674 388.139C369.927 392.426 368.894 392.167 367.876 395.588C367.12 398.127 367.293 399.603 366.403 399.891C365.145 400.298 363.987 397.604 362.392 397.846C360.765 398.092 359.782 401.228 359.471 403.576C358.888 407.982 360.506 410.889 361.403 413.946C362.377 417.269 362.956 422.321 360.705 429.474L338.428 492.24C343.346 479.361 357.586 444.055 363.57 430.935C365.297 427.147 367.205 423.306 371.121 421.789C374.891 420.33 380.07 421.201 386.671 419.611C387.442 419.425 389.582 418.881 389.851 417.622C390.074 416.582 388.815 416.001 389.009 415.027C389.268 413.72 391.743 413.704 394.784 412.196C396.928 411.133 398.264 409.868 399.413 408.781C399.76 408.453 404.908 403.519 403.784 401.624H403.784V401.624Z" fill="#F2F2F2"/>
<path d="M316.139 434.666C315.197 434.67 314.891 436.902 314.063 436.859C313.238 436.816 313.254 434.584 311.615 432.34C311.319 431.935 309.455 429.384 308.214 429.732C305.86 430.39 307.81 440.88 304.407 442.149C303.661 442.428 302.577 442.292 300.224 443.081C299.288 443.395 298.807 443.634 298.68 444.065C298.5 444.677 299.188 445.139 300.255 446.535C301.856 448.63 301.43 449.062 302.816 450.549C303.844 451.652 304.618 451.993 304.503 452.513C304.339 453.248 302.683 453.039 302.342 453.891C301.993 454.761 303.248 456.149 304.311 456.979C306.305 458.536 308.199 458.581 309.958 459.023C311.87 459.503 314.517 460.677 317.378 463.845L341.756 492.889C336.854 486.759 323.635 469.583 318.922 462.861C317.561 460.92 316.226 458.875 316.612 456.516C316.983 454.244 318.905 451.954 320.029 448.255C320.161 447.823 320.511 446.616 319.971 446.121C319.525 445.711 318.876 446.161 318.454 445.785C317.887 445.281 318.593 444.062 318.731 442.134C318.828 440.775 318.593 439.754 318.39 438.876C318.329 438.612 317.393 434.661 316.139 434.666V434.666H316.139Z" fill="#F2F2F2"/>
<path d="M334.939 438.888L334.371 433.82L334.63 433.436C335.831 431.659 336.443 429.924 336.45 428.277C336.451 428.015 336.439 427.754 336.427 427.487C336.378 426.43 336.317 425.115 337.002 423.584C337.386 422.729 338.465 420.752 340.088 420.997C340.525 421.058 340.855 421.259 341.106 421.494C341.143 421.435 341.18 421.376 341.221 421.312C341.726 420.542 342.126 420.211 342.512 419.893C342.808 419.648 343.114 419.396 343.593 418.799C343.804 418.537 343.968 418.307 344.106 418.114C344.526 417.529 345.074 416.832 346.041 416.844C347.073 416.893 347.614 417.747 347.973 418.312C348.613 419.32 348.903 420.047 349.095 420.529C349.164 420.706 349.244 420.904 349.284 420.965C349.617 421.454 352.323 420.997 353.342 420.83C355.631 420.449 357.612 420.118 358.428 421.562C359.013 422.595 358.579 423.96 357.098 425.73C356.637 426.28 356.146 426.699 355.711 427.027C356.072 427.242 356.395 427.572 356.526 428.091C356.834 429.32 355.778 430.551 353.388 431.755C352.795 432.056 351.996 432.457 350.876 432.65C350.349 432.741 349.874 432.763 349.468 432.775C349.459 433.01 349.404 433.265 349.261 433.527C348.841 434.297 347.968 434.664 346.651 434.576C345.202 434.5 344.009 434.224 342.957 433.982C342.038 433.771 341.247 433.593 340.625 433.634C339.472 433.727 338.584 434.65 337.542 435.846L334.939 438.888H334.939H334.939Z" fill="#F2F2F2"/>
<path d="M337.572 408.708L332.814 410.543L332.377 410.389C330.354 409.679 328.52 409.527 326.925 409.938C326.671 410.003 326.421 410.081 326.166 410.161C325.156 410.476 323.9 410.869 322.245 410.595C321.321 410.44 319.135 409.897 318.96 408.266C318.908 407.828 319.019 407.457 319.182 407.155C319.116 407.135 319.05 407.113 318.978 407.09C318.104 406.797 317.683 406.493 317.278 406.201C316.966 405.977 316.644 405.745 315.945 405.432C315.638 405.295 315.374 405.195 315.152 405.11C314.48 404.853 313.666 404.499 313.433 403.561C313.218 402.55 313.907 401.81 314.363 401.32C315.176 400.445 315.806 399.98 316.223 399.672C316.376 399.56 316.548 399.433 316.597 399.378C316.986 398.932 315.857 396.431 315.437 395.487C314.487 393.37 313.665 391.537 314.855 390.382C315.705 389.554 317.136 389.628 319.223 390.611C319.873 390.918 320.402 391.286 320.83 391.624C320.947 391.221 321.184 390.824 321.653 390.566C322.763 389.956 324.222 390.665 325.992 392.672C326.434 393.169 327.025 393.84 327.496 394.874C327.717 395.361 327.859 395.815 327.974 396.205C328.203 396.154 328.464 396.142 328.753 396.214C329.605 396.425 330.182 397.177 330.431 398.473C330.725 399.893 330.76 401.117 330.793 402.197C330.822 403.139 330.85 403.95 331.048 404.541C331.43 405.632 332.548 406.257 333.97 406.962L337.573 408.708L337.572 408.708Z" fill="#F2F2F2"/>
<path d="M334.939 393.779L334.371 388.711L334.63 388.327C335.831 386.55 336.443 384.815 336.45 383.168C336.451 382.906 336.439 382.644 336.427 382.377C336.378 381.32 336.317 380.006 337.002 378.474C337.386 377.62 338.465 375.643 340.088 375.887C340.525 375.949 340.855 376.149 341.106 376.384C341.143 376.325 341.18 376.267 341.221 376.203C341.726 375.432 342.126 375.102 342.512 374.784C342.808 374.539 343.114 374.287 343.593 373.69C343.804 373.428 343.968 373.198 344.106 373.005C344.526 372.42 345.074 371.722 346.041 371.735C347.073 371.783 347.614 372.638 347.973 373.203C348.613 374.211 348.903 374.938 349.095 375.42C349.164 375.596 349.244 375.794 349.284 375.856C349.617 376.345 352.323 375.887 353.342 375.721C355.631 375.339 357.612 375.009 358.428 376.453C359.013 377.485 358.579 378.851 357.098 380.62C356.637 381.171 356.146 381.589 355.711 381.917C356.072 382.133 356.395 382.463 356.526 382.982C356.834 384.21 355.778 385.441 353.388 386.645C352.795 386.946 351.996 387.348 350.876 387.541C350.349 387.632 349.874 387.654 349.468 387.666C349.459 387.901 349.404 388.155 349.261 388.417C348.841 389.188 347.968 389.555 346.651 389.467C345.202 389.391 344.009 389.115 342.957 388.872C342.038 388.662 341.247 388.483 340.625 388.525C339.472 388.618 338.584 389.54 337.542 390.737L334.939 393.779H334.939H334.939Z" fill="#F2F2F2"/>
<path d="M340.124 492.156L339.062 491.49L338.805 490.264L339.062 491.49L337.824 491.632C337.804 491.517 337.737 491.253 337.635 490.839C337.081 488.573 335.391 481.677 333.982 470.816C332.998 463.234 332.441 455.44 332.326 447.646C332.211 439.839 332.581 433.929 332.877 429.179C333.101 425.596 333.372 422.185 333.639 418.862C334.349 409.983 335.018 401.597 334.52 392.312C334.41 390.239 334.179 385.925 331.658 381.334C330.196 378.671 328.182 376.307 325.671 374.31L327.232 372.348C330.004 374.555 332.232 377.174 333.856 380.13C336.65 385.22 336.902 389.921 337.023 392.18C337.53 401.629 336.853 410.096 336.136 419.06C335.872 422.371 335.6 425.768 335.378 429.336C335.084 434.042 334.718 439.9 334.832 447.607C334.945 455.308 335.495 463.007 336.466 470.493C337.858 481.217 339.523 488.01 340.07 490.242C340.362 491.434 340.423 491.683 340.124 492.156V492.156H340.124Z" fill="#F2F2F2"/>
<path d="M321.075 378.294C320.972 378.294 320.868 378.291 320.763 378.284C318.629 378.169 316.653 376.891 314.889 374.488C314.061 373.358 313.638 372.068 312.794 369.496C312.663 369.1 312.027 367.088 311.64 364.32C311.387 362.512 311.418 361.755 311.777 361.087C312.175 360.343 312.818 359.825 313.543 359.475C313.511 359.235 313.536 358.988 313.641 358.736C314.068 357.691 315.203 357.828 315.817 357.894C316.128 357.933 316.516 357.984 316.934 357.962C317.593 357.931 317.946 357.735 318.482 357.441C318.995 357.16 319.632 356.81 320.578 356.616C322.443 356.227 324.006 356.756 324.521 356.93C327.231 357.833 328.567 359.94 330.114 362.379C330.422 362.869 331.481 364.65 332.179 367.093C332.683 368.855 332.612 369.638 332.461 370.22C332.152 371.417 331.424 372.102 329.575 373.615C327.645 375.198 326.676 375.991 325.843 376.473C323.907 377.591 322.69 378.294 321.075 378.294V378.294Z" fill="#F2F2F2"/>
<path d="M240.516 140.417C247.295 137.028 251.042 130.783 248.885 126.469C246.727 122.154 239.483 121.405 232.701 124.796C229.974 126.114 227.601 128.066 225.783 130.488L197.238 145.21L204.433 158.458L231.809 142.538C234.839 142.537 237.824 141.809 240.516 140.417Z" fill="#FFB6B6"/>
<path d="M78.7898 482.895L92.3772 482.893L98.8408 430.484L78.7871 430.486L78.7898 482.895Z" fill="#FFB6B6"/>
<path d="M125.342 482.588C125.765 483.3 125.988 485.6 125.988 486.429C125.988 488.975 123.924 491.04 121.377 491.04H79.298C77.5605 491.04 76.1519 489.632 76.1519 487.894V486.142C76.1519 486.142 74.0703 480.877 78.3559 474.387C78.3559 474.387 83.6824 479.469 91.6415 471.51L93.9885 467.258L110.978 479.683L120.395 480.842C122.455 481.096 124.282 480.803 125.342 482.588H125.342H125.342Z" fill="#2F2E41"/>
<path d="M100.126 425.269L112.193 431.515L142.029 387.945L124.219 378.727L100.126 425.269Z" fill="#FFB6B6"/>
<path d="M141.608 446.397C141.656 447.224 140.797 449.369 140.416 450.104C139.245 452.366 136.462 453.251 134.201 452.08L96.8331 432.733C95.2901 431.935 94.6868 430.036 95.4857 428.493L96.2911 426.937C96.2911 426.937 96.8634 421.304 103.653 417.512C103.653 417.512 106.047 424.473 116.774 421.065L120.813 418.368L130.188 437.213L138.018 442.572C139.731 443.745 141.487 444.324 141.608 446.396L141.608 446.397V446.397Z" fill="#2F2E41"/>
<path d="M64.9914 66.9062H100.624L99.8467 78.5247L123.084 152.592L127.441 201.971L83.8714 209.232L63.5391 117.737L67.896 75.6201L64.9914 66.9062Z" fill="#2892F3"/>
<path d="M67.1692 76.3477L29.4092 95.2276L52.6461 173.652L48.2892 253.529C48.2892 253.529 107.834 272.409 104.929 218.674C102.025 164.938 102.025 156.225 102.025 156.225L67.1692 76.3477H67.1692Z" fill="#2F2E41"/>
<path d="M127.44 86.13C127.44 86.13 136.88 79.2516 141.237 89.4177C145.594 99.5839 173.914 151.141 173.914 151.141L218.21 131.535L225.471 147.51C225.471 147.51 189.163 182.365 167.379 178.008C145.594 173.652 128.167 135.892 128.167 135.892L127.44 86.13H127.44Z" fill="#2F2E41"/>
<path d="M52.6463 239.008C52.6463 239.008 51.194 262.245 54.0986 281.125C57.0032 300.005 76.6094 460.485 76.6094 460.485L101.299 459.033L103.477 270.959L138.332 326.147L107.834 408.928L128.892 418.368L173.188 327.599L142.689 224.485L133.975 198.344L68.6217 205.605L52.6463 239.008V239.008Z" fill="#2F2E41"/>
<path d="M149.951 244.815C149.951 244.815 110.739 256.434 102.025 156.225L100.054 75.4258L136.88 85.0616L132.523 157.677L149.951 244.815Z" fill="#2F2E41"/>
<path d="M83.1445 57.4667C97.582 57.4667 109.286 45.7627 109.286 31.3251C109.286 16.8876 97.582 5.18359 83.1445 5.18359C68.7069 5.18359 57.0029 16.8876 57.0029 31.3251C57.0029 45.7627 68.7069 57.4667 83.1445 57.4667Z" fill="#FFB6B6"/>
<path d="M66.4432 56.7419C66.4432 56.7419 54.8247 43.6712 53.3724 37.8619C51.9201 32.0527 51.9201 16.0773 53.3724 14.625C54.8247 13.1727 70.8001 -1.35037 76.6093 0.101932C82.4186 1.55423 93.9338 8.81577 104.203 8.81577C107.108 8.81577 108.56 23.3388 108.56 23.3388L96.9416 24.7912C96.9416 24.7912 82.4186 17.5296 83.8709 24.7912C85.3232 32.0527 73.7047 32.0527 73.7047 32.0527L75.157 37.8619L70.8001 39.3142L67.8955 33.505C67.8955 33.505 69.3478 46.5758 73.7047 52.385C78.0617 58.1942 66.4432 56.7419 66.4432 56.7419H66.4432Z" fill="#2F2E41"/>
<path d="M54.8682 265.85C58.8539 272.297 65.4111 275.466 69.5137 272.929C73.6162 270.392 73.7101 263.11 69.7222 256.661C68.1645 254.063 66.0073 251.876 63.4311 250.283L46.1988 223.18L33.6523 231.537L51.9724 257.369C52.2465 260.387 53.2395 263.295 54.8682 265.85V265.85Z" fill="#FFB6B6"/>
<path d="M35.2186 95.2266H27.9571C27.9571 95.2266 -1.08905 160.58 0.363248 173.651C0.363248 173.651 0.363248 185.27 7.62479 193.983C14.8863 202.697 45.3848 252.076 45.3848 252.076L58.4555 241.91L32.314 180.913L48.2894 117.011L35.2186 95.2266Z" fill="#2F2E41"/>
<path d="M428.04 491.016C428.04 491.48 427.664 491.856 427.2 491.856H0.84003C0.3761 491.856 0 491.48 0 491.016C0 490.552 0.37609 490.176 0.84003 490.176H427.2C427.664 490.176 428.04 490.552 428.04 491.016Z" fill="#E6E6E6"/>
<path d="M270.88 186.132C267.45 186.132 264.181 184.731 261.829 182.231C246.686 166.133 238.347 145.098 238.347 123.002C238.347 104.588 244.059 87.0081 254.867 72.1614C257.002 69.2283 260.316 67.3875 263.959 67.1116C267.66 66.8265 271.279 68.1819 273.888 70.8177L317.8 115.173C322.195 119.612 322.644 126.699 318.845 131.658L280.897 181.19C278.642 184.133 275.224 185.929 271.518 186.116C271.305 186.127 271.092 186.132 270.88 186.132V186.132Z" fill="#2892F3"/>
<path d="M340.847 212.001C327.307 212.001 314.316 209 302.233 203.082C297.843 200.932 294.685 196.97 293.566 192.211C292.448 187.451 293.511 182.497 296.485 178.618L328.108 137.341C333.861 129.832 333.18 119.099 326.525 112.376L294.153 79.6779C289.474 74.9514 287.352 68.4689 288.332 61.8928C289.318 55.2824 293.264 49.6677 299.16 46.489C312.453 39.3215 327.517 35.694 342.724 36.0202C388.552 36.9763 426.328 73.5436 428.723 119.269C430.002 143.697 421.467 166.887 404.689 184.566C387.9 202.258 365.227 212.001 340.847 212.001ZM340.879 39.0007C326.797 39.0007 330.166 52.3591 317.847 59.0007C312.791 61.7263 292.144 56.6686 291.299 62.3351C290.46 67.967 292.277 73.5192 296.285 77.5676L328.657 110.266C336.361 118.049 337.149 130.472 330.489 139.165L298.866 180.442C296.442 183.605 295.575 187.644 296.487 191.525C297.399 195.405 299.974 198.635 303.552 200.388C315.221 206.103 327.769 186.001 340.847 186.001C364.396 186.001 386.296 199.59 402.513 182.502C418.719 165.425 426.963 143.024 425.727 119.426C423.414 75.2619 386.927 39.9431 342.661 39.0192C342.068 39.007 341.472 39.0007 340.879 39.0007H340.879Z" fill="#E6E6E6"/>
<path d="M346.615 124.364C344.905 122.366 344.05 119.441 344.05 115.589C344.05 111.773 344.905 108.866 346.615 106.868C348.324 104.87 350.692 103.871 353.716 103.871C356.775 103.871 359.17 104.87 360.898 106.868C362.626 108.866 363.49 111.773 363.49 115.589C363.49 119.441 362.626 122.366 360.898 124.364C359.17 126.362 356.775 127.361 353.716 127.361C350.692 127.361 348.324 126.362 346.615 124.364ZM356.794 121.259C357.442 120.107 357.766 118.217 357.766 115.589C357.766 113.033 357.433 111.17 356.767 110C356.1 108.831 355.083 108.245 353.716 108.245C352.384 108.245 351.394 108.831 350.746 110C350.098 111.17 349.774 113.033 349.774 115.589C349.774 118.181 350.098 120.062 350.746 121.232C351.394 122.402 352.384 122.987 353.716 122.987C355.12 122.987 356.146 122.412 356.794 121.259ZM356.313 137.718L375.586 104.411C378.247 104.411 379.907 107.294 378.572 109.595L359.278 142.859C356.639 142.859 354.991 140.001 356.313 137.718ZM373.993 140.24C372.283 138.242 371.428 135.299 371.428 131.411C371.428 127.595 372.283 124.697 373.993 122.717C375.702 120.737 378.087 119.747 381.148 119.747C384.207 119.747 386.593 120.737 388.303 122.717C390.012 124.697 390.868 127.613 390.868 131.465C390.868 135.317 390.012 138.242 388.303 140.24C386.593 142.238 384.207 143.237 381.148 143.237C378.087 143.237 375.702 142.238 373.993 140.24ZM384.172 137.108C384.82 135.938 385.144 134.057 385.144 131.465C385.144 128.909 384.811 127.046 384.145 125.876C383.478 124.707 382.479 124.121 381.148 124.121C379.779 124.121 378.772 124.707 378.124 125.876C377.476 127.046 377.152 128.909 377.152 131.465C377.152 134.057 377.476 135.938 378.124 137.108C378.772 138.278 379.779 138.863 381.148 138.863C382.516 138.863 383.524 138.278 384.172 137.108Z" fill="black"/>
</g>
<defs>
<clipPath id="clip0_41_131405">
<rect width="428.848" height="492.888" fill="white"/>
</clipPath>
</defs>
</svg>
