<svg width="545" height="401" viewBox="0 0 545 401" fill="none" xmlns="http://www.w3.org/2000/svg">
<g clip-path="url(#clip0_41_131163)">
<path d="M515.128 400.065L515.749 398.917C507.427 394.416 497.069 388.815 491.66 379.623C486.327 370.562 486.208 358.258 491.348 347.512C495.722 338.366 503.757 330.173 514.585 323.817C516.721 322.563 518.962 321.375 521.131 320.225C526.371 317.448 531.791 314.576 536.259 310.501C542.414 304.888 547.07 295.47 543.599 287.081C542.458 284.403 540.589 282.099 538.204 280.431C535.819 278.762 533.013 277.795 530.107 277.641L530.033 278.944C532.696 279.085 535.266 279.97 537.451 281.498C539.637 283.026 541.35 285.136 542.397 287.588C545.622 295.384 541.197 304.231 535.38 309.537C531.033 313.5 525.688 316.333 520.52 319.072C518.339 320.228 516.084 321.423 513.924 322.691C502.871 329.18 494.657 337.567 490.17 346.948C484.845 358.081 484.985 370.855 490.535 380.285C496.129 389.79 506.663 395.487 515.128 400.065Z" fill="#F1F1F1"/>
<path d="M521.835 284.519C528.142 284.519 533.254 282.036 533.254 278.972C533.254 275.909 528.142 273.426 521.835 273.426C515.529 273.426 510.416 275.909 510.416 278.972C510.416 282.036 515.529 284.519 521.835 284.519Z" fill="#F1F1F1"/>
<path d="M512.7 321.058C519.006 321.058 524.119 318.575 524.119 315.511C524.119 312.448 519.006 309.965 512.7 309.965C506.393 309.965 501.28 312.448 501.28 315.511C501.28 318.575 506.393 321.058 512.7 321.058Z" fill="#F1F1F1"/>
<path d="M533.581 326.933C539.888 326.933 545.001 324.45 545.001 321.386C545.001 318.323 539.888 315.84 533.581 315.84C527.275 315.84 522.162 318.323 522.162 321.386C522.162 324.45 527.275 326.933 533.581 326.933Z" fill="#F1F1F1"/>
<path d="M500.954 357.601C507.261 357.601 512.374 355.118 512.374 352.054C512.374 348.991 507.261 346.508 500.954 346.508C494.648 346.508 489.535 348.991 489.535 352.054C489.535 355.118 494.648 357.601 500.954 357.601Z" fill="#F1F1F1"/>
<path d="M478.116 357.601C484.422 357.601 489.535 355.118 489.535 352.054C489.535 348.991 484.422 346.508 478.116 346.508C471.809 346.508 466.696 348.991 466.696 352.054C466.696 355.118 471.809 357.601 478.116 357.601Z" fill="#F1F1F1"/>
<path d="M89.5829 286.775H49.0644C47.9672 286.773 46.9153 286.337 46.1394 285.561C45.3636 284.785 44.9271 283.733 44.9258 282.636V149.13C44.9271 148.033 45.3636 146.981 46.1394 146.206C46.9153 145.43 47.9672 144.993 49.0644 144.992H89.5829C90.6801 144.993 91.732 145.43 92.5079 146.206C93.2837 146.981 93.7202 148.033 93.7215 149.13V282.636C93.7202 283.733 93.2837 284.785 92.5079 285.561C91.732 286.337 90.6801 286.773 89.5829 286.775Z" fill="#2892F3"/>
<path d="M163.474 286.776H122.955C121.858 286.775 120.806 286.339 120.03 285.563C119.254 284.787 118.818 283.735 118.816 282.638V96.1539C118.818 95.0567 119.254 94.0048 120.03 93.229C120.806 92.4532 121.858 92.0168 122.955 92.0156H163.474C164.571 92.0168 165.623 92.4532 166.399 93.229C167.174 94.0048 167.611 95.0567 167.612 96.1539V282.638C167.611 283.735 167.174 284.787 166.399 285.563C165.623 286.339 164.571 286.775 163.474 286.776Z" fill="#2892F3"/>
<path d="M237.285 286.461H196.647C195.546 286.459 194.491 285.824 193.713 284.696C192.935 283.568 192.497 282.038 192.496 280.442V86.2801C192.497 84.6844 192.935 83.1546 193.713 82.0264C194.491 80.8981 195.546 80.2635 196.647 80.2617H237.285C238.385 80.2635 239.44 80.8981 240.219 82.0264C240.997 83.1546 241.434 84.6844 241.436 86.2801V280.442C241.434 282.038 240.997 283.568 240.219 284.696C239.44 285.824 238.385 286.459 237.285 286.461Z" fill="#2892F3"/>
<path d="M311.255 286.776H270.736C269.664 286.799 268.626 286.396 267.851 285.655C267.075 284.915 266.624 283.897 266.598 282.825V75.0533C266.624 73.9812 267.075 72.9633 267.851 72.2228C268.626 71.4823 269.664 71.0794 270.736 71.1025H311.255C312.327 71.0794 313.365 71.4823 314.14 72.2228C314.916 72.9633 315.367 73.9812 315.393 75.0533V282.825C315.367 283.897 314.916 284.915 314.14 285.655C313.365 286.396 312.327 286.799 311.255 286.776Z" fill="#2892F3"/>
<path d="M385.145 286.776H344.627C343.53 286.775 342.478 286.339 341.702 285.563C340.926 284.787 340.49 283.735 340.488 282.638V37.5992C340.49 36.502 340.926 35.4501 341.702 34.6743C342.478 33.8985 343.53 33.4622 344.627 33.4609H385.145C386.243 33.4622 387.295 33.8985 388.07 34.6743C388.846 35.4501 389.283 36.502 389.284 37.5992V282.638C389.283 283.735 388.846 284.787 388.07 285.563C387.295 286.339 386.243 286.775 385.145 286.776Z" fill="#2892F3"/>
<path d="M69.324 128.261C73.9438 128.261 77.689 124.516 77.689 119.896C77.689 115.276 73.9438 111.531 69.324 111.531C64.7041 111.531 60.959 115.276 60.959 119.896C60.959 124.516 64.7041 128.261 69.324 128.261Z" fill="#3F3D56"/>
<path d="M143.215 73.8901C147.834 73.8901 151.58 70.145 151.58 65.5251C151.58 60.9053 147.834 57.1602 143.215 57.1602C138.595 57.1602 134.85 60.9053 134.85 65.5251C134.85 70.145 138.595 73.8901 143.215 73.8901Z" fill="#3F3D56"/>
<path d="M217.105 59.7964C221.725 59.7964 225.47 56.0512 225.47 51.4314C225.47 46.8115 221.725 43.0664 217.105 43.0664C212.485 43.0664 208.74 46.8115 208.74 51.4314C208.74 56.0512 212.485 59.7964 217.105 59.7964Z" fill="#3F3D56"/>
<path d="M290.996 47.4018C295.616 47.4018 299.361 43.6567 299.361 39.0369C299.361 34.417 295.616 30.6719 290.996 30.6719C286.376 30.6719 282.631 34.417 282.631 39.0369C282.631 43.6567 286.376 47.4018 290.996 47.4018Z" fill="#3F3D56"/>
<path d="M364.886 16.73C369.506 16.73 373.251 12.9848 373.251 8.36499C373.251 3.74513 369.506 0 364.886 0C360.267 0 356.521 3.74513 356.521 8.36499C356.521 12.9848 360.267 16.73 364.886 16.73Z" fill="#3F3D56"/>
<path d="M432.626 288.328H0.652528C0.479467 288.328 0.313493 288.26 0.191121 288.137C0.0687478 288.015 0 287.849 0 287.676C0 287.503 0.0687478 287.337 0.191121 287.215C0.313493 287.092 0.479467 287.023 0.652528 287.023H432.626C432.799 287.023 432.965 287.092 433.088 287.215C433.21 287.337 433.279 287.503 433.279 287.676C433.279 287.849 433.21 288.015 433.088 288.137C432.965 288.26 432.799 288.328 432.626 288.328Z" fill="#CBCBCB"/>
<path d="M540.293 399.911H328.874C328.701 399.911 328.535 399.842 328.413 399.719C328.29 399.597 328.222 399.431 328.222 399.258C328.222 399.085 328.29 398.919 328.413 398.797C328.535 398.674 328.701 398.605 328.874 398.605H540.293C540.466 398.605 540.632 398.674 540.755 398.797C540.877 398.919 540.946 399.085 540.946 399.258C540.946 399.431 540.877 399.597 540.755 399.719C540.632 399.842 540.466 399.911 540.293 399.911Z" fill="#CBCBCB"/>
<path d="M404.526 277.723C405.062 277.189 405.475 276.545 405.736 275.835C405.996 275.124 406.098 274.366 406.034 273.612C405.969 272.858 405.741 272.128 405.363 271.472C404.986 270.816 404.47 270.251 403.851 269.817L406.416 258.274L399.782 255.004L396.388 271.356C395.727 272.444 395.488 273.738 395.716 274.99C395.945 276.243 396.626 277.369 397.629 278.154C398.632 278.939 399.888 279.328 401.159 279.249C402.43 279.169 403.628 278.626 404.526 277.723Z" fill="#FFB7B7"/>
<path d="M477.075 277.975C477.569 277.402 477.931 276.727 478.136 275.999C478.341 275.271 478.384 274.507 478.261 273.76C478.139 273.014 477.854 272.303 477.427 271.678C477 271.054 476.442 270.53 475.791 270.145L477.456 258.438L470.588 255.691L468.469 272.257C467.894 273.393 467.756 274.701 468.081 275.933C468.406 277.164 469.172 278.234 470.233 278.938C471.293 279.643 472.576 279.934 473.837 279.757C475.098 279.579 476.251 278.945 477.075 277.975L477.075 277.975Z" fill="#FFB7B7"/>
<path d="M425.359 392.873L418.593 392.872L415.375 366.777L425.36 366.778L425.359 392.873Z" fill="#FFB7B7"/>
<path d="M427.084 399.431L405.27 399.431V399.155C405.27 396.903 406.164 394.743 407.757 393.151C409.349 391.559 411.508 390.664 413.76 390.664H413.761L427.084 390.665L427.084 399.431Z" fill="#2F2E41"/>
<path d="M447.984 392.873L441.218 392.872L438 366.777L447.985 366.778L447.984 392.873Z" fill="#FFB7B7"/>
<path d="M449.709 399.431L427.895 399.431V399.155C427.895 396.903 428.789 394.743 430.382 393.151C431.974 391.559 434.133 390.664 436.385 390.664H436.386L449.709 390.665L449.709 399.431Z" fill="#2F2E41"/>
<path d="M461.605 173.332L468.9 170.699C468.9 170.699 471.996 171.357 471.996 179.754C471.996 188.151 480.219 266.463 480.219 266.463L465.828 270.252L457.694 195.953L461.605 173.332Z" fill="#2F2E41"/>
<path d="M412.857 173.332L405.562 170.699C405.562 170.699 402.465 171.357 402.465 179.754C402.465 188.151 394.242 266.463 394.242 266.463L408.633 270.252L416.767 195.953L412.857 173.332Z" fill="#2F2E41"/>
<path d="M412.951 262.646L410.957 321.473L415.372 386.545L426.747 386.808L428.402 326.107L437.783 295.756L436.837 385.213L449.717 385.059L457.695 323.513C457.695 323.513 468.23 272.579 462.388 262.646L435.483 253.699L412.951 262.646Z" fill="#2F2E41"/>
<path d="M413.17 255.56L412.521 269.712C412.521 269.712 421.598 274.229 437.554 271.477C453.51 268.725 464.116 270.54 464.116 270.54L462.891 252.5L413.17 255.56Z" fill="#E5E5E5"/>
<path d="M405.271 170.908L426.253 161.714L427.504 156.898L447.915 157.49L448.797 162.409L468.9 170.699L460.043 201.496L460.951 223.161L471.996 262.647C471.996 262.647 462.68 270.559 440.298 267.155L436.436 259.373L434.074 267.603C434.074 267.603 414.448 274.822 409.008 265.424L412.95 197.531L405.271 170.908Z" fill="#2F2E41"/>
<path d="M437.524 152.373C445.01 152.373 451.078 146.305 451.078 138.819C451.078 131.334 445.01 125.266 437.524 125.266C430.039 125.266 423.971 131.334 423.971 138.819C423.971 146.305 430.039 152.373 437.524 152.373Z" fill="#FFB7B7"/>
<path d="M453.629 133.57C453.386 132.467 452.92 131.425 452.259 130.509C451.996 127.977 451.151 125.54 449.791 123.388C449.258 122.38 448.502 121.507 447.579 120.836C446.523 120.228 445.318 119.927 444.1 119.968C443.879 119.965 443.482 120.032 443.124 120.048C442.895 119.977 442.664 119.914 442.433 119.854C442.298 119.554 442.03 118.677 441.955 118.737L440.946 119.539C440.519 119.465 440.09 119.407 439.659 119.361C439.502 118.914 439.345 118.467 439.189 118.02C438.934 118.42 438.711 118.839 438.522 119.273C438.093 119.252 437.664 119.245 437.235 119.251L436.377 118.427C436.326 118.657 436.21 118.867 436.041 119.031C435.873 119.196 435.661 119.308 435.43 119.354C435.035 119.395 434.642 119.447 434.25 119.511C434.218 119.51 434.186 119.511 434.154 119.51C432.041 119.457 429.767 119.362 428 120.522C427.173 121.09 426.5 121.854 426.041 122.746C425.825 122.893 425.608 123.039 425.398 123.195C424.689 123.678 424.075 124.287 423.585 124.992C423.229 125.6 422.959 126.254 422.783 126.935C422.109 128.987 421.796 131.141 421.86 133.3C421.932 135.474 422.752 137.556 424.182 139.195C425.088 140.169 426.24 140.888 427.148 141.86C429.016 143.863 429.367 146.656 430.965 148.775C432.655 151.017 435.741 152.491 438.451 152.914C440.08 153.16 441.741 153.081 443.34 152.682C444.939 152.283 446.443 151.573 447.766 150.591C448.401 150.149 448.94 149.583 449.352 148.928C450.292 147.301 449.894 145.257 450.243 143.41C450.897 139.949 454.2 137.045 453.629 133.57Z" fill="#2F2E41"/>
<path d="M68.8778 120.42L68.0986 119.374L143.215 63.45L213.867 53.0618L291.526 37.3267L291.66 37.2719L364.117 7.36719L364.615 8.57371L292.291 38.423L214.029 54.8112L143.214 65.0774L68.8778 120.42Z" fill="#3F3D56"/>
</g>
<defs>
<clipPath id="clip0_41_131163">
<rect width="545" height="400.064" fill="white"/>
</clipPath>
</defs>
</svg>
