<svg width="486" height="370" viewBox="0 0 486 370" fill="none" xmlns="http://www.w3.org/2000/svg">
<g clip-path="url(#clip0_41_131240)">
<path d="M204.624 0L204.399 1.00961L388.685 1.23398C441.734 1.23398 484.739 44.2384 484.739 97.2874V210.395H485.973V13.9996C485.973 6.26782 479.705 0 471.973 0H204.624Z" fill="#E6E6E6"/>
<path d="M407.595 48.1601C410.476 48.1601 412.812 45.772 412.812 42.8261C412.812 39.8803 410.476 37.4922 407.595 37.4922C404.713 37.4922 402.377 39.8803 402.377 42.8261C402.377 45.772 404.713 48.1601 407.595 48.1601Z" fill="#3F3D56"/>
<path d="M389.57 48.1601C392.452 48.1601 394.788 45.772 394.788 42.8261C394.788 39.8803 392.452 37.4922 389.57 37.4922C386.689 37.4922 384.353 39.8803 384.353 42.8261C384.353 45.772 386.689 48.1601 389.57 48.1601Z" fill="#3F3D56"/>
<path d="M371.546 48.1601C374.427 48.1601 376.763 45.772 376.763 42.8261C376.763 39.8803 374.427 37.4922 371.546 37.4922C368.664 37.4922 366.328 39.8803 366.328 42.8261C366.328 45.772 368.664 48.1601 371.546 48.1601Z" fill="#3F3D56"/>
<path d="M328.849 123.503H255.875C253.372 123.503 251.335 121.466 251.335 118.962C251.335 116.459 253.372 114.422 255.875 114.422H328.849C331.353 114.422 333.39 116.459 333.39 118.962C333.39 121.466 331.353 123.503 328.849 123.503Z" fill="#E6E6E6"/>
<path d="M385.798 138.87H255.875C253.372 138.87 251.335 136.833 251.335 134.329C251.335 131.826 253.372 129.789 255.875 129.789H385.798C388.302 129.789 390.339 131.826 390.339 134.329C390.339 136.833 388.302 138.87 385.798 138.87Z" fill="#E6E6E6"/>
<path d="M410.384 162.739H231.29C227.423 162.739 224.277 159.593 224.277 155.727V97.5631C224.277 93.6966 227.423 90.5508 231.29 90.5508H410.384C414.25 90.5508 417.396 93.6966 417.396 97.5631V155.727C417.396 159.593 414.25 162.739 410.384 162.739ZM231.29 91.7848C228.103 91.7848 225.511 94.3769 225.511 97.5631V155.727C225.511 158.913 228.103 161.505 231.29 161.505H410.384C413.57 161.505 416.162 158.913 416.162 155.727V97.5631C416.162 94.3769 413.57 91.7848 410.384 91.7848H231.29Z" fill="#3F3D56"/>
<path d="M413.784 178.311C422.303 178.311 429.209 171.405 429.209 162.886C429.209 154.367 422.303 147.461 413.784 147.461C405.265 147.461 398.359 154.367 398.359 162.886C398.359 171.405 405.265 178.311 413.784 178.311Z" fill="#2892F3"/>
<path d="M417.563 157.938C416.329 156.45 414.27 155.571 412.356 156.131C410.603 156.643 409.144 158.303 409.307 160.197C409.383 161.076 409.742 161.921 410.357 162.559C411.053 163.28 411.939 163.529 412.912 163.611C413.95 163.698 414.84 163.853 415.531 164.708C416.132 165.451 416.32 166.437 415.976 167.337C415.158 169.474 412.263 169.722 411.053 167.801C410.578 167.047 409.377 167.743 409.855 168.502C410.841 170.068 412.847 170.931 414.65 170.345C416.403 169.775 417.691 167.957 417.528 166.098C417.359 164.167 415.821 162.575 413.911 162.314C412.905 162.176 411.852 162.286 411.171 161.386C410.639 160.682 410.525 159.709 410.927 158.92C411.418 157.958 412.485 157.353 413.554 157.35C414.767 157.348 415.827 158.009 416.582 158.92C417.152 159.608 418.13 158.621 417.563 157.938Z" fill="white"/>
<path d="M412.162 153.341L411.494 172.757C411.474 173.353 412.4 173.352 412.42 172.757L413.087 153.341C413.108 152.745 412.182 152.746 412.162 153.341Z" fill="white"/>
<path d="M414.32 153.341L413.653 172.757C413.632 173.353 414.558 173.352 414.578 172.757L415.245 153.341C415.266 152.745 414.34 152.746 414.32 153.341Z" fill="white"/>
<path d="M58.43 361.982L64.9836 361.981L68.1012 336.703L58.4287 336.704L58.43 361.982Z" fill="#A0616A"/>
<path d="M58.1995 368.818L78.3527 368.817V368.563C78.3524 364.231 74.8406 360.719 70.5085 360.719H70.5081L66.8268 357.926L59.9585 360.719L58.1992 360.719L58.1995 368.818H58.1995Z" fill="#2F2E41"/>
<path d="M98.4808 361.982L105.034 361.981L108.152 336.703L98.4795 336.704L98.4808 361.982Z" fill="#A0616A"/>
<path d="M98.2503 368.818L118.404 368.817V368.563C118.403 364.231 114.891 360.719 110.559 360.719H110.559L106.878 357.926L100.009 360.719L98.25 360.719L98.2503 368.818H98.2503Z" fill="#2F2E41"/>
<path d="M52.6414 201.17L112.574 199.504L112.19 233.316L109.028 272.839C109.028 272.839 116.406 301.823 110.082 330.807L109.555 352.94L92.6919 351.886C92.6919 351.886 89.7935 308.411 93.4824 292.074L82.4158 233.052L71.8762 290.493C71.8762 290.493 73.4572 323.693 69.2413 336.868V349.285H57.3179C57.3179 349.285 44.4732 305.776 53.9589 283.643L52.6414 201.17L52.6414 201.17Z" fill="#2F2E41"/>
<path d="M95.7484 102.916C95.7484 102.916 94.1311 98.8582 92.9236 97.0469C84.4709 97.0469 83.3968 97.6274 76.0182 97.0469L55.5364 207.011C55.5364 207.011 44.2761 216.5 56.641 216.5C69.0058 216.5 86.8342 213.049 91.7226 215.637C96.611 218.225 112.139 214.2 112.139 214.2L95.7484 102.916Z" fill="#2892F3"/>
<path d="M76.3548 96.8281L68.7723 104.895L63.7647 104.961C59.1332 105.023 55.421 108.814 55.457 113.445L57.0272 159.656C57.0272 159.656 42.8371 203.616 52.3264 205.342L50.6011 211.955L68.8042 223.17C68.8042 223.17 74.3249 193.639 75.1875 187.025C76.0502 180.411 80.3374 143.139 80.3374 143.139C80.3374 143.139 79.5008 112.478 78.9257 109.638L76.3548 96.8281H76.3548Z" fill="#2F2E41"/>
<path d="M93.1601 97.1641L89.4219 116.43L98.9112 167.327C98.9112 167.327 96.6107 214.486 103.8 219.087L115.129 216.154L114.266 206.953C114.266 206.953 115.302 204.709 114.727 196.083C114.152 187.456 110.763 171.73 110.763 171.73L115.782 114.417C115.782 114.417 103.224 102.628 97.7609 104.065L93.1601 97.1641H93.1601Z" fill="#2F2E41"/>
<path d="M31.1955 205.489L32.3647 189.801L41.4195 189.219L39.5932 205.761C39.8859 206.176 40.124 206.64 40.2912 207.148C41.2003 209.911 39.698 212.887 36.9357 213.796C34.1734 214.705 31.1972 213.203 30.2881 210.44C29.7083 208.679 30.1124 206.833 31.1955 205.489L31.1955 205.489Z" fill="#A0616A"/>
<path d="M66.0621 105.148L61.292 105.227C57.7661 105.286 54.6501 107.535 53.4849 110.864L35.6096 161.925L33.7541 171.446C33.7541 171.446 25.1791 192.008 28.3941 195.118L29.9269 200.844L41.2973 200.656L41.2197 195.964C41.2197 195.964 44.6917 195.638 44.6752 191.505C44.6752 191.505 53.6735 176.006 51.2925 171.156L57.4226 159.263L66.0621 105.148Z" fill="#2F2E41"/>
<path d="M177.744 185.566L166.205 174.875L159.178 180.615L171.78 191.484C171.849 191.988 171.991 192.49 172.214 192.976C173.429 195.618 176.556 196.774 179.198 195.559C181.84 194.343 182.997 191.216 181.781 188.575C181.006 186.89 179.453 185.813 177.744 185.566Z" fill="#A0616A"/>
<path d="M108.492 108.727L102.704 131.085L122.973 158.941L129.573 166.05C129.573 166.05 157.996 188.256 162.403 187.491L167.933 189.627L174.481 180.329L170.645 177.627C170.645 177.627 172.427 174.63 169.078 172.208C169.078 172.208 144.994 152.643 139.673 151.709L133.676 139.748L115.352 114.221L108.492 108.727Z" fill="#2F2E41"/>
<path d="M94.7015 92.2156C94.6223 92.2789 94.5485 92.3264 94.4693 92.3739C93.8571 92.7803 93.2185 93.1444 92.5483 93.4558C92.5378 93.4663 92.522 93.4716 92.5061 93.4769C91.2976 94.0468 89.9941 94.4743 88.6167 94.7276C87.2076 94.9862 85.8091 95.0548 84.4475 94.944C77.4339 94.3899 71.3965 89.2022 70.0561 81.9563C69.6075 79.5393 69.7342 77.1539 70.3305 74.9321C71.8768 69.1903 76.5895 64.5568 82.8274 63.401C91.477 61.802 99.7836 67.5174 101.383 76.167C102.565 82.5632 99.7467 88.7747 94.7015 92.2156L94.7015 92.2156Z" fill="#A0616A"/>
<path d="M76.0189 91.8282L76.9797 87.3909C76.9797 87.3909 74.3642 85.1144 76.9797 82.9976L78.4031 82.073H80.5762L81.9796 74.9199L90.921 74.3238C90.921 74.3238 99.8624 72.5355 101.055 69.555C101.055 69.555 98.0741 68.9589 98.6702 66.5746C98.6702 66.5746 91.5171 57.6332 84.9601 60.0176C78.4031 62.4019 76.0187 64.7863 76.0187 64.7863C76.0187 64.7863 65.2891 62.998 65.2891 76.112C65.2891 89.2261 76.0189 91.8282 76.0189 91.8282V91.8282Z" fill="#2F2E41"/>
<path d="M174.024 206.313H156.01C154.057 206.313 152.468 204.724 152.468 202.771V168.35C152.468 166.397 154.057 164.809 156.01 164.809H174.024C175.977 164.809 177.565 166.397 177.565 168.35V202.771C177.565 204.724 175.977 206.313 174.024 206.313Z" fill="#3F3D56"/>
<path d="M177.566 177.469C177.483 177.469 177.416 177.536 177.416 177.619V182.413C177.416 182.496 177.483 182.563 177.566 182.563C177.648 182.563 177.716 182.496 177.716 182.413V177.619C177.716 177.536 177.648 177.469 177.566 177.469Z" fill="#3F3D56"/>
<path d="M177.228 168.35V202.77C177.228 204.47 175.905 205.86 174.232 205.968H174.231C174.207 205.97 174.182 205.971 174.156 205.972C174.112 205.974 174.068 205.975 174.023 205.975C174.023 205.975 173.858 205.963 173.557 205.941C173.253 205.918 172.81 205.884 172.258 205.84C172.092 205.827 171.918 205.813 171.734 205.798C171.366 205.768 170.963 205.735 170.531 205.698C170.359 205.684 170.18 205.668 169.998 205.652C169.068 205.572 168.026 205.478 166.927 205.372C166.741 205.355 166.554 205.337 166.365 205.318C166.315 205.313 166.265 205.308 166.215 205.303C165.431 205.226 164.626 205.143 163.818 205.054C163.767 205.049 163.717 205.044 163.668 205.038C162.275 204.885 160.877 204.718 159.569 204.538C158.563 204.4 157.61 204.255 156.754 204.104C156.476 204.055 156.207 204.005 155.951 203.955C155.901 203.945 155.851 203.936 155.801 203.925C153.991 203.563 152.805 203.172 152.805 202.77V168.35C152.805 166.579 154.239 165.145 156.01 165.145H157.923C158.229 165.145 158.474 165.383 158.501 165.688C158.503 165.708 158.505 165.728 158.509 165.748C158.564 166.055 158.845 166.268 159.157 166.268H170.876C171.187 166.268 171.468 166.055 171.524 165.748C171.528 165.728 171.53 165.708 171.532 165.688C171.558 165.383 171.804 165.145 172.11 165.145H174.023C175.793 165.145 177.228 166.579 177.228 168.35Z" fill="#2892F3"/>
<path d="M152.393 173.875C152.31 173.875 152.243 173.942 152.243 174.025V175.224C152.243 175.306 152.31 175.373 152.393 175.373C152.476 175.373 152.543 175.306 152.543 175.224V174.025C152.543 173.942 152.476 173.875 152.393 173.875Z" fill="#3F3D56"/>
<path d="M152.393 177.469C152.31 177.469 152.243 177.536 152.243 177.619V179.941C152.243 180.024 152.31 180.091 152.393 180.091C152.476 180.091 152.543 180.024 152.543 179.941V177.619C152.543 177.536 152.476 177.469 152.393 177.469Z" fill="#3F3D56"/>
<path d="M152.393 180.766C152.31 180.766 152.243 180.833 152.243 180.915V183.238C152.243 183.321 152.31 183.388 152.393 183.388C152.476 183.388 152.543 183.321 152.543 183.238V180.915C152.543 180.833 152.476 180.766 152.393 180.766Z" fill="#3F3D56"/>
<path d="M157.712 165.672H155.165C155.061 165.672 154.978 165.756 154.978 165.859C154.978 165.963 155.061 166.046 155.165 166.046H157.712C157.816 166.046 157.899 165.963 157.899 165.859C157.899 165.756 157.816 165.672 157.712 165.672Z" fill="#3F3D56"/>
<path d="M172.584 166.045C172.749 166.045 172.884 165.911 172.884 165.745C172.884 165.579 172.749 165.445 172.584 165.445C172.418 165.445 172.284 165.579 172.284 165.745C172.284 165.911 172.418 166.045 172.584 166.045Z" fill="#3F3D56"/>
<path d="M173.407 166.045C173.573 166.045 173.707 165.911 173.707 165.745C173.707 165.579 173.573 165.445 173.407 165.445C173.242 165.445 173.107 165.579 173.107 165.745C173.107 165.911 173.242 166.045 173.407 166.045Z" fill="#3F3D56"/>
<path d="M174.231 166.045C174.397 166.045 174.531 165.911 174.531 165.745C174.531 165.579 174.397 165.445 174.231 165.445C174.066 165.445 173.932 165.579 173.932 165.745C173.932 165.911 174.066 166.045 174.231 166.045Z" fill="#3F3D56"/>
<path d="M165.415 195.374C170.654 195.374 174.901 191.127 174.901 185.888C174.901 180.649 170.654 176.402 165.415 176.402C160.177 176.402 155.93 180.649 155.93 185.888C155.93 191.127 160.177 195.374 165.415 195.374Z" fill="white"/>
<path d="M167.739 182.845C166.98 181.929 165.714 181.389 164.537 181.733C163.459 182.048 162.561 183.069 162.662 184.234C162.709 184.775 162.929 185.294 163.308 185.686C163.735 186.13 164.281 186.283 164.879 186.333C165.517 186.387 166.064 186.482 166.489 187.008C166.859 187.465 166.974 188.072 166.763 188.625C166.26 189.939 164.48 190.092 163.736 188.91C163.444 188.446 162.705 188.874 162.998 189.341C163.605 190.304 164.839 190.835 165.947 190.475C167.026 190.124 167.818 189.006 167.717 187.863C167.613 186.675 166.668 185.697 165.493 185.536C164.874 185.451 164.227 185.519 163.808 184.965C163.481 184.532 163.411 183.934 163.658 183.449C163.96 182.857 164.616 182.485 165.273 182.483C166.019 182.482 166.671 182.889 167.135 183.448C167.486 183.872 168.087 183.265 167.739 182.845V182.845Z" fill="#2892F3"/>
<path d="M164.417 180.017L164.007 191.957C163.994 192.323 164.564 192.323 164.576 191.957L164.986 180.017C164.999 179.65 164.43 179.651 164.417 180.017Z" fill="#2892F3"/>
<path d="M165.744 180.017L165.334 191.957C165.322 192.323 165.891 192.323 165.903 191.957L166.314 180.017C166.326 179.65 165.757 179.651 165.744 180.017Z" fill="#2892F3"/>
<path d="M32.7595 359.536C31.5122 359.614 30.8228 358.065 31.7665 357.161L31.8604 356.788C31.848 356.758 31.8356 356.728 31.8231 356.699C30.5617 353.691 26.2866 353.712 25.036 356.724C23.9259 359.397 22.5126 362.076 22.1646 364.902C22.0086 366.15 22.0788 367.422 22.3557 368.646C19.7546 362.964 18.3858 356.76 18.3858 350.521C18.3858 348.953 18.4716 347.385 18.6471 345.822C18.7914 344.542 18.9903 343.271 19.2477 342.012C20.6398 335.203 23.6543 328.718 28.0023 323.301C30.0925 322.159 31.8356 320.373 32.8885 318.232C33.2668 317.46 33.5632 316.629 33.7036 315.783C33.4657 315.814 32.8066 312.191 32.986 311.969C32.6545 311.466 32.0612 311.216 31.6992 310.725C29.8985 308.284 27.4178 308.71 26.1227 312.027C23.3561 313.424 23.3293 315.739 25.0269 317.967C26.1069 319.383 26.2553 321.301 27.2029 322.818C27.1054 322.942 27.004 323.063 26.9065 323.188C25.1187 325.481 23.5725 327.946 22.269 330.535C22.6374 327.657 22.0935 324.191 21.1663 321.956C20.1108 319.41 18.1324 317.265 16.3902 315.064C14.2976 312.42 10.0064 313.574 9.63773 316.925C9.63416 316.958 9.63069 316.99 9.62728 317.023C9.88605 317.169 10.1396 317.324 10.3872 317.488C11.7997 318.422 11.3115 320.611 9.63788 320.87L9.59999 320.876C9.69359 321.808 9.85347 322.732 10.0874 323.64C7.85242 332.284 12.6776 335.432 19.5674 335.573C19.7195 335.651 19.8677 335.729 20.0198 335.803C19.3217 337.769 18.7641 339.785 18.3507 341.828C17.9803 343.634 17.7229 345.459 17.5786 347.292C17.3992 349.604 17.4148 351.928 17.6098 354.237L17.5981 354.155C17.1029 351.612 15.7224 349.238 13.718 347.592C10.732 345.139 6.51337 344.236 3.29203 342.264C1.74137 341.315 -0.245687 342.542 0.0249441 344.339L0.0381182 344.425C0.517766 344.62 0.985706 344.847 1.43807 345.1C1.69684 345.246 1.95035 345.401 2.19799 345.565C3.61049 346.499 3.12233 348.689 1.44868 348.947L1.41075 348.953C1.38346 348.957 1.36005 348.961 1.3328 348.965C2.15562 350.918 3.30208 352.732 4.73714 354.295C6.13463 361.841 12.1369 362.557 18.5574 360.359H18.5613C19.2632 363.417 20.2889 366.404 21.6069 369.25H32.4869C32.5259 369.13 32.561 369.005 32.5961 368.884C31.59 368.946 30.5761 368.888 29.5855 368.705C30.3928 367.714 31.2 366.716 32.0072 365.725C32.0267 365.706 32.0423 365.686 32.0579 365.667C32.4674 365.16 32.8807 364.657 33.2902 364.15L33.2904 364.149C33.316 362.593 33.1295 361.042 32.7598 359.537L32.7595 359.536Z" fill="#F2F2F2"/>
<path d="M154.448 369.281C154.448 369.679 154.128 369.999 153.73 369.999H0.802462C0.403997 369.999 0.0839844 369.679 0.0839844 369.281C0.0839844 368.883 0.403997 368.562 0.802462 368.562H153.73C154.128 368.562 154.448 368.883 154.448 369.281Z" fill="#CCCCCC"/>
</g>
<defs>
<clipPath id="clip0_41_131240">
<rect width="485.973" height="370" fill="white"/>
</clipPath>
</defs>
</svg>
