<svg width="747" height="541" viewBox="0 0 747 541" fill="none" xmlns="http://www.w3.org/2000/svg">
<path d="M724.637 539.806L725.862 539.782C725.388 526.163 723.935 512.595 721.514 499.184C716.217 470.471 707.409 451.614 695.335 443.137L694.632 444.139C722.837 463.942 724.623 539.05 724.637 539.806Z" fill="#F1F1F1"/>
<path d="M709.326 539.511L710.551 539.487C710.525 538.131 709.759 506.161 697.173 497.324L696.47 498.327C708.548 506.807 709.32 539.185 709.326 539.511Z" fill="#F1F1F1"/>
<path d="M687.664 444.249C691.046 444.249 693.788 441.507 693.788 438.125C693.788 434.742 691.046 432 687.664 432C684.281 432 681.539 434.742 681.539 438.125C681.539 441.507 684.281 444.249 687.664 444.249Z" fill="#F1F1F1"/>
<path d="M690.697 496.921C694.079 496.921 696.822 494.179 696.822 490.796C696.822 487.414 694.079 484.672 690.697 484.672C687.314 484.672 684.572 487.414 684.572 490.796C684.572 494.179 687.314 496.921 690.697 496.921Z" fill="#F1F1F1"/>
<path d="M712.181 447.919C711.567 452.643 712.205 457.446 714.03 461.847C717.218 458.283 719.308 453.874 720.047 449.15C720.787 444.427 720.145 439.59 718.198 435.223C715.115 438.855 713.04 443.233 712.181 447.919Z" fill="#F1F1F1"/>
<path d="M692.161 465.775C696.706 467.202 701.546 467.411 706.197 466.381C703.244 462.621 699.266 459.795 694.744 458.244C690.221 456.692 685.347 456.482 680.707 457.638C683.747 461.306 687.696 464.112 692.161 465.775Z" fill="#F1F1F1"/>
<path d="M691.935 512.422C695.121 513.423 698.514 513.569 701.774 512.847C699.704 510.211 696.916 508.231 693.746 507.143C690.576 506.056 687.159 505.908 683.907 506.718C686.038 509.29 688.806 511.257 691.935 512.422Z" fill="#F1F1F1"/>
<path d="M630.414 346.929H403.542C401.731 346.926 399.994 346.206 398.713 344.925C397.432 343.644 396.711 341.907 396.709 340.095V263.56C396.711 261.748 397.432 260.011 398.713 258.73C399.994 257.449 401.731 256.729 403.542 256.727H630.414C632.226 256.729 633.963 257.449 635.244 258.73C636.525 260.011 637.245 261.748 637.247 263.56V340.095C637.245 341.907 636.525 343.644 635.244 344.925C633.963 346.206 632.226 346.926 630.414 346.929Z" fill="#E5E5E5"/>
<path d="M492.379 277.227H432.244V284.06H492.379V277.227Z" fill="white"/>
<path d="M571.647 285.427C573.911 285.427 575.747 283.591 575.747 281.327C575.747 279.062 573.911 277.227 571.647 277.227C569.382 277.227 567.547 279.062 567.547 281.327C567.547 283.591 569.382 285.427 571.647 285.427Z" fill="#6C63FF"/>
<path d="M585.313 285.427C587.577 285.427 589.413 283.591 589.413 281.327C589.413 279.062 587.577 277.227 585.313 277.227C583.049 277.227 581.213 279.062 581.213 281.327C581.213 283.591 583.049 285.427 585.313 285.427Z" fill="#6C63FF"/>
<path d="M598.981 285.427C601.245 285.427 603.081 283.591 603.081 281.327C603.081 279.062 601.245 277.227 598.981 277.227C596.717 277.227 594.881 279.062 594.881 281.327C594.881 283.591 596.717 285.427 598.981 285.427Z" fill="#6C63FF"/>
<path d="M630.414 443.964H403.542C401.731 443.962 399.994 443.241 398.713 441.96C397.432 440.679 396.711 438.942 396.709 437.13V360.595C396.711 358.784 397.432 357.047 398.713 355.766C399.994 354.484 401.731 353.764 403.542 353.762H630.414C632.226 353.764 633.963 354.484 635.244 355.766C636.525 357.047 637.245 358.783 637.247 360.595V437.13C637.245 438.942 636.525 440.679 635.244 441.96C633.963 443.241 632.226 443.962 630.414 443.964Z" fill="#E5E5E5"/>
<path d="M492.379 374.262H432.244V381.095H492.379V374.262Z" fill="white"/>
<path d="M571.647 382.462C573.911 382.462 575.747 380.626 575.747 378.362C575.747 376.097 573.911 374.262 571.647 374.262C569.382 374.262 567.547 376.097 567.547 378.362C567.547 380.626 569.382 382.462 571.647 382.462Z" fill="#6C63FF"/>
<path d="M585.313 382.462C587.577 382.462 589.413 380.626 589.413 378.362C589.413 376.097 587.577 374.262 585.313 374.262C583.049 374.262 581.213 376.097 581.213 378.362C581.213 380.626 583.049 382.462 585.313 382.462Z" fill="#6C63FF"/>
<path d="M598.981 382.462C601.245 382.462 603.081 380.626 603.081 378.362C603.081 376.097 601.245 374.262 598.981 374.262C596.717 374.262 594.881 376.097 594.881 378.362C594.881 380.626 596.717 382.462 598.981 382.462Z" fill="#6C63FF"/>
<path d="M630.414 540.999H403.542C401.731 540.997 399.994 540.276 398.713 538.995C397.432 537.714 396.711 535.977 396.709 534.165V457.63C396.711 455.819 397.432 454.082 398.713 452.801C399.994 451.52 401.731 450.799 403.542 450.797H630.414C632.226 450.799 633.963 451.52 635.244 452.801C636.525 454.082 637.245 455.819 637.247 457.63V534.165C637.245 535.977 636.525 537.714 635.244 538.995C633.963 540.276 632.226 540.997 630.414 540.999Z" fill="#E5E5E5"/>
<path d="M492.379 471.297H432.244V478.13H492.379V471.297Z" fill="white"/>
<path d="M571.647 479.497C573.911 479.497 575.747 477.661 575.747 475.397C575.747 473.133 573.911 471.297 571.647 471.297C569.382 471.297 567.547 473.133 567.547 475.397C567.547 477.661 569.382 479.497 571.647 479.497Z" fill="#6C63FF"/>
<path d="M585.313 479.497C587.577 479.497 589.413 477.661 589.413 475.397C589.413 473.133 587.577 471.297 585.313 471.297C583.049 471.297 581.213 473.133 581.213 475.397C581.213 477.661 583.049 479.497 585.313 479.497Z" fill="#6C63FF"/>
<path d="M598.981 479.497C601.245 479.497 603.081 477.661 603.081 475.397C603.081 473.133 601.245 471.297 598.981 471.297C596.717 471.297 594.881 473.133 594.881 475.397C594.881 477.661 596.717 479.497 598.981 479.497Z" fill="#6C63FF"/>
<path d="M466.302 484.878C461.981 484.864 457.678 484.307 453.496 483.222L452.671 482.994L451.907 482.61C424.259 468.749 400.935 450.439 382.581 428.19C367.387 409.664 355.542 388.631 347.577 366.034C338.052 338.981 333.47 310.435 334.049 281.76C334.06 281.158 334.07 280.694 334.07 280.373C334.07 266.434 341.808 254.204 353.782 249.214C362.947 245.396 446.157 211.218 452.169 208.748C463.491 203.075 475.57 207.81 477.503 208.638C481.839 210.411 558.762 241.873 575.385 249.789C592.517 257.947 597.087 272.602 597.087 279.975C597.087 313.357 591.306 344.555 579.904 372.702C570.696 395.485 557.644 416.519 541.319 434.886C509.821 470.332 478.314 482.898 478.01 483.009C474.245 484.304 470.283 484.937 466.302 484.878ZM458.892 466.525C461.624 467.138 467.913 468.056 472.012 466.561C477.219 464.662 503.589 450.987 528.232 423.256C562.279 384.941 579.554 336.776 579.58 280.099C579.519 278.95 578.703 270.761 567.858 265.596C551.557 257.834 471.603 225.141 470.797 224.811L470.576 224.718C468.9 224.015 463.568 222.536 459.892 224.463L459.156 224.806C458.265 225.172 369.936 261.45 360.516 265.375C353.926 268.121 351.578 274.923 351.578 280.373C351.578 280.772 351.568 281.351 351.553 282.1C350.801 320.881 359.775 416.308 458.892 466.525Z" fill="#3F3D56"/>
<path d="M455.83 216.707C455.83 216.707 366.699 253.315 357.149 257.294C347.599 261.273 342.824 270.823 342.824 280.372C342.824 289.922 335.662 414.534 455.83 474.784C455.83 474.784 466.737 477.801 475.011 474.784C483.286 471.766 588.334 420.834 588.334 279.974C588.334 279.974 588.334 265.65 571.621 257.692C554.909 249.733 474.109 216.707 474.109 216.707C474.109 216.707 464.186 212.33 455.83 216.707Z" fill="#6C63FF"/>
<path opacity="0.2" d="M465.38 245.359V440.648C465.38 440.648 555.307 397.36 554.511 283.559L465.38 245.359Z" fill="black"/>
<path d="M728.522 541H334.478C334.351 541 334.23 540.895 334.14 540.707C334.05 540.52 334 540.265 334 540C334 539.735 334.05 539.48 334.14 539.293C334.23 539.105 334.351 539 334.478 539H728.522C728.649 539 728.77 539.105 728.86 539.293C728.95 539.48 729 539.735 729 540C729 540.265 728.95 540.52 728.86 540.707C728.77 540.895 728.649 541 728.522 541Z" fill="#CBCBCB"/>
</svg>
