<svg width="392" height="453" viewBox="0 0 392 453" fill="none" xmlns="http://www.w3.org/2000/svg">
<g clip-path="url(#clip0_41_131199)">
<path d="M391.372 172.901C391.372 174.188 391.357 175.473 391.326 176.756C391.313 177.594 391.287 178.433 391.255 179.271C391.248 179.512 391.242 179.746 391.229 179.986C391.209 180.448 391.19 180.903 391.17 181.351C391.027 184.348 390.806 187.323 390.507 190.276C390.494 190.419 390.481 190.562 390.468 190.698C390.436 190.991 390.41 191.283 390.371 191.576C390.28 192.453 390.182 193.331 390.072 194.195C390 194.78 389.929 195.359 389.851 195.944C389.812 196.223 389.773 196.503 389.74 196.776C389.695 197.081 389.656 197.38 389.61 197.679C389.591 197.809 389.571 197.939 389.552 198.076C389.487 198.518 389.422 198.966 389.35 199.408C389.266 199.987 389.175 200.559 389.077 201.137C388.986 201.709 388.889 202.281 388.785 202.853C388.687 203.425 388.583 203.997 388.479 204.569C388.375 205.148 388.265 205.72 388.154 206.292C387.595 209.126 386.971 211.936 386.282 214.722C386.009 215.808 385.73 216.891 385.444 217.972C384.969 219.727 384.469 221.474 383.942 223.211C383.793 223.692 383.643 224.173 383.494 224.648C383.325 225.194 383.149 225.74 382.974 226.279C382.798 226.825 382.623 227.365 382.441 227.904C382.259 228.444 382.077 228.983 381.888 229.523C381.706 230.056 381.518 230.595 381.323 231.128C381.134 231.668 380.939 232.201 380.744 232.734C380.543 233.267 380.348 233.8 380.146 234.326C379.743 235.393 379.329 236.448 378.905 237.492C378.697 238.019 378.482 238.545 378.261 239.065C377.397 241.158 376.491 243.227 375.544 245.273C375.336 245.728 375.128 246.183 374.914 246.631C374.771 246.93 374.634 247.223 374.491 247.522C374.251 248.016 374.017 248.503 373.776 248.991C373.536 249.485 373.289 249.985 373.035 250.486C372.535 251.474 372.026 252.459 371.508 253.443C370.994 254.425 370.468 255.406 369.928 256.375C369.389 257.343 368.843 258.312 368.29 259.267C368.011 259.748 367.731 260.229 367.452 260.704C366.327 262.608 365.166 264.491 363.968 266.352C362.778 268.205 361.55 270.036 360.282 271.845C359.652 272.748 359.008 273.652 358.358 274.542C358.098 274.9 357.838 275.251 357.578 275.602C357.26 276.044 356.928 276.479 356.597 276.915C342.509 295.652 324.757 311.326 304.419 322.984C284.082 334.642 261.584 342.039 238.297 344.726C215.009 347.412 191.419 345.332 168.961 338.611C146.503 331.89 125.648 320.669 107.664 305.632C105.766 304.046 103.903 302.421 102.074 300.757C90.3399 290.071 80.1244 277.828 71.7127 264.37C70.6662 262.686 69.6393 260.983 68.6512 259.267C53.4839 233.014 45.5214 203.22 45.5696 172.901C45.5696 77.409 122.979 3.1737e-05 218.471 3.1737e-05C247.204 -0.0173832 275.488 7.13246 300.762 20.8022C326.036 34.4718 347.501 54.2296 363.214 78.2865C363.5 78.722 363.786 79.164 364.072 79.606C379.694 103.919 388.934 131.779 390.936 160.61C391.229 164.666 391.374 168.763 391.372 172.901Z" fill="#F2F2F2"/>
<path d="M364.072 79.6086H124.577C124.405 79.6044 124.242 79.533 124.121 79.4098C124.001 79.2865 123.934 79.1211 123.934 78.9488C123.934 78.7766 124.001 78.6111 124.121 78.4879C124.242 78.3646 124.405 78.2932 124.577 78.2891H363.214C363.5 78.7246 363.786 79.1666 364.072 79.6086Z" fill="#CACACA"/>
<path d="M139.107 70.3711C143.029 70.3711 146.209 67.1208 146.209 63.1113C146.209 59.1019 143.029 55.8516 139.107 55.8516C135.185 55.8516 132.006 59.1019 132.006 63.1113C132.006 67.1208 135.185 70.3711 139.107 70.3711Z" fill="#3F3D56"/>
<path d="M163.641 70.3711C167.563 70.3711 170.742 67.1208 170.742 63.1113C170.742 59.1019 167.563 55.8516 163.641 55.8516C159.719 55.8516 156.539 59.1019 156.539 63.1113C156.539 67.1208 159.719 70.3711 163.641 70.3711Z" fill="#3F3D56"/>
<path d="M188.173 70.3711C192.095 70.3711 195.274 67.1208 195.274 63.1113C195.274 59.1019 192.095 55.8516 188.173 55.8516C184.251 55.8516 181.071 59.1019 181.071 63.1113C181.071 67.1208 184.251 70.3711 188.173 70.3711Z" fill="#3F3D56"/>
<path d="M390.937 160.609C384.69 163.45 379.094 168.039 374.205 174.35C368.557 181.65 362.505 186.792 356.324 190.276C356.031 190.438 355.745 190.594 355.453 190.75C349.911 193.736 343.834 195.599 337.571 196.23C335.679 196.42 333.779 196.511 331.877 196.503C331.084 196.496 330.291 196.477 329.505 196.438C327.639 196.347 325.793 196.165 323.98 195.905C313.567 194.423 304.148 190.419 297.173 186.655C287.617 181.385 277.244 177.755 266.487 175.917C264.563 175.598 262.643 175.349 260.728 175.17C259.935 175.092 259.148 175.033 258.362 174.981C256.431 174.851 254.503 174.79 252.577 174.799C251.589 174.806 250.607 174.825 249.619 174.864C233.018 175.514 211.366 180.246 191.951 196.776C191.691 196.997 191.437 197.218 191.177 197.439C190.937 197.647 190.696 197.861 190.456 198.076C187.383 200.807 184.487 203.732 181.785 206.831C178.687 210.381 175.821 214.126 173.205 218.044C170.097 222.63 166.468 226.84 162.389 230.589C156.355 236.156 151.524 242.898 148.191 250.401C144.858 257.903 143.093 266.008 143.006 274.217V274.542C142.999 274.893 142.999 275.251 142.999 275.602H357.585C357.845 275.251 358.105 274.9 358.358 274.542C359.008 273.652 359.652 272.748 360.282 271.845C361.55 270.038 362.778 268.207 363.968 266.352C365.17 264.493 366.332 262.61 367.452 260.704C367.731 260.229 368.011 259.748 368.29 259.267C368.843 258.312 369.389 257.343 369.928 256.375C370.468 255.406 370.994 254.425 371.508 253.443C372.028 252.462 372.537 251.476 373.035 250.486C373.289 249.985 373.536 249.485 373.776 248.991C374.017 248.503 374.251 248.015 374.491 247.521C374.634 247.222 374.771 246.93 374.914 246.631C375.128 246.182 375.336 245.727 375.544 245.272C376.493 243.225 377.399 241.156 378.262 239.065C378.483 238.545 378.697 238.018 378.905 237.492C379.327 236.445 379.741 235.39 380.146 234.326C380.348 233.8 380.543 233.267 380.745 232.734C380.94 232.201 381.134 231.668 381.323 231.128C381.518 230.595 381.707 230.056 381.889 229.523C382.077 228.983 382.259 228.444 382.441 227.904C382.623 227.365 382.799 226.825 382.974 226.279C383.15 225.74 383.325 225.194 383.494 224.648C383.644 224.173 383.793 223.692 383.943 223.211C384.469 221.476 384.97 219.729 385.444 217.972C385.73 216.893 386.01 215.81 386.283 214.722C386.972 211.94 387.596 209.13 388.155 206.292C388.265 205.72 388.376 205.148 388.48 204.569C388.584 203.997 388.688 203.425 388.785 202.853C388.889 202.281 388.987 201.709 389.078 201.137C389.175 200.559 389.266 199.987 389.351 199.408C389.422 198.966 389.487 198.518 389.552 198.076C389.572 197.939 389.591 197.809 389.611 197.679C389.656 197.374 389.695 197.075 389.734 196.776C389.773 196.496 389.812 196.217 389.851 195.944C389.929 195.359 390.001 194.78 390.072 194.195C390.183 193.331 390.28 192.453 390.371 191.576H390.378C390.404 191.283 390.436 190.991 390.469 190.698C390.482 190.562 390.495 190.419 390.508 190.276C390.807 187.325 391.028 184.35 391.171 181.351C391.19 180.903 391.21 180.448 391.229 179.986C391.242 179.746 391.249 179.512 391.255 179.271C391.288 178.433 391.314 177.594 391.327 176.756C391.359 175.475 391.374 174.19 391.372 172.901C391.372 168.767 391.227 164.67 390.937 160.609Z" fill="#6C63FF"/>
<path d="M189.732 204.203H187.36V273.714H189.732V204.203Z" fill="#3F3D56"/>
<path d="M260.731 171.738H258.359V273.713H260.731V171.738Z" fill="#3F3D56"/>
<path d="M331.875 193.082H329.504V273.713H331.875V193.082Z" fill="#3F3D56"/>
<path d="M259.691 180.627C263.698 180.627 266.946 177.379 266.946 173.372C266.946 169.365 263.698 166.117 259.691 166.117C255.685 166.117 252.437 169.365 252.437 173.372C252.437 177.379 255.685 180.627 259.691 180.627Z" fill="#3F3D56"/>
<path d="M330.837 200.787C334.844 200.787 338.092 197.539 338.092 193.532C338.092 189.525 334.844 186.277 330.837 186.277C326.83 186.277 323.582 189.525 323.582 193.532C323.582 197.539 326.83 200.787 330.837 200.787Z" fill="#3F3D56"/>
<path d="M187.246 205.607C191.253 205.607 194.501 202.359 194.501 198.352C194.501 194.346 191.253 191.098 187.246 191.098C183.239 191.098 179.991 194.346 179.991 198.352C179.991 202.359 183.239 205.607 187.246 205.607Z" fill="#3F3D56"/>
<path d="M358.358 274.543C358.098 274.9 357.838 275.251 357.578 275.602C357.26 276.044 356.928 276.48 356.596 276.915H142.765V274.543H358.358Z" fill="#3F3D56"/>
<path d="M82.6253 445.333H89.4965L92.7654 418.828L82.624 418.829L82.6253 445.333Z" fill="#FFB8B8"/>
<path d="M100.501 445.616C99.7035 444.811 98.7533 444.172 97.7062 443.738C96.6582 443.308 95.5366 443.088 94.4042 443.088L90.3547 440.02L90.1402 440.104L82.8081 443.088H80.8711V451.993H103.03V451.713C103.033 450.58 102.811 449.458 102.377 448.411C101.943 447.364 101.305 446.414 100.501 445.616Z" fill="#2F2E41"/>
<path d="M114.549 445.333H121.42L124.689 418.828L114.548 418.829L114.549 445.333Z" fill="#FFB8B8"/>
<path d="M132.43 445.616C131.631 444.809 130.678 444.17 129.628 443.738C128.58 443.307 127.459 443.086 126.326 443.088L122.283 440.02L122.062 440.111L114.73 443.088H112.793L112.799 451.993H134.952V451.713C134.955 450.581 134.733 449.459 134.3 448.412C133.868 447.366 133.232 446.415 132.43 445.616Z" fill="#2F2E41"/>
<path d="M120.041 300.289L66.0527 301.697L66.9917 327.987C66.9917 327.987 66.0527 335.029 67.9306 336.907C69.8084 338.785 70.7474 338.785 69.8084 342.071C68.8695 345.358 73.8303 350.725 73.2278 351.328C72.6253 351.93 71.2168 355.216 71.2168 355.216L75.9115 381.976C75.9115 381.976 79.1978 428.453 80.1367 429.392C81.0756 430.331 82.0145 429.392 81.0756 431.739C80.1367 434.087 79.1978 433.148 80.1367 434.087C80.9684 434.983 81.7519 435.924 82.484 436.903H93.8343C93.8343 436.903 94.6901 432.209 94.6901 431.739C94.6901 431.27 95.629 428.453 95.629 427.983C95.629 427.514 94.7991 426.684 94.7991 426.684C94.5124 425.73 94.3186 424.75 94.2206 423.758C94.2206 422.819 91.4038 386.671 91.4038 386.671L97.0374 339.724L110.652 385.732C110.652 385.732 110.652 426.106 111.591 427.045C112.53 427.983 112.53 427.514 112.06 429.392C111.591 431.27 109.713 430.8 111.121 432.209C112.53 433.617 112.999 431.27 112.53 433.617L112.06 435.964L126.144 436.166C126.144 436.166 128.022 432.209 127.083 430.8C126.144 429.392 126.201 429.776 127.346 427.471C128.492 425.167 128.961 424.697 128.492 424.228C128.022 423.758 128.022 421.261 128.022 421.261L125.675 376.342C125.675 376.342 125.205 328.926 125.205 327.518C125.17 326.793 125.303 326.07 125.595 325.406V323.494L123.797 316.72L120.041 300.289Z" fill="#2F2E41"/>
<path d="M181.14 197.9C180.88 198.621 180.466 199.276 179.926 199.82C179.386 200.364 178.733 200.782 178.013 201.046C177.294 201.31 176.525 201.414 175.762 201.348C174.998 201.283 174.258 201.052 173.594 200.67L150.158 220.303L148.885 210.706L171.806 193.159C172.522 192.086 173.607 191.312 174.855 190.985C176.103 190.658 177.428 190.8 178.579 191.384C179.729 191.968 180.625 192.954 181.097 194.155C181.569 195.356 181.584 196.688 181.14 197.9H181.14Z" fill="#FFB8B8"/>
<path d="M77.8034 206.001C85.841 206.001 92.3568 199.486 92.3568 191.448C92.3568 183.41 85.841 176.895 77.8034 176.895C69.7658 176.895 63.25 183.41 63.25 191.448C63.25 199.486 69.7658 206.001 77.8034 206.001Z" fill="#FFB8B8"/>
<path d="M89.6013 176.965C88.2465 173.735 82.4399 171.818 73.2518 172.107C64.0637 172.396 62.4547 183.352 62.4547 183.352C57.3939 188.069 65.5645 202.797 66.982 200.766C68.3995 198.736 70.7795 200.655 70.7795 200.655L68.5114 187.898C70.9066 188.819 73.4825 189.438 75.7354 188.364L72.0027 186.368L81.2836 187.523L77.4561 184.579C77.5489 184.548 77.6417 184.516 77.7345 184.485C79.2694 185.147 80.9132 185.52 82.5835 185.586C84.5348 185.571 86.6085 184.657 87.4262 182.885C87.6436 182.399 87.7614 181.873 87.7725 181.341C90.463 182.214 91.8757 185.366 91.8757 185.366C91.3649 182.504 90.6039 179.693 89.6013 176.965Z" fill="#2F2E41"/>
<path d="M89.4523 206.655C86.2023 206.655 84.1093 207.103 79.0523 207.955C69.7182 209.528 75.3082 218.397 75.3082 218.397C75.3082 218.397 75.7308 218.182 74.5867 218.397C73.4427 218.611 69.5427 221.985 69.5427 221.985L62.5682 228.179C52.0576 236.428 54.4106 249.298 54.4106 249.298L69.7377 264.722L63.0232 295.669C63.0232 295.669 65.8767 300.265 64.4011 302.325C62.9256 304.386 77.4012 303.794 77.4012 303.794C87.3918 308.247 122.589 304.483 122.589 304.483C122.102 303.209 117.389 293.335 117.389 293.335C119.437 289.799 117.487 284.69 117.487 284.69C117.487 284.69 115.452 260.523 114.152 257.182C112.852 253.841 117.48 235.739 120.522 235.934C123.565 236.129 143.214 226.106 143.214 226.106C143.214 226.106 142.72 225.319 149.207 222.667C152.933 221.203 156.349 219.048 159.276 216.317L161.941 210.993C160.66 211.487 156.338 203.336 156.338 203.336L154.453 204.055L153.361 203.739C153.361 203.739 144.839 206.163 143.097 207.931C141.355 209.699 140.77 209.205 139.197 209.602C137.624 209.998 137.429 211.103 136.935 210.98C136.441 210.856 135.564 212.351 134.875 212.156C134.186 211.961 132.71 212.748 131.729 212.943C130.747 213.138 123.772 216.089 123.772 216.089C119.456 213.905 107.756 214.789 107.756 214.789C107.756 214.789 103.928 212.533 102.842 214.789C102.55 215.43 102.081 215.974 101.491 216.357C100.9 216.741 100.212 216.948 99.5078 216.954L94.8408 214.958C94.5696 215.948 89.479 205.628 89.4523 206.655Z" fill="#3F3D56"/>
<path d="M37.2653 416.647L36.6167 402.065C29.856 398.451 22.3153 396.542 14.6494 396.504C25.1999 405.13 23.8814 421.757 31.0344 433.357C33.2931 436.958 36.3331 440.004 39.9292 442.27C43.5253 444.536 47.5852 445.964 51.8081 446.448L60.6371 451.854C61.8486 445.1 61.5815 438.164 59.8542 431.523C58.1269 424.882 54.9805 418.695 50.6317 413.387C48.1626 410.434 45.3313 407.803 42.2048 405.557C40.0902 411.133 37.2653 416.647 37.2653 416.647Z" fill="#F2F2F2"/>
<path d="M3.42206e-06 452.227C-0.000299529 452.328 0.0195154 452.429 0.0582832 452.523C0.097051 452.617 0.15401 452.702 0.225902 452.774C0.297794 452.846 0.383184 452.903 0.477172 452.942C0.57116 452.981 0.671883 453 0.77355 453H184.913C185.118 453 185.315 452.919 185.46 452.774C185.605 452.629 185.687 452.432 185.687 452.227C185.687 452.021 185.605 451.825 185.46 451.68C185.315 451.535 185.118 451.453 184.913 451.453H0.77355C0.671884 451.453 0.571158 451.473 0.477172 451.511C0.383185 451.55 0.297793 451.607 0.225902 451.679C0.154011 451.751 0.0970522 451.836 0.0582832 451.93C0.0195142 452.024 -0.000296078 452.125 3.42206e-06 452.227Z" fill="#CCCCCC"/>
<path d="M192.073 196.773H188.173V198.073H192.073V196.773Z" fill="#3F3D56"/>
<path d="M199.945 196.773V198.073H207.823V196.773H199.945ZM215.701 196.773V198.073H223.573V196.773H215.701ZM231.451 196.773V198.073H239.329V196.773H231.451ZM247.201 196.773V198.073H255.079V196.773H247.201ZM262.957 196.773V198.073H270.828V196.773H262.957ZM278.706 196.773V198.073H286.584V196.773H278.706ZM294.456 196.773V198.073H302.334V196.773H294.456ZM310.212 196.773V198.073H318.084V196.773H310.212ZM325.962 196.773V198.073H333.84V196.773H325.962ZM341.711 196.773V198.073H349.589V196.773H341.711ZM357.461 196.773V198.073H365.339V196.773H357.461ZM373.217 196.773V198.073H381.088V196.773H373.217ZM388.967 196.773V198.073H389.552C389.571 197.937 389.591 197.807 389.61 197.677C389.656 197.378 389.695 197.079 389.74 196.773H388.967Z" fill="#3F3D56"/>
<path d="M259.673 170.777H255.773V172.077H259.673V170.777Z" fill="#3F3D56"/>
<path d="M267.546 170.777V172.077H275.424V170.777H267.546ZM283.302 170.777V172.077H291.174V170.777H283.302ZM299.052 170.777V172.077H306.93V170.777H299.052ZM314.801 170.777V172.077H322.679V170.777H314.801ZM330.557 170.777V172.077H338.429V170.777H330.557ZM346.307 170.777V172.077H354.185V170.777H346.307ZM362.057 170.777V172.077H369.935V170.777H362.057ZM377.813 170.777V172.077H385.684V170.777H377.813Z" fill="#3F3D56"/>
<path d="M331.824 190.273H327.924V191.573H331.824V190.273Z" fill="#3F3D56"/>
<path d="M339.696 190.277V191.577H347.574V190.277H339.696ZM355.452 190.277V191.577H363.324V190.277H355.452ZM371.202 190.277V191.577H379.08V190.277H371.202ZM386.952 190.277V191.577H390.377C390.403 191.285 390.436 190.992 390.468 190.7C390.481 190.563 390.494 190.42 390.507 190.277H386.952Z" fill="#3F3D56"/>
<path d="M99.5195 325.852V283.985C99.5205 283.138 99.8575 282.325 100.457 281.726C101.056 281.127 101.868 280.79 102.716 280.789H134.334C135.181 280.79 135.994 281.127 136.593 281.726C137.192 282.325 137.529 283.138 137.53 283.985V325.852C137.529 326.699 137.192 327.511 136.593 328.111C135.994 328.71 135.181 329.047 134.334 329.048H102.716C101.868 329.047 101.056 328.71 100.457 328.111C99.8575 327.511 99.5205 326.699 99.5195 325.852Z" fill="#E6E6E6"/>
<path d="M101.945 313.206V286.29C101.946 285.497 102.262 284.736 102.823 284.175C103.384 283.613 104.145 283.298 104.939 283.297H132.112C132.906 283.298 133.666 283.613 134.228 284.175C134.789 284.736 135.104 285.497 135.105 286.29V323.546C135.104 324.339 134.789 325.1 134.228 325.661C133.666 326.222 132.906 326.538 132.112 326.539H115.279C111.744 326.535 108.355 325.129 105.855 322.629C103.355 320.13 101.949 316.741 101.945 313.206Z" fill="white"/>
<path d="M106.345 293.804C106.346 293.028 106.654 292.285 107.202 291.737C107.751 291.188 108.494 290.88 109.27 290.879H128.12C128.896 290.879 129.64 291.187 130.188 291.736C130.737 292.284 131.045 293.028 131.045 293.804C131.045 294.58 130.737 295.324 130.188 295.872C129.64 296.421 128.896 296.729 128.12 296.729H109.27C108.494 296.728 107.751 296.42 107.202 295.871C106.654 295.323 106.346 294.579 106.345 293.804Z" fill="#E6E6E6"/>
<path d="M106.345 302.902C106.346 302.126 106.654 301.383 107.202 300.834C107.751 300.286 108.494 299.977 109.27 299.977H128.12C128.896 299.977 129.64 300.285 130.188 300.833C130.737 301.382 131.045 302.126 131.045 302.902C131.045 303.677 130.737 304.421 130.188 304.97C129.64 305.518 128.896 305.827 128.12 305.827H109.27C108.494 305.826 107.751 305.517 107.202 304.969C106.654 304.421 106.346 303.677 106.345 302.902Z" fill="#E6E6E6"/>
<path d="M106.345 312.003C106.346 311.228 106.654 310.484 107.202 309.936C107.751 309.387 108.494 309.079 109.27 309.078H128.12C128.896 309.078 129.64 309.386 130.188 309.935C130.737 310.483 131.045 311.227 131.045 312.003C131.045 312.779 130.737 313.523 130.188 314.071C129.64 314.62 128.896 314.928 128.12 314.928H109.27C108.494 314.927 107.751 314.619 107.202 314.071C106.654 313.522 106.346 312.779 106.345 312.003Z" fill="#E6E6E6"/>
<path d="M100.267 311.229C99.556 311.242 98.8508 311.099 98.201 310.811C97.5512 310.522 96.9727 310.094 96.5062 309.557C96.0396 309.021 95.6964 308.388 95.5007 307.705C95.305 307.021 95.2616 306.303 95.3735 305.6L68.3789 290.82L76.2796 286.547L101.295 301.571C102.463 301.837 103.492 302.522 104.187 303.497C104.883 304.471 105.198 305.666 105.071 306.857C104.944 308.047 104.385 309.15 103.5 309.956C102.614 310.762 101.464 311.215 100.267 311.229Z" fill="#FFB8B8"/>
<path d="M84.5698 300.303L74.9972 298.602L71.5697 295.753L69.2645 294.579L61.3196 289.002L61.296 288.932L48.672 251.615C48.0923 248.551 48.706 245.381 50.3875 242.754C52.0689 240.127 54.6909 238.243 57.7165 237.486C59.3896 237.07 61.1319 237.013 62.8287 237.318C64.5255 237.624 66.1383 238.286 67.561 239.26C68.9836 240.233 70.1839 241.498 71.0828 242.969C71.9816 244.44 72.5588 246.085 72.7761 247.795L76.8388 279.777L83.5732 286.732L86.5198 287.303L87.198 290.475L89.7698 294.453L84.5698 300.303Z" fill="#3F3D56"/>
</g>
<defs>
<clipPath id="clip0_41_131199">
<rect width="391.372" height="453" fill="white"/>
</clipPath>
</defs>
</svg>
