<svg width="413" height="377" viewBox="0 0 413 377" fill="none" xmlns="http://www.w3.org/2000/svg">
<g clip-path="url(#clip0_41_130966)">
<path d="M355.564 34.6506L9.85742 135.375L19.0142 166.803L364.72 66.0785L355.564 34.6506Z" fill="#3F3D56"/>
<path d="M51.1596 279.734L0.205225 104.849C-0.172536 103.552 -0.0197428 102.159 0.62997 100.975C1.27968 99.7908 2.3731 98.9135 3.66969 98.5357L340.995 0.252975C342.292 -0.123517 343.685 0.0297941 344.868 0.679274C346.052 1.32875 346.929 2.42133 347.308 3.71718L392.45 158.653L391.053 159.06L345.911 4.12423C345.64 3.19901 345.013 2.41904 344.168 1.95519C343.323 1.49135 342.328 1.38145 341.402 1.64958L4.07665 99.9323C3.15051 100.202 2.3695 100.829 1.90542 101.675C1.44134 102.52 1.33221 103.516 1.60202 104.442L52.5564 279.327L51.1596 279.734Z" fill="#3F3D56"/>
<path d="M317.789 159.37C316.766 159.369 315.77 159.037 314.951 158.423C314.133 157.809 313.535 156.946 313.247 155.964L304.701 126.631C304.352 125.427 304.494 124.134 305.097 123.035C305.701 121.936 306.715 121.121 307.918 120.769L337.251 112.223C338.455 111.873 339.748 112.016 340.847 112.619C341.946 113.222 342.761 114.237 343.113 115.44L351.659 144.773C352.008 145.976 351.866 147.27 351.263 148.369C350.66 149.468 349.645 150.283 348.442 150.635L319.11 159.181C318.681 159.306 318.236 159.37 317.789 159.37Z" fill="#2892F3"/>
<path d="M50.3726 105.389C50.2847 105.088 50.1803 104.791 50.0597 104.501C49.2395 102.511 47.7127 100.894 45.7725 99.9603C43.8324 99.0271 41.6158 98.8438 39.5487 99.4456C37.4816 100.047 35.7099 101.392 34.5739 103.221C33.4379 105.05 33.0178 107.234 33.3943 109.353C33.4472 109.663 33.5177 109.969 33.6053 110.27C34.1365 112.083 35.2408 113.675 36.7528 114.809C38.2647 115.942 40.1031 116.554 41.9925 116.555C42.8174 116.557 43.6382 116.439 44.4295 116.206C46.6503 115.557 48.5231 114.054 49.6372 112.026C50.7513 109.998 51.0158 107.611 50.3726 105.389ZM44.0221 114.809C42.17 115.347 40.1804 115.128 38.4895 114.201C36.7985 113.273 35.5444 111.713 35.0019 109.863C34.9168 109.561 34.8487 109.255 34.7981 108.946C34.5252 107.2 34.8978 105.413 35.8463 103.922C36.7947 102.43 38.254 101.335 39.9513 100.841C41.6486 100.347 43.4676 100.489 45.0683 101.239C46.669 101.988 47.9417 103.296 48.6484 104.916C48.7802 105.201 48.8897 105.495 48.9759 105.796C49.5127 107.648 49.2926 109.638 48.3637 111.328C47.4349 113.018 45.8734 114.27 44.0221 114.809V114.809Z" fill="#2892F3"/>
<path d="M28.9618 111.624C28.4963 110.025 28.541 108.321 29.0897 106.749C29.6385 105.177 30.6639 103.815 32.0231 102.853C30.7497 102.791 29.4798 103.034 28.3193 103.562C27.1589 104.09 26.1414 104.888 25.3517 105.889C24.5619 106.89 24.0228 108.065 23.7792 109.317C23.5356 110.568 23.5946 111.86 23.9513 113.084C24.3079 114.308 24.9519 115.429 25.8296 116.354C26.7072 117.279 27.7932 117.98 28.997 118.4C30.2007 118.821 31.4874 118.947 32.7499 118.769C34.0124 118.591 35.2142 118.114 36.255 117.378C34.5918 117.297 32.9954 116.699 31.6882 115.667C30.3809 114.636 29.4279 113.223 28.9618 111.624Z" fill="#2892F3"/>
<path d="M255.095 147.675C254.94 147.118 254.677 146.597 254.32 146.143C253.964 145.688 253.522 145.307 253.018 145.024C252.515 144.74 251.961 144.558 251.387 144.489C250.813 144.419 250.232 144.464 249.675 144.62L201.381 158.128L196.18 159.583H228.841L234.043 158.128L252.047 153.094C253.169 152.779 254.12 152.031 254.692 151.015C255.263 149.999 255.408 148.798 255.095 147.675Z" fill="#CCCCCC"/>
<path d="M220.927 137.586C220.612 136.463 219.864 135.511 218.848 134.94C217.832 134.368 216.63 134.223 215.507 134.538L143.04 154.804C142.028 155.091 141.151 155.73 140.568 156.607C139.985 157.483 139.734 158.539 139.861 159.583H158.622L163.83 158.128L217.879 143.012C219.002 142.696 219.954 141.947 220.525 140.93C221.097 139.912 221.241 138.709 220.927 137.586Z" fill="#CCCCCC"/>
<path d="M407.488 158.125H56.136C54.786 158.127 53.4917 158.663 52.537 159.618C51.5824 160.573 51.0455 161.867 51.0439 163.217V371.264C51.0454 372.614 51.5823 373.908 52.537 374.863C53.4916 375.817 54.7859 376.354 56.136 376.356H407.488C408.838 376.354 410.132 375.817 411.087 374.863C412.041 373.908 412.578 372.614 412.58 371.264V163.217C412.578 161.867 412.041 160.573 411.087 159.618C410.132 158.664 408.838 158.127 407.488 158.125ZM411.125 371.264C411.125 372.228 410.741 373.153 410.059 373.835C409.377 374.517 408.452 374.901 407.488 374.901H56.136C55.1715 374.901 54.2465 374.517 53.5645 373.835C52.8825 373.153 52.4992 372.228 52.4988 371.264V163.217C52.4992 162.253 52.8826 161.328 53.5646 160.646C54.2466 159.964 55.1715 159.58 56.136 159.58H407.488C408.452 159.58 409.377 159.964 410.059 160.646C410.741 161.328 411.125 162.253 411.125 163.217V371.264Z" fill="#3F3D56"/>
<path d="M90.323 186.498C88.5965 186.498 86.9088 185.986 85.4733 185.026C84.0378 184.067 82.9189 182.704 82.2582 181.109C81.5975 179.514 81.4247 177.759 81.7615 176.065C82.0983 174.372 82.9297 172.817 84.1505 171.596C85.3713 170.375 86.9267 169.544 88.62 169.207C90.3133 168.87 92.0685 169.043 93.6635 169.704C95.2586 170.364 96.6219 171.483 97.5811 172.919C98.5403 174.354 99.0522 176.042 99.0522 177.768C99.0496 180.083 98.129 182.301 96.4926 183.938C94.8561 185.574 92.6373 186.495 90.323 186.498ZM90.323 170.494C88.8842 170.494 87.4778 170.921 86.2816 171.72C85.0853 172.519 84.1529 173.655 83.6024 174.985C83.0518 176.314 82.9077 177.776 83.1884 179.187C83.4691 180.599 84.1619 181.895 85.1792 182.912C86.1966 183.929 87.4927 184.622 88.9038 184.903C90.3149 185.184 91.7775 185.04 93.1068 184.489C94.436 183.938 95.5721 183.006 96.3714 181.81C97.1707 180.613 97.5973 179.207 97.5973 177.768C97.5952 175.84 96.8281 173.991 95.4643 172.627C94.1006 171.263 92.2516 170.496 90.323 170.494Z" fill="#2892F3"/>
<path d="M76.7551 177.767C76.7553 176.102 77.2749 174.479 78.2415 173.123C79.2081 171.767 80.5735 170.746 82.1475 170.203C80.9423 169.787 79.6551 169.666 78.3933 169.848C77.1314 170.03 75.9314 170.512 74.8932 171.252C73.855 171.992 73.0087 172.969 72.4247 174.103C71.8408 175.236 71.5361 176.492 71.5361 177.767C71.5361 179.042 71.8408 180.299 72.4247 181.432C73.0087 182.566 73.855 183.543 74.8932 184.283C75.9314 185.023 77.1314 185.505 78.3933 185.687C79.6551 185.869 80.9423 185.748 82.1475 185.332C80.5735 184.789 79.2081 183.768 78.2415 182.412C77.2749 181.056 76.7553 179.433 76.7551 177.767Z" fill="#2892F3"/>
<path d="M125.708 280.903C123.972 280.901 122.308 280.21 121.081 278.983C119.854 277.756 119.163 276.091 119.161 274.356V254.715C119.161 252.979 119.851 251.313 121.079 250.086C122.306 248.858 123.972 248.168 125.708 248.168C127.444 248.168 129.11 248.858 130.337 250.086C131.565 251.313 132.255 252.979 132.255 254.715V274.356C132.253 276.091 131.563 277.755 130.335 278.983C129.108 280.21 127.444 280.901 125.708 280.903Z" fill="#2892F3"/>
<path d="M143.167 280.903C141.431 280.901 139.767 280.21 138.54 278.983C137.312 277.756 136.622 276.091 136.62 274.356V254.715C136.62 252.979 137.31 251.313 138.538 250.086C139.765 248.858 141.431 248.168 143.167 248.168C144.903 248.168 146.569 248.858 147.796 250.086C149.024 251.313 149.714 252.979 149.714 254.715V274.356C149.712 276.091 149.022 277.755 147.794 278.983C146.567 280.21 144.903 280.901 143.167 280.903Z" fill="#2892F3"/>
<path d="M160.625 280.903C158.889 280.901 157.225 280.21 155.998 278.983C154.771 277.756 154.08 276.091 154.078 274.356V254.715C154.078 252.979 154.768 251.313 155.996 250.086C157.223 248.858 158.889 248.168 160.625 248.168C162.361 248.168 164.027 248.858 165.254 250.086C166.482 251.313 167.172 252.979 167.172 254.715V274.356C167.17 276.091 166.48 277.755 165.252 278.983C164.025 280.21 162.361 280.901 160.625 280.903Z" fill="#2892F3"/>
<path d="M187.54 280.903C185.804 280.901 184.14 280.21 182.913 278.983C181.686 277.756 180.995 276.091 180.993 274.356V254.715C180.993 252.979 181.683 251.313 182.911 250.086C184.139 248.858 185.804 248.168 187.54 248.168C189.276 248.168 190.942 248.858 192.169 250.086C193.397 251.313 194.087 252.979 194.087 254.715V274.356C194.085 276.091 193.395 277.755 192.167 278.983C190.94 280.21 189.276 280.901 187.54 280.903Z" fill="#2892F3"/>
<path d="M204.999 280.903C203.263 280.901 201.599 280.21 200.372 278.983C199.145 277.756 198.454 276.091 198.452 274.356V254.715C198.452 252.979 199.142 251.313 200.37 250.086C201.597 248.858 203.263 248.168 204.999 248.168C206.735 248.168 208.401 248.858 209.628 250.086C210.856 251.313 211.546 252.979 211.546 254.715V274.356C211.544 276.091 210.854 277.755 209.626 278.983C208.399 280.21 206.735 280.901 204.999 280.903Z" fill="#2892F3"/>
<path d="M222.457 280.903C220.721 280.901 219.057 280.21 217.83 278.983C216.603 277.756 215.912 276.091 215.91 274.356V254.715C215.91 252.979 216.6 251.313 217.828 250.086C219.055 248.858 220.721 248.168 222.457 248.168C224.193 248.168 225.859 248.858 227.086 250.086C228.314 251.313 229.004 252.979 229.004 254.715V274.356C229.002 276.091 228.312 277.755 227.084 278.983C225.857 280.21 224.193 280.901 222.457 280.903Z" fill="#2892F3"/>
<path d="M249.372 280.903C247.636 280.901 245.972 280.21 244.745 278.983C243.518 277.756 242.827 276.091 242.825 274.356V254.715C242.825 252.979 243.515 251.313 244.743 250.086C245.971 248.858 247.636 248.168 249.372 248.168C251.108 248.168 252.774 248.858 254.001 250.086C255.229 251.313 255.919 252.979 255.919 254.715V274.356C255.917 276.091 255.227 277.755 253.999 278.983C252.772 280.21 251.108 280.901 249.372 280.903Z" fill="#2892F3"/>
<path d="M266.831 280.903C265.095 280.901 263.431 280.21 262.204 278.983C260.977 277.756 260.286 276.091 260.284 274.356V254.715C260.284 252.979 260.974 251.313 262.202 250.086C263.43 248.858 265.095 248.168 266.831 248.168C268.567 248.168 270.233 248.858 271.46 250.086C272.688 251.313 273.378 252.979 273.378 254.715V274.356C273.376 276.091 272.686 277.755 271.458 278.983C270.231 280.21 268.567 280.901 266.831 280.903Z" fill="#2892F3"/>
<path d="M284.289 280.903C282.553 280.901 280.889 280.21 279.662 278.983C278.435 277.756 277.744 276.091 277.742 274.356V254.715C277.742 252.979 278.432 251.313 279.66 250.086C280.888 248.858 282.553 248.168 284.289 248.168C286.025 248.168 287.691 248.858 288.918 250.086C290.146 251.313 290.836 252.979 290.836 254.715V274.356C290.834 276.091 290.144 277.755 288.916 278.983C287.689 280.21 286.025 280.901 284.289 280.903Z" fill="#2892F3"/>
<path d="M311.204 280.903C309.468 280.901 307.804 280.21 306.577 278.983C305.35 277.756 304.659 276.091 304.657 274.356V254.715C304.657 252.979 305.347 251.313 306.575 250.086C307.803 248.858 309.468 248.168 311.204 248.168C312.941 248.168 314.606 248.858 315.834 250.086C317.061 251.313 317.751 252.979 317.751 254.715V274.356C317.749 276.091 317.059 277.755 315.831 278.983C314.604 280.21 312.94 280.901 311.204 280.903Z" fill="#2892F3"/>
<path d="M328.663 280.903C326.927 280.901 325.263 280.21 324.036 278.983C322.809 277.756 322.118 276.091 322.116 274.356V254.715C322.116 252.979 322.806 251.313 324.034 250.086C325.262 248.858 326.927 248.168 328.663 248.168C330.399 248.168 332.065 248.858 333.293 250.086C334.52 251.313 335.21 252.979 335.21 254.715V274.356C335.208 276.091 334.518 277.755 333.29 278.983C332.063 280.21 330.399 280.901 328.663 280.903Z" fill="#2892F3"/>
<path d="M346.121 280.903C344.385 280.901 342.721 280.21 341.494 278.983C340.267 277.756 339.576 276.091 339.574 274.356V254.715C339.574 252.979 340.264 251.313 341.492 250.086C342.72 248.858 344.385 248.168 346.121 248.168C347.857 248.168 349.523 248.858 350.751 250.086C351.978 251.313 352.668 252.979 352.668 254.715V274.356C352.666 276.091 351.976 277.755 350.748 278.983C349.521 280.21 347.857 280.901 346.121 280.903Z" fill="#2892F3"/>
<path d="M170.095 353.767H75.9352C74.7685 353.767 73.6496 353.303 72.8246 352.478C71.9996 351.653 71.5361 350.535 71.5361 349.368C71.5361 348.201 71.9996 347.082 72.8246 346.257C73.6496 345.432 74.7685 344.969 75.9352 344.969H170.095C171.261 344.969 172.38 345.432 173.205 346.257C174.03 347.082 174.494 348.201 174.494 349.368C174.494 350.535 174.03 351.653 173.205 352.478C172.38 353.303 171.261 353.767 170.095 353.767Z" fill="#E6E6E6"/>
<path d="M139.906 334.853H106.124C104.957 334.853 103.838 334.389 103.013 333.564C102.188 332.739 101.725 331.62 101.725 330.454C101.725 329.287 102.188 328.168 103.013 327.343C103.838 326.518 104.957 326.055 106.124 326.055H139.906C141.073 326.055 142.192 326.518 143.017 327.343C143.842 328.168 144.305 329.287 144.305 330.454C144.305 331.62 143.842 332.739 143.017 333.564C142.192 334.389 141.073 334.853 139.906 334.853Z" fill="#E6E6E6"/>
<path d="M410.863 201.613H52.2373V203.068H410.863V201.613Z" fill="#3F3D56"/>
</g>
<defs>
<clipPath id="clip0_41_130966">
<rect width="412.58" height="376.31" fill="white" transform="translate(0 0.046875)"/>
</clipPath>
</defs>
</svg>
