<svg width="459" height="441" viewBox="0 0 459 441" fill="none" xmlns="http://www.w3.org/2000/svg">
<g clip-path="url(#clip0_41_131019)">
<path d="M413.351 426.742C415.089 426.851 416.049 424.691 414.734 423.433L414.604 422.913C414.621 422.871 414.638 422.829 414.656 422.788C416.413 418.596 422.371 418.625 424.113 422.823C425.66 426.549 427.63 430.28 428.114 434.22C428.332 435.958 428.234 437.73 427.848 439.436C431.473 431.519 433.38 422.873 433.38 414.179C433.38 411.994 433.261 409.81 433.016 407.631C432.815 405.848 432.538 404.077 432.179 402.322C430.239 392.834 426.039 383.797 419.98 376.249C417.067 374.657 414.638 372.168 413.171 369.185C412.644 368.109 412.231 366.951 412.035 365.772C412.367 365.816 413.285 360.767 413.035 360.458C413.497 359.757 414.324 359.408 414.828 358.724C417.337 355.322 420.794 355.916 422.599 360.539C426.454 362.485 426.491 365.712 424.126 368.815C422.621 370.79 422.414 373.461 421.094 375.575C421.23 375.749 421.371 375.918 421.507 376.092C423.998 379.287 426.153 382.721 427.969 386.329C427.456 382.319 428.214 377.488 429.506 374.374C430.976 370.826 433.733 367.838 436.161 364.771C439.077 361.086 445.057 362.694 445.57 367.365C445.575 367.41 445.58 367.455 445.585 367.5C445.224 367.704 444.871 367.92 444.526 368.148C442.558 369.45 443.238 372.501 445.57 372.861L445.623 372.869C445.493 374.168 445.27 375.456 444.944 376.722C448.058 388.766 441.334 393.153 431.734 393.35C431.522 393.459 431.315 393.567 431.103 393.671C432.076 396.409 432.853 399.219 433.429 402.066C433.945 404.582 434.304 407.125 434.505 409.679C434.755 412.902 434.733 416.14 434.461 419.357L434.478 419.243C435.168 415.7 437.092 412.391 439.885 410.098C444.046 406.68 449.924 405.421 454.413 402.674C456.574 401.351 459.343 403.06 458.966 405.565L458.947 405.685C458.279 405.957 457.627 406.272 456.997 406.625C456.636 406.829 456.283 407.045 455.938 407.273C453.969 408.575 454.65 411.626 456.982 411.986L457.035 411.994C457.073 412 457.105 412.005 457.143 412.011C455.997 414.733 454.399 417.26 452.399 419.439C450.452 429.953 442.088 430.951 433.141 427.889H433.136C432.157 432.149 430.728 436.312 428.892 440.279H413.731C413.676 440.11 413.627 439.936 413.578 439.768C414.98 439.855 416.393 439.773 417.774 439.518C416.649 438.137 415.524 436.746 414.399 435.366C414.372 435.339 414.35 435.312 414.328 435.285C413.758 434.578 413.182 433.877 412.611 433.171L412.611 433.17C412.575 431.001 412.835 428.84 413.35 426.742L413.351 426.742V426.742Z" fill="#F2F2F2"/>
<path d="M134.405 439.486C134.405 440.041 134.851 440.487 135.406 440.487H457.881C458.436 440.487 458.882 440.041 458.882 439.486C458.882 438.93 458.436 438.484 457.881 438.484H135.407C134.851 438.484 134.405 438.93 134.405 439.486Z" fill="#CCCCCC"/>
<path d="M183.338 440.059H34.9062C16.8075 440.059 2.08301 425.335 2.08301 407.235V88.2451C2.08301 70.1464 16.8075 55.4219 34.9062 55.4219H183.338C201.436 55.4219 216.161 70.1464 216.161 88.2451V407.235C216.161 425.335 201.436 440.059 183.338 440.059Z" fill="#3F3D56"/>
<path d="M216.161 172.758C215.395 172.758 214.772 173.381 214.772 174.146V218.581C214.772 219.347 215.395 219.97 216.161 219.97C216.927 219.97 217.55 219.347 217.55 218.581V174.146C217.55 173.381 216.927 172.758 216.161 172.758Z" fill="#3F3D56"/>
<path d="M213.036 88.2447V407.229C213.036 422.983 200.775 435.869 185.272 436.869H185.265C185.036 436.883 184.807 436.896 184.57 436.903C184.161 436.924 183.751 436.931 183.335 436.931C183.335 436.931 181.807 436.82 179.016 436.612C176.197 436.403 172.094 436.091 166.977 435.681C165.443 435.563 163.825 435.431 162.117 435.293C158.715 435.015 154.98 434.709 150.974 434.362C149.377 434.23 147.724 434.085 146.037 433.939C137.414 433.196 127.757 432.328 117.571 431.342C115.85 431.182 114.114 431.016 112.364 430.842C111.906 430.794 111.441 430.752 110.976 430.703C103.713 429.988 5.20703 410.951 5.20703 407.229V88.2447C5.20703 71.8386 18.5027 58.543 34.9088 58.543H52.6409C55.4737 58.543 57.7509 60.7508 57.9939 63.5766C58.0147 63.7641 58.0356 63.9515 58.0703 64.1389C58.5841 66.9786 61.1877 68.9573 64.0759 68.9573H154.167C157.056 68.9573 159.659 66.9786 160.173 64.1389C160.208 63.9515 160.229 63.7641 160.249 63.5766C160.492 60.7508 162.77 58.543 165.602 58.543H183.335C199.741 58.543 213.036 71.8386 213.036 88.2447Z" fill="white"/>
<path d="M1.38858 139.43C0.622754 139.43 0 140.052 0 140.818V151.927C0 152.693 0.622763 153.315 1.38858 153.315C2.15439 153.315 2.77715 152.693 2.77715 151.927V140.818C2.77715 140.052 2.15439 139.43 1.38858 139.43Z" fill="#3F3D56"/>
<path d="M1.38858 172.758C0.622754 172.758 0 173.381 0 174.146V195.669C0 196.435 0.622763 197.058 1.38858 197.058C2.15439 197.058 2.77715 196.435 2.77715 195.669V174.146C2.77715 173.381 2.15439 172.758 1.38858 172.758Z" fill="#3F3D56"/>
<path d="M1.38858 203.305C0.622754 203.305 0 203.927 0 204.693V226.216C0 226.982 0.622763 227.605 1.38858 227.605C2.15439 227.605 2.77715 226.982 2.77715 226.216V204.693C2.77715 203.927 2.15439 203.305 1.38858 203.305Z" fill="#3F3D56"/>
<path d="M52.1581 63.4062H25.6028C25.4586 63.4062 25.3418 63.5231 25.3418 63.6672V66.6167C25.3418 66.7609 25.4586 66.8777 25.6028 66.8777H52.1581C52.3023 66.8777 52.4191 66.7609 52.4191 66.6167V63.6672C52.4191 63.5231 52.3023 63.4062 52.1581 63.4062Z" fill="#E6E6E6"/>
<path d="M169.99 66.8785C171.524 66.8785 172.767 65.6352 172.767 64.1014C172.767 62.5676 171.524 61.3242 169.99 61.3242C168.456 61.3242 167.213 62.5676 167.213 64.1014C167.213 65.6352 168.456 66.8785 169.99 66.8785Z" fill="#E6E6E6"/>
<path d="M177.628 66.8785C179.162 66.8785 180.405 65.6352 180.405 64.1014C180.405 62.5676 179.162 61.3242 177.628 61.3242C176.094 61.3242 174.851 62.5676 174.851 64.1014C174.851 65.6352 176.094 66.8785 177.628 66.8785Z" fill="#E6E6E6"/>
<path d="M185.264 66.8785C186.798 66.8785 188.042 65.6352 188.042 64.1014C188.042 62.5676 186.798 61.3242 185.264 61.3242C183.731 61.3242 182.487 62.5676 182.487 64.1014C182.487 65.6352 183.731 66.8785 185.264 66.8785Z" fill="#E6E6E6"/>
<path d="M167.668 251.199H49.8819C48.0263 251.199 46.5166 249.69 46.5166 247.834C46.5166 245.978 48.0263 244.469 49.8819 244.469H167.668C169.524 244.469 171.034 245.978 171.034 247.834C171.034 249.69 169.524 251.199 167.668 251.199Z" fill="#E6E6E6"/>
<path d="M109.198 381.602C136.148 381.602 157.995 359.755 157.995 332.805C157.995 305.855 136.148 284.008 109.198 284.008C82.2477 284.008 60.4004 305.855 60.4004 332.805C60.4004 359.755 82.2477 381.602 109.198 381.602Z" fill="#2892F3"/>
<path d="M116.952 316.876C112.834 317.045 108.178 317.328 105.134 320.488C102.49 323.233 101.911 327.307 104.592 330.238C107.281 333.177 111.461 333.574 114.561 335.867C118.2 338.559 117.667 343.884 114.145 346.435C109.992 349.444 104.63 348.041 100.834 345.179C99.8609 344.445 98.9165 346.088 99.8783 346.813C103.28 349.378 107.718 350.805 111.924 349.578C115.72 348.471 118.662 345.376 118.961 341.35C119.104 339.429 118.558 337.479 117.363 335.962C116.102 334.361 114.285 333.376 112.449 332.574C109.288 331.194 103.845 329.408 104.764 324.914C105.878 319.468 112.508 318.952 116.952 318.769C118.166 318.719 118.172 316.826 116.952 316.876L116.952 316.876Z" fill="white"/>
<path d="M109.312 314.297L109.131 355.853C109.126 357.072 111.019 357.073 111.024 355.853L111.205 314.297C111.211 313.079 109.318 313.077 109.312 314.297Z" fill="white"/>
<path d="M367.734 0.046875H127.147C118.321 0.046875 111.145 7.22341 111.145 16.049V180.916C111.145 189.742 118.321 196.919 127.147 196.919H367.734C376.56 196.919 383.736 189.742 383.736 180.916V16.049C383.736 7.22341 376.56 0.046875 367.734 0.046875Z" fill="white"/>
<path d="M246.335 98.0757C261.204 98.0757 273.257 86.0221 273.257 71.1531C273.257 56.2841 261.204 44.2305 246.335 44.2305C231.466 44.2305 219.412 56.2841 219.412 71.1531C219.412 86.0221 231.466 98.0757 246.335 98.0757Z" fill="#2892F3"/>
<path d="M251.442 59.1374C248.109 59.2747 244.358 59.486 241.837 61.9661C239.748 64.0205 239.018 67.2186 240.937 69.6374C242.957 72.1841 246.317 72.6674 248.955 74.2948C250.594 75.3063 251.68 76.8387 251.715 78.8079C251.748 80.6517 250.897 82.3741 249.475 83.5297C245.985 86.3647 241.226 85.1912 237.924 82.7117C237.274 82.2239 236.645 83.319 237.287 83.8014C240.022 85.8549 243.542 87.0475 246.945 86.164C250.077 85.3507 252.599 82.887 252.939 79.5948C253.296 76.1249 251.018 73.7623 248.064 72.4068C245.363 71.1679 240.627 69.8478 241.074 65.9989C241.641 61.1052 247.632 60.5564 251.442 60.3994C252.251 60.366 252.255 59.1038 251.442 59.1374V59.1374Z" fill="white"/>
<path d="M245.65 56.8517L245.499 91.4794C245.495 92.2916 246.757 92.2926 246.761 91.4794L246.912 56.8517C246.916 56.0395 245.654 56.0385 245.65 56.8517Z" fill="white"/>
<path d="M367.734 0.046875H127.147C118.321 0.046875 111.145 7.22341 111.145 16.049V180.916C111.145 189.742 118.321 196.919 127.147 196.919H367.734C376.56 196.919 383.736 189.742 383.736 180.916V16.049C383.736 7.22341 376.56 0.046875 367.734 0.046875ZM382.054 180.916C382.054 188.817 375.634 195.236 367.734 195.236H127.147C119.247 195.236 112.827 188.817 112.827 180.916V16.049C112.827 8.14891 119.247 1.72954 127.147 1.72954H367.734C375.634 1.72954 382.054 8.14891 382.054 16.049V180.916Z" fill="#3F3D56"/>
<path d="M219.702 16.3281H196.094C194.908 16.3281 193.94 17.2957 193.94 18.4819C193.94 19.6766 194.908 20.6442 196.094 20.6442H219.702C220.888 20.6442 221.856 19.6766 221.856 18.4819C221.856 17.2957 220.888 16.3281 219.702 16.3281Z" fill="#E6E6E6"/>
<path d="M259.245 16.3281H235.637C234.451 16.3281 233.483 17.2957 233.483 18.4819C233.483 19.6766 234.451 20.6442 235.637 20.6442H259.245C260.431 20.6442 261.399 19.6766 261.399 18.4819C261.399 17.2957 260.431 16.3281 259.245 16.3281Z" fill="#E6E6E6"/>
<path d="M298.787 16.3281H275.179C273.993 16.3281 273.025 17.2957 273.025 18.4819C273.025 19.6766 273.993 20.6442 275.179 20.6442H298.787C299.973 20.6442 300.941 19.6766 300.941 18.4819C300.941 17.2957 299.973 16.3281 298.787 16.3281Z" fill="#E6E6E6"/>
<path d="M337.724 113.219H157.157C149.644 113.219 143.536 119.327 143.536 126.84V139.14C143.536 146.653 149.644 152.761 157.157 152.761H337.724C345.237 152.761 351.345 146.653 351.345 139.14V126.84C351.345 119.327 345.237 113.219 337.724 113.219Z" fill="#2892F3"/>
<path d="M61.5677 177.983L54.6436 174.703C57.4835 178.667 59.9306 184.857 61.2408 189.782C63.459 185.194 67.0348 179.58 70.5743 176.227L63.2563 178.109C67.7656 156.009 84.7263 140.144 104.149 140.144V138.461C83.8615 138.461 66.1718 154.991 61.5677 177.983Z" fill="#3F3D56"/>
<path d="M93.4369 211.656H49.6876C47.832 211.656 46.3223 210.147 46.3223 208.291C46.3223 206.435 47.832 204.926 49.6876 204.926H93.4369C95.2925 204.926 96.8022 206.435 96.8022 208.291C96.8022 210.147 95.2925 211.656 93.4369 211.656Z" fill="#E6E6E6"/>
<path d="M384.471 200.694L384.03 235.054L375.481 265.683L368.646 263.133L371.681 235.059L371.282 197.066L384.471 200.694Z" fill="#FFB6B6"/>
<path d="M375.451 270.621C376.253 266.216 374.783 262.26 372.168 261.784C369.553 261.308 366.783 264.492 365.981 268.897C365.179 273.301 366.649 277.257 369.264 277.733C371.879 278.209 374.649 275.025 375.451 270.621Z" fill="#FFB6B6"/>
<path d="M374.096 159.781C374.096 159.781 388.742 159.983 388.729 167.763C388.722 172.155 387.779 212.036 385.154 236.264C383.129 254.947 379.264 259.821 379.264 259.821L370.01 238.788L374.096 159.781Z" fill="#E6E6E6"/>
<path d="M373.72 229.982H324.26C328.405 220.731 330.954 211.921 326.97 204.913L373.72 202.203C371.383 211.663 371.098 220.948 373.72 229.982Z" fill="#FFB6B6"/>
<path d="M367.622 148L347.974 146.645L339.843 156.808L335.722 157.557C329.543 158.68 325.143 164.194 325.42 170.468L327.023 206.908L373.986 210.333L385.238 162.88L371.688 157.485L367.622 148V148Z" fill="#E6E6E6"/>
<path d="M247.798 158.994C249.192 160.248 250.187 161.713 250.713 163.134L264.747 174.241L259.267 180.765L245.62 168.795C244.152 168.422 242.59 167.587 241.196 166.333C238.011 163.468 236.908 159.502 238.731 157.476C240.554 155.449 244.613 156.129 247.798 158.994L247.798 158.994Z" fill="#FFB6B6"/>
<path d="M347.022 168.346V168.346L293.247 204.657L254.7 177.832L260.487 167.349L290.826 184.981L318.804 163.498C328.767 154.139 341.254 155.953 347.022 168.346H347.022Z" fill="#E6E6E6"/>
<path d="M356.633 143.603C364.683 143.603 371.209 137.077 371.209 129.026C371.209 120.976 364.683 114.449 356.633 114.449C348.582 114.449 342.056 120.976 342.056 129.026C342.056 137.077 348.582 143.603 356.633 143.603Z" fill="#FFB6B6"/>
<path d="M376.446 125.443V128.27L360.006 123.642L347.681 126.225C347.538 124.349 346.983 122.507 346.057 120.874C346.701 123.492 346.773 125.518 346.091 126.562L344.433 126.907C344.164 126.175 343.643 125.535 342.961 125.148C342.894 125.106 342.81 125.073 342.734 125.098C342.616 125.14 342.608 125.291 342.608 125.409C342.625 126.032 342.641 126.654 342.667 127.277L337.905 128.27V125.443C333.336 115.164 345.377 106.269 357.18 106.176C362.505 106.135 367.318 108.33 370.809 111.813C374.292 115.305 376.446 120.117 376.446 125.443Z" fill="#2F2E41"/>
<path d="M385.695 158.59L384.454 158.488C384.542 158.082 384.63 157.681 384.711 157.275C385.399 153.868 383.885 149.531 383.773 146.257C383.189 149.716 384.188 153.971 383.154 157.254C383.039 157.619 378.547 159.974 378.424 160.333C373.452 158.515 368.275 152.706 362.412 156.099C358.945 158.106 354.988 157.226 351.052 156.307C350.077 156.08 349.942 151.268 348.977 151.079C347.25 150.74 344.714 155.114 343.088 155.285L349.819 129.204C349.819 115.016 348.504 100.13 366.477 105.147C370.997 106.409 375.471 107.398 378.807 111.128C382.144 114.864 384.519 120.085 385.361 126.031C385.868 129.618 389.035 141.797 385.695 158.59Z" fill="#2F2E41"/>
<path d="M374.089 420.864L366.065 421.053L361.593 385.007L373.433 384.727L374.089 420.864Z" fill="#FFB7B7"/>
<path d="M346.562 437.605C346.562 438.96 347.523 440.059 348.71 440.059H364.636C364.636 440.059 366.203 433.759 372.593 431.048L373.034 440.059H381.249L380.254 425.57C380.254 425.57 382.452 417.818 377.888 413.855C373.323 409.893 377.02 410.444 377.02 410.444L375.225 401.477L362.81 402.936L362.719 417.014L356.694 430.987L347.857 435.352C347.071 435.741 346.562 436.626 346.562 437.605H346.562H346.562Z" fill="#2F2E41"/>
<path d="M349.678 414.991L341.965 417.21L328.492 383.479L339.874 380.203L349.678 414.991Z" fill="#FFB7B7"/>
<path d="M327.299 438.168C327.643 439.479 328.852 440.298 330 439.997L345.405 435.956C345.405 435.956 345.322 429.464 350.815 425.22L353.528 433.825L361.475 431.74L356.835 417.977C356.835 417.977 356.994 409.922 351.573 407.247C346.153 404.572 349.869 404.168 349.869 404.168L345.856 395.949L334.219 400.512L337.703 414.151L335.421 429.196L327.981 435.661C327.319 436.236 327.051 437.222 327.299 438.168L327.299 438.168L327.299 438.168Z" fill="#2F2E41"/>
<path d="M369.169 227.852L374.217 229.534C382.11 244.111 385.456 263.468 385.012 286.811L376.046 391.65H361.376L350.64 274.855L331.71 318.692L345.56 391.65L331.71 393.062L303.813 317.198L323.241 229.025L369.169 227.852Z" fill="#2F2E41"/>
</g>
<defs>
<clipPath id="clip0_41_131019">
<rect width="459" height="440.438" fill="white" transform="translate(0 0.046875)"/>
</clipPath>
</defs>
</svg>
