<svg width="545" height="401" viewBox="0 0 545 401" fill="none" xmlns="http://www.w3.org/2000/svg">
<g clip-path="url(#clip0_41_131068)">
<path d="M515.128 400.111L515.749 398.964C507.427 394.463 497.069 388.862 491.66 379.67C486.327 370.609 486.208 358.305 491.348 347.559C495.722 338.413 503.757 330.22 514.585 323.863C516.721 322.61 518.962 321.422 521.131 320.272C526.371 317.495 531.791 314.623 536.259 310.548C542.414 304.935 547.07 295.517 543.599 287.128C542.458 284.45 540.589 282.146 538.204 280.477C535.819 278.809 533.013 277.842 530.107 277.688L530.033 278.991C532.696 279.132 535.266 280.017 537.451 281.545C539.637 283.073 541.35 285.183 542.397 287.635C545.622 295.431 541.197 304.278 535.38 309.584C531.033 313.547 525.688 316.38 520.52 319.119C518.339 320.275 516.084 321.47 513.924 322.738C502.871 329.226 494.657 337.614 490.17 346.995C484.845 358.128 484.985 370.902 490.535 380.332C496.129 389.837 506.663 395.534 515.128 400.111Z" fill="#F1F1F1"/>
<path d="M521.835 284.566C528.142 284.566 533.254 282.082 533.254 279.019C533.254 275.956 528.142 273.473 521.835 273.473C515.529 273.473 510.416 275.956 510.416 279.019C510.416 282.082 515.529 284.566 521.835 284.566Z" fill="#F1F1F1"/>
<path d="M512.7 321.105C519.006 321.105 524.119 318.621 524.119 315.558C524.119 312.495 519.006 310.012 512.7 310.012C506.393 310.012 501.28 312.495 501.28 315.558C501.28 318.621 506.393 321.105 512.7 321.105Z" fill="#F1F1F1"/>
<path d="M533.58 326.98C539.887 326.98 545 324.496 545 321.433C545 318.37 539.887 315.887 533.58 315.887C527.274 315.887 522.161 318.37 522.161 321.433C522.161 324.496 527.274 326.98 533.58 326.98Z" fill="#F1F1F1"/>
<path d="M500.954 357.648C507.261 357.648 512.374 355.164 512.374 352.101C512.374 349.038 507.261 346.555 500.954 346.555C494.648 346.555 489.535 349.038 489.535 352.101C489.535 355.164 494.648 357.648 500.954 357.648Z" fill="#F1F1F1"/>
<path d="M478.116 357.648C484.422 357.648 489.535 355.164 489.535 352.101C489.535 349.038 484.422 346.555 478.116 346.555C471.809 346.555 466.696 349.038 466.696 352.101C466.696 355.164 471.809 357.648 478.116 357.648Z" fill="#F1F1F1"/>
<path d="M89.5829 286.821H49.0644C47.9672 286.82 46.9153 286.384 46.1394 285.608C45.3636 284.832 44.9271 283.78 44.9258 282.683V149.177C44.9271 148.08 45.3636 147.028 46.1394 146.252C46.9153 145.477 47.9672 145.04 49.0644 145.039H89.5829C90.6801 145.04 91.732 145.477 92.5079 146.252C93.2837 147.028 93.7202 148.08 93.7215 149.177V282.683C93.7202 283.78 93.2837 284.832 92.5079 285.608C91.732 286.384 90.6801 286.82 89.5829 286.821Z" fill="#2892F3"/>
<path d="M163.474 286.823H122.955C121.858 286.822 120.806 286.385 120.03 285.61C119.254 284.834 118.818 283.782 118.816 282.685V96.2008C118.818 95.1036 119.254 94.0517 120.03 93.2759C120.806 92.5001 121.858 92.0637 122.955 92.0625H163.474C164.571 92.0637 165.623 92.5001 166.399 93.2759C167.174 94.0517 167.611 95.1036 167.612 96.2008V282.685C167.611 283.782 167.174 284.834 166.399 285.61C165.623 286.385 164.571 286.822 163.474 286.823Z" fill="#2892F3"/>
<path d="M237.285 286.507H196.647C195.546 286.506 194.491 285.871 193.713 284.743C192.935 283.615 192.497 282.085 192.496 280.489V86.327C192.497 84.7313 192.935 83.2015 193.713 82.0732C194.491 80.945 195.546 80.3104 196.647 80.3086H237.285C238.385 80.3104 239.44 80.945 240.219 82.0732C240.997 83.2015 241.434 84.7313 241.436 86.327V280.489C241.434 282.085 240.997 283.615 240.219 284.743C239.44 285.871 238.385 286.506 237.285 286.507Z" fill="#2892F3"/>
<path d="M311.255 286.822H270.736C269.664 286.845 268.626 286.443 267.851 285.702C267.075 284.962 266.624 283.944 266.598 282.872V75.1001C266.624 74.028 267.075 73.0102 267.851 72.2697C268.626 71.5292 269.664 71.1263 270.736 71.1494H311.255C312.327 71.1263 313.365 71.5292 314.14 72.2697C314.916 73.0102 315.367 74.028 315.393 75.1001V282.872C315.367 283.944 314.916 284.962 314.14 285.702C313.365 286.443 312.327 286.845 311.255 286.822Z" fill="#2892F3"/>
<path d="M385.145 286.823H344.627C343.53 286.822 342.478 286.386 341.702 285.61C340.926 284.834 340.49 283.782 340.488 282.685V37.6461C340.49 36.5489 340.926 35.497 341.702 34.7212C342.478 33.9454 343.53 33.509 344.627 33.5078H385.145C386.243 33.509 387.295 33.9454 388.07 34.7212C388.846 35.497 389.283 36.5489 389.284 37.6461V282.685C389.283 283.782 388.846 284.834 388.07 285.61C387.295 286.386 386.243 286.822 385.145 286.823Z" fill="#2892F3"/>
<path d="M69.324 128.308C73.9438 128.308 77.689 124.563 77.689 119.943C77.689 115.323 73.9438 111.578 69.324 111.578C64.7041 111.578 60.959 115.323 60.959 119.943C60.959 124.563 64.7041 128.308 69.324 128.308Z" fill="#3F3D56"/>
<path d="M143.215 73.937C147.834 73.937 151.58 70.1919 151.58 65.572C151.58 60.9522 147.834 57.207 143.215 57.207C138.595 57.207 134.85 60.9522 134.85 65.572C134.85 70.1919 138.595 73.937 143.215 73.937Z" fill="#3F3D56"/>
<path d="M217.105 59.8432C221.725 59.8432 225.47 56.0981 225.47 51.4783C225.47 46.8584 221.725 43.1133 217.105 43.1133C212.485 43.1133 208.74 46.8584 208.74 51.4783C208.74 56.0981 212.485 59.8432 217.105 59.8432Z" fill="#3F3D56"/>
<path d="M290.996 47.4487C295.616 47.4487 299.361 43.7036 299.361 39.0837C299.361 34.4639 295.616 30.7188 290.996 30.7188C286.376 30.7188 282.631 34.4639 282.631 39.0837C282.631 43.7036 286.376 47.4487 290.996 47.4487Z" fill="#3F3D56"/>
<path d="M364.886 16.7768C369.506 16.7768 373.251 13.0317 373.251 8.41186C373.251 3.79201 369.506 0.046875 364.886 0.046875C360.267 0.046875 356.521 3.79201 356.521 8.41186C356.521 13.0317 360.267 16.7768 364.886 16.7768Z" fill="#3F3D56"/>
<path d="M432.626 288.375H0.652528C0.479467 288.375 0.313493 288.307 0.191121 288.184C0.0687478 288.062 0 287.896 0 287.723C0 287.55 0.0687478 287.384 0.191121 287.261C0.313493 287.139 0.479467 287.07 0.652528 287.07H432.626C432.799 287.07 432.965 287.139 433.088 287.261C433.21 287.384 433.279 287.55 433.279 287.723C433.279 287.896 433.21 288.062 433.088 288.184C432.965 288.307 432.799 288.375 432.626 288.375Z" fill="#CBCBCB"/>
<path d="M540.293 399.957H328.874C328.701 399.957 328.535 399.889 328.413 399.766C328.29 399.644 328.222 399.478 328.222 399.305C328.222 399.132 328.29 398.966 328.413 398.843C328.535 398.721 328.701 398.652 328.874 398.652H540.293C540.466 398.652 540.632 398.721 540.755 398.843C540.877 398.966 540.946 399.132 540.946 399.305C540.946 399.478 540.877 399.644 540.755 399.766C540.632 399.889 540.466 399.957 540.293 399.957Z" fill="#CBCBCB"/>
<path d="M404.526 277.769C405.062 277.236 405.475 276.592 405.736 275.882C405.996 275.171 406.098 274.413 406.034 273.659C405.969 272.905 405.741 272.175 405.363 271.519C404.986 270.863 404.47 270.298 403.851 269.864L406.416 258.321L399.782 255.051L396.388 271.403C395.727 272.491 395.488 273.784 395.716 275.037C395.945 276.29 396.626 277.416 397.629 278.201C398.632 278.985 399.888 279.375 401.159 279.295C402.43 279.216 403.628 278.673 404.526 277.769Z" fill="#FFB7B7"/>
<path d="M477.075 278.022C477.569 277.449 477.931 276.774 478.136 276.046C478.341 275.318 478.384 274.553 478.261 273.807C478.139 273.06 477.854 272.35 477.427 271.725C477 271.101 476.442 270.577 475.791 270.192L477.456 258.485L470.588 255.738L468.469 272.304C467.894 273.44 467.756 274.748 468.081 275.98C468.406 277.211 469.172 278.28 470.233 278.985C471.293 279.69 472.576 279.981 473.837 279.804C475.098 279.626 476.251 278.992 477.075 278.022L477.075 278.022Z" fill="#FFB7B7"/>
<path d="M425.359 392.919L418.593 392.919L415.375 366.824L425.36 366.825L425.359 392.919Z" fill="#FFB7B7"/>
<path d="M427.084 399.478L405.27 399.477V399.202C405.27 396.95 406.164 394.79 407.757 393.198C409.349 391.606 411.508 390.711 413.76 390.711H413.761L427.084 390.711L427.084 399.478Z" fill="#2F2E41"/>
<path d="M447.984 392.919L441.218 392.919L438 366.824L447.985 366.825L447.984 392.919Z" fill="#FFB7B7"/>
<path d="M449.709 399.478L427.895 399.477V399.202C427.895 396.95 428.789 394.79 430.382 393.198C431.974 391.606 434.133 390.711 436.385 390.711H436.386L449.709 390.711L449.709 399.478Z" fill="#2F2E41"/>
<path d="M461.605 173.379L468.9 170.746C468.9 170.746 471.996 171.404 471.996 179.801C471.996 188.198 480.219 266.51 480.219 266.51L465.828 270.299L457.694 196L461.605 173.379Z" fill="#2F2E41"/>
<path d="M412.857 173.379L405.562 170.746C405.562 170.746 402.465 171.404 402.465 179.801C402.465 188.198 394.242 266.51 394.242 266.51L408.633 270.299L416.767 196L412.857 173.379Z" fill="#2F2E41"/>
<path d="M412.951 262.693L410.957 321.52L415.372 386.592L426.747 386.855L428.402 326.154L437.783 295.803L436.837 385.259L449.717 385.106L457.695 323.56C457.695 323.56 468.23 272.626 462.388 262.693L435.483 253.746L412.951 262.693Z" fill="#2F2E41"/>
<path d="M413.17 255.607L412.521 269.758C412.521 269.758 421.598 274.276 437.554 271.524C453.51 268.772 464.116 270.586 464.116 270.586L462.891 252.547L413.17 255.607Z" fill="#E5E5E5"/>
<path d="M405.271 170.955L426.253 161.761L427.504 156.945L447.915 157.537L448.797 162.456L468.9 170.746L460.043 201.543L460.951 223.208L471.996 262.694C471.996 262.694 462.68 270.606 440.298 267.202L436.436 259.42L434.074 267.649C434.074 267.649 414.448 274.869 409.008 265.471L412.95 197.578L405.271 170.955Z" fill="#2F2E41"/>
<path d="M437.524 152.42C445.01 152.42 451.078 146.351 451.078 138.866C451.078 131.381 445.01 125.312 437.524 125.312C430.039 125.312 423.971 131.381 423.971 138.866C423.971 146.351 430.039 152.42 437.524 152.42Z" fill="#FFB7B7"/>
<path d="M453.629 133.617C453.386 132.514 452.92 131.472 452.259 130.556C451.996 128.024 451.151 125.587 449.791 123.435C449.258 122.427 448.502 121.554 447.579 120.883C446.523 120.274 445.318 119.974 444.1 120.015C443.879 120.011 443.482 120.078 443.124 120.095C442.895 120.024 442.664 119.961 442.433 119.901C442.298 119.601 442.03 118.724 441.955 118.784L440.946 119.586C440.519 119.512 440.09 119.454 439.659 119.408C439.502 118.961 439.345 118.514 439.189 118.066C438.934 118.466 438.711 118.886 438.522 119.32C438.093 119.299 437.664 119.292 437.235 119.298L436.377 118.474C436.326 118.704 436.21 118.914 436.041 119.078C435.873 119.243 435.661 119.355 435.43 119.401C435.035 119.441 434.642 119.494 434.25 119.557C434.218 119.557 434.186 119.557 434.154 119.557C432.041 119.504 429.767 119.409 428 120.569C427.173 121.137 426.5 121.901 426.041 122.793C425.825 122.94 425.608 123.086 425.398 123.242C424.689 123.725 424.075 124.334 423.585 125.039C423.229 125.646 422.959 126.3 422.783 126.982C422.109 129.034 421.796 131.188 421.86 133.347C421.932 135.52 422.752 137.603 424.182 139.242C425.088 140.216 426.24 140.935 427.148 141.907C429.016 143.91 429.367 146.703 430.965 148.822C432.655 151.063 435.741 152.538 438.451 152.961C440.08 153.207 441.741 153.128 443.34 152.729C444.939 152.33 446.443 151.62 447.766 150.638C448.401 150.196 448.94 149.63 449.352 148.975C450.292 147.348 449.894 145.303 450.243 143.457C450.897 139.996 454.2 137.092 453.629 133.617Z" fill="#2F2E41"/>
<path d="M68.8778 120.467L68.0986 119.421L143.215 63.4969L213.867 53.1087L291.526 37.3736L291.66 37.3188L364.117 7.41406L364.615 8.62059L292.291 38.4698L214.029 54.8581L143.214 65.1243L68.8778 120.467Z" fill="#3F3D56"/>
</g>
<defs>
<clipPath id="clip0_41_131068">
<rect width="545" height="400.064" fill="white" transform="translate(0 0.046875)"/>
</clipPath>
</defs>
</svg>
