<svg width="450" height="394" viewBox="0 0 450 394" fill="none" xmlns="http://www.w3.org/2000/svg">
<g clip-path="url(#clip0_41_130924)">
<path d="M314.609 387.249L307.786 387.249L304.541 360.934L314.61 360.934L314.609 387.249Z" fill="#FFB6B6"/>
<path d="M291.235 387.096C291.022 387.454 290.91 388.608 290.91 389.024C290.91 390.303 291.947 391.34 293.226 391.34H314.354C315.226 391.34 315.933 390.633 315.933 389.76V388.88C315.933 388.88 316.979 386.237 314.827 382.978C314.827 382.978 312.152 385.53 308.156 381.533L306.977 379.398L298.447 385.637L293.719 386.219C292.684 386.347 291.767 386.2 291.235 387.096H291.235H291.235Z" fill="#2F2E41"/>
<path d="M386.629 378.714L380.395 381.485L366.739 358.758L375.94 354.668L386.629 378.714Z" fill="#FFB6B6"/>
<path d="M365.208 388.07C365.159 388.483 365.525 389.583 365.694 389.964C366.214 391.132 367.582 391.658 368.751 391.139L388.057 382.556C388.854 382.201 389.213 381.268 388.859 380.47L388.501 379.667C388.501 379.667 388.382 376.826 385.092 374.723C385.092 374.723 383.685 378.141 378.41 376.113L376.466 374.641L371.205 383.807L367.121 386.26C366.228 386.796 365.33 387.034 365.208 388.07L365.208 388.07Z" fill="#2F2E41"/>
<path d="M299.783 222.59L293.717 235.328L304.029 367.561H316.924L322.226 280.821L368.507 367.561H384.326L360.44 305.691L344.063 225.016L299.783 222.59Z" fill="#2F2E41"/>
<path d="M332.26 140.902H316.266L310.4 150.107L297.168 156.435L300.044 196.13L298.601 225.072L300.579 225.014C314.694 224.602 328.804 226.898 341.903 232.173C345.264 233.526 348.787 234.281 351.82 233.523C351.82 233.523 350.669 228.921 349.519 227.77C348.368 226.62 347.793 225.668 348.368 224.993C348.943 224.318 350.094 223.743 348.944 222.593C347.793 221.442 347.793 219.993 347.793 219.993L344.341 194.404L351.245 158.161L336.863 150.107L332.26 140.902V140.902Z" fill="#2892F3"/>
<path d="M359.746 191.085L359.31 225.033L350.863 255.296L344.11 252.777L347.108 225.038L346.714 187.5L359.746 191.085Z" fill="#FFB6B6"/>
<path d="M350.834 260.176C351.626 255.824 350.174 251.915 347.59 251.445C345.007 250.974 342.27 254.121 341.478 258.472C340.685 262.824 342.137 266.733 344.721 267.203C347.305 267.674 350.042 264.528 350.834 260.176Z" fill="#FFB6B6"/>
<path d="M347.793 156.432C347.793 156.432 357.323 157.909 357.448 166.087C357.572 174.266 366.777 187.497 361.024 197.852L346.067 200.153L338.013 170.814L347.217 155.281" fill="#2892F3"/>
<path d="M304.291 185.105L285.298 213.246L261.63 233.91L257.367 228.099L275.095 206.555L295.364 174.957L304.291 185.105Z" fill="#FFB6B6"/>
<path d="M258.928 237.974C261.978 234.77 262.909 230.706 261.007 228.895C259.105 227.083 255.091 228.212 252.041 231.415C248.99 234.618 248.059 238.683 249.961 240.494C251.863 242.305 255.877 241.177 258.928 237.974Z" fill="#FFB6B6"/>
<path d="M313.312 149.578C313.312 149.578 320.47 156.043 316.086 162.948C311.702 169.854 312.136 185.966 301.645 191.466L287.878 185.182C289.038 173.837 289.714 162.075 297.245 156.235L313.463 148.301" fill="#2892F3"/>
<path d="M321.78 138.53C329.685 138.53 336.092 132.122 336.092 124.218C336.092 116.314 329.685 109.906 321.78 109.906C313.876 109.906 307.469 116.314 307.469 124.218C307.469 132.122 313.876 138.53 321.78 138.53Z" fill="#FFB6B6"/>
<path d="M332.292 135.977C333.08 136.111 334.006 134.2 334.89 132.339C336.741 128.444 337.918 125.967 338.008 122.466C338.084 119.483 337.255 120.266 336.449 113.633C336.183 111.445 332.445 111.449 331.685 110.41C330.4 108.655 332.371 107.932 329.174 106.878C323.186 104.903 320.478 107.97 316.675 108.235C316.579 108.241 314.694 110.085 313.641 110.18C311.796 110.347 309.135 110.06 307.942 107.249C306.826 104.621 306.087 112.301 307.084 113.251C307.931 114.058 309.391 116.084 309.428 116.231C309.471 116.398 305.956 112.504 305.369 114.109C304.947 115.263 306.276 121.204 307.35 121.427C308.248 121.614 310.443 118.655 309.948 119.868C308.799 122.683 315.707 124.479 323.978 118.829C324.271 118.629 323.994 118.948 325.017 121.427C326.307 124.554 326.599 124.723 326.576 125.584C326.527 127.448 325.128 127.997 325.537 129.222C325.868 130.213 327.163 130.981 328.135 130.78C329.232 130.554 329.42 129.197 330.213 129.222C330.893 129.242 331.7 130.266 331.772 131.3C331.924 133.478 328.7 134.077 328.135 137.016C327.816 138.675 331.567 135.853 332.292 135.977Z" fill="#2F2E41"/>
<path d="M218.995 391.992H96.0201C77.5754 391.992 62.5693 376.986 62.5693 358.54V33.4508C62.5693 15.006 77.5754 0 96.0201 0H218.995C237.44 0 252.446 15.006 252.446 33.4508C254.735 163.997 258.638 310.188 252.446 358.54C252.446 376.986 237.44 391.992 218.995 391.992Z" fill="#3F3D56"/>
<path d="M254.161 119.578C253.381 119.578 252.746 120.213 252.746 120.993V166.277C252.746 167.058 253.381 167.693 254.161 167.693C254.942 167.693 255.576 167.058 255.576 166.277V120.993C255.576 120.213 254.942 119.578 254.161 119.578Z" fill="#3F3D56"/>
<path d="M249.262 33.4493V358.533C249.262 374.588 236.767 387.72 220.967 388.739H220.96C220.726 388.753 220.493 388.767 220.252 388.775C219.835 388.796 219.417 388.803 218.993 388.803C218.993 388.803 217.436 388.69 214.591 388.477C211.719 388.265 207.537 387.947 202.322 387.529C200.759 387.409 199.11 387.274 197.369 387.133C193.902 386.85 190.096 386.539 186.013 386.185C184.386 386.05 182.702 385.902 180.982 385.753C172.194 384.996 162.352 384.112 151.972 383.107C150.217 382.944 148.448 382.774 146.665 382.597C146.198 382.548 65.7539 362.326 65.7539 358.533V33.4493C65.7539 16.7296 79.3038 3.17969 96.0236 3.17969H114.095C116.982 3.17969 119.302 5.42974 119.55 8.30954C119.571 8.5006 119.593 8.69161 119.628 8.88266C120.152 11.7766 122.805 13.7932 125.748 13.7932H189.268C192.211 13.7932 194.865 11.7766 195.388 8.88266C195.424 8.69161 195.445 8.5006 195.466 8.30954C195.714 5.42974 198.034 3.17969 200.921 3.17969H218.993C235.712 3.17969 249.262 16.7296 249.262 33.4493Z" fill="white"/>
<path d="M61.8624 85.6172C61.0819 85.6172 60.4473 86.2519 60.4473 87.0323V98.3534C60.4473 99.1338 61.0819 99.7685 61.8624 99.7685C62.6429 99.7685 63.2775 99.1338 63.2775 98.3534V87.0323C63.2775 86.2519 62.6429 85.6172 61.8624 85.6172Z" fill="#3F3D56"/>
<path d="M61.8624 119.578C61.0819 119.578 60.4473 120.213 60.4473 120.993V142.928C60.4473 143.708 61.0819 144.343 61.8624 144.343C62.6429 144.343 63.2775 143.708 63.2775 142.928V120.993C63.2775 120.213 62.6429 119.578 61.8624 119.578Z" fill="#3F3D56"/>
<path d="M61.8624 150.711C61.0819 150.711 60.4473 151.346 60.4473 152.126V174.061C60.4473 174.841 61.0819 175.476 61.8624 175.476C62.6429 175.476 63.2775 174.841 63.2775 174.061V152.126C63.2775 151.346 62.6429 150.711 61.8624 150.711Z" fill="#3F3D56"/>
<path d="M113.603 8.13672H86.5394C86.3925 8.13672 86.2734 8.2558 86.2734 8.4027V11.4086C86.2734 11.5555 86.3925 11.6745 86.5394 11.6745H113.603C113.749 11.6745 113.868 11.5555 113.868 11.4086V8.4027C113.868 8.2558 113.749 8.13672 113.603 8.13672Z" fill="#E6E6E6"/>
<path d="M205.393 11.6762C206.956 11.6762 208.223 10.409 208.223 8.84589C208.223 7.28278 206.956 6.01562 205.393 6.01562C203.83 6.01562 202.562 7.28278 202.562 8.84589C202.562 10.409 203.83 11.6762 205.393 11.6762Z" fill="#E6E6E6"/>
<path d="M213.176 11.6762C214.739 11.6762 216.006 10.409 216.006 8.84589C216.006 7.28278 214.739 6.01562 213.176 6.01562C211.613 6.01562 210.346 7.28278 210.346 8.84589C210.346 10.409 211.613 11.6762 213.176 11.6762Z" fill="#E6E6E6"/>
<path d="M220.959 11.6762C222.522 11.6762 223.789 10.409 223.789 8.84589C223.789 7.28278 222.522 6.01562 220.959 6.01562C219.396 6.01562 218.129 7.28278 218.129 8.84589C218.129 10.409 219.396 11.6762 220.959 11.6762Z" fill="#E6E6E6"/>
<path d="M221.859 260.42C221.859 228.159 194.592 210.412 163.446 202.007C123.513 191.23 94.2675 213.037 105.033 260.42C112.18 291.878 148.46 338.827 163.446 310.258C180.594 277.568 221.859 292.68 221.859 260.42Z" fill="#F2F2F2"/>
<path d="M0 392.079C0 392.645 0.454458 393.099 1.02038 393.099H448.842C449.408 393.099 449.862 392.645 449.862 392.079C449.862 391.513 449.408 391.059 448.842 391.059H1.02038C0.454458 391.059 0 391.513 0 392.079Z" fill="#CCCCCC"/>
<path d="M143.37 254.662L136.313 251.319C139.208 255.358 141.702 261.667 143.037 266.686C145.297 262.011 148.942 256.289 152.549 252.872L145.091 254.79C149.686 232.268 166.971 216.099 186.765 216.099L187.045 215.285C166.37 215.285 148.062 231.23 143.37 254.662Z" fill="#3F3D56"/>
<path d="M175.848 288.98H131.263C129.372 288.98 127.833 287.442 127.833 285.551C127.833 283.66 129.372 282.121 131.263 282.121H175.848C177.74 282.121 179.278 283.66 179.278 285.551C179.278 287.442 177.74 288.98 175.848 288.98Z" fill="#2892F3"/>
<path d="M217.527 111.228V202.115C217.527 210.152 210.988 216.691 202.951 216.691H112.064C104.027 216.691 97.4883 210.152 97.4883 202.115V111.228C97.4883 103.191 104.027 96.6523 112.064 96.6523H202.951C210.988 96.6523 217.527 103.191 217.527 111.228ZM202.951 214.976C210.054 214.976 215.812 209.218 215.812 202.115V156.294C215.812 124.302 189.878 98.3672 157.886 98.3672H112.064C104.961 98.3672 99.2031 104.125 99.2031 111.228V202.115C99.2031 209.218 104.961 214.976 112.064 214.976H202.951Z" fill="#3F3D56"/>
<path d="M169.607 133.773H140.265C139.526 133.773 138.924 133.171 138.924 132.431C138.924 131.691 139.526 131.09 140.265 131.09H169.607C170.347 131.09 170.948 131.691 170.948 132.431C170.948 133.171 170.347 133.773 169.607 133.773V133.773Z" fill="#3F3D56"/>
<path d="M169.607 162.378H140.265C139.526 162.378 138.924 161.776 138.924 161.037C138.924 160.297 139.526 159.695 140.265 159.695H169.607C170.347 159.695 170.948 160.297 170.948 161.037C170.948 161.776 170.347 162.378 169.607 162.378V162.378Z" fill="#3F3D56"/>
<path d="M155.031 201.82H125.689C124.95 201.82 124.348 201.218 124.348 200.478C124.348 199.738 124.95 199.137 125.689 199.137H155.031C155.77 199.137 156.372 199.738 156.372 200.478C156.372 201.218 155.77 201.82 155.031 201.82V201.82Z" fill="#3F3D56"/>
<path d="M185.352 148.085H124.52C123.781 148.085 123.179 147.483 123.179 146.744C123.179 146.004 123.781 145.402 124.52 145.402H185.352C186.091 145.402 186.693 146.004 186.693 146.744C186.693 147.483 186.091 148.085 185.352 148.085V148.085Z" fill="#3F3D56"/>
</g>
<defs>
<clipPath id="clip0_41_130924">
<rect width="449.862" height="393.098" fill="white"/>
</clipPath>
</defs>
</svg>
