<svg width="488" height="458" viewBox="0 0 488 458" fill="none" xmlns="http://www.w3.org/2000/svg">
<g clip-path="url(#clip0_41_130992)">
<path d="M454.348 457.993H20.9C15.3589 457.987 10.0465 455.783 6.12834 451.865C2.21018 447.947 0.00622589 442.634 0 437.093V250.525C0.00630092 244.984 2.21027 239.672 6.12841 235.753C10.0466 231.835 15.3589 229.631 20.9 229.625H454.348C459.889 229.631 465.201 231.835 469.119 235.753C473.038 239.672 475.242 244.984 475.248 250.525V437.093C475.242 442.634 473.038 447.947 469.12 451.865C465.201 455.783 459.889 457.987 454.348 457.993Z" fill="white"/>
<path d="M454.348 457.994H20.9C15.3589 457.988 10.0465 455.784 6.12834 451.866C2.21018 447.947 0.00622589 442.635 0 437.094V250.526C0.006303 244.985 2.21027 239.672 6.12841 235.754C10.0466 231.836 15.3589 229.632 20.9 229.626C150.205 215.519 297.437 218.075 454.348 229.626C459.889 229.632 465.201 231.836 469.119 235.754C473.038 239.672 475.242 244.985 475.248 250.526C491.492 304.621 492.126 381.512 475.248 437.094C475.242 442.635 473.038 447.947 469.12 451.866C465.201 455.784 459.889 457.988 454.348 457.994ZM20.9 231.443C18.394 231.443 15.9126 231.937 13.5974 232.896C11.2822 233.855 9.17853 235.26 7.40655 237.032C5.63456 238.804 4.22894 240.908 3.26995 243.223C2.31096 245.538 1.81738 248.02 1.81738 250.526V437.094C1.81738 442.155 3.82786 447.009 7.40655 450.587C10.9852 454.166 15.839 456.176 20.9 456.176H454.348C459.409 456.176 464.263 454.166 467.841 450.587C471.42 447.009 473.43 442.155 473.43 437.094V352.984C473.43 320.749 460.625 289.835 437.832 267.042C415.039 244.248 384.124 231.443 351.89 231.443L20.9 231.443Z" fill="#E6E6E6"/>
<path d="M318.985 257.274H264.514C264.216 257.275 263.92 257.217 263.643 257.103C263.367 256.99 263.116 256.823 262.904 256.612C262.692 256.401 262.524 256.15 262.41 255.875C262.295 255.599 262.236 255.303 262.236 255.004C262.236 254.705 262.295 254.409 262.41 254.134C262.524 253.858 262.692 253.607 262.904 253.396C263.116 253.185 263.367 253.018 263.643 252.905C263.92 252.791 264.216 252.733 264.514 252.734H318.985C319.284 252.733 319.58 252.791 319.856 252.905C320.133 253.018 320.384 253.185 320.595 253.396C320.807 253.607 320.975 253.858 321.09 254.134C321.204 254.409 321.263 254.705 321.263 255.004C321.263 255.303 321.204 255.599 321.09 255.875C320.975 256.15 320.807 256.401 320.595 256.612C320.384 256.823 320.133 256.99 319.856 257.103C319.58 257.217 319.284 257.275 318.985 257.274Z" fill="#2892F3"/>
<path d="M271.64 327.5H217.17C216.871 327.501 216.575 327.443 216.299 327.33C216.022 327.216 215.771 327.049 215.559 326.838C215.348 326.628 215.18 326.377 215.065 326.101C214.951 325.825 214.892 325.529 214.892 325.231C214.892 324.932 214.951 324.636 215.065 324.36C215.18 324.084 215.348 323.834 215.559 323.623C215.771 323.412 216.022 323.245 216.299 323.131C216.575 323.018 216.871 322.96 217.17 322.961H271.64C271.939 322.96 272.235 323.018 272.512 323.131C272.788 323.245 273.039 323.412 273.251 323.623C273.462 323.834 273.63 324.084 273.745 324.36C273.859 324.636 273.918 324.932 273.918 325.231C273.918 325.529 273.859 325.825 273.745 326.101C273.63 326.377 273.462 326.628 273.251 326.838C273.039 327.049 272.788 327.216 272.512 327.33C272.235 327.443 271.939 327.501 271.64 327.5Z" fill="#2892F3"/>
<path d="M314.658 322.826C312.377 319.585 310.484 316.089 309.016 312.408C308.971 312.296 308.895 312.201 308.796 312.134C308.697 312.067 308.58 312.031 308.461 312.031C308.341 312.031 308.224 312.067 308.125 312.134C308.026 312.201 307.95 312.297 307.905 312.408C306.438 316.089 304.545 319.585 302.264 322.826C302.188 322.93 302.147 323.056 302.148 323.185C302.149 323.314 302.192 323.439 302.27 323.542C302.347 323.645 302.456 323.721 302.58 323.757C302.704 323.793 302.836 323.789 302.957 323.744L307.671 322.039V351.222H309.249V322.039L313.965 323.745C314.087 323.789 314.219 323.794 314.343 323.757C314.466 323.721 314.575 323.646 314.653 323.543C314.73 323.44 314.773 323.314 314.774 323.185C314.775 323.056 314.734 322.93 314.658 322.826Z" fill="#3F3D56"/>
<path d="M264.828 271.376C264.784 271.265 264.707 271.17 264.608 271.103C264.509 271.036 264.393 271 264.273 271C264.153 271 264.037 271.036 263.938 271.103C263.839 271.17 263.762 271.265 263.718 271.376C262.251 275.058 260.357 278.554 258.077 281.795C258.001 281.899 257.96 282.025 257.961 282.154C257.962 282.283 258.004 282.408 258.082 282.511C258.16 282.614 258.269 282.689 258.392 282.726C258.516 282.762 258.648 282.758 258.769 282.713L263.484 281.008V310.191H265.062V281.008L269.778 282.713C269.899 282.758 270.031 282.762 270.155 282.726C270.279 282.69 270.388 282.614 270.465 282.511C270.543 282.408 270.585 282.283 270.586 282.154C270.587 282.025 270.547 281.899 270.471 281.795C268.19 278.554 266.296 275.057 264.828 271.376Z" fill="#3F3D56"/>
<path d="M220.64 336.868C220.595 336.757 220.519 336.662 220.42 336.595C220.321 336.528 220.204 336.492 220.085 336.492C219.965 336.492 219.848 336.528 219.749 336.595C219.65 336.662 219.574 336.758 219.529 336.869C218.062 340.55 216.169 344.046 213.888 347.287C213.812 347.391 213.771 347.517 213.772 347.646C213.773 347.775 213.816 347.9 213.894 348.003C213.971 348.106 214.08 348.182 214.204 348.218C214.328 348.254 214.46 348.25 214.581 348.205L219.295 346.5V375.683H220.873V346.5L225.589 348.206C225.711 348.25 225.843 348.255 225.967 348.218C226.09 348.182 226.199 348.106 226.277 348.003C226.355 347.9 226.397 347.775 226.398 347.646C226.399 347.517 226.358 347.391 226.282 347.287C224.001 344.046 222.108 340.55 220.64 336.868Z" fill="#3F3D56"/>
<path d="M414.198 360.692V348.066C389.008 329.537 375.043 329.342 366.853 333.074C356.457 337.811 353.058 349.922 349.15 360.692H414.198Z" fill="#F2F2F2"/>
<path d="M211.508 409.614C206.048 405.348 203.681 393.814 192.467 390.676C185.926 388.846 180.41 391.004 171.161 394.621C158.974 399.389 153.604 404.796 146.391 409.614H211.508Z" fill="#F2F2F2"/>
<path d="M235.794 387.52C228.486 396.777 224.917 405.999 220.261 409.614H414.197V387.52H235.794Z" fill="#F2F2F2"/>
<path d="M348.271 363.059C345.287 370.861 341.717 377.571 334.5 379.629C321.794 383.252 316.096 367.242 291.89 364.637C289.422 364.371 267.998 362.362 249.28 374.895C244.99 377.78 241.109 381.23 237.742 385.153H414.197V363.059H348.271Z" fill="#F2F2F2"/>
<path d="M269.796 378.051C276.333 378.051 281.632 372.752 281.632 366.215C281.632 359.678 276.333 354.379 269.796 354.379C263.259 354.379 257.96 359.678 257.96 366.215C257.96 372.752 263.259 378.051 269.796 378.051Z" fill="#2892F3"/>
<path d="M125.713 444.425L136.97 444.424L142.323 401.008L125.711 401.009L125.713 444.425Z" fill="#FFB6B6"/>
<path d="M125.317 456.169L159.93 456.168V455.73C159.93 452.157 158.511 448.73 155.984 446.204C153.458 443.677 150.031 442.258 146.458 442.258H146.457L140.135 437.461L128.338 442.258L125.316 442.258L125.317 456.169Z" fill="#2F2E41"/>
<path d="M132.046 398.952L122.896 405.507L93.2549 373.336L106.759 363.66L132.046 398.952Z" fill="#FFB6B6"/>
<path d="M139.207 408.264L111.071 428.425L110.816 428.069C108.735 425.165 107.893 421.553 108.475 418.027C109.057 414.502 111.016 411.352 113.92 409.271L113.92 409.27L116.266 401.689L128.649 398.717L131.105 396.957L139.207 408.264Z" fill="#2F2E41"/>
<path d="M89.842 197.445C89.842 197.445 20.0572 272.534 32.1275 294.544C44.1978 316.555 102.419 391.817 102.419 391.817L118.381 373.49C104.966 341.659 90.5316 313.839 73.6924 295.481L122.487 259.435C122.487 259.435 126.078 319.105 123.124 328.48C120.17 337.856 115.2 332.885 120.17 337.856C125.14 342.826 127.647 343.738 124.973 346.832C122.3 349.926 120.377 420.408 120.377 420.408H143.338C143.338 420.408 164.764 290.559 163.413 285.807C162.061 281.054 162.836 283.233 162.804 277.173C162.771 271.114 172.569 221.472 172.569 221.472L89.842 197.445Z" fill="#2F2E41"/>
<path d="M137.21 56.8789L115.199 58.2989L100.756 76.7972L76.7239 95.1103L91.9717 141.516C91.9717 141.516 91.2209 165.232 88.6547 168.212C86.0886 171.192 81.8285 167.642 86.0886 174.032C88.6858 178.081 90.1564 182.75 90.3487 187.556C90.3487 187.556 66.0736 207.758 74.7283 213.083C83.383 218.408 100.864 204.563 109.807 212.728C118.749 220.893 178.156 237.335 178.391 225.863C178.626 214.391 163.557 124.811 163.557 124.811L167.031 81.7296L147.15 68.2392L137.21 56.8789Z" fill="#2892F3"/>
<path d="M102.371 237.889L94.91 215.43L81.4854 217.902L90.2183 241.366C89.6874 242.741 89.5505 244.237 89.823 245.685C90.0955 247.134 90.7666 248.477 91.7609 249.565C92.7551 250.653 94.0332 251.442 95.4513 251.843C96.8694 252.245 98.3713 252.243 99.7883 251.837C101.205 251.432 102.481 250.639 103.472 249.548C104.463 248.457 105.13 247.112 105.399 245.663C105.667 244.214 105.526 242.718 104.991 241.345C104.456 239.972 103.549 238.775 102.371 237.889H102.371Z" fill="#FFB6B6"/>
<path d="M82.518 91.4961L82.1641 91.6435C78.8724 93.0162 75.9649 95.1705 73.6933 97.9199C71.4217 100.669 69.8544 103.931 69.1272 107.422C67.2244 116.53 65.3521 129.703 66.8324 142.039C69.4466 163.824 64.0893 173.41 67.575 180.381C71.0607 187.353 71.9321 184.738 71.0607 189.967C70.1893 195.195 65.8321 190.838 70.1892 197.81C74.5464 204.781 77.1606 203.038 75.4178 206.524C73.675 210.01 71.0607 210.01 74.5464 214.367C78.0321 218.724 78.0321 220.467 78.9035 222.209C79.7749 223.952 82.3891 237.024 82.3891 237.024C82.3891 237.024 96.3319 232.666 104.175 234.409C104.175 234.409 97.2033 222.209 98.9461 219.595C100.689 216.981 103.303 216.109 100.689 213.495C98.0747 210.881 93.7176 211.752 98.0747 209.138C102.432 206.524 98.8687 153.442 98.8687 153.442L82.518 91.4961Z" fill="#2892F3"/>
<path d="M198.054 211.832L192.962 188.72L205.759 183.969L210.273 208.595C211.434 209.504 212.317 210.719 212.825 212.103C213.332 213.486 213.444 214.984 213.147 216.428C212.85 217.871 212.156 219.203 211.144 220.274C210.131 221.345 208.84 222.112 207.415 222.49C205.991 222.867 204.489 222.839 203.079 222.41C201.669 221.981 200.407 221.167 199.434 220.059C198.462 218.952 197.818 217.595 197.574 216.142C197.33 214.688 197.496 213.196 198.054 211.832Z" fill="#FFB6B6"/>
<path d="M146.241 72.2888L146.621 72.2342C150.151 71.7276 153.751 72.0892 157.111 73.2875C160.47 74.4858 163.486 76.4847 165.899 79.1113C172.197 85.9599 180.551 96.3162 185.596 107.669C194.507 127.72 197.918 136.846 198.494 144.619C199.07 152.392 196.983 150.593 200.409 154.638C203.835 158.683 205.346 152.709 205.173 160.928C205.001 169.147 201.863 168.989 205.145 171.09C208.427 173.192 210.672 171.853 209.909 177.381C209.147 182.908 210.039 184.405 210.183 186.348C210.327 188.292 214.775 200.858 214.775 200.858C214.775 200.858 200.568 204.255 194.724 209.768C194.724 209.768 194.465 195.719 191.629 194.366C188.793 193.013 186.101 193.603 187.008 190.019C187.915 186.435 192.104 184.952 187.023 184.938C181.941 184.924 151.41 119.362 151.41 119.362L146.241 72.2888Z" fill="#2892F3"/>
<path d="M124.937 54.596C137.734 54.596 148.108 44.2219 148.108 31.4249C148.108 18.6279 137.734 8.25391 124.937 8.25391C112.14 8.25391 101.766 18.6279 101.766 31.4249C101.766 44.2219 112.14 54.596 124.937 54.596Z" fill="#FFB6B6"/>
<path d="M151.945 23.8964C149.565 24.9817 148.023 32.8414 146.152 31.0142C144.282 29.1869 144.406 26.8091 141.884 26.1348C139.848 25.5879 137.656 26.2129 135.798 27.1986C135.467 27.3726 135.145 27.5617 134.832 27.7498C134.625 27.6115 134.419 27.4815 134.198 27.3615C132.536 26.4722 130.597 26.2541 128.779 26.752C130.215 27.233 131.464 28.1535 132.349 29.3831C131.727 29.7997 131.097 30.2175 130.453 30.5876C125.072 33.6931 117.414 26.9403 111.75 24.4034C115.298 31.0616 113.551 33.8191 110.47 40.7051L110.363 41.0972C110.538 39.3713 105.198 38.0852 105.508 40.5146C106.049 42.9752 106.905 45.3555 108.056 47.5965C102.101 40.7102 98.0309 32.2833 98.8897 23.5901C99.0767 21.764 99.0203 19.8372 99.9622 18.2522C100.905 16.6754 102.871 15.5689 104.61 16.1702C104.463 13.3978 105.069 10.6374 106.365 8.18229C107.662 5.72721 109.599 3.66925 111.971 2.2272C114.344 0.785151 117.062 0.0129198 119.839 -0.00740084C122.615 -0.0277215 125.344 0.704626 127.738 2.11179C129.961 3.41666 131.818 5.26216 133.856 6.85406C135.894 8.44594 138.244 9.83354 140.828 9.96495C142.468 10.044 144.252 9.64375 145.661 10.4929C147.292 11.4782 147.572 13.5412 147.816 15.5263C146.361 15.6698 144.982 16.2439 143.854 17.1753C145.36 17.0217 146.876 17.3468 148.186 18.1045C148.211 18.1157 148.235 18.1292 148.257 18.1448C149.12 21.4255 149.032 22.1528 151.945 23.8964Z" fill="#2F2E41"/>
<path d="M361.594 304.617H307.124C306.825 304.619 306.529 304.561 306.253 304.447C305.976 304.334 305.725 304.166 305.513 303.956C305.302 303.745 305.134 303.494 305.019 303.218C304.905 302.942 304.846 302.647 304.846 302.348C304.846 302.049 304.905 301.753 305.019 301.477C305.134 301.201 305.302 300.951 305.513 300.74C305.725 300.529 305.976 300.362 306.253 300.248C306.529 300.135 306.825 300.077 307.124 300.078H361.594C361.893 300.077 362.189 300.135 362.466 300.248C362.742 300.362 362.993 300.529 363.205 300.74C363.416 300.951 363.584 301.201 363.699 301.477C363.814 301.753 363.873 302.049 363.873 302.348C363.873 302.647 363.814 302.942 363.699 303.218C363.584 303.494 363.416 303.745 363.205 303.956C362.993 304.166 362.742 304.334 362.466 304.447C362.189 304.561 361.893 304.619 361.594 304.617Z" fill="#2892F3"/>
<path d="M70.1185 440.542C69.6647 440.562 69.2156 440.443 68.8318 440.2C68.448 439.957 68.1482 439.602 67.973 439.183C67.7978 438.764 67.7556 438.301 67.8522 437.857C67.9488 437.414 68.1795 437.01 68.513 436.702L68.6648 436.098C68.6448 436.05 68.6247 436.002 68.6045 435.954C68.1474 434.874 67.3814 433.953 66.4028 433.308C65.4242 432.662 64.2766 432.32 63.1042 432.324C61.9317 432.328 60.7867 432.679 59.8129 433.332C58.8391 433.985 58.08 434.911 57.631 435.994C55.8362 440.317 53.5511 444.647 52.9885 449.218C52.7407 451.238 52.8452 453.286 53.2974 455.27C49.082 446.075 46.8931 436.08 46.879 425.965C46.8781 423.426 47.0191 420.89 47.3014 418.367C47.5347 416.299 47.8584 414.246 48.2724 412.207C50.5318 401.146 55.3828 390.779 62.427 381.956C65.8364 380.096 68.5936 377.235 70.3271 373.76C70.9551 372.51 71.399 371.177 71.6449 369.8C71.2603 369.851 70.1947 363.993 70.4848 363.634C69.9488 362.821 68.9895 362.416 68.4041 361.623C65.4929 357.676 61.4819 358.365 59.388 363.729C54.915 365.986 54.8717 369.73 57.6163 373.331C59.3625 375.622 59.6024 378.722 61.1345 381.174C60.9768 381.376 60.8129 381.572 60.6553 381.773C57.7739 385.478 55.2626 389.457 53.1573 393.652C53.6693 388.952 53.0582 384.198 51.3744 379.781C49.6679 375.664 46.4692 372.197 43.6525 368.638C40.2691 364.363 33.3311 366.229 32.735 371.648C32.7292 371.7 32.7236 371.753 32.7181 371.805C33.1365 372.041 33.546 372.292 33.9467 372.557C34.4501 372.893 34.8402 373.374 35.0659 373.936C35.2915 374.497 35.3421 375.114 35.2112 375.705C35.0802 376.296 34.7738 376.834 34.332 377.248C33.8901 377.662 33.3336 377.933 32.7353 378.025L32.674 378.035C32.823 379.542 33.0865 381.037 33.4621 382.505C29.8485 396.479 37.65 401.569 48.7894 401.798C49.0353 401.924 49.2749 402.05 49.5209 402.17C47.4057 408.164 46.0789 414.408 45.5739 420.744C45.288 424.483 45.3049 428.238 45.6244 431.973L45.6055 431.841C44.7984 427.687 42.5825 423.939 39.332 421.23C34.5042 417.264 27.6835 415.804 22.4752 412.616C21.9217 412.26 21.2781 412.071 20.6203 412.069C19.9626 412.068 19.318 412.254 18.7628 412.607C18.2075 412.959 17.7648 413.464 17.4866 414.06C17.2085 414.656 17.1066 415.319 17.193 415.971C17.1999 416.017 17.2071 416.064 17.2143 416.11C17.9907 416.426 18.7466 416.791 19.4777 417.201C19.8961 417.437 20.3057 417.687 20.7064 417.952C21.2098 418.289 21.5998 418.769 21.8255 419.331C22.0511 419.893 22.1017 420.51 21.9708 421.101C21.8398 421.692 21.5334 422.23 21.0916 422.644C20.6498 423.058 20.0932 423.329 19.4949 423.421L19.4336 423.43C19.3894 423.437 19.3516 423.443 19.3075 423.449C20.6341 426.617 22.496 429.532 24.8117 432.068C27.0712 444.267 36.7757 445.425 47.1565 441.872H47.1628C48.3017 446.822 49.952 451.639 52.087 456.247H69.6777C69.7409 456.052 69.7976 455.85 69.8543 455.655C68.2261 455.757 66.5914 455.66 64.9869 455.365C66.292 453.763 67.5971 452.149 68.9023 450.548C68.9314 450.518 68.9587 450.486 68.9842 450.453C69.6463 449.634 70.3146 448.82 70.9766 448.001L70.9769 448C71.0122 445.487 70.7239 442.981 70.1191 440.542L70.1185 440.542Z" fill="#F2F2F2"/>
</g>
<defs>
<clipPath id="clip0_41_130992">
<rect width="487.67" height="457.946" fill="white" transform="translate(0 0.046875)"/>
</clipPath>
</defs>
</svg>
